<svg enable-background="new 0 0 512 512" viewBox="0 0 512 512" xmlns="http://www.w3.org/2000/svg"><g fill="#bababa"><path d="m128 117.333c-59.813 0-106.667-25.771-106.667-58.667v400c0 30.407 45.855 53.334 106.667 53.334s106.667-22.927 106.667-53.333v-400c0 32.896-46.854 58.666-106.667 58.666z"/><path d="m128 0c-60.812 0-106.667 22.927-106.667 53.333s45.855 53.334 106.667 53.334 106.667-22.927 106.667-53.334-45.854-53.333-106.667-53.333zm-42.667 64h-10.666c-5.896 0-10.667-4.771-10.667-10.667s4.771-10.667 10.667-10.667h10.667c5.895.001 10.666 4.772 10.666 10.667 0 5.896-4.771 10.667-10.667 10.667zm96 0h-10.667c-5.895 0-10.666-4.771-10.666-10.667s4.771-10.667 10.667-10.667h10.667c5.896 0 10.667 4.771 10.667 10.667-.001 5.896-4.772 10.667-10.668 10.667z"/><path d="m384 437.333c-59.813 0-106.667-25.771-106.667-58.667v80c0 30.407 45.855 53.334 106.667 53.334s106.667-22.927 106.667-53.333v-80c0 32.896-46.854 58.666-106.667 58.666z"/><path d="m384 426.667c60.813 0 106.667-22.927 106.667-53.333s-45.854-53.334-106.667-53.334-106.667 22.927-106.667 53.333 45.855 53.334 106.667 53.334zm42.667-64h10.667c5.896 0 10.667 4.771 10.667 10.667s-4.771 10.667-10.667 10.667h-10.667c-5.896 0-10.667-4.771-10.667-10.667s4.771-10.667 10.667-10.667zm-96 0h10.667c5.896 0 10.667 4.771 10.667 10.667s-4.771 10.667-10.667 10.667h-10.667c-5.896 0-10.667-4.771-10.667-10.667s4.771-10.667 10.667-10.667z"/></g></svg>