<svg height="256" width="256" xmlns="http://www.w3.org/2000/svg"><g fill="#bababa"><path d="m254.47008 63.628223-61.4606-61.7299178h-10.7731v82.0721828l-49.39472-49.611137-15.24395 15.310789 60.16782 60.43147-60.16782 60.43163 15.24395 15.31083 49.39472-49.61132v82.07233h10.7731l61.4606-61.73008-46.21664-46.47339zm-50.68748-20.28799 20.25344 20.342092-20.25344 20.288163zm20.25344 113.234767-20.25344 20.28815v-40.6845z" stroke-width=".963991"/><path d="m55.8 41.5h-15.6c-1.4 0-2.6 1.2-2.6 2.6v31.3c0 1.4 1.2 2.6 2.6 2.6h15.7c1.4 0 2.6-1.2 2.6-2.6v-31.3c-.1-1.4-1.2-2.6-2.7-2.6zm-7.8 15.6c-2.9 0-5.2-2.3-5.2-5.2s2.3-5.2 5.2-5.2 5.2 2.3 5.2 5.2-2.3 5.2-5.2 5.2zm-12.9-23.3 3.7 3.7c2.4-2.3 5.6-3.8 9.2-3.8s6.9 1.5 9.2 3.8l3.7-3.7c-3.3-3.3-7.9-5.3-12.9-5.3s-9.6 2-12.9 5.3zm12.9-15.8c-7.9 0-15.1 3.2-20.3 8.4l3.7 3.7c4.3-4.2 10.1-6.9 16.6-6.9s12.4 2.6 16.6 6.9l3.7-3.7c-5.2-5.2-12.4-8.4-20.3-8.4z" transform="matrix(2.9690093 0 0 3.1265424 -80.84664 12.434105)"/></g></svg>