<svg height="256" width="256" xmlns="http://www.w3.org/2000/svg"><g fill="#bababa" stroke="none" stroke-width="0" transform="matrix(.3128388 0 0 .30131776 522.60976 -181.41631)"><path d="m-906.15417 810.96514v172.33562l-20.88633 23.30214-21.03659 23.4699 21.03659 23.4698 20.88633 23.3022v172.3357 172.168h-350.86033-350.71v-171.8327-172.5034l20.8863-23.3021 21.0366-23.4699-21.0366-23.4698-20.8863-23.3022v-172.50326-172.16798h350.8603 350.86029v172.16798zm-667.61123 10.72906v145.01003l28.3994 31.68428 28.5496 31.85189-28.5496 31.8519-28.3994 31.6843v145.01 145.0101h316.7509 316.751v-145.0101-145.01l-28.3994-31.6843-28.54966-31.8519 28.54966-31.85189 28.3994-31.68428v-145.01003-145.01003h-316.751-316.7509z"/><path d="m-1319.5232 791.51871 22.0884 24.64332v58.67458 58.67458l-21.9381 24.47568-22.0885 24.64332h-58.7521-58.7522v-107.96122-107.96123h58.7522 58.7521zm-105.3332 83.3179v69.90657h34.4098 34.4099l11.2696-13.57898 11.2696-13.41133v-42.91626-43.08391l-11.4199-13.57897-11.4198-13.57897h-34.4099-34.1093z"/><path d="m-1078.8045 874.66897c21.9382 59.00986 39.8193 107.29066 39.8193 107.62594s-8.2644.50292-18.4822.50292h-18.4821l-4.8084-12.74076-4.8083-12.74077h-49.1355-49.1355l-4.5078 12.40548-4.5079 12.40549-18.7826.33528c-14.8759.16764-18.7827 0-18.3319-1.17349.3005-.83821 18.0313-48.78372 39.5187-106.45245 21.4874-57.83637 39.2182-105.61424 39.5188-106.45245.4507-1.00585 4.3575-1.34113 16.5287-1.17349l15.7775.33528zm-72.5762-3.68812c-8.8654 23.97276-16.5288 44.42504-16.8293 45.59853-.601 2.0117 1.3524 2.17934 33.6586 2.17934 27.4978 0 34.1093-.33528 33.8088-1.50877-.7513-3.35284-33.2078-89.85593-33.8088-89.85593-.4508 0-7.8136 19.78172-16.8293 43.58683z"/><g transform="matrix(1.5026137 0 0 1.6764165 -1717.8661 512.56299)"><path d="m172.3 337.1h48.8 48.9v11.2 11.3l-33.7 41.7-33.5 41.6 33.5.2 33.7.1v11.4 11.3h-48.9-48.8v-11.6l.1-11.4 33.8-41.4 33.8-41.4-33.9-.2-33.8-.2v-11.3z"/><path d="m333.6 337.1h10.2 10.1l32.2 45.8 32.1 46 .2-46 .1-45.8h11.4 11.3v64.4 64.4h-12.9-12.9l-28.7-41.7-28.7-41.6-.2 41.7-.1 41.6h-12-12.1v-64.4z"/></g></g></svg>