<svg height="256" width="256" xmlns="http://www.w3.org/2000/svg"><g transform="matrix(10.16666656683 0 0 10.16666656683 5.78769618909 6.09810569994)"><path d="m0 0h24v24h-24z" fill="none"/><path d="m2.1887365 22.943006c3.073264-3.6553 4.1299473-5.037942 4.0352754-5.28003-.06-.153514-1.1041776.67845-2.3577747 1.878663l-2.2500011 2.1542 1.6625258-1.927442c.9143906-1.060092 2.1318859-2.448647 2.7055383-3.085677.5736396-.637031 1.0429996-1.321625 1.0429996-1.521322s1.0557847-1.494193 2.3462044-2.876657l2.3462048-2.5135728-.885301-1.1971296c-.486931-.6584206-.8868583-1.3427224-.8887316-1.5206703-.0025319-.177948-.4425116-1.0888495-.9791639-2.0242247-1.0398603-1.8124526-.9612138-1.7566333 1.5829555 1.1233659.798908.9043682 1.492308 1.5332715 1.540879 1.3975632.048608-.1357073-.121521-.5288413-.37784-.8736301-.256383-.3447888-.557729-.7799513-.669666-.9670265-.381435-.637483.793679.4612981 1.480574 1.3843998.644349.8659191.677995.8803078 1.147849.4907987.266218-.2206996 1.568993-1.651275 2.895072-3.1790552 1.326066-1.5277806 2.515916-2.7777828 2.644107-2.7777828.128204 0 .671678-.3690172 1.207723-.82003813 1.110405-.93426852 1.24628-.79132429.378422.39810553-.327915.4494232-.664248 1.1108665-.747414 1.4698744l-.151204.6527415.50393-.5353261c.277168-.2944293.50393-.4148556.50393-.2676139 0 .480048-1.516765 2.3439316-3.824602 4.6998673-1.244357 1.2702934-2.262064 2.4437637-2.261558 2.6077139.000506.16395.239813.6552349.531804 1.0917439.617273.922786 2.506864 4.061916 3.139417 5.215429.239356.436507.511828 1.395639.605487 2.131402l.170281 1.337752-.888377-.657479c-.488602-.361612-1.888517-2.06054-3.110911-3.775396s-2.289078-3.112123-2.370382-3.10504c-.08126.0071-.69568.642542-1.365256 1.412129-2.0956458 2.408651-7.8084215 8.392024-9.0315625 9.459364l-1.1693682 1.02041zm14.4371705-16.0967963.455321.3791775-.455321-.3791775.455321.3791775z" fill="#bababa" stroke-width=".234972"/></g></svg>