<svg height="256" viewBox="0 0 256 256" width="256" xmlns="http://www.w3.org/2000/svg"><path d="m132.12735 42.106915c-50.010558-.0049 0 0 0 0l-50.010558-.0049-21.721525.281865c-20.473085.235336-21.91168.28191-25.171661 1.267195-7.480693 2.208332-13.232571 5.541662-18.221368 10.522055-5.514197 5.448524-8.5815318 10.615194-10.7882109 18.036747l-1.0983361 3.715693v56.60045 56.60045l1.1033401 3.66421c2.3492879 7.93872 5.6568049 13.29165 11.7464399 18.92891 5.896989 5.49509 12.371916 8.73774 20.473082 10.24018 3.500164.65687 13.760473.75246 89.375507.75246 81.55958 0 85.58764-.0466 89.75831-.89216 8.48647-1.73774 15.24661-5.40196 21.38378-11.69606 5.89699-6.05882 9.68487-13.48039 10.93332-21.46568.33526-2.2549.48036-20.66665.38279-58.24505l-.1426-54.955852-1.10334-3.522056c-4.41086-14.139698-14.43349-23.909297-29.00959-28.276937-3.40508-1.03432-3.83542-1.03432-45.64723-1.316174-14.08072-.07844-92.252708-.2402-92.252708-.2402s0 0 50.010558.0049zm55.1895 22.262246c4.31579 2.06617 7.76841 5.448523 9.87752 9.67646l1.63124 3.289216v55.191133 55.19114l-1.63124 3.24019c-2.06157 4.08579-5.75438 7.70343-9.92506 9.72304l-3.30751 1.59804h-71.68206-71.682043l-3.357556-1.59804c-4.315784-2.06618-7.768412-5.44852-9.877518-9.67647l-1.631241-3.28921v-55.19113-55.191142l1.533667-3.053927c2.73208-5.401959 6.760145-9.019603 12.321878-10.897045 2.301752-.752456 6.665073-.79902 73.408363-.705881l70.96401.09314zm41.37899 8.784302c3.64528 1.455888 6.28229 5.213234 6.32982 8.877442 0 6.154415-4.0756 10.24019-10.31034 10.24019-5.5142 0-9.10944-3.007351-10.02013-8.40685-1.29349-7.517154 6.76014-13.669109 14.00065-10.710782zm2.06157 36.120067c2.82966 1.97305 4.02807 4.41667 4.02807 8.22059s-1.19841 6.24754-4.02807 8.22058c-2.73208 1.87991-7.52822 2.2549-10.45296.79902-4.55596-2.30147-6.66507-7.04656-5.27401-11.88479.86316-2.77206 2.97227-5.30882 5.36909-6.38971.91069-.375 2.73207-.56373 4.89122-.47059 2.92723.0956 3.74035.33089 5.46666 1.5049z" fill="#bababa" stroke-width=".024763"/></svg>