<svg height="256" viewBox="0 0 256 256" width="256" xmlns="http://www.w3.org/2000/svg"><g fill="#bababa"><path d="m128 16c-61.824 0-112 50.176-112 112s50.176 112 112 112 112-50.176 112-112-50.176-112-112-112zm0 201.6c-49.392 0-89.6-40.208-89.6-89.6s40.208-89.6 89.6-89.6 89.6 40.208 89.6 89.6-40.208 89.6-89.6 89.6z"/><g fill="#bababa" transform="matrix(6.259887 0 0 5.7627119 46.576262 63.525419)"><path d="m0 0h24v24h-24z" fill="none"/><path d="m19.498305 16.918472v2.114133c0 1.655696-3.264763 2.999177-7.013456 2.999177-3.74799 0-7.0134543-1.343481-7.0134543-2.999177v-2.114133c1.6958517 1.494857 4.9129263 1.940392 7.0134543 1.940392 2.108244 0 5.321809-.449817 7.013456-1.940392zm-7.013456-2.932087c-2.108244 0-5.3218097-.449819-7.0134543-1.940395v2.093492c0 1.656554 3.2654643 2.999179 7.0134543 2.999179 3.748693 0 7.013456-1.34348 7.013456-2.999179v-2.093492c-1.695856 1.494858-4.912928 1.940395-7.013456 1.940395zm0-12.5970618c-3.74799 0-7.0134543 1.3434806-7.0134543 3.0000391 0 1.6565562 3.2654643 2.9991757 7.0134543 2.9991757 3.748693 0 7.013456-1.3434821 7.013456-2.9991757 0-1.6565585-3.264763-3.0000391-7.013456-3.0000391zm0 7.719418c-2.108244 0-5.3218097-.4498176-7.0134543-1.9403918v2.0986502c0 1.6565594 3.2654643 2.9991784 7.0134543 2.9991784 3.748693 0 7.013456-1.343481 7.013456-2.9991784v-2.0986502c-1.695856 1.4948563-4.912928 1.9403918-7.013456 1.9403918z" stroke-width=".776679"/></g></g></svg>