<svg height="256" viewBox="0 0 256 256" width="256" xmlns="http://www.w3.org/2000/svg"><path d="m128 16a112 112 0 0 0 -112 112 112 112 0 0 0 112 112 112 112 0 0 0 112-112 112 112 0 0 0 -112-112m-82.133334 74.66667h29.866671a14.933334 14.933334 0 0 1 14.933326 14.93333v14.93334c0 7.46666-5.674663 13.44-12.842663 14.48532l17.472 30.31468h-17.322663l-17.173337-29.86668v29.86668h-14.933334m74.666674-74.66667h29.86666v14.93333h-29.86666v14.93334h29.86666v14.93332h-29.86666v14.93334h29.86666v14.93334h-29.86666a14.933334 14.933334 0 0 1 -14.93334-14.93334v-44.8a14.933334 14.933334 0 0 1 14.93334-14.93333m59.73332 0h29.86668v14.93333h-29.86668v44.8h29.86668v14.93334h-29.86668a14.933334 14.933334 0 0 1 -14.93332-14.93334v-44.8a14.933334 14.933334 0 0 1 14.93332-14.93333m-119.46666 14.93333v14.93334h14.933337v-14.93334" fill="none"/><path d="m209.35593 93.55933.81356.81357-.81356-.81357c-3.76741-3.76746.77741-2.89266.77741-2.89266s61.85589 0 0 0m-164.266676 0h29.86667c8.24745 0 14.93333 6.68588 14.93333 14.93333v14.93334c0 7.46666-5.67467 13.44-12.84267 14.48532l17.472 30.31468h-17.32266l-17.17334-29.86668v29.86668h-14.93333m74.666676-74.66667h29.86666v14.93333h-29.86666v14.93334h29.86666v14.93332h-29.86666v14.93334h29.86666v14.93334h-29.86666c-8.24746.00001-14.93334-6.68588-14.93334-14.93334v-44.8c0-8.24745 6.68589-14.93333 14.93334-14.93333m59.73332 0h29.86668v14.93333h-29.86668v44.8h29.86668v14.93334h-29.86668c-8.24745 0-14.93332-6.68589-14.93332-14.93334v-44.8c0-8.24744 6.68587-14.93332 14.93332-14.93333m-119.466666 14.93333v14.93334h14.93334v-14.93334" fill="#bababa"/><ellipse cx="129.52278" cy="126.88468" fill="none" rx="112.63444" ry="112.63445" stroke="#bababa" stroke-width="19.731112"/></svg>