<svg height="60" viewBox="0 0 60 60" width="60" xmlns="http://www.w3.org/2000/svg"><g fill="#bababa" stroke="none" transform="matrix(2.50676408385 0 0 2.50676408385 9.86594626197 -704.1108119788)"><path d="m4.1529233 286.43739-.026355 2.80758h7.6078047l-.02636-2.80758h-3.7775426zm0-2.61568-.026355 1.7191h7.6078047l-.02636-1.7191h-3.7775426zm0-2.04477-.026355 1.11803h7.6078047l-.02636-1.11803h-3.7775426z"/><path d="m4.1113698 290.32023-.041857 4.44624-2.2758304.0455c-1.4766191.0295-2.2753119.0785-2.2753119.13953 0 .18245 8.2803005 9.32241 8.4268749 9.30176.079053-.0111 2.0186632-2.10281 4.3103296-4.6483 2.421339-2.68951 4.132936-4.66187 4.086056-4.70875-.04437-.0444-1.082909-.092-2.307869-.10542l-2.227255-.0243-.04186-4.44624z"/></g></svg>