<svg height="256" width="256" xmlns="http://www.w3.org/2000/svg"><g transform="matrix(3.17073172569 0 0 3.17073172569 60.58040366295 65.46658660455)"><path d="m43.105862 40.614626-21.004403-11.718702-22.35830951-12.474068 43.36271251-24.1927692" fill="none" stroke="#404040" stroke-width="10.601969"/><g fill-rule="evenodd" stroke-width="3.533958"><path d="m43.105862-18.139243a14.454237 13.82444 0 0 0 -14.454238 13.8244394 14.454237 13.82444 0 0 0 14.454238 13.8244403 14.454237 13.82444 0 0 0 14.454237-13.8244403 14.454237 13.82444 0 0 0 -14.454237-13.8244394zm-43.36271251 24.1927697a14.454237 13.82444 0 0 0 -14.45423649 13.8244393 14.454237 13.82444 0 0 0 14.45423649 13.82444 14.454237 13.82444 0 0 0 14.45423551-13.82444 14.454237 13.82444 0 0 0 -14.45423551-13.8244393zm43.36271251 24.1927703a14.454237 13.82444 0 0 0 -14.454238 13.824439 14.454237 13.82444 0 0 0 14.454238 13.82444 14.454237 13.82444 0 0 0 14.454237-13.82444 14.454237 13.82444 0 0 0 -14.454237-13.824439z"/><path d="m43.105862-18.139243a14.454237 13.82444 0 0 0 -14.454238 13.8244394 14.454237 13.82444 0 0 0 14.454238 13.8244403 14.454237 13.82444 0 0 0 14.454237-13.8244403 14.454237 13.82444 0 0 0 -14.454237-13.8244394zm-43.36271251 24.1927697a14.454237 13.82444 0 0 0 -14.45423649 13.8244393 14.454237 13.82444 0 0 0 14.45423649 13.82444 14.454237 13.82444 0 0 0 14.45423551-13.82444 14.454237 13.82444 0 0 0 -14.45423551-13.8244393zm43.36271251 24.1927703a14.454237 13.82444 0 0 0 -14.454238 13.824439 14.454237 13.82444 0 0 0 14.454238 13.82444 14.454237 13.82444 0 0 0 14.454237-13.82444 14.454237 13.82444 0 0 0 -14.454237-13.824439z" fill="#bababa"/></g></g></svg>