<svg height="256" width="256" xmlns="http://www.w3.org/2000/svg"><text transform="translate(0 208)" x="15.644737" y="23.251265"><tspan x="15.644737" y="23.251265"/></text><path d="m15.009978 114.76064c-.49905-.50287-.90735-19.017163-.90735-41.142883v-40.22858l-5.1037801-.005c-16.85273-.0155-49.9925099-9.40515-68.3119899-19.35165-25.116418-13.63684-40.510219-25.6223-55.616928-43.30277-21.93506-25.67214-34.07841-48.96533-41.98741-80.539607-4.80345-19.17626-6.00512-54.73837-2.51622-74.46228 12.21499-69.05479 60.420071-125.62159 125.220388-146.94117 14.8724-4.89309 23.09308-6.68541 41.8511299-9.1247l6.4648101-.84039v-28.71704-28.71598h-128.615678-128.61571v-11.65716-11.65713h268.799988 268.799992v11.65713 11.65716h-128.61569-128.615682v28.71598 28.71595l6.46482.84068c18.73099 2.43573 26.95841 4.225 41.63346 9.05432 55.798872 18.36253 99.841002 62.79299 118.629282 119.67523 6.51523 19.72518 8.83364 35.14255 8.83873 58.77778.0103 47.76802-15.40221 88.086697-47.93265 125.390387-14.10853 16.17873-29.40114 27.96689-52.77795 40.68347-19.645562 10.68685-52.325272 20.12318-69.751872 20.14098l-5.10382.005v41.14287 41.142853h-10.66124c-5.86375 0-11.06958-.41142-11.56863-.91427zm-.90735-267.88573v-164.57141h-3.90474c-7.7636101 0-27.30405 4.15696-39.13209 8.32481-20.70002 7.29411-42.851 20.92565-58.834835 36.2065-46.691053 44.63764-63.296123 110.86269-43.069493 171.77172 6.1934 18.650337 12.58357 30.827007 24.71997 47.104657 20.545977 27.55679 47.922878 47.30462 80.692218 58.20581 10.26396 3.41449 28.0506399 7.02073 36.46671 7.39364l3.06226.13582zm39.46937 162.564367c42.67846-6.57159 84.916752-33.98292 109.326742-70.94965 43.60045-66.028887 35.22396-151.682677-20.39079-208.506007-22.09827-22.57845-55.393292-40.28843-85.782062-45.62831-6.42206-1.1285-13.43364-2.05181-15.58127-2.05181h-3.90477v164.57141c0 130.747177.34966 164.569757 1.70127 164.563327.93569-.003 7.51958-.90397 14.63088-1.99896z" fill="#bababa" stroke-width="1.366211" transform="matrix(.41666668234 0 0 .41666668234 117.4237280407 191.35168906344)"/></svg>