<svg height="256" width="256" xmlns="http://www.w3.org/2000/svg"><path d="m337.91981-91.263916-.72571.72559q-4.17221 4.71619-15.05609 4.8976l-61.13176-.18135h-38.45677l-12.3352 13.0603h47.52681 58.77347q44.44291 0 54.05724-17.7765l4.71641-6.53017 14.87475-21.404374q8.34443-11.60916-7.98157-11.60916h-100.49559l16.68885-21.40435q9.97701-6.89295 23.21917-6.16738h40.8149 5.26059 46.80121l10.5212-13.0603h-43.17318-57.68509q-6.16765 0-12.3353.36279-5.98613.3628-11.97225 1.08837-22.13079 2.17671-33.74039 17.05094l-17.41438 23.58109q-8.52594 11.97194 6.53033 11.97194h100.49541zm-172.72953-60.222474h20.31678 11.24679q19.59118 0 12.51658 9.97661l-7.07459 9.79521-42.44756 58.952744h33.01478l54.7828-78.361774q2.17676-16.50676-18.86563-19.59047h-10.15835-59.13639-26.84718-17.77718l-13.42358 18.50211-43.173168 60.222474-14.511984 19.22766h32.289164l12.1538-15.78118q0-1.08837.72561-2.35812l44.805738-60.585264h23.58198zm-123.932928 60.585264 41.54057-60.222474v-5.44182q-1.45121-9.06962-11.60958-12.3347-3.99081-.72558-8.7072-1.08836-4.7164-.54418-10.1584-.72559h-57.6851313-24.6703807-18.865571l-14.511984 18.50211-43.173165 60.222474-14.51199 19.22766h49.340767 58.773522q44.442965 0 54.238543-18.1393zm-3.083789-66.752644q9.795578 1.08835 13.060779 6.53017l-43.1731523 60.585274q-4.534996 4.8976-15.963173 5.07899h-71.1087327l3.083789-5.44179 44.805769-60.585264 5.441991-6.16738h17.7771837 40.8149463zm73.294627 346.13426c-66.423547-8.74896-128.037889-39.80484-177.658186-89.546406-43.492904-43.60714-71.486234-94.9275803-85.971804-157.60427-3.22303-13.94905-8.86516-36.34291-8.77826-72.461304.10143-42.68734 4.70057-53.15279 11.11768-73.62736 28.55104-91.17597 80.996022-154.7652 162.361421-196.46757 72.775471-37.29894 162.325209-43.74476 240.699429-17.32409 75.13654 25.3343 143.45036 85.2226 179.16467 157.07557 59.56463 119.83456 35.60546 264.4674937-59.71686 360.532154-68.53836 69.064576-165.005 102.090416-261.21809 89.423276zm-87.688353-44.85288c-.441807-1.93375-1.426825-8.82137-2.194555-15.29618-1.260249-10.71167-.695307-12.47885 6.19982-19.40268 9.871895-9.914996 18.657405-9.929476 60.3396-.0797 17.549258 4.14271 43.384258 9.35008 57.420758 11.56629 31.73065 5.01905 109.11254 5.66364 137.22168 1.13707 22.83647-3.67196 61.02774-13.94908 70.88515-19.06229 10.7628-5.591226 47.11438-49.307006 43.78265-52.653046-.79673-.79668-12.95737 1.44128-27.03001 4.96838-48.43973 12.1674-71.26897.65182-118.67296-.78945-82.03907-2.48418-149.45487-19.80828-259.9000423-66.78318-66.1121077-28.12266-82.4590527-16.30289-99.1246877.42732-12.54451 12.59470966-12.87768 18.5553097-2.1656 38.17526 24.408171 44.70802 65.496476 86.997016 109.91645174 113.135246 16.55698426 9.73393 24.85722426 11.39246 23.32174526 4.65693zm416.684413-177.586336c1.33999-3.0853 4.05596-13.46383 6.04046-23.06015 3.2811-15.90457 3.23753-17.72966-.47801-20.56872-2.24519-1.71649-5.61307-3.12152-7.47445-3.12152-6.91691 0-46.31041-17.97593-67.46647-30.780694-40.63931-24.61004-91.83857-66.32688-164.03461-133.66052-71.02271-66.24002-92.28752-83.30335-119.621778-95.985-32.36074-15.02095-75.563927-17.64274-118.709172-7.19904-15.941369 3.86024-20.236327 6.12716-29.883721 15.75969-22.018055 21.98827-42.710669 51.07419-55.928749 78.58125-21.3155 44.37485-20.39568 76.04635 6.48953 53.1238 20.439132-17.41822 40.805824-19.44613 61.339111-22.97323 13.39914-2.29586 33.331275.7677 49.24366274 4.33101 32.83152426 7.3439 56.24743826 31.32387 141.27768626 91.93643 96.26383 68.622794 113.36411 68.564854 178.95474 94.797224 28.32644 11.32728 101.34813 4.08476 112.17619 4.31652 3.54885.0725 6.54738-1.96995 8.07558-5.49705zm-8.56822-156.945204c7.98879-7.04696 8.89418-9.01693 7.81506-17.07059-1.91219-14.35467-17.78836-50.9728-32.1217-74.1126-16.91191-27.28979-58.52167-70.122-85.10279-87.5837-39.23404-25.78333-76.62135-40.85499-121.22966-48.89416-39.74113-7.15562-121.896008-1.73822-125.213198 8.26369-.68805 2.07134 3.57794 2.96218 14.21759 2.96218 66.372838 0 123.047608 18.55532 166.011828 54.35505 25.49459 21.24227 43.35527 41.4199 72.57262 81.97072 49.1278 68.20274 68.39355 87.34469 88.51406 87.92408 3.02023.087 9.56038-3.43296 14.53619-7.81467zm0 0" fill="#bababa" stroke="#bababa" stroke-width="5.510921" transform="matrix(.38018191042 0 0 .38018191042 70.19220685102 174.85076143705)"/></svg>