<svg height="256" viewBox="0 0 256 256" width="256" xmlns="http://www.w3.org/2000/svg"><path d="m163.97813 926.44299a40.485714 40.485714 0 0 1 40.48572 40.48571c0 10.028-3.67486 19.24629-9.71657 26.34686l1.68171 1.68172h4.92057l31.14286 31.14282-9.34286 9.3429-31.14285-31.1429v-4.92054l-1.68172-1.68171c-7.10057 6.04175-16.31886 9.71655-26.34686 9.71655a40.485714 40.485714 0 0 1 -40.48571-40.4857 40.485714 40.485714 0 0 1 40.48571-40.48571m0 12.45714c-15.57142 0-28.02857 12.45715-28.02857 28.02857 0 15.57143 12.45715 28.02858 28.02857 28.02858 15.57143 0 28.02858-12.45715 28.02858-28.02858 0-15.57142-12.45715-28.02857-28.02858-28.02857z" fill="#bababa" transform="matrix(2.05504588893 0 0 2.05504572399 -237.74702493906 -1887.25750381974)"/></svg>