<svg height="256" viewBox="0 0 256 256" width="256" xmlns="http://www.w3.org/2000/svg"><g fill="#bababa"><path d="m128 16c-61.824 0-112 50.176-112 112s50.176 112 112 112 112-50.176 112-112-50.176-112-112-112zm0 201.6c-49.392 0-89.6-40.208-89.6-89.6s40.208-89.6 89.6-89.6 89.6 40.208 89.6 89.6-40.208 89.6-89.6 89.6z"/><path d="m123.20735 75.010987v65.097163c-4.36258-2.09779-9.39062-3.3937-14.7884-3.3937-16.341245 0-29.576849 11.04494-29.576849 24.68139 0 13.63649 13.235604 24.68139 29.576849 24.68139 16.3412 0 29.57683-11.0449 29.57683-24.68139v-61.703469h29.57687v-24.681384z" stroke-width="6.754622"/></g></svg>