<svg height="256" width="256" xmlns="http://www.w3.org/2000/svg"><path clip-rule="evenodd" d="m156.52169 227.3897c1.62948 5.21436 4.23665 10.4287 7.49562 14.66536h51.16581c3.58486-4.23666 5.86615-9.451 7.49562-14.66536zm108.19775-52.4694c-1.62949 1.62949-1.62949 3.91077-.3259 5.54026l.65179.65179c23.13868-19.87971 37.15225-35.19686 30.30841-47.25504-7.82153-10.75459-40.08531-5.54026-79.51883 12.05818 1.95538-3.91077 2.93307-8.47332 2.93307-13.03588 0-1.62949 0-3.25896-.3259-4.88845-.97768-5.54023-3.58486-11.08048-8.14741-15.64304-2.28128-2.28128-5.21436-4.23666-8.14743-5.54024v-.32591l2.93307-6.517927c.3259-.9777 0-2.281292-.97768-2.933082-.9777-.3259-2.28128 0-2.93307.97768l-3.25898 7.169749c-5.54025-1.62948-11.40638-1.62948-16.94664 0l-3.25896-7.169749c-.32589-.97768-1.62949-1.62947-2.93307-.97768-.97769.32589-1.62948 1.629482-.97769 2.933082l2.93306 6.517927.32591.6518c-2.93308 1.30359-5.54025 3.25897-8.14742 5.54025-5.86614 5.86614-8.47332 13.36177-8.47332 20.85739 0 4.23665.97769 8.14742 2.93307 12.05818-10.1028-4.56256-67.134746-28.02712-78.541146-12.05818-10.42869 14.66535 21.509196 40.08531 29.982516 47.58094l.65179-.65179c1.62949-1.62949 1.30359-4.23666-.32589-5.54026-4.23666-3.91076-10.7546-10.4287-15.317146-16.94664-5.86615-8.47331-6.19205-13.36177-3.25898-15.96894 9.125116-8.47331 42.692496 2.60717 53.121196 6.84383 10.10279 3.91077 20.85739 8.79922 31.93789 14.66537-53.12119 30.6343-89.295736 67.78654-80.49652 82.45191 5.21434 9.12511 27.70122 8.14741 56.38015-1.95539l-1.30358-1.62948c-.9777-1.62949-2.93308-2.28128-4.56257-1.62949-19.87971 5.86615-32.26378 8.79922-36.50044 2.60717-5.86615-10.42869 24.44226-45.95144 71.37141-73.00089l3.58487-1.95538c1.30358.6518 2.28126 1.30359 3.58485 1.95538 46.92915 27.04945 77.23756 62.8981 71.37141 73.00089-4.23666 6.51794-16.62073 3.58487-36.50044-2.60717-1.95538-.65179-3.58487.3259-4.56256 1.62949l-.97769 1.62948c28.67892 10.1028 50.83991 11.40639 56.38016 1.95539 8.47332-14.66537-27.70124-51.81761-80.82242-82.77781 37.47813-19.87971 71.3714-28.67892 83.75549-22.16099 10.7546 5.86615-8.79922 25.41995-17.59843 33.89327zm-99.07264-38.12993c-1.62949-10.75458 3.91077-21.50918 13.68767-26.07174 1.95538 11.0805-3.91077 21.50919-13.68767 26.07174zm47.90683 0c-9.7769-4.56255-15.64305-15.31714-13.68766-26.07174 9.7769 4.88845 15.31715 15.64304 13.68766 26.07174zm8.79922 60.94272c-9.7769-7.16974-20.8574-14.33947-32.58969-21.1833-11.73228 6.84383-22.81278 14.01356-32.58968 21.1833-1.95538 5.54024-2.93308 11.73228-2.60717 17.59843h70.06782c.32589-5.86615-.6518-12.05819-2.28128-17.59843zm-46.92915 56.70606c4.56256 4.56254 7.82152 8.7992 14.33946 20.5315 6.51794-11.7323 10.10281-15.96896 14.33947-20.5315z" fill="none" stroke="#bababa" stroke-width="3.258968" transform="matrix(1.04507168 0 0 1.15634849 -71.357651 -86.882926)"/></svg>