<svg height="256" width="256" xmlns="http://www.w3.org/2000/svg"><g clip-rule="evenodd" fill="#b3b3b3" fill-rule="evenodd" transform="matrix(1.19815430682 0 0 1.19813908016 -185.14021051979 -8.02572346298)"><path d="m175.15576 155.42139 75.11035-75.165531 10.93848-10.937988 10.93848 10.937988 55.44531 55.444821-.0811.27979-1.09375 3.22119-1.24121 3.14404-1.3955 3.06983-1.53614 2.99511-1.39648 2.42383-59.63965-59.639646c-26.02344 26.042966-52.0459 52.085446-78.06836 78.126956-3.00488-4.42578-5.7959-8.98438-7.98047-13.90039z" fill="#bababa"/><path d="m261.20557 18.382812c52.86718 0 95.98047 43.115235 95.98047 95.982908 0 52.86426-43.11329 95.98145-95.98047 95.98145-28.87696 0-54.83887-12.87598-72.45801-33.16797l3.3916-3.4043 2.46191-2.46289 2.4668-2.46972 2.46777-2.46778.10059-.0996c14.80273 17.52735 36.91797 28.69531 61.56934 28.69531 44.39648 0 80.60547-36.20703 80.60547-80.60449 0-44.3999-36.20899-80.607908-80.60547-80.607908-44.39844 0-80.60743 36.208008-80.60743 80.607908 0 5.97901.66504 11.80518 1.91163 17.4209l-5.34815 5.35938-7.13818 7.14404c-3.10889-9.42627-4.79932-19.48096-4.79932-29.92432 0-52.867673 43.11328-95.982908 95.98145-95.982908z" fill="#b3b3b3"/></g></svg>