<svg height="256" width="256" xmlns="http://www.w3.org/2000/svg"><g fill="#bababa" transform="matrix(5.3333333 0 0 5.3333333 0 -5356.7566)"><path d="m28.03125 1004.3622c-8.816878 4.3915-14.875 13.4811-14.875 24s6.058122 19.6085 14.875 24h5.625c-10.653463-2.7874-18.5-12.4727-18.5-24s7.846537-21.2126 18.5-24z"/><path d="m39.537542 1008.7372c-10.838588 0-19.625 8.7864-19.625 19.625s8.786412 19.625 19.625 19.625c3.035228 0 5.896993-.7125 8.462458-1.9428v-2.3378c-2.512193 1.392-5.386925 2.1732-8.462458 2.1732-9.674713 0-17.517619-7.8429-17.517619-17.5176s7.842906-17.5176 17.517619-17.5176c3.075533 0 5.950265.7812 8.462458 2.1732v-2.3378c-2.565465-1.2303-5.42723-1.9428-8.462458-1.9428z"/><path d="m41.067042 1015.7372c-6.972597 0-12.625 5.6524-12.625 12.625s5.652403 12.625 12.625 12.625c2.566399 0 4.940289-.7617 6.932958-2.0772v-2.1312c-1.883904 1.5548-4.299612 2.4819-6.932958 2.4819-6.019079 0-10.898505-4.8795-10.898505-10.8985s4.879426-10.8985 10.898505-10.8985c2.633346 0 5.049054.9271 6.932958 2.4819v-2.1312c-1.992669-1.3155-4.366559-2.0772-6.932958-2.0772z"/><path d="m41.575585 1027.965-26.96509.0002" stroke="#bababa" stroke-linecap="square" stroke-width="1.055761"/><circle cx="17.0625" cy="1030.799659" r="1.0625"/><circle cx="20.5625" cy="1039.299627" r=".6875"/><circle cx="26.6875" cy="1034.549659" r="1.0625"/></g></svg>