<svg height="256" width="256" xmlns="http://www.w3.org/2000/svg"><path d="m551.09657 858.16253c-10.35562 0-18.65879 8.30316-18.65879 18.6588v27.98819c0 10.35562 8.30317 18.6588 18.65879 18.6588h9.3294v18.65879h-83.96458v18.6588h37.31759v18.65879h-9.3294c-10.35563 0-18.65879 8.30316-18.65879 18.65872v27.98828c0 10.3556 8.30316 18.6588 18.65879 18.6588h37.3176c10.35563 0 18.65879-8.3032 18.65879-18.6588v-27.98828c0-10.35556-8.30316-18.65872-18.65879-18.65872h-9.3294v-18.65879h74.63518v18.65879h-9.3294c-10.35562 0-18.65879 8.30316-18.65879 18.65872v27.98828c0 10.3556 8.30317 18.6588 18.65879 18.6588h37.31759c10.35564 0 18.6588-8.3032 18.6588-18.6588v-27.98828c0-10.35556-8.30316-18.65872-18.6588-18.65872h-9.32939v-18.65879h37.31759v-18.6588h-83.96458v-18.65879h9.32939c10.35564 0 18.6588-8.30318 18.6588-18.6588v-27.98819c0-10.35564-8.30316-18.6588-18.6588-18.6588zm0 18.6588h37.31759v27.98819h-37.31759zm-46.64699 121.28209h37.3176v27.98828h-37.3176zm93.29398 0h37.31759v27.98828h-37.31759z" fill="#bababa" transform="matrix(1.2005062 0 0 1.2005062 -555.99485 -1014.22944)"/></svg>