<svg height="256" width="256" xmlns="http://www.w3.org/2000/svg"><g fill="#bababa" transform="matrix(.99475668 0 0 1.01256112 1.899032 1.419583)"><path d="m101.16006 231.85457c0-.29332 3.16833-17.65631 7.04073-38.58443l7.04074-38.05113-9.92211-9.64181c-7.850424-7.62866-10.302874-11.17853-11.745744-17.00172-3.43254-13.85329-1.31189-23.43829 7.298664-32.988731 7.44804-8.261026 16.03113-12.121643 26.94939-12.121643 11.17539 0 19.83077 4.006374 27.16397 12.573572 13.69365 15.997952 11.00454 36.540922-6.79013 51.871942l-7.99945 6.89194 5.52663 30.5589c3.03964 16.80741 6.15793 34.2641 6.92953 38.79267l1.40291 8.23374h-26.44757c-14.54615 0-26.44756-.23999-26.44756-.5333z" fill="#808080" fill-rule="evenodd"/><path d="m59.467896 222.24398c-31.70716-23.12475-50.8555101-65.52827-46.50186-102.97711 4.9752-42.795094 28.7518-76.554181 66.51691-94.443682 17.82077-8.44178 40.696184-12.49773 58.689114-10.40594 42.79509 4.975194 76.55417 28.7518 94.44368 66.516908 8.44178 17.820771 12.49773 40.696184 10.40594 58.689114-3.3414 28.74165-14.34384 52.11872-33.55902 71.30336-7.70718 7.69494-20.43768 17.52799-20.49752 15.83231-.0158-.44763-1.55963-11.35376-3.43073-24.23584l-3.40199-23.42197 3.38536-3.95504c1.86195-2.17527 5.21996-7.48136 7.46225-11.79131 11.06204-21.26264 11.06705-46.54714.0134-67.793598-18.67028-35.886703-62.93818-49.816505-98.883454-31.115719-35.89911 18.67677-49.81696 62.937347-31.10228 98.909317 2.24228 4.30995 5.59577 9.61076 7.45219 11.77957l3.37533 3.94331-3.31369 23.74338c-1.82253 13.05886-3.48601 23.91571-3.69663 24.12633s-3.52127-1.90591-7.357-4.70339z"/></g></svg>