<svg height="256" viewBox="0 0 67.733332 67.733335" width="256" xmlns="http://www.w3.org/2000/svg"><g fill="#bababa" transform="matrix(.80066682011 0 0 .80066682011 -82.09512010009 -87.14911915916)"><circle cx="118.58942" cy="133.04738" r="10.052169"/><circle cx="145.05559" cy="165.30467" r="10.052169"/><circle cx="171.07361" cy="140.79572" r="10.052169"/><path d="m119.23204 114.74804c-.96015 0-1.73322 1.54615-1.73322 3.46646v65.85902c0 1.92032.77307 3.46594 1.73322 3.46594.96016 0 1.73323-1.54562 1.73323-3.46594v-65.85902c0-1.92031-.77307-3.46646-1.73323-3.46646zm25.99687 0c-.96016 0-1.73323 1.54615-1.73323 3.46646v65.85902c0 1.92032.77307 3.46594 1.73323 3.46594.96015 0 1.73322-1.54562 1.73322-3.46594v-65.85902c0-1.92031-.77307-3.46646-1.73322-3.46646zm25.99686 0c-.96016 0-1.73271 1.54615-1.73271 3.46646v65.85902c0 1.92032.77255 3.46594 1.73271 3.46594.96015 0 1.73323-1.54562 1.73323-3.46594v-65.85902c0-1.92031-.77308-3.46646-1.73323-3.46646z"/></g></svg>