<svg height="60" viewBox="0 0 240 240" width="60" xmlns="http://www.w3.org/2000/svg"><path d="m149.47404 77.496015v37.505585h9.72368v18.75279h-29.17102v-75.011179h19.44734l-29.17102-37.505595-29.170986 37.505595h19.447336v75.011179h-29.171007v-19.40914c6.806552-3.46926 11.668382-10.12651 11.668382-18.09645 0-11.439193-9.626419-20.628071-21.392054-20.628071-11.862881 0-21.392072 9.188878-21.392072 20.628071 0 7.96994 4.861836 14.62719 11.668399 18.09645v19.40914a19.44734 18.752798 0 0 0 19.447345 18.75282h29.171007v28.59801c-6.90381 3.37549-11.668418 10.31404-11.668418 18.28397a21.392074 20.628078 0 0 0 21.392068 20.62808 21.392074 20.628078 0 0 0 21.39207-20.62808c0-7.96993-4.76459-14.90848-11.66839-18.28397v-28.59801h29.17102a19.44734 18.752798 0 0 0 19.44733-18.75282v-18.75279h9.72367v-37.505585z" fill="#bababa" stroke-width="1.34982"/></svg>