<svg height="60" viewBox="0 0 240 240" width="60" xmlns="http://www.w3.org/2000/svg"><path d="m166.29153 55.715254h-33.6v21.28h33.6c25.312 0 45.92 20.496 45.92 45.919996a45.92 45.92 0 0 1 -45.92 45.92h-33.6v21.28h33.6a67.2 67.2 0 0 0 67.2-67.2c0-37.183996-30.128-67.199996-67.2-67.199996m-135.520005 67.199996c0-25.423996 20.608-45.919996 45.92-45.919996h33.600005v-21.28h-33.600005a67.2 67.2 0 0 0 -67.1999996 67.199996 67.2 67.2 0 0 0 67.1999996 67.2h33.600005v-21.28h-33.600005c-25.312 0-45.92-20.608-45.92-45.92m45.92 11.2h89.600005v-22.4h-89.600005z" fill="#bababa"/></svg>