<svg height="60" viewBox="0 0 6.0006 6.0006" width="60" xmlns="http://www.w3.org/2000/svg" xmlns:xlink="http://www.w3.org/1999/xlink"><filter id="a" color-interpolation-filters="sRGB" height="1.525759" width="1.586342" x="-.293171" y="-.262879"><feGaussianBlur stdDeviation="7.6193906"/></filter><linearGradient id="b" gradientTransform="matrix(2.9016237 5.8142423 -6.984641 3.4857165 2387.9023 178.67977)" gradientUnits="userSpaceOnUse" x1="25.220379" x2="94.567612" y1="61.92226" y2="61.92226"><stop offset="0" stop-color="#4d4d4d"/><stop offset="1" stop-color="#fff"/></linearGradient><clipPath id="c"><path d="m48 32c-19.882251 0-36 16.117749-36 36s16.117749 36 36 36 36-16.117749 36-36-16.117749-36-36-36zm0 24c6.627417 0 12 5.372583 12 12s-5.372583 12-12 12-12-5.372583-12-12 5.372583-12 12-12z"/></clipPath><g transform="matrix(.07208552 .0359746 -.0359746 .07208552 1.236965 -2.139012)"><path d="m48 11.302663c-19.882251 0-36 16.117749-36 36s16.117749 36 36 36 36.000002-16.117749 36.000002-36-16.117751-36-36.000002-36zm0 24c6.627417 0 12 5.372583 12 12s-5.372583 12-12 12-12-5.372583-12-12 5.372583-12 12-12z" fill="#375ab4"/><path d="m48 35.302663c-6.627417 0-12 5.372583-12 12s5.372583 12 12 12 12-5.372583 12-12-5.372583-12-12-12zm0 7c2.761424 0 5 2.238576 5 5s-2.238576 5-5 5-5-2.238576-5-5 2.238576-5 5-5z" fill="#fff" opacity=".3"/><path d="m48.000001 52.802663a5.4999999 5.5000001 0 1 1 0-11 5.4999999 5.5000001 0 1 1 0 11z" fill="none" opacity=".6" stroke="url(#b)" stroke-linecap="round"/><path clip-path="url(#c)" d="m57.3125 33.21875-9.3125 34.78125 31.1875-18c-4.773897-8.268632-12.65254-14.310099-21.875-16.78125zm-9.3125 34.78125-31.1875 18c4.773897 8.268632 12.65254 14.3101 21.875 16.78125z" fill="#cecece" filter="url(#a)" opacity=".8" transform="translate(-.000001 -20.697337)"/><path d="m48 32.802663c-8.008129 0-14.5 6.491871-14.5 14.5s6.491871 14.5 14.5 14.5 14.5-6.491871 14.5-14.5-6.491871-14.5-14.5-14.5zm0 2.5c6.627417 0 12 5.372583 12 12s-5.372583 12-12 12-12-5.372583-12-12 5.372583-12 12-12z" opacity=".2"/></g><g fill="#bababa" fill-opacity=".941176" transform="matrix(.10105075 0 0 .10671189 1.759246 3.612758)"><path d="m2.737 8.325c-.017 0-.031.009-.042.022-1.151 1.621-1.845 2.718-2.565 4.05l-.072.147-.021.047c-.062.129-.046.272.04.408.426.666 2.813 1.444 8.144 1.444 3.975 0 8.197-.642 8.197-1.831 0-1.148-4.17-1.834-8.197-1.834-1.338 0-2.662.188-3.044.248.364-.561 1.877-2.598 1.893-2.619.007-.009.012-.019.012-.03 0-.008-.003-.016-.006-.024-.012-.016-.029-.028-.047-.028zm1.553 4.288c0-.248 1.495-.595 3.931-.595 2.435 0 3.928.347 3.928.595s-1.493.594-3.928.594c-2.436 0-3.931-.346-3.931-.594" fill="#bababa" fill-opacity=".941176"/><path d="m5.753 18.595s19.818.806 20.241-6.12c.342-5.618-13.733-5.084-13.746-5.084s-.109.009-.109.089c0 .067.05.09.101.09 3.903 0 10.254 1.55 10.047 4.909-.167 2.736-5.122 5.938-16.527 5.938-.068 0-.113.047-.113.089s.025.081.106.089" fill="#bababa" fill-opacity=".941176"/></g></svg>