<svg height="60" viewBox="0 0 246 246" width="60" xmlns="http://www.w3.org/2000/svg"><g fill="#bababa" transform="matrix(.96713229 0 0 .94762688 -.796259 -1.575528)"><path d="m140.08594 43.089844a73.361621 73.361621 0 0 1 4.57812 13.378906c.59012-.3092 1.24962-.501953 1.95703-.501953h13.78516c2.36323 0 4.29297 1.924375 4.29297 4.283203v13.386719c0 2.350018-1.92974 4.271484-4.29297 4.271484h-13.78516c-.0428 0-.0825-.0124-.125-.01367a73.361621 73.361621 0 0 1 -27.25781 52.693357v71.63086c0 2.35002-1.91561 4.27539-4.26562 4.27539h-63.083988c-2.354423 0-4.279297-1.92537-4.279297-4.27539v-60.25781a73.361621 73.361621 0 0 1 -23.609375-14.44532v114.21094c0 7.85065 6.417431 14.27344 14.263672 14.27344h195.472658c7.82807 0 14.26367-6.42775 14.26367-14.27344v-184.353513c0-7.868266-6.4356-14.283203-14.26367-14.283203zm41.625 12.876953h13.78125c2.36764 0 4.2832 1.924375 4.2832 4.283203v13.386719c0 2.350018-1.91556 4.271484-4.2832 4.271484h-13.78125c-2.36324 0-4.29297-1.921466-4.29297-4.271484v-13.386719c0-2.358828 1.92973-4.283203 4.29297-4.283203zm35.05859 0h13.7793c2.36764 0 4.2793 1.924375 4.27929 4.283203v13.386719c0 2.350018-1.91165 4.271484-4.27929 4.271484h-13.7793c-2.36764 0-4.2793-1.921466-4.2793-4.271484v-13.386719c0-2.358828 1.90726-4.283203 4.2793-4.283203zm-64.80859 36.628906c0-.00055 68.24609 0 68.24609 0 2.36764 0 4.27735 1.929736 4.27735 4.292969v105.330078c0 2.35002-1.90971 4.27539-4.27735 4.27539h-68.24609c-2.34507 0-4.29297-1.92537-4.29297-4.27539v-105.330078c0-2.363233 1.9479-4.292969 4.29297-4.292969zm-110.537112 128.587887h13.806641c2.354423 0 4.279297 1.93814 4.279297 4.28321v13.38086c0 2.36323-1.924874 4.27539-4.279297 4.27539h-13.806641c-2.336253 0-4.269531-1.91216-4.269531-4.27539v-13.38086c0-2.34507 1.928323-4.28321 4.269531-4.28321zm35.072266 0h13.792968c2.367638 0 4.279297 1.93814 4.279297 4.28321v13.38086c0 2.36323-1.907254 4.27539-4.279297 4.27539h-13.792968c-2.354423 0-4.271485-1.91216-4.271485-4.27539v-13.38086c0-2.34507 1.917062-4.28321 4.271485-4.28321zm35.066406 0h13.78516c2.36763 0 4.29296 1.93814 4.29296 4.28321v13.38086c0 2.36323-1.92533 4.27539-4.29296 4.27539h-13.78516c-2.36323 0-4.2793-1.91216-4.2793-4.27539v-13.38086c0-2.34507 1.91607-4.28321 4.2793-4.28321zm35.05859 0h13.78516c2.36323 0 4.29297 1.93814 4.29297 4.28321v13.38086c0 2.36323-1.92974 4.27539-4.29297 4.27539h-13.78516c-2.34506 0-4.27539-1.91216-4.27539-4.27539v-13.38086c0-2.34507 1.92978-4.28321 4.27539-4.28321zm35.08985 0h13.78125c2.36764 0 4.2832 1.93814 4.2832 4.28321v13.38086c0 2.36323-1.91556 4.27539-4.2832 4.27539h-13.78125c-2.36324 0-4.29297-1.91216-4.29297-4.27539v-13.38086c0-2.34507 1.92973-4.28321 4.29297-4.28321zm35.05859 0h13.7793c2.36764 0 4.2793 1.93814 4.27929 4.28321v13.38086c0 2.36323-1.91165 4.27539-4.27929 4.27539h-13.7793c-2.36764 0-4.2793-1.91216-4.2793-4.27539v-13.38086c0-2.34507 1.90726-4.28321 4.2793-4.28321z" fill="#bababa" transform="translate(-.000001)"/><path d="m73.361628 124.36776c-28.243338 0-51.23509-23.40269-51.23509-52.150842 0-28.748148 22.991752-52.150838 51.23509-52.150838 28.243352 0 51.235092 23.40269 51.235092 52.150838 0 28.748152-22.99174 52.150842-51.235093 52.150842m0-117.3393888a64.04385 65.188547 0 0 0 -64.043859 65.1885468 64.04385 65.188547 0 0 0 64.04386 65.188552 64.04385 65.188547 0 0 0 64.043862-65.188552 64.04385 65.188547 0 0 0 -64.043862-65.1885468m-12.808771 94.5234088 38.426314-29.334862-38.426314-29.33484z" fill="#bababa" stroke-width="1.008897"/></g></svg>