<svg height="128" width="128" xmlns="http://www.w3.org/2000/svg"><g transform="matrix(1.0655738 0 0 1.0655738 466.9062 -1165.5531)"><path d="m-417 1152.6122c3.79621 1 8.76977 0 8.76977 0 2.25347 3.9031 9.68191 6.5 14.86382 6.5 8.44939 0 17.11382-2.75 19.11382-6.5 0 0 34.99005 2.75 42.25259 0 10.57262-4.0034 7.28463-16.521.25-20.75s-16.25-1.25-16.25-1.25-.0274-8.6201-9.97575-12.7344c-9.94833-4.1142-18.35543 4.9844-18.35543 4.9844s-6.33785-17.7542-24.16882-15.5c-17.79816 2.25-17.25 17.25-17.25 17.25-7.28984 1.2171-13.25 7.4675-13.25 14 0 6.5324 7.61805 12.3188 14 14z" fill="#bababa"/><path d="m-559.5 208.71875c-3.73155 3.63616-9.95371 14.75994-3.875 16.40625s5.67268-11.60094 3.875-16.40625zm63.84375.375c-3.73156 3.63616-9.95371 14.75994-3.875 16.40625s5.67268-11.60094 3.875-16.40625zm25.8125.25c-3.73156 3.63616-9.95371 14.75994-3.875 16.40625s5.67268-11.60094 3.875-16.40625zm-73.28125 7.28125c-3.73156 3.63616-9.95371 14.75994-3.875 16.40625s5.67268-11.60094 3.875-16.40625zm59.8125 10.75c-3.73156 3.63616-9.95371 14.75994-3.875 16.40625s5.67268-11.60094 3.875-16.40625zm-71.25 5.5625c-3.73156 3.63616-9.95371 14.75994-3.875 16.40625s5.67268-11.60094 3.875-16.40625zm53.3125 4.90625c-3.73156 3.63616-9.95371 14.75994-3.875 16.40625s5.67268-11.60094 3.875-16.40625z" fill="#69f" transform="matrix(.93846151 0 0 .93846151 105.4088 961.40161)"/><path d="m-396 1163.3622c10.05146.4705 14.65062-1.015 21.75-4.5l-12 15.75 14 1.75-22 24.25 8.75-19.5-11.25 2.25z" fill="#fc0"/></g></svg>