<svg height="128" width="128" xmlns="http://www.w3.org/2000/svg"><g fill="#bababa" transform="matrix(1.0655738 0 0 1.0655738 823.76219 -1026.7998)"><path d="m-730.75035 975.00652c-1.0259-.006-2.07306.0466-3.1875.1875-17.79816 2.24997-17.25 17.24993-17.25 17.24993-7.28984 1.2171-13.25 7.46756-13.25 13.99995 0 6.5325 7.61805 12.3189 14 14 3.79621 1 8.75 0 8.75 0 2.25347 3.9031 9.69309 6.5 14.875 6.5 8.44939 0 17.09375-2.75 19.09375-6.5 0 0 35.01871 2.75 42.28124 0 10.57262-4.0034 7.28463-16.521.25-20.74999-7.03462-4.22896-16.24999-1.25-16.24999-1.25s-.0516-8.60446-10-12.71866c-9.94834-4.11426-18.34375 4.9687-18.34375 4.9687s-5.58019-15.59426-20.96875-15.68743z" fill="#bababa"/><path d="m-555.21875 65.875c-5.66289 2.626213-19.33505 12.312631-16.4375 15.9375 2.89747 3.624976 13.68473-10.356983 16.4375-15.9375zm86.21875 1.75c-5.66286 2.626107-19.33504 12.250131-16.4375 15.875 2.89748 3.624976 13.68474-10.29459 16.4375-15.875zm-21.78125.8125c-5.66289 2.626107-19.33505 12.312631-16.4375 15.9375 2.89747 3.624976 13.68473-10.35709 16.4375-15.9375zm-19.59375 2.6875c-5.66287 2.626213-19.36629 12.281381-16.46875 15.90625 2.89747 3.624976 13.71598-10.325733 16.46875-15.90625zm-23.15625 2.4375c-5.66289 2.626213-19.33505 12.281381-16.4375 15.90625 2.89747 3.624976 13.68473-10.325733 16.4375-15.90625zm-21.03125 12.03125c-5.66289 2.626213-19.3663 12.312631-16.46875 15.9375 2.89747 3.62498 13.71598-10.356983 16.46875-15.9375zm62.75 1.625c-5.66289 2.626213-19.33504 12.312631-16.4375 15.9375 2.89747 3.62498 13.68473-10.356983 16.4375-15.9375zm-22.46875 4.46875c-5.66289 2.626213-19.33505 12.31263-16.4375 15.9375 2.89747 3.62498 13.68473-10.356983 16.4375-15.9375zm33.8125 3.25c-5.66289 2.626213-19.3663 12.28138-16.46875 15.90625 2.89747 3.62498 13.71598-10.32573 16.46875-15.90625zm-55.6875 1.40625c-5.66287 2.626213-19.33504 12.31263-16.4375 15.9375 2.89747 3.62498 13.68474-10.35698 16.4375-15.9375z" fill="#69f" transform="matrix(.93846151 0 0 .93846151 -228.46621 967.43208)"/></g></svg>