<svg height="128" width="128" xmlns="http://www.w3.org/2000/svg"><g transform="matrix(1.0544282 0 0 1.0544282 636.11537 -1393.3557)"><path d="m-560.9569 1329.7424c-1.0259-.01-2.08634.037-3.20078.1778-17.79816 2.25-17.27833 17.2487-17.27833 17.2487-7.28983 1.2171-13.2477 7.4858-13.2477 14.0183 0 6.5324 7.63631 12.3074 14.01826 13.9886 3.79621 1 8.77253 0 8.77253 0 2.25347 3.9031 9.66619 6.4905 14.8481 6.4905 8.44939 0 17.1158-2.7405 19.11581-6.4905 0 0 34.9997 2.75 42.26224 0 10.57262-4.0034 7.27172-16.5168.23709-20.7458-7.03462-4.229-16.24103-1.2448-16.24103-1.2448s-.01-8.6-9.958-12.7142c-9.94833-4.1143-18.37489 4.9494-18.37489 4.9494s-5.56474-15.5848-20.9533-15.678zm2.1635 12.1215a1.50015 1.50015 0 0 1 1.65967 1.5411v2.7266l2.4895-1.5707a1.5040034 1.5040034 0 0 1 1.63003 2.5191l-4.11953 2.6377v5.3939l4.68263-2.7266.20746-4.8308a1.50015 1.50015 0 0 1 1.42257-1.4818 1.50015 1.50015 0 0 1 1.60039 1.6004l-.14818 2.934 2.37095-1.3633a1.5116733 1.5116733 0 1 1 1.51148 2.6081l-2.37095 1.3929 2.63769 1.3633a1.5045662 1.5045662 0 1 1 -1.39294 2.6673l-4.32699-2.2524-4.71227 2.697 4.71227 2.6969 4.32699-2.2524a1.5046017 1.5046017 0 1 1 1.39294 2.6674l-2.66733 1.3632 2.40059 1.393a1.50015 1.50015 0 1 1 -1.51148 2.5784l-2.37095-1.3633.14818 2.9637a1.5126445 1.5126445 0 0 1 -3.02296.1185l-.20746-4.8604-4.68263-2.7266v5.4532l4.11953 2.608a1.5127276 1.5127276 0 0 1 -1.63003 2.5488l-2.4895-1.6004v2.7562a1.50015 1.50015 0 1 1 -2.99333 0v-2.7858l-2.51914 1.6004a1.5002805 1.5002805 0 1 1 -1.63003-2.5192l4.14917-2.6377v-5.3939l-4.71227 2.697-.20746 4.8604a1.50015 1.50015 0 1 1 -2.96369-.1185l.11854-2.9637-2.40059 1.3633a1.50015 1.50015 0 1 1 -1.51148-2.5784l2.40059-1.393-2.63768-1.3632a1.5045993 1.5045993 0 0 1 1.39293-2.6674l4.32699 2.2524 4.68263-2.6673-4.68263-2.7266-4.32699 2.2524a1.5045662 1.5045662 0 0 1 -1.39293-2.6673l2.60805-1.3633-2.37096-1.3929a1.5116733 1.5116733 0 1 1 1.51148-2.6081l2.40059 1.3633-.11854-2.934a1.50015 1.50015 0 0 1 1.39293-1.6004 1.50015 1.50015 0 0 1 1.57076 1.4818l.20746 4.8308 4.71227 2.7266v-5.3939l-4.14917-2.6377a1.5040034 1.5040034 0 0 1 1.63003-2.5191l2.51914 1.5707v-2.7266a1.50015 1.50015 0 0 1 1.33366-1.5411z" fill="#bababa" stroke-width=".948381"/><g transform="matrix(.94838131 0 0 .94838131 -189.55715 919.46934)"><path d="m-410.53125 487.75c-5.60365 2.59874-19.11724 12.16305-16.25 15.75 2.86716 3.58706 13.52602-10.22785 16.25-15.75zm65.25 1.4375c-5.60365 2.59874-19.11724 12.16305-16.25 15.75 2.86716 3.58706 13.52602-10.22796 16.25-15.75zm20.0625.25c-5.60364 2.59874-19.14848 12.16305-16.28125 15.75 2.86717 3.58706 13.55728-10.22785 16.28125-15.75zm-40.9375 3.5c-5.60364 2.59874-19.11723 12.16305-16.25 15.75 2.86716 3.58706 13.52602-10.22785 16.25-15.75zm-22.90625 2.40625c-5.60365 2.59874-19.11724 12.1318-16.25 15.71875 2.86716 3.58706 13.52602-10.1966 16.25-15.71875zm67.78125 11.09375c-5.60365 2.59874-19.14849 12.16305-16.28125 15.75 2.86716 3.58706 13.55727-10.22785 16.28125-15.75zm-30.59375.5625c-5.60365 2.59874-19.14848 12.16305-16.28125 15.75 2.86716 3.58706 13.55727-10.22785 16.28125-15.75zm-58.03125.28125c-5.60365 2.59874-19.11724 12.16305-16.25 15.75 2.86716 3.58706 13.52602-10.22785 16.25-15.75zm22.71875 5.78125c-5.60364 2.59874-19.14848 12.16305-16.28125 15.75 2.86716 3.58706 13.55728-10.22785 16.28125-15.75z" fill="#69f"/><path d="m-383.4375 528.375c-2.52327 0-2.5181 3.1875 0 3.1875h44.34375c2.89067 0 2.89519-3.1875 0-3.1875zm-42.4375 6.34375c-2.52327 0-2.5181 3.15625 0 3.15625h44.34375c2.89067 0 2.89519-3.15625 0-3.15625zm58.53125 1.0625c-2.52327 0-2.5181 3.15625 0 3.15625h44.34375c2.89068 0 2.89519-3.15625 0-3.15625zm-36.90625 6.3125c-2.52327 0-2.5181 3.15625 0 3.15625h44.34375c2.89067 0 2.89519-3.15625 0-3.15625z" fill="#bababa"/></g></g></svg>