<svg height="128" width="128" xmlns="http://www.w3.org/2000/svg"><g transform="matrix(1.066117 0 0 1.066117 823.93444 -907.4654)"><path d="m-731.46641 861.81134c-1.0259-.006-2.10431.0466-3.21875.1875-17.79816 2.25-17.25 17.25-17.25 17.25-7.28984 1.2171-13.25 7.46752-13.25 14 0 6.5324 7.61805 12.3188 14 14 3.79621 1 8.78125 0 8.78125 0 2.25347 3.9031 9.66184 6.5 14.84375 6.5 8.44939 0 17.125-2.75 19.125-6.5 0 0 34.98746 2.75 42.25 0 10.57262-4.0034 7.28463-16.52101.25-20.75s-16.25-1.25-16.25-1.25-.0204-8.6045-9.96875-12.71875c-9.94833-4.11424-18.375 4.96875-18.375 4.96875s-5.54894-15.59433-20.9375-15.6875z" fill="#bababa"/><path d="m-557.21875-73.75c-3.73347 3.638039-9.98806 14.759099-3.90625 16.40625s5.70484-11.598467 3.90625-16.40625zm55.4375 1.0625c-3.73347 3.638039-9.98806 14.790349-3.90625 16.4375s5.70484-11.629717 3.90625-16.4375zm18.375.25c-3.73347 3.638039-9.95681 14.790349-3.875 16.4375s5.67359-11.629717 3.875-16.4375zm-38.375 2.40625c-3.73347 3.638018-9.95681 14.790349-3.875 16.4375s5.67359-11.629739 3.875-16.4375zm-20.5 6.9375c-3.73347 3.638018-9.98806 14.790349-3.90625 16.4375s5.70484-11.629739 3.90625-16.4375zm66.625 7.46875c-3.73347 3.638018-9.98806 14.759099-3.90625 16.40625s5.70484-11.598489 3.90625-16.40625zm-37.59375.53125c-3.73347 3.638018-9.95681 14.759099-3.875 16.40625s5.67359-11.598489 3.875-16.40625zm17.59375 5.3125c-3.73347 3.638018-9.98806 14.790349-3.90625 16.4375s5.70484-11.629739 3.90625-16.4375zm-35.71875 1.625c-3.73347 3.638018-9.95681 14.759099-3.875 16.40625s5.67359-11.598489 3.875-16.40625zm-25.5625.53125c-3.73347 3.638018-9.98806 14.759099-3.90625 16.40625s5.70484-11.598489 3.90625-16.40625z" fill="#69f" transform="matrix(.93798335 0 0 .93798335 -228.71256 988.75893)"/></g></svg>