<svg height="128" width="128" xmlns="http://www.w3.org/2000/svg"><g fill="#bababa" transform="matrix(1.066117 0 0 1.066117 641.45504 -425.98947)"><path d="m-560.8125 413.67516c-1.02591-.006-2.10432.0466-3.21875.1875-17.79816 2.25-17.25 17.25-17.25 17.25-7.28984 1.2171-13.25 7.46752-13.25 14 0 6.5324 7.61805 12.3188 14 14 3.79621 1 8.78125 0 8.78125 0 2.25347 3.9031 9.66184 6.5 14.84375 6.5 8.44939 0 17.125-2.75 19.125-6.5 0 0 34.98746 2.75 42.25 0 10.57262-4.0034 7.28463-16.52101.25-20.75s-16.25-1.25-16.25-1.25-.0204-8.6045-9.96875-12.71875c-9.94833-4.11424-18.375 4.96875-18.375 4.96875s-5.54894-15.59434-20.9375-15.6875z"/><path d="m-345.75-636.0625a.86857059.86857059 0 0 0 -.0312.0312.86857059.86857059 0 0 0 -.0937 0 .86857059.86857059 0 0 0 -.6875.875v2.65625l-2.375-1.5a.86877906.86877906 0 1 0 -.9375 1.4375l3.3125 2.125v4.84375l-4.21875-2.4375-.15625-3.90625a.86857059.86857059 0 0 0 -1-.84375.86857059.86857059 0 0 0 -.75.90625l.15625 2.8125-2.34375-1.3125a.86857059.86857059 0 1 0 -.875 1.5l2.34375 1.34375-2.53125 1.3125a.87416255.87416255 0 0 0 .84375 1.53125l3.46875-1.78125 4.1875 2.375-4.1875 2.4375-3.46875-1.84375a.90165863.90165863 0 1 0 -.84375 1.59375l2.5 1.28125-2.3125 1.34375a.86857059.86857059 0 1 0 .875 1.5l2.34375-1.34375-.15625 2.84375a.87555786.87555786 0 1 0 1.75.0625l.15625-3.9375 4.21875-2.40625v4.84375l-3.3125 2.09375a.87122512.87122512 0 0 0 .9375 1.46875l2.375-1.5v2.65625a.88287814.88287814 0 0 0 1.75 0v-2.65625l2.375 1.5a.87122512.87122512 0 0 0 .9375-1.46875l-3.3125-2.09375v-4.875l4.1875 2.4375.1875 3.9375a.86857059.86857059 0 1 0 1.71875-.0625l-.125-2.84375 2.34375 1.34375a.86857059.86857059 0 1 0 .84375-1.5l-2.28125-1.34375 2.5-1.28125a.90165863.90165863 0 0 0 -.84375-1.59375l-3.46875 1.84375-4.1875-2.4375 4.1875-2.375 3.46875 1.78125a.87416255.87416255 0 0 0 .84375-1.53125l-2.53125-1.3125 2.3125-1.34375a.86857059.86857059 0 1 0 -.84375-1.5l-2.34375 1.3125.125-2.8125a.86857059.86857059 0 0 0 -1.03125-.90625.86857059.86857059 0 0 0 -.6875.84375l-.1875 3.90625-4.1875 2.4375v-4.84375l3.3125-2.125a.86877906.86877906 0 1 0 -.9376-1.43745l-2.375 1.5v-2.65625a.86857059.86857059 0 0 0 -.9375-.90625zm-51.75 15.78125a.64943195.64943195 0 0 0 -.0625.0312.64943195.64943195 0 0 0 -.5.65625v1.96875l-1.78125-1.125a.65438724.65438724 0 0 0 -.71875 1.09375l2.5 1.5625v3.625l-3.15625-1.78125-.125-2.9375a.64943195.64943195 0 0 0 -.75-.625.64943195.64943195 0 0 0 -.5625.6875l.0937 2.09375-1.71875-1a.6571794.6571794 0 1 0 -.625 1.15625l1.6875.96875-1.875.96875a.67096595.67096595 0 1 0 .625 1.1875l2.625-1.375 3.09375 1.8125-3.125 1.8125-2.59375-1.34375a.64943195.64943195 0 1 0 -.625 1.125l1.90625 1-1.71875 1a.64943195.64943195 0 1 0 .625 1.125l1.71875-1-.0937 2.09375a.65699363.65699363 0 0 0 1.3125.0625l.125-2.96875 3.15625-1.78125v3.625l-2.5 1.5625a.65438724.65438724 0 0 0 .71875 1.09375l1.78125-1.125v2a.65625.65625 0 0 0 1.3125 0v-2l1.75 1.125a.65438724.65438724 0 1 0 .71875-1.0937l-2.46875-1.5625v-3.625l3.125 1.78125.125 2.96875a.65699363.65699363 0 0 0 1.3125-.0625l-.0937-2.09375 1.71875 1a.65120831.65120831 0 1 0 .65625-1.125l-1.75-1 1.90625-1a.64943195.64943195 0 1 0 -.59375-1.125l-2.59375 1.34375-3.1875-1.8125 3.125-1.8125 2.65625 1.375a.66383268.66383268 0 1 0 .59375-1.1875l-1.875-.96875 1.71875-.96875a.66475148.66475148 0 1 0 -.65625-1.15625l-1.71875 1 .0937-2.09375a.64943195.64943195 0 0 0 -.75-.6875.64943195.64943195 0 0 0 -.5625.625l-.125 2.9375-3.125 1.78125v-3.625l2.46875-1.5625a.65438724.65438724 0 0 0 -.71875-1.09375l-1.75 1.125v-1.96875a.64943195.64943195 0 0 0 -.625-.6875.64943195.64943195 0 0 0 -.125 0z" transform="matrix(.93798335 0 0 .93798335 -193.41737 1070.547)"/></g></svg>