<svg height="128" width="128" xmlns="http://www.w3.org/2000/svg"><g fill="#bababa" transform="matrix(1.066117 0 0 1.066117 641.45503 -545.82992)"><path d="m-560.8125 525.11485c-1.02591-.006-2.10432.0466-3.21875.1875-17.79816 2.25-17.25 17.25-17.25 17.25-7.28984 1.2171-13.25 7.46752-13.25 14 0 6.5324 7.61805 12.3188 14 14 3.79621 1 8.78125 0 8.78125 0 2.25347 3.9031 9.66184 6.5 14.84375 6.5 8.44939 0 17.125-2.75 19.125-6.5 0 0 34.98746 2.75 42.25 0 10.57262-4.0034 7.28463-16.52101.25-20.75s-16.25-1.25-16.25-1.25-.0204-8.6045-9.96875-12.71875c-9.94833-4.11424-18.375 4.96875-18.375 4.96875s-5.54894-15.59434-20.9375-15.6875z"/><path d="m-409.8125-497.875a.64943195.64943195 0 0 0 -.5.65625v2l-1.78125-1.125a.65438724.65438724 0 1 0 -.71875 1.09375l2.5 1.5625v3.65625l-3.15625-1.8125-.125-2.96875a.64943195.64943195 0 0 0 -.6875-.625.64943195.64943195 0 0 0 -.625.6875l.0937 2.09375-1.71875-1a.66475148.66475148 0 1 0 -.65625 1.15625l1.75 1-1.90625 1a.64943195.64943195 0 1 0 .59375 1.125l2.59375-1.375 3.15625 1.84375-3.09375 1.78125-2.65625-1.34375a.6556413.6556413 0 1 0 -.59375 1.15625l1.875.96875-1.71875 1a.65120831.65120831 0 1 0 .65625 1.125l1.71875-1-.0937 2.09375a.65699363.65699363 0 1 0 1.3125.0625l.125-2.90625 3.15625-1.8125v3.625l-2.5 1.5625a.66750029.66750029 0 1 0 .71875 1.125l1.78125-1.15625v1.96875a.65625.65625 0 0 0 1.3125 0v-1.96875l1.75 1.15625a.66750029.66750029 0 1 0 .71875-1.125l-2.46875-1.5625v-3.625l3.125 1.8125.125 2.90625a.65699363.65699363 0 1 0 1.3125-.0625l-.0937-2.09375 1.71875 1a.64943195.64943195 0 1 0 .625-1.125l-1.6875-1 1.875-.96875a.6571794.6571794 0 1 0 -.625-1.15625l-2.625 1.34375-3.125-1.78125 3.15625-1.84375 2.59375 1.375a.64943195.64943195 0 1 0 .62495-1.125l-1.90625-1 1.71875-1a.6571794.6571794 0 1 0 -.625-1.15625l-1.71875 1 .0937-2.09375a.64943195.64943195 0 0 0 -.71875-.6875.64943195.64943195 0 0 0 -.59375.625l-.125 2.96875-3.125 1.8125v-3.65625l2.46875-1.5625a.65438724.65438724 0 1 0 -.71875-1.09375l-1.75 1.125v-2a.64943195.64943195 0 0 0 -.75-.65625.64943195.64943195 0 0 0 -.0625 0zm63.9375 1.625a.86857059.86857059 0 0 0 -.6875.90625v2.625l-2.375-1.5a.87122512.87122512 0 1 0 -.9375 1.46875l3.3125 2.09375v4.875l-4.21875-2.4375-.15625-3.9375a.86857059.86857059 0 0 0 -1-.8125.86857059.86857059 0 0 0 -.75.90625l.15625 2.8125-2.34375-1.3125a.86857059.86857059 0 1 0 -.875 1.5l2.34375 1.34375-2.53125 1.3125a.87416255.87416255 0 0 0 .84375 1.53125l3.46875-1.8125 4.1875 2.40625-4.1875 2.4375-3.46875-1.84375a.88787954.88787954 0 1 0 -.84375 1.5625l2.5 1.3125-2.3125 1.34375a.86857059.86857059 0 1 0 .875 1.5l2.34375-1.34375-.15625 2.8125a.87625468.87625468 0 1 0 1.75.0937l.15625-3.9375 4.21875-2.40625v4.84375l-3.3125 2.09375a.87122512.87122512 0 0 0 .9375 1.46875l2.375-1.5v2.65625a.88287814.88287814 0 0 0 1.75 0v-2.65625l2.375 1.5a.87122512.87122512 0 1 0 .9375-1.46875l-3.3125-2.09375v-4.875l4.1875 2.4375.1875 3.9375a.86857059.86857059 0 1 0 1.71875-.0937l-.125-2.8125 2.34375 1.34375a.86857059.86857059 0 1 0 .84375-1.5l-2.28125-1.34375 2.5-1.3125a.88787954.88787954 0 0 0 -.84375-1.5625l-3.46875 1.84375-4.1875-2.4375 4.1875-2.40625 3.46875 1.8125a.87416255.87416255 0 0 0 .84375-1.53125l-2.53125-1.3125 2.3125-1.34375a.86857059.86857059 0 1 0 -.84375-1.5l-2.34375 1.3125.125-2.8125a.86857059.86857059 0 0 0 -1.03125-.90625.86857059.86857059 0 0 0 -.6875.8125l-.1875 3.9375-4.1875 2.4375v-4.875l3.3125-2.09375a.87122512.87122512 0 1 0 -.9375-1.46875l-2.375 1.5v-2.625a.86857059.86857059 0 0 0 -.96875-.90625.86857059.86857059 0 0 0 -.0937 0zm-35.59375 21.09375a.64943195.64943195 0 0 0 -.0937.0312.64943195.64943195 0 0 0 -.5.6875v1.9375l-1.78125-1.125a.65438724.65438724 0 0 0 -.71875 1.09375l2.5 1.5625v3.65625l-3.15625-1.8125-.125-2.9375a.64943195.64943195 0 0 0 -.75-.625.64943195.64943195 0 0 0 -.5625.6875l.0937 2.125-1.71875-1a.64943195.64943195 0 1 0 -.625 1.125l1.6875 1-1.875.96875a.6556176.6556176 0 0 0 .59375 1.15625l2.65625-1.375 3.09375 1.8125-3.125 1.84375-2.625-1.375a.64943195.64943195 0 1 0 -.59375 1.125l1.90625 1-1.71875 1a.64943195.64943195 0 1 0 .625 1.125l1.71875-1-.0937 2.09375a.65792198.65792198 0 0 0 1.3125.0937l.125-2.96875 3.15625-1.8125v3.625l-2.5 1.5625a.66750029.66750029 0 0 0 .71875 1.125l1.78125-1.15625v2a.65625.65625 0 0 0 1.3125 0v-2l1.75 1.15625a.66750029.66750029 0 1 0 .71875-1.125l-2.46875-1.5625v-3.625l3.125 1.8125.125 2.96875a.65792198.65792198 0 0 0 1.3125-.0937l-.0937-2.09375 1.71875 1a.64943195.64943195 0 1 0 .625-1.125l-1.71875-1 1.90625-1a.64943195.64943195 0 1 0 -.625-1.125l-2.59375 1.375-3.15625-1.84375 3.125-1.8125 2.625 1.375a.6571794.6571794 0 0 0 .625-1.15625l-1.875-.96875 1.6875-1a.64943195.64943195 0 1 0 -.625-1.125l-1.71875 1 .0937-2.125a.64943195.64943195 0 0 0 -.78125-.6875.64943195.64943195 0 0 0 -.53125.625l-.125 2.9375-3.125 1.8125v-3.65625l2.46875-1.5625a.65438724.65438724 0 0 0 -.7188-1.0937l-1.75 1.125v-1.9375a.64943195.64943195 0 0 0 -.65625-.71875.64943195.64943195 0 0 0 -.0625 0z" transform="matrix(.93798335 0 0 .93798335 -193.41737 1048.8167)"/></g></svg>