<svg height="128" width="128" xmlns="http://www.w3.org/2000/svg"><g fill="#bababa" transform="matrix(1.066117 0 0 1.066117 641.99741 -1540.6417)"><path d="m-560.8125 1453.1221c-1.0259-.01-2.10431.047-3.21875.1875-17.79816 2.25-17.25 17.25-17.25 17.25-7.28984 1.2171-13.25 7.4676-13.25 14s7.61805 12.3188 14 14c3.79621 1 8.78125 0 8.78125 0 2.25347 3.9031 9.66184 6.5 14.84375 6.5 8.44939 0 17.125-2.75 19.125-6.5 0 0 34.98746 2.75 42.25 0 10.57262-4.0034 7.28463-16.521.25-20.75s-16.25-1.25-16.25-1.25-.0204-8.6045-9.96875-12.7187c-9.94833-4.1143-18.375 4.9687-18.375 4.9687s-5.54894-15.5943-20.9375-15.6875z"/><g transform="matrix(.93798335 0 0 .93798335 -193.41737 912.81934)"><path d="m-352.125 636.5625a.64943195.64943195 0 0 0 -.15625.0312.64943195.64943195 0 0 0 -.5.65625v1.96875l-1.75-1.125a.65438724.65438724 0 0 0 -.71875 1.09375l2.46875 1.59375v3.625l-3.125-1.8125-.125-2.9375a.64943195.64943195 0 0 0 -.8125-.625.64943195.64943195 0 0 0 -.5.65625l.0937 2.15625-1.71875-1a.65709731.65709731 0 1 0 -.65625 1.125l1.71875 1-1.875.96875a.64943195.64943195 0 1 0 .625 1.125l2.59375-1.34375 3.15625 1.8125-3.125 1.8125-2.625-1.34375a.64943195.64943195 0 1 0 -.625 1.125l1.90625 1-1.75 1a.64943195.64943195 0 1 0 .65625 1.09375l1.71875-1-.0937 2.15625a.65699363.65699363 0 1 0 1.3125.0625l.125-2.96875 3.125-1.8125v3.625l-2.46875 1.59375a.65438724.65438724 0 1 0 .71875 1.09375l1.75-1.15625v2a.65625.65625 0 0 0 1.3125 0v-2l1.78125 1.15625a.65438724.65438724 0 1 0 .71875-1.09375l-2.5-1.59375v-3.65625l3.125 1.84375.125 2.96875a.65699363.65699363 0 1 0 1.3125-.0625l-.0937-2.15625 1.71875 1a.64943195.64943195 0 1 0 .65625-1.09375l-1.75-1 1.90625-1a.64943195.64943195 0 1 0 -.5938-1.12495l-2.65625 1.34375-3.125-1.8125 3.15625-1.8125 2.625 1.34375a.64943195.64943195 0 1 0 .59375-1.125l-1.875-.96875 1.71875-1a.65709731.65709731 0 1 0 -.65625-1.125l-1.71875 1 .0937-2.15625a.64943195.64943195 0 0 0 -.84375-.65625.64943195.64943195 0 0 0 -.46875.625l-.125 2.9375-3.125 1.8125v-3.625l2.5-1.59375a.65438724.65438724 0 0 0 -.71875-1.09375l-1.78125 1.125v-1.96875a.64943195.64943195 0 0 0 -.65625-.6875zm-66.6875 2.8125a.64943195.64943195 0 0 0 -.0625.0312.64943195.64943195 0 0 0 -.5.625v2l-1.78125-1.125a.64943195.64943195 0 1 0 -.6875 1.0938l2.46875 1.5625v3.625l-3.125-1.78125-.125-2.9375a.64943195.64943195 0 0 0 -.78125-.625.64943195.64943195 0 0 0 -.53125.6875l.0937 2.09375-1.71875-1a.65921947.65921947 0 0 0 -.6875 1.125l1.75 1-1.875.96875a.66383268.66383268 0 0 0 .59375 1.1875l2.625-1.375 3.15625 1.8125-3.15625 1.8125-2.625-1.375a.64989482.64989482 0 1 0 -.59375 1.15625l1.90625 1-1.78125 1a.64943195.64943195 0 1 0 .6875 1.09375l1.71875-1-.0937 2.125a.65699363.65699363 0 1 0 1.3125.0625l.125-2.96875 3.125-1.78125v3.625l-2.46875 1.5625a.64943195.64943195 0 1 0 .6875 1.09375l1.78125-1.125v2a.65625.65625 0 0 0 1.3125 0v-2l1.78125 1.125a.64943195.64943195 0 1 0 .6875-1.09375l-2.46875-1.5625v-3.65625l3.125 1.8125.125 2.96875a.65699363.65699363 0 1 0 1.3125-.0625l-.0937-2.125 1.71875 1a.64943195.64943195 0 1 0 .65625-1.09375l-1.75-1 1.90625-1a.6571794.6571794 0 1 0 -.625-1.15625l-2.59375 1.375-3.15625-1.8125 3.15625-1.8125 2.59375 1.375a.67096595.67096595 0 0 0 .625-1.1875l-1.875-.96875 1.71875-1a.65709731.65709731 0 1 0 -.65625-1.125l-1.71875 1 .0937-2.09375a.64943195.64943195 0 0 0 -.78125-.6875.64943195.64943195 0 0 0 -.53125.625l-.125 2.9375-3.125 1.78125v-3.625l2.46875-1.5625a.64943195.64943195 0 1 0 -.6875-1.09375l-1.78125 1.125v-2a.64943195.64943195 0 0 0 -.6875-.65625.64943195.64943195 0 0 0 -.0625 0zm35.46875 21.3125a.86857059.86857059 0 0 0 -.78125.90625v2.65625l-2.40625-1.53125a.87122512.87122512 0 0 0 -.9375 1.46875l3.34375 2.09375v4.90625l-4.21875-2.4375-.15625-3.9375a.86857059.86857059 0 0 0 -.90625-.84375.86857059.86857059 0 0 0 -.8125.90625l.0937 2.84375-2.28125-1.34375a.86857059.86857059 0 1 0 -.875 1.5l2.28125 1.34375-2.5 1.3125a.86857059.86857059 0 1 0 .8125 1.53125l3.46875-1.8125 4.1875 2.40625-4.1875 2.4375-3.46875-1.8125a.86857059.86857059 0 1 0 -.8125 1.53125l2.5 1.3125-2.28125 1.3125a.86857059.86857059 0 1 0 .875 1.5l2.28125-1.3125-.0937 2.8125a.86857059.86857059 0 1 0 1.71875.0625l.15625-3.90625 4.21875-2.4375v4.875l-3.34375 2.125a.87122512.87122512 0 1 0 .9375 1.46875l2.40625-1.53125v2.65625a.86857059.86857059 0 1 0 1.71875 0v-2.65625l2.40625 1.53125a.87122512.87122512 0 1 0 .9375-1.46875l-3.34375-2.125v-4.875l4.21875 2.4375.15625 3.90625a.87555786.87555786 0 1 0 1.75-.0625l-.125-2.8125 2.3125 1.3125a.86857059.86857059 0 1 0 .875-1.5l-2.3125-1.3125 2.5-1.3125a.86857059.86857059 0 1 0 -.8125-1.53125l-3.46875 1.8125-4.21875-2.40625 4.21875-2.4375 3.46875 1.8125a.86857059.86857059 0 1 0 .8125-1.53125l-2.5-1.3125 2.3125-1.34375a.86857059.86857059 0 1 0 -.875-1.5l-2.3125 1.34375.125-2.84375a.86857059.86857059 0 0 0 -.9375-.90625.86857059.86857059 0 0 0 -.8125.84375l-.15625 3.9375-4.21875 2.4375v-4.90625l3.34375-2.09375a.87122512.87122512 0 1 0 -.9375-1.46875l-2.40625 1.53125v-2.65625a.86857059.86857059 0 0 0 -.84375-.90625.86857059.86857059 0 0 0 -.0937 0z"/><path d="m-342.125 641.40625v2.78125c7.12652 0 23.28125-1.25 23.28125-1.25s-16.15473-1.53125-23.28125-1.53125zm-66.25 3.46875v2.78125c7.12652 0 23.28125-1.25 23.28125-1.25s-16.15473-1.53125-23.28125-1.53125zm66.125 2.25v2.8125c7.12652 0 23.25-1.28125 23.25-1.28125s-16.12348-1.53125-23.25-1.53125zm-66.25 3.21875v2.78125c7.12652 0 23.28125-1.25 23.28125-1.25s-16.15473-1.53125-23.28125-1.53125zm39.15625 15.875v3.09375c7.12652 0 23.3125-1.40625 23.3125-1.40625s-16.18598-1.6875-23.3125-1.6875zm1.625 5.59375v2.5625c9.3307 0 30.46875-1.15625 30.46875-1.15625s-21.13805-1.40625-30.46875-1.40625zm-1.625 5.0625v3.09375c7.12652 0 23.3125-1.375 23.3125-1.375s-16.18598-1.71875-23.3125-1.71875z"/></g></g></svg>