<svg height="128" width="128" xmlns="http://www.w3.org/2000/svg"><g fill="#bababa" transform="matrix(1.066117 0 0 1.066117 639.82791 -665.75198)"><path d="m-560.30376 634.94101c-1.02591-.006-2.10432.0466-3.21875.1875-17.79816 2.25-17.25 17.25-17.25 17.25-7.28984 1.2171-13.25 7.46752-13.25 14 0 6.5324 7.61805 12.3188 14 14 3.79621 1 8.78125 0 8.78125 0 2.25347 3.9031 9.66184 6.5 14.84375 6.5 8.44939 0 17.125-2.75 19.125-6.5 0 0 34.98746 2.75 42.25 0 10.57262-4.0034 7.28463-16.52101.25-20.75s-16.25-1.25-16.25-1.25-.0204-8.6045-9.96875-12.71875c-9.94833-4.11424-18.375 4.96875-18.375 4.96875s-5.54894-15.59434-20.9375-15.6875z"/><path d="m-415.15625-360.3125a.64943195.64943195 0 0 0 -.4375.65625v2l-1.78125-1.125a.6515843.6515843 0 1 0 -.6875 1.09375l2.46875 1.5625v3.625l-3.15625-1.78125-.125-2.9375a.64943195.64943195 0 0 0 -.78125-.625.64943195.64943195 0 0 0 -.5.65625l.0937 2.125-1.75-1a.65120831.65120831 0 1 0 -.65625 1.125l1.75.96875-1.875 1a.64990624.64990624 0 1 0 .5938 1.15625l2.625-1.34375 3.125 1.8125-3.15625 1.78125-2.59375-1.3125a.64943195.64943195 0 1 0 -.59375 1.125l1.84375.96875-1.71875 1a.65709731.65709731 0 0 0 .65625 1.125l1.75-1-.0937 2.125a.64987858.64987858 0 1 0 1.28125.0312l.125-2.9375 3.15625-1.78125v3.625l-2.46875 1.5625a.65160679.65160679 0 1 0 .6875 1.09375l1.78125-1.125v2a.64966505.64966505 0 0 0 1.28125 0v-2l1.8125 1.125a.65160679.65160679 0 1 0 .6875-1.09375l-2.5-1.5625v-3.65625l3.125 1.8125.15625 2.9375a.64987858.64987858 0 0 0 1.28125-.0312l-.0937-2.125 1.71875 1a.65921947.65921947 0 1 0 .6875-1.125l-1.75-1 1.875-.96875a.64943195.64943195 0 1 0 -.59375-1.125l-2.59375 1.3125-3.1875-1.78125 3.15625-1.8125 2.625 1.34375a.64989482.64989482 0 1 0 .59375-1.15625l-1.90625-1 1.78125-.96875a.65921947.65921947 0 1 0 -.6875-1.125l-1.71875 1 .0937-2.125a.64943195.64943195 0 0 0 -.8125-.65625.64943195.64943195 0 0 0 -.46875.625l-.15625 2.9375-3.125 1.78125v-3.625l2.5-1.5625a.6515843.6515843 0 1 0 -.6875-1.09375l-1.8125 1.125v-2a.64943195.64943195 0 0 0 -.65625-.65625.64943195.64943195 0 0 0 -.125 0 .64943195.64943195 0 0 0 -.0625 0zm82.59375 1.625a.64943195.64943195 0 0 0 -.53125.65625v2l-1.75-1.125a.65438724.65438724 0 0 0 -.71875 1.09375l2.46875 1.5625v3.65625l-3.125-1.8125-.125-2.9375a.64943195.64943195 0 0 0 -.8125-.625.64943195.64943195 0 0 0 -.5.65625l.0937 2.15625-1.71875-1a.64943195.64943195 0 1 0 -.625 1.09375l1.71875 1-1.90625 1a.64943195.64943195 0 1 0 .625 1.125l2.625-1.34375 3.125 1.8125-3.125 1.78125-2.625-1.3125a.64943195.64943195 0 1 0 -.625 1.125l1.875.96875-1.6875 1a.64943195.64943195 0 1 0 .625 1.125l1.71875-1-.0937 2.125a.65699363.65699363 0 0 0 1.3125.0625l.125-2.9375 3.125-1.8125v3.625l-2.46875 1.5625a.66750029.66750029 0 0 0 .71875 1.125l1.75-1.15625v2a.65625.65625 0 0 0 1.3125 0v-2l1.78125 1.15625a.66750029.66750029 0 1 0 .71875-1.125l-2.5-1.5625v-3.65625l3.125 1.84375.125 2.9375a.65699363.65699363 0 0 0 1.3125-.0625l-.0937-2.125 1.71875 1a.65921947.65921947 0 0 0 .6875-1.125l-1.71875-1 1.84375-.96875a.64943195.64943195 0 1 0 -.59375-1.125l-2.625 1.3125-3.125-1.78125 3.125-1.8125 2.625 1.34375a.64943195.64943195 0 1 0 .59375-1.125l-1.875-1 1.75-1a.64943195.64943195 0 1 0 -.6875-1.09375l-1.71875 1 .0937-2.15625a.64943195.64943195 0 0 0 -.8125-.65625.64943195.64943195 0 0 0 -.5.625l-.125 2.9375-3.125 1.8125v-3.65625l2.5-1.5625a.65438724.65438724 0 0 0 -.71875-1.09375l-1.78125 1.125v-2a.64943195.64943195 0 0 0 -.625-.65625.64943195.64943195 0 0 0 -.0625 0 .64943195.64943195 0 0 0 -.0937 0zm-30.46875 2.25a.86857059.86857059 0 0 0 -.0937.0312.86857059.86857059 0 0 0 -.0937 0 .86857059.86857059 0 0 0 -.6875.875v2.6875l-2.40625-1.53125a.86877906.86877906 0 1 0 -.90625 1.46875l3.3125 2.09375v4.875l-4.1875-2.40625-.15625-3.96875a.86857059.86857059 0 0 0 -1-.84375.86857059.86857059 0 0 0 -.75.9375l.0937 2.78125-2.28125-1.3125a.88180944.88180944 0 1 0 -.875 1.53125l2.3125 1.34375-2.5 1.28125a.86857059.86857059 0 1 0 .78125 1.53125l3.5-1.78125 4.1875 2.375-4.1875 2.4375-3.5-1.78125a.86857059.86857059 0 1 0 -.78125 1.53125l2.5 1.28125-2.3125 1.34375a.86857059.86857059 0 1 0 .875 1.5l2.28125-1.34375-.0937 2.84375a.87555786.87555786 0 1 0 1.75.0625l.15625-3.9375 4.1875-2.4375v4.875l-3.3125 2.09375a.86877906.86877906 0 1 0 .90625 1.46875l2.40625-1.53125v2.6875a.875.875 0 1 0 1.75 0v-2.6875l2.375 1.53125a.87122512.87122512 0 1 0 .9375-1.46875l-3.3125-2.09375v-4.875l4.21875 2.4375.125 3.9375a.87555786.87555786 0 1 0 1.75-.0625l-.0937-2.84375 2.28125 1.34375a.86857059.86857059 0 1 0 .875-1.5l-2.3125-1.34375 2.5-1.28125a.86857059.86857059 0 1 0 -.78125-1.53125l-3.46875 1.78125-4.25-2.40625 4.25-2.40625 3.46875 1.78125a.86857059.86857059 0 1 0 .78125-1.53125l-2.5-1.28125 2.3125-1.34375a.88180944.88180944 0 0 0 -.875-1.53125l-2.28125 1.3125.0937-2.78125a.86857059.86857059 0 0 0 -1-.9375.86857059.86857059 0 0 0 -.75.84375l-.125 3.9375-4.21875 2.40625v-4.84375l3.3125-2.09375a.87122512.87122512 0 1 0 -.9375-1.46875l-2.375 1.53125v-2.6875a.86857059.86857059 0 0 0 -.875-.90625zm-30.25 17.34375a.86857059.86857059 0 0 0 -.0937.0312.86857059.86857059 0 0 0 -.6875.875v2.6875l-2.375-1.53125a.87122512.87122512 0 1 0 -.9375 1.46875l3.3125 2.09375v4.875l-4.21875-2.4375-.125-3.9375a.86857059.86857059 0 0 0 -1.09375-.8125.86857059.86857059 0 0 0 -.65625.875l.0937 2.84375-2.28125-1.34375a.86857059.86857059 0 1 0 -.875 1.5l2.3125 1.34375-2.5 1.28125a.87346405.87346405 0 1 0 .78125 1.5625l3.46875-1.8125 4.21875 2.40625-4.21875 2.4375-3.46875-1.8125a.86857059.86857059 0 1 0 -.78125 1.53125l2.5 1.3125-2.3125 1.3125a.88180944.88180944 0 1 0 .875 1.53125l2.28125-1.3125-.0937 2.78125a.87625468.87625468 0 1 0 1.75.0937l.125-3.90625 4.21875-2.4375v4.84375l-3.3125 2.125a.86877906.86877906 0 1 0 .9375 1.4375l2.375-1.53125v2.6875a.875.875 0 1 0 1.75 0v-2.6875l2.40625 1.53125a.86877906.86877906 0 0 0 .9062-1.4374l-3.3125-2.125v-4.84375l4.21875 2.4375.125 3.90625a.87625468.87625468 0 1 0 1.75-.0937l-.0937-2.78125 2.28125 1.3125a.88180944.88180944 0 1 0 .875-1.53125l-2.3125-1.3125 2.5-1.3125a.86857059.86857059 0 1 0 -.7813-1.5313l-3.46875 1.8125-4.21875-2.4375 4.21875-2.40625 3.46875 1.8125a.87346405.87346405 0 1 0 .78125-1.5625l-2.5-1.28125 2.3125-1.34375a.86857059.86857059 0 1 0 -.875-1.5l-2.28125 1.34375.0937-2.84375a.86857059.86857059 0 0 0 -.84375-.9375.86857059.86857059 0 0 0 -.90625.875l-.125 3.9375-4.21875 2.4375v-4.875l3.3125-2.09375a.86877906.86877906 0 1 0 -.90625-1.46875l-2.40625 1.53125v-2.6875a.86857059.86857059 0 0 0 -.96875-.90625zm51.65625 6.78125a.64943195.64943195 0 0 0 -.5.6875v2l-1.78125-1.125a.65438724.65438724 0 1 0 -.71875 1.09375l2.5 1.5625v3.625l-3.125-1.8125-.125-2.9375a.64943195.64943195 0 0 0 -.84375-.625.64943195.64943195 0 0 0 -.46875.6875l.125 2.125-1.75-1a.64943195.64943195 0 1 0 -.65625 1.09375l1.71875 1-1.84375 1a.64943195.64943195 0 1 0 .59375 1.125l2.59375-1.34375 3.15625 1.8125-3.15625 1.8125-2.59375-1.34375a.64943195.64943195 0 1 0 -.59375 1.125l1.84375.96875-1.71875 1a.66475148.66475148 0 0 0 .65625 1.15625l1.75-1-.125 2.125a.65643599.65643599 0 1 0 1.3125.0312l.125-2.9375 3.125-1.8125v3.65625l-2.5 1.5625a.65438724.65438724 0 0 0 .71875 1.09375l1.78125-1.125v2a.65625.65625 0 0 0 1.3125 0v-2l1.78125 1.125a.6515843.6515843 0 1 0 .6875-1.09375l-2.46875-1.5625v-3.6875l3.125 1.84375.125 2.9375a.65643599.65643599 0 0 0 1.3125-.0312l-.0937-2.125 1.71875 1a.66475148.66475148 0 1 0 .65625-1.15625l-1.71875-1 1.875-.96875a.64943195.64943195 0 1 0 -.59375-1.125l-2.65625 1.34375-3.125-1.8125 3.125-1.78125 2.65625 1.3125a.64943195.64943195 0 1 0 .59375-1.125l-1.90625-1 1.75-1a.64943195.64943195 0 1 0 -.65625-1.09375l-1.71875 1 .0937-2.125a.64943195.64943195 0 0 0 -.84375-.6875.64943195.64943195 0 0 0 -.46875.625l-.125 2.9375-3.125 1.8125v-3.625l2.46875-1.5625a.65160679.65160679 0 1 0 -.6875-1.09375l-1.78125 1.125v-2a.64943195.64943195 0 0 0 -.65625-.6875.64943195.64943195 0 0 0 -.15625 0z" transform="matrix(.93798335 0 0 .93798335 -193.41737 1029.9459)"/></g></svg>