<svg height="128" width="128" xmlns="http://www.w3.org/2000/svg"><g fill="#bababa" transform="matrix(1.066117 0 0 1.066117 641.57936 -1665.0719)"><path d="m-560.92911 1571.5735c-1.0259-.01-2.10431.047-3.21875.1875-17.79816 2.25-17.25 17.25-17.25 17.25-7.28984 1.2171-13.25 7.4675-13.25 14 0 6.5324 7.61805 12.3188 14 14 3.79621 1 8.78125 0 8.78125 0 2.25347 3.9031 9.66184 6.5 14.84375 6.5 8.44939 0 17.125-2.75 19.125-6.5 0 0 34.98746 2.75 42.25 0 10.57262-4.0034 7.28463-16.521.25-20.75s-16.25-1.25-16.25-1.25-.0204-8.6045-9.96875-12.7187c-9.94833-4.1143-18.375 4.9687-18.375 4.9687s-5.54894-15.5943-20.9375-15.6875z"/><path d="m-409.53125 784.90625c-1.5613 0-4.34375 1.43867-4.34375 3 0 1.56122.5012 3.03125 2.0625 3.03125 1.56129 0 3.5625-1.47003 3.5625-3.03125 0-1.56133.28004-3-1.28125-3zm61.59375.0625c-1.56129 0-2.8125 1.25117-2.8125 2.8125 0 1.56122.87042 3.21875 3.5625 3.21875 1.5613 0 2.0625-2.96992 2.0625-4.53125 0-1.56101-1.2512-1.5-2.8125-1.5zm-32.6875 5.25c-1.5613 0-2.28125 1.46992-2.28125 3.03125 0 1.56122 1.28245 2.78125 2.84375 2.78125s3.03125-.0949 3.03125-1.65625c0-1.56122-2.03245-4.15625-3.59375-4.15625zm-16.5 16.625c-1.56129 0-1.65625 2.59492-1.65625 4.15625s1.25121 1.3125 2.8125 1.3125c1.5613 0 2.8125-1.28253 2.8125-2.84375 0-1.56133-2.40745-2.625-3.96875-2.625zm63.28125.71875c-1.5613 0-4.34375 1.43867-4.34375 3 0 1.56122.5012 3.03125 2.0625 3.03125 1.56129 0 3.5625-1.47003 3.5625-3.03125 0-1.56133.28004-3-1.28125-3zm-26.25 4.25c-1.5613 0-2.28125 1.46992-2.28125 3.03125 0 1.56122 1.28245 2.78125 2.84375 2.78125s3.03125-.0949 3.03125-1.65625c0-1.56122-2.03245-4.15625-3.59375-4.15625zm-63.28125.875c-1.56129 0-2.78125 1.25117-2.78125 2.8125 0 1.56122.87042 3.21875 3.5625 3.21875 1.5613 0 2.0625-2.96992 2.0625-4.53125 0-1.56101-1.28245-1.5-2.84375-1.5zm41.5625 7.6875c-1.5613 0-4.34375 1.43867-4.34375 3 0 1.56122.5012 3.03125 2.0625 3.03125 1.56129 0 3.5625-1.47003 3.5625-3.03125 0-1.56133.28004-3-1.28125-3z" transform="matrix(.93798335 0 0 .93798335 -193.41737 895.93628)"/></g></svg>