<svg height="128" width="128" xmlns="http://www.w3.org/2000/svg"><g transform="matrix(1.0661115 0 0 1.0661115 476.46316 -905.60116)"><path d="m-392.30732 863.33338c-1.19529 9.89838-6.90322 12.22848-14.71875 6.0625 2.68365 9.60233-1.70103 13.9245-11.28125 11.21875 6.15403 7.84441 3.76142 13.48985-6.125 14.65625 8.6875 4.89225 8.6562 11.04519-.0312 15.90625 3.68824.44538 6.3363 1.51974 7.875 3.09375.30711-.0246.5535-.0387.875-.0625 5.28891-.39215 12.42875-.625 20.3125-.625.75202 0 1.20002.0583 1.9375.0625.32923-1.65602 1.24558-2.83045 1.84375-3.28125.71282-.53721 1.16691-.69588 1.5625-.84375.79119-.29574 1.36647-.41117 2.03125-.53125 1.32956-.24017 2.90101-.41674 4.8125-.5625 3.82298-.29152 8.91682-.4375 14.5625-.4375s10.76357.14606 14.59375.4375c1.91509.14572 3.48102.32268 4.8125.5625.60683.1093 1.15557.22758 1.84375.46875-5.61581-4.50871-4.63221-9.7331 2.9375-13.96875-9.89855-1.19527-12.22845-6.90312-6.0625-14.71875-9.60248 2.68373-13.92444-1.70094-11.21875-11.28125-7.84451 6.15415-13.48975 3.76148-14.65625-6.125-4.89224 8.68748-11.04526 8.6562-15.90625-.0312z" fill="#fc0"/><path d="m-184.875-74.28125c.0282.03529.0658.08822.0937.125.0473-.0053.0772-.02571.125-.03125-.0674-.03795-.1524-.05569-.21875-.09375zm-25.53125 1.78125c-11.81844 0-21.40625.752081-21.40625 1.65625 0 .904063 9.58781 1.625 21.40625 1.625s21.40625-.720937 21.40625-1.625c0-.904169-9.58781-1.65625-21.40625-1.65625zm-28.53125 5.96875c-16.59678 0-30.03125 1.011392-30.03125 2.25 0 1.238502 13.43447 2.21875 30.03125 2.21875s30.09375-.980248 30.09375-2.21875c0-1.238608-13.49697-2.25-30.09375-2.25zm29.53125 6.625c-21.19762 0-38.375 1.643325-38.375 3.65625 0 2.012819 17.17738 3.625 38.375 3.625s38.375-1.612181 38.375-3.625c0-2.012925-17.17738-3.65625-38.375-3.65625zm-29.78125 10.34375c-24.47569 0-44.3125 1.535144-44.3125 3.46875s19.83681 3.53125 44.3125 3.53125 44.34375-1.597644 44.34375-3.53125-19.86806-3.46875-44.34375-3.46875zm25.8125 9.96875c-16.33958 0-29.59375 1.173715-29.59375 2.65625 0 1.482428 13.25417 2.6875 29.59375 2.6875 16.33959 0 29.59375-1.205072 29.59375-2.6875 0-1.482535-13.25416-2.65625-29.59375-2.65625z" fill="#bababa" transform="matrix(.93798819 0 0 .93798819 -173.7131 988.75909)"/></g></svg>