<svg height="128" width="128" xmlns="http://www.w3.org/2000/svg"><path d="m48.598697 29.50865c-16.527429 0-29.917749.728368-29.917749 1.632484s13.39032 1.632483 29.917749 1.632483c16.527415 0 29.95107-.728367 29.95107-1.632483s-13.423655-1.632484-29.95107-1.632484zm21.188966 6.429985c-19.98265 0-36.181155 1.18283-36.181155 2.665279 0 1.48246 16.198505 2.698595 36.181155 2.698595 19.98264 0 36.181157-1.216135 36.181157-2.698595 0-1.482449-16.198517-2.665279-36.181157-2.665279zm-27.052575 11.160855c-19.76581 0-35.78137 1.086357-35.78137 2.432067 0 1.345721 16.01556 2.432067 35.78137 2.432067 19.765799 0 35.814679-1.086346 35.814679-2.432067 0-1.34571-16.04888-2.432067-35.814679-2.432067zm36.714211 9.46174c-24.141744 0-43.710571 2.071902-43.710571 4.630922 0 2.55903 19.568827 4.630921 43.710571 4.630921 24.141731 0 43.710571-2.071891 43.710571-4.630921 0-2.55902-19.56884-4.630922-43.710571-4.630922zm-35.381571 12.926602c-22.2682 0-40.31235 1.880311-40.31235 4.231055 0 2.350883 18.04415 4.264446 40.31235 4.264446 22.268186 0 40.345652-1.913563 40.345652-4.264446 0-2.350744-18.077466-4.231055-40.345652-4.231055zm26.885995 12.793316c-21.561786 0-39.046335 1.501832-39.046335 3.364861 0 1.863137 17.484549 3.364968 39.046335 3.364968 21.561774 0 39.046327-1.501831 39.046327-3.364968 0-1.863029-17.484553-3.364861-39.046327-3.364861zm-13.426342 10.661115c-20.729103 0-37.547113.99351-37.547113 2.232118 0 1.238502 16.81801 2.232224 37.547113 2.232224 20.729099 0 37.547114-.993722 37.547114-2.232224 0-1.238608-16.818015-2.232118-37.547114-2.232118z" fill="#bababa" stroke-width="1.066111"/></svg>