<svg height="128" width="128" xmlns="http://www.w3.org/2000/svg"><g transform="matrix(1.0661115 0 0 1.0661115 310.02502 -909.20534)"><path d="m-215.1963 867.04209c-22.09139 0-40 17.90861-40 40 0 3.49672.46957 6.8923 1.3125 10.125 4.66551-.23846 10.23008-.375 16.25-.375.54549 0 .86826.029 1.40625.0312.42315-1.63712 1.44837-2.69341 2.0625-3.15625.77596-.5848 1.26623-.74878 1.6875-.90625.84254-.31494 1.4448-.40838 2.125-.53125 1.3604-.24574 2.95405-.41602 4.875-.5625 1.33449-.10176 2.86073-.17897 4.46875-.25-.15693-1.43904-.25-2.89406-.25-4.375 0-16.02235 9.45833-29.83348 23.0625-36.21875-5.15307-2.41865-10.93096-3.78125-17-3.78125z" fill="#aca793"/><path d="m-66.4375-72.5c-11.818443 0-21.375.752081-21.375 1.65625 0 .904063 9.556557 1.625 21.375 1.625s21.4375-.720937 21.4375-1.625c0-.904169-9.619057-1.65625-21.4375-1.65625zm-28.53125 5.96875c-16.59678 0-30.03125 1.011392-30.03125 2.25 0 1.238502 13.43447 2.21875 30.03125 2.21875 16.596776 0 30.09375-.980248 30.09375-2.21875 0-1.238608-13.496974-2.25-30.09375-2.25zm29.53125 6.625c-21.197623 0-38.375 1.643325-38.375 3.65625 0 2.012819 17.177377 3.625 38.375 3.625s38.375-1.612181 38.375-3.625c0-2.012925-17.177377-3.65625-38.375-3.65625zm-29.78125 10.34375c-24.47569 0-44.3125 1.535144-44.3125 3.46875s19.83681 3.53125 44.3125 3.53125c24.475692 0 44.34375-1.597644 44.34375-3.53125s-19.868058-3.46875-44.34375-3.46875zm25.8125 9.96875c-16.339577 0-29.59375 1.173715-29.59375 2.65625 0 1.482428 13.254173 2.6875 29.59375 2.6875 16.339587 0 29.59375-1.205072 29.59375-2.6875 0-1.482535-13.254163-2.65625-29.59375-2.65625z" fill="#bababa" transform="matrix(.93798819 0 0 .93798819 -153.65456 988.75934)"/></g></svg>