<svg height="128" width="128" xmlns="http://www.w3.org/2000/svg"><g fill="none" stroke="#bababa" stroke-linecap="round" stroke-width="7" transform="translate(775.9677 -396.58781)"><path d="m-660.88509 457.70973h-74.5c-4.73778 0-9.55528-.082-14.07087-1.51582-4.5156-1.43386-8.66576-4.28278-11.15527-8.31377-2.4895-4.03099-3.18182-9.15622-1.71647-13.66169s5.03932-8.26012 9.44261-10.00872c2.93149-1.16413 6.19956-1.46573 9.29459-.85775 3.09503.60797 6.00617 2.12338 8.27947 4.30993 2.2733 2.18654 3.90078 5.03654 4.62867 8.10558.72789 3.06905.55362 6.34637-.49562 9.32092"/><path d="m-660.88509 470.9877h-54c-3.01107 0-6.03757.0215-9.00659.52298-2.96902.50149-5.87922 1.49016-8.41049 3.12088s-4.66279 3.9038-6.02049 6.59141c-1.35769 2.68761-1.92744 5.77586-1.56243 8.76473.51279 4.19892 2.91362 8.13089 6.41446 10.50533 3.50085 2.37443 8.04196 3.15079 12.1328 2.07425 4.09083-1.07653 7.66157-3.98759 9.54018-7.77767s2.03302-8.39449.41256-12.30191"/><path d="m-660.88509 443.70973h-36c-3.75309 0-7.5936-.0842-11.10123-1.4192-1.75382-.66749-3.40177-1.63324-4.78549-2.90082-1.38371-1.26757-2.49687-2.83672-3.19028-4.58045-.69342-1.74374-.9623-3.65718-.75466-5.52221.20764-1.86502.89172-3.67511 1.97047-5.2106s2.54806-2.79235 4.22658-3.63138c1.67853-.83904 3.56153-1.26012 5.43791-1.23534 3.25945.043 6.47802 1.47182 8.69624 3.8604 2.21822 2.38859 3.40538 5.7039 3.20756 8.95762"/></g></svg>