<svg height="128" width="128" xmlns="http://www.w3.org/2000/svg"><g transform="matrix(1.066117 0 0 1.066117 823.35961 -1277.5928)"><path d="m-719.28125 1207.0678c-1.19528 9.8983-6.90322 12.2284-14.71875 6.0625 2.68365 9.6023-1.70102 13.9246-11.28125 11.2188 6.15403 7.8444 3.76142 13.4898-6.125 14.6562.95901.5401 1.78465 1.1202 2.53125 1.6875 2.72472-2.1632 5.89367-3.784 9.25-4.75v-.6562a7.0183791 7.0183791 0 0 1 4.5-6.5625c2.96664-1.1442 6.40424-2.0433 10.40625-2.8438 4.11714-.8233 8.10564-1.2811 11.96875-1.2812 8.59585.0001 16.31759 2.1932 22.15625 7.0937 5.75439 4.8302 8.98206 12.052 9 19.6563 1.57322 1.6372 2.87935 3.5682 3.75 5.7187 1.56063-.9399 3.6756-1.619 6.375-1.9375-8.68766-4.8923-8.65617-11.0451.0312-15.9062-9.89855-1.1953-12.22846-6.9032-6.0625-14.7188-9.60248 2.6837-13.92444-1.7009-11.21875-11.2812-7.84452 6.1542-13.48975 3.7615-14.65625-6.125-4.89224 8.6875-11.04526 8.656-15.90625-.031z" fill="#fc0"/><path d="m-516.03125 318.53125c-3.55107.00011-7.33611.42353-11.3125 1.21875-3.97644.79532-7.25446 1.65762-9.84375 2.65625v11.34375h.5625c2.07142-1.29459 4.89921-2.58595 8.46875-3.84375 3.56951-1.25759 7.31756-1.87489 11.3125-1.875 4.47575.00011 8.13899 1.00969 10.96875 3.0625 2.82969 2.05302 4.24996 5.19518 4.25 9.375-.00004 3.18119-.59761 5.75969-1.78125 7.8125-1.18372 2.05302-2.85462 4.04526-5 5.96875-1.77555 1.66453-4.05105 3.34132-6.84375 4.96875-2.79277 1.62764-5.37693 3.10018-7.78125 4.46875v16.9375h9.9375v-12.46875c3.03313-1.73841 5.89345-3.55664 8.59375-5.40625 2.70022-1.84939 5.08476-3.82904 7.15625-5.9375 2.10837-2.18234 3.79905-4.70146 5.09375-7.53125 1.2946-2.82969 1.93745-6.03113 1.9375-9.65625-.00005-6.32517-2.30105-11.41572-6.90625-15.28125-4.60529-3.86542-10.8597-5.81239-18.8125-5.8125zm-7.5 72.5625v11.75h11.28125v-11.75z" fill="#c00" transform="matrix(.93798335 0 0 .93798335 -228.71256 932.87243)"/><path d="m-740.40109 1244.6787c-12.44971 4.2007-12.01791 16.063-12.01791 16.063-7.28984 1.2171-13.24901 7.4786-13.24901 14.0111 0 6.5324 7.62917 12.3006 14.01112 13.9818 3.79621 1 8.7936 0 8.7936 0 2.25346 3.9031 9.64995 6.5073 14.83186 6.5073.52809 0 1.02536-.01 1.55353-.029a7.0183791 7.0183791 0 0 1 -.64486-2.9605v-15.8871a7.0183791 7.0183791 0 0 1 3.54675-6.0969c2.227-1.2677 4.6641-2.6733 7.26937-4.1916 2.27304-1.3247 3.95683-2.5938 5.1296-3.6933a7.0183791 7.0183791 0 0 1 .11724-.088c1.56995-1.4075 2.61904-2.7177 3.28295-3.8692.26159-.4537.54779-1.2583.67417-2.5501-2.43387 1.551-3.89849 3.1071-3.89849 3.1071s-1.68769-4.6842-5.74515-8.9402c-2.03428.1868-3.94422.6053-5.80377 1.2604-3.03482 1.0693-5.28982 2.1044-6.56589 2.9019a7.0183791 7.0183791 0 0 1 -3.72262 1.0845h-.52761a7.0183791 7.0183791 0 0 1 -7.03488-7.0055v-3.6054zm56.748 17.9096c-.33272 1.0863-.72886 2.1612-1.2018 3.195-1.52301 3.3288-3.52164 6.3928-6.06758 9.0281a7.0183791 7.0183791 0 0 1 -.0879.029c-2.30194 2.3431-4.8801 4.4617-7.73837 6.4193-1.58874 1.0882-3.332 2.105-5.01235 3.1364v4.7192c9.87064.6388 31.52941 1.7318 37.10897-.381 10.57262-4.0034 7.26913-16.5239.2345-20.7529-7.03464-4.229-16.23884-1.2311-16.23884-1.2311s-.036-1.8032-.99661-4.1623z" fill="#bababa" stroke-width=".937983"/></g></svg>