<svg height="128" width="128" xmlns="http://www.w3.org/2000/svg"><path d="m43.563296 26.628829c-1.093729-.0064-2.243441.04968-3.431564.199897-18.974921 2.398763-18.390518 18.390518-18.390518 18.390518-7.771827 1.297571-14.1260474 7.961229-14.1260474 14.925638 0 6.964303 8.1217304 13.133282 14.9256344 14.925638 4.047204 1.066117 9.36184 0 9.36184 0 1.105532 1.914821 3.359143 3.539914 6.030225 4.730894 1.563268-2.794324 3.905272-5.136509 6.896444-6.430018 3.309238-7.775682 11.221617-14.575738 20.289539-14.026102 6.648348-.349078 13.121299 2.986524 17.324401 7.995878 7.723784-2.497752 19.1407-.562953 22.45508 7.895929 2.20868-.449614 4.38508-.279771 6.43002.333161.72302-.142209 1.33534-.31153 1.83239-.499742 11.27165-4.268093 7.76627-17.613319.26653-22.121928s-17.324396-1.332646-17.324396-1.332646-.02175-9.173457-10.627853-13.559676c-10.606084-4.386325-19.5899 5.297269-19.5899 5.297269s-5.91582-16.62538-22.321825-16.72471zm22.255192 39.113167c-.728818-.0043-1.507095.03369-2.298814.133265-12.644148 1.590668-12.260346 12.193713-12.260346 12.193713-5.178844.860357-9.395156 5.276554-9.395156 9.894898 0 4.618206 5.39436 8.706392 9.928215 9.894899 2.696903.706942 6.230121 0 6.230121 0 1.600902 2.759319 6.879898 4.597639 10.561221 4.597639 6.002612 0 12.172157-1.94653 13.592992-4.597639 0 0 24.858409 1.944171 30.017849 0 7.511-2.830328 5.16412-11.669418.16658-14.659109-4.99753-2.989712-11.52739-.899536-11.52739-.899536s-.0289-6.086675-7.096333-8.995362c-7.067481-2.908581-13.026617 3.531512-13.026617 3.531512s-3.959995-11.028415-14.892322-11.09428z" fill="#bababa" stroke-width="1.066117"/></svg>