<svg height="128" width="128" xmlns="http://www.w3.org/2000/svg"><g transform="matrix(1.0661171 0 0 1.0661171 311.10856 -549.35831)"><path d="m-224.35923 528.82735c-19.73456 0-36.10105 14.29602-39.375 33.09375 3.67167-1.78233 7.73959-2.76222 11.8125-2.65625 8.17361-.33109 16.26114 3.50152 21.5625 9.6875-.00013-.042 0-.083 0-.125 0-16.01133 9.41094-29.7964 23-36.1875-5.16024-2.42692-10.91994-3.8125-17-3.8125z" fill="#aca793"/><path d="m-250.95298 565.80489c-1.0259-.01-2.10431.047-3.21875.1875-17.79816 2.25-17.25 17.25002-17.25 17.25002-7.28985 1.2171-13.25 7.4675-13.25 14 0 6.5324 7.61805 12.3188 14 14 3.7962 1 8.78125 0 8.78125 0 2.25346 3.9031 9.66184 6.5 14.84375 6.5 8.44939 0 17.125-2.75 19.125-6.5 0 0 34.98746 2.75 42.24999 0 10.57262-4.0034 7.28463-16.521.25-20.75-7.03462-4.229-16.24999-1.25-16.24999-1.25s-.0204-8.6358-9.96875-12.75002c-9.94833-4.1143-18.375 5.00002-18.375 5.00002s-5.54894-15.59442-20.9375-15.68752z" fill="#bababa"/></g></svg>