<svg height="128" width="128" xmlns="http://www.w3.org/2000/svg"><g transform="matrix(1.0661115 0 0 1.0661115 310.21211 -670.54774)"><path d="m-233.08598 646.29466c-22.09139 0-40 17.90861-40 40 0 8.76422 2.81343 16.87822 7.59375 23.46872 1.36173-3.3387 3.82976-6.2204 7.25-7.6875 3.12768-7.278 10.5594-13.71101 19.09375-13.24997.0416-.002.0834.002.125 0-.0524-.83828-.0625-1.67976-.0625-2.53125 0-16.01133 9.41094-29.7964 23-36.1875-5.16024-2.42692-10.91994-3.8125-17-3.8125z" fill="#aca793"/><path d="m-236.81294 695.2271c-.68362 0-1.41363.032-2.15625.125-11.86 1.492-11.5 11.4375-11.5 11.4375-4.85767.807-8.8125 4.9493-8.8125 9.2812 0 4.3318 5.05982 8.1665 9.3125 9.2813 2.52965.6631 5.84375 0 5.84375 0 1.50162 2.5882 6.45323 4.3125 9.90625 4.3125 5.63035 0 11.41728-1.8258 12.75-4.3125 0 0 23.31678 1.8236 28.15625 0 7.04519-2.6548 4.84386-10.9457.15625-13.75-4.6876-2.8043-10.8125-.8438-10.8125-.8438s-.0271-5.7092-6.65625-8.4375c-6.62918-2.7282-12.21875 3.3125-12.21875 3.3125s-3.71441-10.3444-13.96875-10.4062z" fill="#bababa"/></g></svg>