<svg height="128" width="128" xmlns="http://www.w3.org/2000/svg"><path d="m56.722407 21.355772c-1.274313 10.552777-7.359602 13.036923-15.691829 6.463301 2.86107 10.237155-1.813488 14.84507-12.02707 11.960439 6.560882 8.363015 4.010093 14.381684-6.529934 15.625196 9.261844 5.215684 9.228528 11.775436-.0333 16.957858 10.552789 1.274323 13.036914 7.35958 6.463302 15.691879 10.237165-2.861121 14.845027 1.81335 11.960438 12.027025 8.363006-6.560965 14.38161-4.010185 15.625197 6.52993 5.215631-9.262165 11.775372-9.228475 16.957836.0331 1.274214-10.552955 7.359514-13.036995 15.691826-6.46335-2.861188-10.237235 1.813392-14.845074 12.027067-11.960495-6.561018-8.363112-4.010154-14.381525 6.52994-15.625144-9.262018-5.215812-9.228553-11.775436.03326-16.957911-10.552959-1.274291-13.036892-7.359495-6.4633-15.691828-10.237316 2.861155-14.845008-1.813392-11.960441-12.027071-8.363122 6.56101-14.381577 4.010157-15.625196-6.529933-5.215674 9.261823-11.775479 9.228528-16.957836-.03326z" fill="#fc0" stroke-width="1.066111"/></svg>