<svg height="128" width="128" xmlns="http://www.w3.org/2000/svg"><g transform="matrix(1.0661115 0 0 1.0661115 311.37845 -789.60186)"><path d="m-230.99416 756.40525c-22.09139 0-40 17.90861-40 40 0 13.85642 7.04578 26.04062 17.75 33.21872.66064-3.8277 2.84749-7.405 6.5-9.25 2.69155-4.5713 6.73854-9.2067 11.96875-10.8125-1.43386-4.1192-2.21875-8.5488-2.21875-13.15622 0-16.01133 9.41094-29.7964 23-36.1875-5.16024-2.42692-10.91994-3.8125-17-3.8125z" fill="#aca793"/><path d="m-231.58288 815.47651c-.29437.018-.59961.055-.90625.094-9.79426 1.2321-9.46875 9.4375-9.46875 9.4375-4.01157.6664-7.3125 4.1101-7.3125 7.6875 0 3.5773 4.20678 6.7355 7.71875 7.6562 2.08904.5476 4.8125 0 4.8125 0 1.24007 2.1373 5.33592 3.5625 8.1875 3.5625 4.64968 0 9.43066-1.509 10.53125-3.5625 0 0 19.25345 1.5059 23.25 0 5.81808-2.1924 3.99614-9.0279.125-11.3437-3.87113-2.3159-8.9375-.6875-8.9375-.6875s-.0255-4.7469-5.5-7c-5.47453-2.253-10.09375 2.75-10.09375 2.75s-3.28081-9.1458-12.40625-8.5938z" fill="#bababa"/></g></svg>