<svg height="128" width="128" xmlns="http://www.w3.org/2000/svg"><g transform="matrix(1.0661115 0 0 1.0661115 474.72531 -791.36761)"><path d="m-400.40945 757.69524c-1.19528 9.89838-6.90322 12.22848-14.71875 6.0625 2.68366 9.60233-1.70102 13.9245-11.28125 11.21875 6.15403 7.84441 3.76142 13.48985-6.125 14.65625 8.68751 4.89225 8.6562 11.04522-.0312 15.90622 9.89839 1.1953 12.22847 6.9032 6.0625 14.7188 9.60234-2.6837 13.92446 1.7009 11.21875 11.2812 4.24905-3.3334 7.84118-4.1394 10.4375-2.625.74759-3.658 2.89409-7.0384 6.40625-8.8125 3.44518-5.8513 9.08466-11.8651 16.625-11.4062 5.32931-.3957 10.66723 2.0514 14.125 6.0625 1.81401-.524 3.76965-.7385 5.71875-.6563-.82799-4.4593 2.42068-7.5232 9.375-8.3437-8.68766-4.89237-8.65622-11.04517.0312-15.90627-9.89855-1.19527-12.22845-6.90312-6.0625-14.71875-9.60248 2.68373-13.92444-1.70094-11.21875-11.28125-7.84451 6.15415-13.48975 3.76148-14.65625-6.125-4.89224 8.68748-11.04526 8.6562-15.90625-.0312z" fill="#fc0"/><path d="m-381.53365 816.48154c-.29437.018-.59961.055-.90625.094-9.79426 1.2321-9.46875 9.4375-9.46875 9.4375-4.01157.6664-7.3125 4.1101-7.3125 7.6875 0 3.5773 4.20678 6.7355 7.71875 7.6562 2.08904.5476 4.8125 0 4.8125 0 1.24007 2.1373 5.33592 3.5625 8.1875 3.5625 4.64968 0 9.43066-1.509 10.53125-3.5625 0 0 19.25346 1.5059 23.25001 0 5.81808-2.1924 3.99614-9.0279.125-11.3437-3.87113-2.3159-8.93751-.6875-8.93751-.6875s-.0255-4.7469-5.5-7c-5.47453-2.253-10.09375 2.75-10.09375 2.75s-3.28081-9.1458-12.40625-8.5938z" fill="#bababa"/></g></svg>