<svg height="128" width="128" xmlns="http://www.w3.org/2000/svg"><g transform="matrix(1.0661115 0 0 1.0661115 475.37836 -1030.0627)"><path d="m-238 7.9375c-1.63473 13.537484-9.46731 16.713979-20.15625 8.28125 3.6703 13.132575-2.33505 19.044362-15.4375 15.34375 8.41659 10.728419 5.17745 18.467277-8.34375 20.0625 11.88151 6.690809 11.85006 15.101835-.0312 21.75 13.53758 1.634775 16.68292 9.435953 8.25 20.125 13.13268-3.670409 19.07547 2.30374 15.375 15.40625 10.72843-8.41663 18.43592-5.11503 20.03125 8.40625 6.69085-11.88181 15.13297-11.8496 21.78125.0312 1.63464-13.5377 9.43594-16.71419 20.125-8.28125-3.67046-13.132788 2.3037-19.044223 15.40625-15.34375-8.41675-10.7286-5.14629-18.467171 8.375-20.0625-11.88172-6.691022-11.81897-15.101729.0625-21.75-13.5378-1.634775-16.74541-9.436028-8.3125-20.125-13.13288 3.670334-19.0442-2.30374-15.34375-15.40625-10.72859 8.416844-18.43588 5.115029-20.03125-8.40625-6.69089 11.881493-15.10185 11.849283-21.75-.03125zm.71875 3.75c6.19009 11.062186 14.05136 11.094289 20.28125.03125 1.48545 12.589604 8.66686 15.649379 18.65625 7.8125-3.44549 12.199727 2.05324 17.792452 14.28125 14.375-7.85187 9.952503-4.88629 17.227806 7.71875 18.75-11.06279 6.190163-11.12556 14.019964-.0625 20.25-12.58967 1.485413-15.61809 8.666892-7.78125 18.65625-12.19978-3.445459-17.79256 2.053378-14.375 14.28125-9.95258-7.851911-17.228-4.85496-18.75 7.75-6.19021-11.06219-14.02016-11.12586-20.25-.0625-1.48541-12.5896-8.66702-15.618022-18.65625-7.78125 3.44551-12.199727-2.08467-17.823777-14.3125-14.40625 7.85188-9.952577 4.91733-17.196663-7.6875-18.71875 11.06273-6.190163 11.09417-14.020177.0312-20.25 12.58958-1.485307 15.64918-8.666966 7.8125-18.65625 12.19967 3.445704 17.76117-2.053484 14.34375-14.28125 9.95247 7.851698 17.2279 4.854636 18.75-7.75z" fill="#c00" transform="matrix(.93798819 0 0 .93798819 -173.7131 967.46176)"/><path d="m-394.21774 985.57183c-1.19528 9.89828-6.90322 12.22838-14.71875 6.0625 2.68365 9.60237-1.70102 13.92467-11.28125 11.21887 6.15403 7.8444 3.76142 13.4898-6.125 14.6562 8.68751 4.8922 8.65615 11.0452-.0312 15.9063 9.89839 1.1953 12.22847 6.9031 6.0625 14.7187 9.60234-2.6837 13.92446 1.701 11.21875 11.2813 7.8444-6.1541 13.48978-3.7615 14.65625 6.125 4.89221-8.6878 11.04517-8.6558 15.90625.031 1.19521-9.8985 6.90314-12.2285 14.71875-6.0625-2.68376-9.6024 1.70094-13.9245 11.28125-11.2188-6.15415-7.8445-3.76148-13.4897 6.125-14.6562-8.68766-4.8924-8.65617-11.0452.0312-15.9063-9.89855-1.1953-12.22846-6.9031-6.0625-14.7187-9.60248 2.6837-13.92444-1.701-11.21875-11.28137-7.84452 6.15418-13.48975 3.76148-14.65625-6.125-4.89224 8.68748-11.04526 8.65578-15.90625-.031z" fill="#fc0"/></g></svg>