<svg height="128" width="128" xmlns="http://www.w3.org/2000/svg"><g transform="matrix(1.0661115 0 0 1.0661115 476.04524 -1277.5754)"><path d="m-408.59202 1203.2206c-1.19529 9.8984-6.90322 12.2285-14.71875 6.0625 2.68365 9.6024-1.70103 13.9245-11.28125 11.2188 6.15403 7.8444 3.76142 13.4898-6.125 14.6562 2.63238 1.4824 4.43874 3.0761 5.46875 4.7188 4.112-4.5364 9.44206-8.0931 15.21875-10.4688.26013-.1164.5187-.2325.78125-.3437.12293-.048.25172-.078.375-.125 4.22043-1.7419 8.71719-2.8253 13.25-2.9375 2.07527-.052 4.57174.1127 7.25.5h.0625c.1668.02.33347.072.5.094 3.46069.4432 6.88209 1.2351 10.0625 2.5938.12559.051.25042.1034.375.1562.0632.028.12451.065.1875.094.31405.1363.63091.2882.9375.4375.11857.059.22589.1272.34375.1875.246.1254.47861.24.71875.375.18763.1027.37688.2053.5625.3125 2.96514-2.4674 6.55556-3.847 10.28125-4.2813h.0625c1.39304-.2535 2.85716-.3611 4.40625-.25.47906-1.6872 1.48033-3.557 3.0625-5.5625-9.60248 2.6838-13.92444-1.7009-11.21875-11.2812-7.84451 6.1541-13.48975 3.7615-14.65625-6.125-4.89224 8.6875-11.04526 8.6558-15.90625-.031z" fill="#fc0"/><path d="m-404.7337 1229.5207c-22.45295.5556-48.68582 30.5382-16.5 35.9687 2.25347 3.9031 9.69309 6.5 14.875 6.5 8.44939 0 23.09375-2.75 25.09375-6.5 0 0 34.98746 2.75 42.25 0 10.57262-4.0033 7.28463-16.521.25-20.75s-16.25-1.25-16.25-1.25-.0204-8.6357-9.96875-12.75c-9.94833-4.1142-18.34375 5-18.34375 5-4.20278-4.5736-15.68295-6.3603-21.40625-6.2187z" fill="#bababa"/><path d="m-440.68577 1253.0331c-.021.012-.0414.02-.0625.031h.0625c.002-.01-.002-.022 0-.031z" fill="none"/><path d="m-434.59202 1267.6581c-.0332.043-.0602.082-.0937.125.0759-.021.14351-.043.21875-.062-.0391-.025-.0862-.038-.125-.062z" fill="none"/><path d="m-375.81077 1273.0331-1.25 22.25 11.25-2.25-8.75 19.5 22-24.25-14-1.75 11.625-12.5c-6.60086 0-11.82304-.5-20.875-1z" fill="#fc0"/><path d="m-263.4375 224.34375c-3.73345 3.638-9.98803 14.75911-3.90625 16.40625s5.70483-11.59851 3.90625-16.40625zm27.71875 2.78125c-3.73345 3.638-9.95678 14.75911-3.875 16.40625s5.67358-11.59851 3.875-16.40625zm46.90625 16.78125c-3.73345 3.638-9.92553 14.75911-3.84375 16.40625s5.64233-11.59851 3.84375-16.40625zm-63.1875 1.40625c-3.73345 3.638-9.98803 14.75911-3.90625 16.40625s5.70483-11.59851 3.90625-16.40625zm27.21875 2.59375c-3.73345 3.638-9.95678 14.75911-3.875 16.40625s5.67358-11.59851 3.875-16.40625z" fill="#69f" transform="matrix(.93798819 0 0 .93798819 -173.71309 1066.5064)"/></g></svg>