<svg height="128" width="128" xmlns="http://www.w3.org/2000/svg"><g transform="matrix(1.0661115 0 0 1.0661115 475.35917 -1412.2863)"><path d="m-408.59202 1329.923c-1.19529 9.8984-6.90322 12.2285-14.71875 6.0625 2.68365 9.6023-1.70103 13.9245-11.28125 11.2188 6.15403 7.8444 3.76142 13.4898-6.125 14.6562 2.62011 1.4755 4.43625 3.0529 5.46875 4.6875 4.05975-4.4485 9.30208-7.9332 14.96875-10.3125.021-.01.0415-.022.0625-.031.0633-.026.12408-.068.1875-.094 4.54498-2.0345 9.45947-3.2838 14.40625-3.4062 2.1956-.054 4.89669.1244 7.75.5625.0637.01.12385.023.1875.031 4.55931.6021 9.02043 1.8478 13.0625 4.0313 2.88184-2.306 6.3695-3.6381 10-4.0938 1.49298-.301 3.07262-.4328 4.75-.3125.47906-1.6873 1.48033-3.557 3.0625-5.5625-9.60248 2.6837-13.92444-1.7009-11.21875-11.2812-7.84451 6.1541-13.48975 3.7614-14.65625-6.125-4.89224 8.6874-11.04526 8.6556-15.90625-.031z" fill="#fc0"/><path d="m-404.46411 1356.3116c-22.45295.5556-48.68582 30.5382-16.5 35.9687 2.25347 3.9031 9.69309 6.5 14.875 6.5 8.44939 0 23.09375-2.75 25.09375-6.5 0 0 34.98746 2.75 42.24999 0 10.57262-4.0033 7.28463-16.521.25-20.75s-16.24999-1.25-16.24999-1.25-.0204-8.6357-9.96875-12.75c-9.94833-4.1142-18.34375 5-18.34375 5-4.20278-4.5736-15.68295-6.3603-21.40625-6.2187z" fill="#bababa"/><path d="m-440.68577 1379.7355c-.0209.012-.0414.02-.0625.031h.0625c.002-.01-.002-.021 0-.031z" fill="none"/><path d="m-205.34375 365.875c-3.73345 3.638-9.95678 14.75911-3.875 16.40625s5.67358-11.59851 3.875-16.40625zm-33.34375 9.0625c-3.73345 3.638-9.95678 14.79036-3.875 16.4375s5.67358-11.62976 3.875-16.4375zm-23.6875 8.375c-3.73345 3.638-9.95678 14.72786-3.875 16.375s5.67358-11.56726 3.875-16.375zm72.53125 5.15625c-3.73345 3.638-9.95678 14.75911-3.875 16.40625s5.67358-11.59851 3.875-16.40625zm-30.21875.4375c-3.73345 3.638-9.98803 14.79036-3.90625 16.4375s5.70483-11.62976 3.90625-16.4375z" fill="#69f" transform="matrix(.93798819 0 0 .93798819 -173.7131 1058.1982)"/></g></svg>