<svg height="128" width="128" xmlns="http://www.w3.org/2000/svg"><g transform="matrix(1.0661115 0 0 1.0661115 476.46946 -1542.262)"><path d="m-408.59202 1452.9415c-1.19529 9.8983-6.90322 12.2284-14.71875 6.0625 2.68365 9.6023-1.70103 13.9246-11.28125 11.2188 6.15403 7.8444 3.76142 13.4898-6.125 14.6562 2.61423 1.4721 4.43508 3.0568 5.46875 4.6875 4.03645-4.4262 9.27393-7.9024 14.90625-10.2812.0428-.02.0821-.043.125-.062.0644-.027.12298-.067.1875-.094 4.54498-2.0345 9.45947-3.2838 14.40625-3.4062 1.85351-.046 4.08035.073 6.4375.375.30352.031.60349.089.90625.125 3.27146.3927 6.49265 1.1099 9.53125 2.2812.46422.1686.92285.3707 1.375.5625.0125.01.0188.026.0312.031.86345.368 1.69849.7784 2.5 1.25.07.039.14905.054.21875.094 2.84458-2.3764 6.34606-3.7462 10-4.2187.03-.01.0637.01.0937 0 1.46699-.2883 3.01256-.3992 4.65625-.2813.47906-1.6873 1.48033-3.5571 3.0625-5.5625-9.60248 2.6837-13.92444-1.7009-11.21875-11.2812-7.84451 6.1542-13.48975 3.7615-14.65625-6.125-4.89224 8.6875-11.04526 8.6557-15.90625-.031z" fill="#fc0"/><path d="m-405.52952 1479.7504c-22.45295.5556-48.68582 30.5382-16.5 35.9687 2.25347 3.9031 9.69309 6.5 14.875 6.5 8.44939 0 23.09375-2.75 25.09375-6.5 0 0 34.98746 2.75 42.25 0 10.57262-4.0033 7.28463-16.521.25-20.75s-16.25-1.25-16.25-1.25-.0204-8.6357-9.96875-12.75c-9.94833-4.1142-18.34375 5-18.34375 5-4.20278-4.5736-15.68295-6.3603-21.40625-6.2187z" fill="#bababa"/><path d="m-440.68577 1502.754c-.021.012-.0414.019-.0625.031h.0625c.002-.01-.002-.021 0-.031z" fill="none"/><path d="m-206.03125 510.96875a1.1792371 1.1792371 0 0 0 -.0312.0312 1.1792371 1.1792371 0 0 0 -1.03125 1.1875v3.65625l-3.28125-2.09375a1.1830694 1.1830694 0 1 0 -1.25 2l4.53125 2.875v6.59375l-5.71875-3.34375-.25-5.3125a1.1792483 1.1792483 0 0 0 -1.21875-1.15625 1.1792483 1.1792483 0 0 0 -1.125 1.28125l.15625 3.78125-3.125-1.78125a1.1899645 1.1899645 0 0 0 -1.1875 2.0625l3.125 1.8125-3.375 1.75a1.1847337 1.1847337 0 1 0 1.09375 2.09375l4.7187-2.4687 5.71875 3.3125-5.75 3.28125-4.6875-2.4375a1.1792483 1.1792483 0 1 0 -1.09375 2.0625l3.375 1.75-3.125 1.84375a1.1792483 1.1792483 0 1 0 1.1875 2.03125l3.125-1.8125-.15625 3.84375a1.1792483 1.1792483 0 1 0 2.34375.0937l.25-5.3125 5.71875-3.3125v6.5625l-4.53125 2.90625a1.1830694 1.1830694 0 1 0 1.25 2l3.28125-2.09375v3.625a1.1792483 1.1792483 0 1 0 2.34375 0v-3.625l3.25 2.09375a1.1876028 1.1876028 0 1 0 1.28125-2l-4.53125-2.90625v-6.5625l5.71875 3.3125.1875 5.3125a1.1884248 1.1884248 0 1 0 2.375-.0937l-.15625-3.84375 3.125 1.8125a1.1799216 1.1799216 0 0 0 1.1875-2.03125l-3.15625-1.84375 3.4375-1.75a1.1792483 1.1792483 0 1 0 -1.09375-2.0625l-4.71875 2.4375-5.71875-3.28125 5.6875-3.3125 4.75 2.46875a1.1847337 1.1847337 0 1 0 1.09375-2.09375l-3.40625-1.75 3.125-1.8125a1.1942746 1.1942746 0 0 0 -1.1875-2.0625l-3.125 1.78125.15625-3.78125a1.1792371 1.1792371 0 0 0 -1.28125-1.28125 1.1792371 1.1792371 0 0 0 -1.09375 1.15625l-.1875 5.3125-5.71875 3.3125v-6.5625l4.53125-2.875a1.1876028 1.1876028 0 1 0 -1.28125-2l-3.25 2.09375v-3.65625a1.1792371 1.1792371 0 0 0 -1.1875-1.21875 1.1792371 1.1792371 0 0 0 -.0937 0zm-41.53125 11.75a.86856611.86856611 0 0 0 -.0312.0312.86856611.86856611 0 0 0 -.78125.875v2.6875l-2.40625-1.53125a.87122512.87122512 0 1 0 -.9375 1.46875l3.34375 2.09375v4.90625l-4.21875-2.46875-.15625-3.9375a.86856611.86856611 0 0 0 -1.0313-.8437.86856611.86856611 0 0 0 -.6875.90625l.0937 2.84375-2.28125-1.34375a.86856611.86856611 0 1 0 -.875 1.5l2.28125 1.34375-2.5 1.3125a.88056268.88056268 0 1 0 .8125 1.5625l3.5-1.84375 4.1875 2.4375-4.1875 2.4375-3.5-1.84375a.88056268.88056268 0 1 0 -.8125 1.5625l2.5 1.3125-2.28125 1.3125a.86856611.86856611 0 1 0 .875 1.5l2.28125-1.3125-.0937 2.8125a.86856611.86856611 0 1 0 1.71875.0625l.15625-3.90625 4.21875-2.4375v4.84375l-3.34375 2.09375a.87122512.87122512 0 1 0 .9375 1.46875l2.40625-1.53125v2.71875a.86856611.86856611 0 1 0 1.71875 0v-2.71875l2.40625 1.53125a.87122512.87122512 0 1 0 .9375-1.46875l-3.34375-2.09375v-4.84375l4.21875 2.4375.15625 3.90625a.87555786.87555786 0 1 0 1.75-.0625l-.125-2.8125 2.3125 1.3125a.86856611.86856611 0 1 0 .875-1.5l-2.3125-1.3125 2.5-1.3125a.88056268.88056268 0 1 0 -.8125-1.5625l-3.5 1.84375-4.1875-2.40625 4.1875-2.4375 3.5 1.8125a.88056268.88056268 0 1 0 .8125-1.5625l-2.5-1.3125 2.3125-1.34375a.86856611.86856611 0 1 0 -.875-1.5l-2.3125 1.34375.125-2.84375a.86856611.86856611 0 0 0 -1-.90625.86856611.86856611 0 0 0 -.75.84375l-.15625 3.96875-4.21875 2.4375v-4.90625l3.34375-2.09375a.87122512.87122512 0 1 0 -.9375-1.46875l-2.40625 1.53125v-2.6875a.86856611.86856611 0 0 0 -.84375-.90625.86856611.86856611 0 0 0 -.0625 0z" fill="#bababa" transform="matrix(.93798819 0 0 .93798819 -173.71309 1046.4519)"/></g></svg>