<svg height="128" width="128" xmlns="http://www.w3.org/2000/svg"><g transform="matrix(1.066117 0 0 1.066117 639.82792 -910.25242)"><path d="m-559.28629 864.75913c-1.0259-.01-2.10431.047-3.21875.1875-17.79816 2.25-17.25 17.25-17.25 17.25-7.28984 1.2171-13.25 7.4675-13.25 14 0 6.5324 7.61805 12.3188 14 14 3.79621 1 8.78125 0 8.78125 0 2.25347 3.9031 9.66184 6.5 14.84375 6.5 8.44939 0 17.125-2.75 19.125-6.5 0 0 34.98746 2.75 42.25 0 10.57262-4.0034 7.28463-16.521.25-20.75s-16.25-1.25-16.25-1.25-.0204-8.60455-9.96875-12.71875c-9.94833-4.1143-18.375 4.96875-18.375 4.96875s-5.54893-15.5943-20.9375-15.6875z" fill="#bababa"/><g transform="matrix(.93798335 0 0 .93798335 -193.41737 988.75895)"><path d="m-415.53125-77.6875c-3.73347 3.638018-9.95681 14.790349-3.875 16.4375s5.67359-11.629643 3.875-16.4375zm79.59375 27.8125c-3.73347 3.638018-9.98806 14.759099-3.90625 16.40625s5.70484-11.598382 3.90625-16.40625zm-63.09375 3.71875c-3.73347 3.638018-9.92556 14.790349-3.84375 16.4375s5.64234-11.629739 3.84375-16.4375z" fill="#69f"/><path d="m-351.28125-77.5a.86857059.86857059 0 0 0 -.0937.03125.86857059.86857059 0 0 0 -.65625.875v2.6875l-2.40625-1.53125a.87122512.87122512 0 1 0 -.9375 1.46875l3.34375 2.09375v4.875l-4.25-2.4375-.15625-3.9375a.86857059.86857059 0 0 0 -1.0625-.84375.86857059.86857059 0 0 0 -.65625.90625l.125 2.84375-2.3125-1.34375a.87625468.87625468 0 1 0 -.90625 1.5l2.34375 1.34375-2.5 1.28125a.88056268.88056268 0 1 0 .8125 1.5625l3.46875-1.8125 4.21875 2.4375-4.1875 2.40625-3.5-1.8125a.86857059.86857059 0 1 0 -.8125 1.53125l2.5 1.28125-2.34375 1.375a.87625468.87625468 0 1 0 .90625 1.5l2.3125-1.34375-.125 2.8125a.86857059.86857059 0 1 0 1.71875.09375l.15625-3.9375 4.25-2.40625v4.84375l-3.34375 2.09375a.87122512.87122512 0 0 0 .9375 1.46875l2.40625-1.53125v2.65625a.86857059.86857059 0 1 0 1.71875 0v-2.625l2.375 1.5a.87122512.87122512 0 0 0 .93745-1.46875l-3.3125-2.09375v-4.84375l4.1875 2.375.1875 3.96875a.86857059.86857059 0 1 0 1.71875-.09375l-.125-2.8125 2.34375 1.34375a.86857059.86857059 0 1 0 .84375-1.5l-2.3125-1.375 2.53125-1.28125a.86857059.86857059 0 1 0 -.8125-1.53125l-3.5 1.78125-4.1875-2.4375 4.1875-2.375 3.5 1.8125a.88056268.88056268 0 1 0 .8125-1.5625l-2.5-1.28125 2.28125-1.34375a.86857059.86857059 0 1 0 -.84375-1.5l-2.34375 1.34375.125-2.84375a.86857059.86857059 0 0 0 -1-.90625.86857059.86857059 0 0 0 -.71875.84375l-.1875 3.9375-4.1875 2.4375v-4.875l3.3125-2.09375a.87122512.87122512 0 1 0 -.9375-1.46875l-2.375 1.5v-2.65625a.86857059.86857059 0 0 0 -.96875-.90625zm-42.5 6.78125a.64943195.64943195 0 0 0 -.0937.03125.64943195.64943195 0 0 0 -.5.6875v2l-1.8125-1.15625a.64943195.64943195 0 1 0 -.65625 1.0625l2.46875 1.625v3.625l-3.15625-1.84375-.125-2.9375a.64943195.64943195 0 0 0 -.75-.625.64943195.64943195 0 0 0 -.53125.71875l.0937 2.09375-1.75-1a.65709731.65709731 0 1 0 -.65625 1.125l1.75 1-1.875.96875a.6556413.6556413 0 0 0 .59375 1.15625l2.59375-1.375 3.15625 1.84375-3.15625 1.8125-2.59375-1.375a.6556413.6556413 0 1 0 -.59375 1.15625l1.875.96875-1.75 1a.65709731.65709731 0 1 0 .65625 1.125l1.75-1-.0937 2.125a.65051875.65051875 0 1 0 1.28125.0625l.125-2.9375 3.15625-1.84375v3.625l-2.46875 1.625a.64943195.64943195 0 1 0 .65625 1.0625l1.8125-1.125v1.96875a.64966505.64966505 0 0 0 1.28125 0v-1.96875l1.8125 1.125a.64943195.64943195 0 1 0 .65625-1.0625l-2.46875-1.625v-3.625l3.125 1.84375.15625 2.9375a.65051875.65051875 0 0 0 1.28125-.0625l-.0937-2.125 1.75 1a.65709731.65709731 0 1 0 .65625-1.125l-1.75-1 1.875-.96875a.6556413.6556413 0 0 0 -.59375-1.15625l-2.59375 1.375-3.15625-1.84375 3.15625-1.8125 2.59375 1.375a.6556413.6556413 0 0 0 .59375-1.15625l-1.875-.96875 1.75-1a.65709731.65709731 0 0 0 -.65625-1.125l-1.75 1 .0937-2.09375a.64943195.64943195 0 0 0 -.75-.71875.64943195.64943195 0 0 0 -.53125.625l-.15625 2.9375-3.125 1.84375v-3.625l2.46875-1.625a.64943195.64943195 0 1 0 -.65625-1.0625l-1.8125 1.15625v-2a.64943195.64943195 0 0 0 -.625-.71875.64943195.64943195 0 0 0 -.0625 0zm24.3125 24.25a.64943195.64943195 0 0 0 -.15625.03125.64943195.64943195 0 0 0 -.5.6875v2l-1.8125-1.15625a.64943195.64943195 0 1 0 -.65625 1.09375l2.46875 1.59375v3.625l-3.125-1.84375-.15625-2.90625a.64943195.64943195 0 0 0 -.75-.65625.64943195.64943195 0 0 0 -.53125.71875l.0937 2.09375-1.71875-1a.65921947.65921947 0 1 0 -.6875 1.125l1.75 1-1.875.96875a.6556413.6556413 0 0 0 .59375 1.15625l2.59375-1.34375 3.1875 1.8125-3.1875 1.8125-2.59375-1.375a.6556413.6556413 0 1 0 -.59375 1.15625l1.875.96875-1.75 1a.67260135.67260135 0 1 0 .6875 1.15625l1.71875-1-.0937 2.09375a.65051875.65051875 0 1 0 1.28125.0625l.15625-2.9375 3.125-1.84375v3.65625l-2.46875 1.59375a.64943195.64943195 0 1 0 .65625 1.0625l1.8125-1.125v2a.64966505.64966505 0 0 0 1.28125 0v-2l1.8125 1.125a.64943195.64943195 0 1 0 .65625-1.0625l-2.46875-1.59375v-3.65625l3.15625 1.84375.125 2.9375a.65051875.65051875 0 1 0 1.28125-.0625l-.0937-2.09375 1.75 1a.66475148.66475148 0 1 0 .65625-1.15625l-1.71875-1 1.84375-.96875a.6556413.6556413 0 0 0 -.59375-1.15625l-2.59375 1.375-3.15625-1.84375 3.15625-1.78125 2.59375 1.34375a.6556413.6556413 0 0 0 .59375-1.15625l-1.84375-.96875 1.71875-1a.65709731.65709731 0 0 0 -.65625-1.125l-1.75 1 .0937-2.09375a.64943195.64943195 0 0 0 -.75-.71875.64943195.64943195 0 0 0 -.53125.65625l-.125 2.90625-3.15625 1.84375v-3.625l2.46875-1.59375a.64943195.64943195 0 1 0 -.65625-1.09375l-1.8125 1.15625v-2a.64943195.64943195 0 0 0 -.625-.71875z" fill="#bababa"/></g></g></svg>