<svg height="128" width="128" xmlns="http://www.w3.org/2000/svg"><g transform="matrix(1.0661115 0 0 1.0661115 311.37846 -1412.2715)"><path d="m-237.98424 1330.8917c-19.45065 0-35.65299 13.8838-39.25 32.2813 7.05936-6.3294 16.71494-10.7845 26.6875-11.0313 3.01193-.075 6.74643.2705 10.65625 1.0625 4.01405-8.1116 10.66848-14.6794 18.875-18.5312-5.15307-2.4187-10.89971-3.7813-16.96875-3.7813z" fill="#aca793"/><path d="m-251.94796 1358.8155c-22.45295.5556-48.68582 30.5383-16.5 35.9687 2.25347 3.9031 9.69309 6.5 14.875 6.5 8.44939 0 23.09375-2.75 25.09375-6.5 0 0 34.98746 2.75 42.25 0 10.57262-4.0032 7.28463-16.521.25-20.75s-16.25-1.25-16.25-1.25-.0204-8.6357-9.96875-12.75c-9.94833-4.1142-18.34375 5-18.34375 5-4.20278-4.5736-15.68295-6.3603-21.40625-6.2187z" fill="#bababa"/><path d="m-285.57799 1378.7667c-.021.012-.0414.02-.0625.031h.0625c.002-.01-.002-.022 0-.031z" fill="none"/><path d="m-61.34375 364.84375c-3.733448 3.638-9.988032 14.75911-3.90625 16.40625s5.704833-11.59851 3.90625-16.40625zm-33.34375 9.0625c-3.733448 3.638-9.98803 14.79036-3.90625 16.4375 6.081782 1.64714 5.704833-11.62976 3.90625-16.4375zm-23.6875 8.375c-3.73345 3.638-9.98803 14.72786-3.90625 16.375s5.70483-11.56726 3.90625-16.375zm72.5 5.15625c-3.733448 3.638-9.925532 14.75911-3.84375 16.40625s5.642333-11.59851 3.84375-16.40625zm-30.21875.4375c-3.733448 3.638-9.956782 14.75911-3.875 16.40625s5.673583-11.59851 3.875-16.40625z" fill="#69f" transform="matrix(.93798819 0 0 .93798819 -153.65456 1058.1981)"/></g></svg>