<svg height="128" width="128" xmlns="http://www.w3.org/2000/svg"><g transform="matrix(1.0661115 0 0 1.0661115 311.64965 -1541.7133)"><path d="m-239.8351 1452.5193c-19.45065 0-35.65299 13.8837-39.25 32.2812 7.05936-6.3294 16.71494-10.7844 26.6875-11.0312 3.01193-.075 6.74643.2705 10.65625 1.0625 4.01405-8.1116 10.66848-14.6795 18.875-18.5313-5.15307-2.4187-10.89971-3.7812-16.96875-3.7812z" fill="#aca793"/><g fill="#bababa"><path d="m-252.78134 1480.9517c-22.45295.5556-48.68582 30.5384-16.5 35.9688 2.25347 3.9031 9.69309 6.5 14.875 6.5 8.44939 0 23.09375-2.75 25.09375-6.5 0 0 34.98746 2.75 42.25 0 10.57262-4.0032 7.28463-16.521.25-20.75s-16.25-1.25-16.25-1.25-.0204-8.6357-9.96875-12.75c-9.94833-4.1142-18.34375 5-18.34375 5-4.20278-4.5736-15.68295-6.3604-21.40625-6.2188z"/><path d="m-62.5 511.78125a.86856611.86856611 0 0 0 -.0625.0312.86856611.86856611 0 0 0 -.75.84375v4.21875l-3.71875-2.375a.87122512.87122512 0 1 0 -.9375 1.46875l4.65625 2.96875v6.96875l-6.03125-3.5-.21875-5.34375a1.1792483 1.1792483 0 0 0 -1.125-1.15625 1.1792483 1.1792483 0 0 0 -1.21875 1.25l.15625 3.8438-3.125-1.8125a1.1844121 1.1844121 0 0 0 -1.21875 2.03125l3.1875 1.84375-3.4375 1.78125a1.1792483 1.1792483 0 1 0 1.09375 2.0625l4.71875-2.46875 5.75 3.28125-5.75 3.3125-4.71875-2.46875a1.1847337 1.1847337 0 1 0 -1.09375 2.09375l3.375 1.78125-3.125 1.78125a1.1978374 1.1978374 0 0 0 1.21875 2.0625l3.125-1.78125-.15625 3.78125a1.1845929 1.1845929 0 1 0 2.34375.15625l.21875-5.34375 5.71875-3.3125v6.5625l-4.5 2.875a1.1876028 1.1876028 0 1 0 1.28125 2l3.21875-2.0625v3.625a1.1875 1.1875 0 0 0 2.375 0v-3.625l3.21875 2.0625a1.1876028 1.1876028 0 1 0 1.28125-2l-4.5-2.8125v-6.65625l5.6875 3.3125.21875 5.34375a1.1792483 1.1792483 0 1 0 2.34375-.125l-.125-3.8125 3.125 1.8125a1.1859976 1.1859976 0 1 0 1.15625-2.0625l-3.125-1.78125 3.40625-1.78125a1.1847337 1.1847337 0 1 0 -1.09375-2.09375l-4.75 2.46875-5.6875-3.3125 5.71875-3.28125 4.71875 2.46875a1.1792483 1.1792483 0 1 0 1.09375-2.0625l-3.40625-1.78125 3.125-1.84375a1.1792483 1.1792483 0 1 0 -1.15625-2.03125l-3.125 1.8125.15625-3.84375a1.1792483 1.1792483 0 0 0 -1.15625-1.25 1.1792483 1.1792483 0 0 0 -1.21875 1.15625l-.21875 5.375-6.03125 3.46875v-6.96875l4.65625-2.96875a.87122512.87122512 0 1 0 -.9375-1.46875l-3.71875 2.375v-4.21875a.86856611.86856611 0 0 0 -.90625-.875zm-41.71875 11.4375a.86856611.86856611 0 0 0 -.6875.90625v2.625l-2.375-1.5a.86877458.86877458 0 1 0 -.90625 1.46875l3.28125 2.125v4.875l-4.1875-2.4375-.1875-3.90625a.86856611.86856611 0 0 0 -.90625-.875.86856611.86856611 0 0 0 -.8125.9375l.125 2.8125-2.3125-1.3125a.86856611.86856611 0 1 0 -.875 1.5l2.28125 1.3125-2.5 1.3125a.86856611.86856611 0 1 0 .8125 1.53125l3.5-1.8125 4.1875 2.40625-4.1875 2.4375-3.5-1.8125a.86856611.86856611 0 1 0 -.8125 1.53125l2.5 1.3125-2.28125 1.34375a.86856611.86856611 0 1 0 .875 1.5l2.3125-1.34375-.125 2.84375a.86856611.86856611 0 1 0 1.71875.0312l.1875-3.9375 4.1875-2.4375v4.90625l-3.28125 2.09375a.86877458.86877458 0 0 0 .90625 1.46875l2.375-1.5v2.625a.86856611.86856611 0 1 0 1.71875 0v-2.65625l2.40625 1.53125a.87122512.87122512 0 0 0 .9375-1.46875l-3.34375-2.09375v-4.90625l4.25 2.4375.15625 3.9375a.8751395.8751395 0 1 0 1.75-.0312l-.15625-2.84375 2.3125 1.34375a.86856611.86856611 0 1 0 .875-1.5l-2.3125-1.34375 2.5-1.3125a.86856611.86856611 0 1 0 -.8125-1.53125l-3.4375 1.8125-4.25-2.40625 4.25-2.4375 3.4375 1.8125a.86856611.86856611 0 1 0 .8125-1.53125l-2.5-1.3125 2.3125-1.3125a.86856611.86856611 0 1 0 -.875-1.5l-2.3125 1.3125.15625-2.8125a.86856611.86856611 0 0 0 -.9375-.9375.86856611.86856611 0 0 0 -.8125.875l-.15625 3.90625-4.25 2.4375v-4.875l3.34375-2.125a.87122512.87122512 0 1 0 -.9375-1.46875l-2.40625 1.5625v-2.6875a.86856611.86856611 0 0 0 -.84375-.90625.86856611.86856611 0 0 0 -.1875 0z" transform="matrix(.93798819 0 0 .93798819 -153.65456 1046.4519)"/></g></g></svg>