<svg height="128" width="128" xmlns="http://www.w3.org/2000/svg"><g transform="matrix(1.0661115 0 0 1.0661115 311.45962 -1278.6712)"><path d="m-237.98424 1204.0331c-19.45066 0-35.653 13.8837-39.25 32.2812 7.05936-6.3293 16.71493-10.7844 26.6875-11.0312 3.01192-.074 6.74642.2705 10.65625 1.0625 4.01404-8.1116 10.66847-14.6794 18.875-18.5313-5.15307-2.4186-10.89971-3.7812-16.96875-3.7812z" fill="#aca793"/><path d="m-252.10023 1230.4155c-22.45295.5556-48.68582 30.5383-16.5 35.9688 2.25347 3.9031 9.69309 6.5 14.875 6.5 8.44939 0 23.09375-2.75 25.09375-6.5 0 0 34.98746 2.75 42.25 0 10.57262-4.0033 7.28463-16.521.25-20.75s-16.25-1.25-16.25-1.25-.0204-8.6357-9.96875-12.75c-9.94833-4.1142-18.34375 5-18.34375 5-4.20278-4.5736-15.68295-6.3604-21.40625-6.2188z" fill="#bababa"/><path d="m-285.57799 1251.9081c-.021.012-.0414.02-.0625.031h.0625c.002-.01-.002-.021 0-.031z" fill="none"/><path d="m-219.95299 1272.2206-1.25 22.25 11.25-2.25-8.75 19.5 22-24.25-14-1.75 11.625-12.5c-6.60086 0-11.82304-.5-20.875-1z" fill="#fc0"/><path d="m-119.1875 226.6875c-3.73345 3.638-9.98803 14.72786-3.90625 16.375s5.70483-11.56726 3.90625-16.375zm27.1875 3.8125c-3.733448 3.638-9.95678 14.79036-3.875 16.4375 6.081782 1.64714 5.673583-11.62976 3.875-16.4375zm47.96875 12.53125c-3.733448 3.638-9.956782 14.79036-3.875 16.4375 6.081793 1.64714 5.673594-11.62976 3.875-16.4375zm-63.1875 1.40625c-3.73345 3.638-9.98803 14.75911-3.90625 16.40625s5.70483-11.59851 3.90625-16.40625zm27.21875 2.59375c-3.733448 3.638-9.956782 14.79036-3.875 16.4375s5.673583-11.62976 3.875-16.4375z" fill="#69f" transform="matrix(.93798819 0 0 .93798819 -153.65456 1066.5064)"/></g></svg>