<svg height="128" width="128" xmlns="http://www.w3.org/2000/svg"><g transform="matrix(1.0661115 0 0 1.0661115 641.45206 -786.35344)"><path d="m-560.30376 750.06518c-1.0259-.01-2.10432.047-3.21875.1875-17.79816 2.25-17.25 17.25-17.25 17.25-7.28985 1.2171-13.25 7.4675-13.25 14 0 6.5324 7.61805 12.3188 14 14 3.79621 1 8.78125 0 8.78125 0 2.25346 3.9031 9.66184 6.5 14.84375 6.5 8.44939 0 17.125-2.75 19.125-6.5 0 0 34.98746 2.75 42.24999 0 10.57262-4.0034 7.28463-16.521.25-20.75-7.03462-4.229-16.24999-1.25-16.24999-1.25s-.0204-8.6045-9.96875-12.7187c-9.94834-4.1143-18.375 4.9687-18.375 4.9687s-5.54894-15.5943-20.9375-15.6875z" fill="#bababa"/><g transform="matrix(.93798819 0 0 .93798819 -193.41557 1008.9312)"><path d="m-415.53125-216.5625c-3.73346 3.63788-9.95679 14.75911-3.875 16.40625 6.08178 1.64714 5.67358-11.59868 3.875-16.40625zm89.71875.59375c-3.73344 3.63783-9.98803 14.75911-3.90625 16.40625 6.08177 1.64714 5.70483-11.59868 3.90625-16.40625zm-48.46875 19.34375c-3.73346 3.638-9.95679 14.75911-3.875 16.40625 6.08178 1.64714 5.67358-11.59851 3.875-16.40625zm-34.0625 2.78125c-3.73346 3.638-9.95679 14.75911-3.875 16.40625 6.08178 1.64714 5.67358-11.59851 3.875-16.40625zm69.75 2.6875c-3.73346 3.638-9.92554 14.79036-3.84375 16.4375 6.08178 1.64714 5.64233-11.62976 3.84375-16.4375z" fill="#69f"/><path d="m-352.84375-215.625a.86856611.86856611 0 0 0 -.0312.0312.86856611.86856611 0 0 0 -.0937.0312.86856611.86856611 0 0 0 -.65625.84375v2.71875l-2.40625-1.53125a.87122512.87122512 0 1 0 -.9375 1.46875l3.34375 2.09375v4.84375l-4.25-2.4375-.15625-3.90625a.86856611.86856611 0 0 0 -1.0625-.84375.86856611.86856611 0 0 0 -.6875.90625l.15625 2.8125-2.3125-1.3125a.87625468.87625468 0 1 0 -.90625 1.5l2.34375 1.3125-2.5 1.3125a.88056268.88056268 0 0 0 .8125 1.5625l3.4375-1.84375 4.25 2.4375-4.21875 2.4375-3.46875-1.84375a.88056268.88056268 0 1 0 -.8125 1.5625l2.5 1.28125-2.34375 1.375a.87625468.87625468 0 1 0 .90625 1.5l2.3125-1.34375-.15625 2.8125a.87625468.87625468 0 1 0 1.75.0937l.15625-3.9375 4.25-2.4375v4.875l-3.34375 2.09375a.87122512.87122512 0 0 0 .9375 1.46875l2.40625-1.53125v2.65625a.86856611.86856611 0 1 0 1.71875 0v-2.625l2.375 1.5a.87122512.87122512 0 0 0 .9375-1.46875l-3.3125-2.09375v-4.875l4.1875 2.40625.1875 3.96875a.86856611.86856611 0 1 0 1.71875-.0937l-.125-2.8125 2.3125 1.34375a.86856611.86856611 0 1 0 .875-1.5l-2.3125-1.375 2.53125-1.28125a.88056268.88056268 0 1 0 -.8125-1.5625l-3.5 1.8125-4.1875-2.4375 4.1875-2.40625 3.5 1.84375a.88056268.88056268 0 0 0 .8125-1.5625l-2.5-1.3125 2.28125-1.3125a.86856611.86856611 0 1 0 -.875-1.5l-2.3125 1.3125.125-2.8125a.86856611.86856611 0 0 0 -1-.90625.86856611.86856611 0 0 0 -.71875.84375l-.1875 3.90625-4.1875 2.4375v-4.84375l3.3125-2.09375a.87122512.87122512 0 1 0 -.9375-1.46875l-2.375 1.5v-2.6875a.86856611.86856611 0 0 0 -.9375-.90625zm-40.875 6a.6494286.6494286 0 0 0 -.15625.0312.6494286.6494286 0 0 0 -.5.6875v2l-1.8125-1.125a.6494286.6494286 0 1 0 -.65625 1.0625l2.46875 1.59375v3.625l-3.15625-1.84375-.125-2.90625a.6494286.6494286 0 0 0 -.75-.65625.6494286.6494286 0 0 0 -.53125.71875l.0937 2.09375-1.75-1a.65709392.65709392 0 1 0 -.65625 1.125l1.75 1-1.875.96875a.65563792.65563792 0 0 0 .59375 1.15625l2.59375-1.34375 3.15625 1.8125-3.15625 1.8125-2.59375-1.375a.65563792.65563792 0 1 0 -.59375 1.15625l1.875.96875-1.75 1a.66475148.66475148 0 0 0 .65625 1.15625l1.75-1-.0937 2.09375a.65051539.65051539 0 1 0 1.28125.0625l.125-2.9375 3.15625-1.84375v3.65625l-2.46875 1.59375a.6494286.6494286 0 1 0 .65625 1.0625l1.8125-1.125v2a.6496617.6496617 0 0 0 1.28125 0v-2l1.8125 1.125a.6494286.6494286 0 1 0 .65625-1.0625l-2.46875-1.59375v-3.65625l3.125 1.84375.15625 2.9375a.65051539.65051539 0 1 0 1.28125-.0625l-.0937-2.09375 1.75 1a.66475148.66475148 0 0 0 .65625-1.15625l-1.75-1 1.875-.96875a.65563792.65563792 0 1 0 -.59375-1.15625l-2.59375 1.375-3.15625-1.84375 3.15625-1.78125 2.59375 1.34375a.65563792.65563792 0 0 0 .59375-1.15625l-1.875-.96875 1.75-1a.65709392.65709392 0 0 0 -.65625-1.125l-1.75 1 .0937-2.09375a.6494286.6494286 0 0 0 -.75-.71875.6494286.6494286 0 0 0 -.53125.65625l-.15625 2.90625-3.125 1.84375v-3.625l2.46875-1.59375a.6494286.6494286 0 1 0 -.65625-1.0625l-1.8125 1.125v-2a.6494286.6494286 0 0 0 -.625-.71875z" fill="#bababa"/></g></g></svg>