<svg height="128" width="128" xmlns="http://www.w3.org/2000/svg"><g fill="none" transform="matrix(1.0661157 0 0 1.0661157 622.76399 -893.039274)"><g opacity=".6" visibility="hidden"><g fill="none"><path d="m-563 905.6122c3.79621 1 8.76977 0 8.76977 0 2.25347 3.9031 9.68191 6.5 14.86382 6.5 8.44939 0 17.11382-2.75 19.11382-6.5 0 0 34.99005 2.75 42.25259 0 10.57262-4.0034 7.28463-16.52103.25-20.75002s-16.25-1.25-16.25-1.25-.0274-8.62013-9.97575-12.73438c-9.94833-4.11424-18.35543 4.98438-18.35543 4.98438s-6.33785-17.75415-24.16882-15.5c-17.79816 2.25-17.25 17.25-17.25 17.25-7.28984 1.2171-13.25 7.46754-13.25 14.00002 0 6.5324 7.61805 12.3188 14 14z"/><path d="m-548.53902 938.9964c-5.70464-1.545.13593-11.9846 3.63786-15.397 1.68705 4.5096 2.06678 16.942-3.63786 15.397z"/><path d="m-569.29511 925.6827c-5.70465-1.545.13593-11.9846 3.63786-15.397 1.68705 4.5096 2.06678 16.942-3.63786 15.397z"/><path d="m-530.60882 944.396c-5.70464-1.545.13593-11.9846 3.63786-15.397 1.68705 4.5096 2.06678 16.942-3.63786 15.397z"/><path d="m-506.14562 929.5111c-5.70464-1.545.13593-11.9846 3.63786-15.397 1.68705 4.5096 2.06678 16.942-3.63786 15.397z"/><path d="m-493.10273 947.2893c-5.70464-1.545.13593-11.9846 3.63786-15.397 1.68705 4.5096 2.06678 16.942-3.63786 15.397z"/><path d="m-551.76598 916.29453c0 1.46447-1.18719 3.53553-2.65165 3.53553-1.46447 0-2.82843-.3033-2.82843-1.76776 0-1.46447 1.36396-3.53554 2.82843-3.53554 1.46446 0 2.65165.3033 2.65165 1.76777z"/><path d="m-561.83616 941.4115c0 1.4645-.48007 4.2427-1.94454 4.2427-2.52513 0-3.35876-1.5408-3.35876-3.0052 0-1.4645 1.18719-2.6517 2.65165-2.6517 1.46447 0 2.65165-.05 2.65165 1.4142z"/><path d="m-523.30493 918.7694c0 1.46447-1.8943 2.82843-3.35876 2.82843-1.46447 0-1.94455-1.36396-1.94455-2.82843 0-1.46446 2.6014-2.82842 4.06587-2.82842 1.46446 0 1.23744 1.36396 1.23744 2.82842z"/></g><path d="m-510.79668 940.8058c0 1.4645-1.36396 1.591-2.82843 1.591s-2.65165-1.1872-2.65165-2.6516c0-1.4645.65685-2.8285 2.12132-2.8285s3.35876 2.4247 3.35876 3.8891z" fill="#000"/><path d="m-480.64719 918.4891c0 1.4644-1.18718 2.6516-2.65165 2.6516-1.46446 0-2.65165.2271-2.65165-1.2374s.12653-3.8891 1.59099-3.8891c1.46447 0 3.71231 1.0104 3.71231 2.4749z" fill="none"/></g><g><path d="m-563 899.50735c3.79621 1 8.76977 0 8.76977 0 2.25347 3.9031 9.68191 6.5 14.86382 6.5 8.44939 0 17.11382-2.75 19.11382-6.5 0 0 34.99005 2.75 42.25259 0 10.57262-4.0034 7.28463-16.52103.25-20.75002s-16.25-1.25-16.25-1.25-.0274-8.62013-9.97575-12.73438c-9.94833-4.11424-18.35543 4.98438-18.35543 4.98438s-6.33785-17.75415-24.16882-15.5c-17.79816 2.25-17.25 17.25-17.25 17.25-7.28984 1.2171-13.25 7.46754-13.25 14.00002 0 6.5324 7.61805 12.3188 14 14z" fill="#bababa"/><g fill="#69f"><path d="m-548.53902 938.9964c-5.70464-1.545.13593-11.9846 3.63786-15.397 1.68705 4.5096 2.06678 16.942-3.63786 15.397z"/><path d="m-569.29511 925.6827c-5.70465-1.545.13593-11.9846 3.63786-15.397 1.68705 4.5096 2.06678 16.942-3.63786 15.397z"/><path d="m-530.60882 944.396c-5.70464-1.545.13593-11.9846 3.63786-15.397 1.68705 4.5096 2.06678 16.942-3.63786 15.397z"/><path d="m-506.14562 929.5111c-5.70464-1.545.13593-11.9846 3.63786-15.397 1.68705 4.5096 2.06678 16.942-3.63786 15.397z"/><path d="m-493.10273 947.2893c-5.70464-1.545.13593-11.9846 3.63786-15.397 1.68705 4.5096 2.06678 16.942-3.63786 15.397z"/></g><path d="m-403.5625 74.09375c-1.56129 0-3 2.188706-3 3.75 0 1.561284 1.43871 1.90625 3 1.90625 1.56128 0 2.84375-2.219956 2.84375-3.78125s-1.28247-1.875-2.84375-1.875zm31.84375 1.5c-1.56129 0-4.3125 1.438716-4.3125 3 0 1.561294.50121 3.03125 2.0625 3.03125 1.56128 0 3.59375-1.469956 3.59375-3.03125 0-1.561284.21753-3-1.34375-3zm42.84375.0625c-1.56128 0-1.6875 2.594924-1.6875 4.15625s1.25122 1.3125 2.8125 1.3125c1.56129 0 2.84375-1.25128 2.84375-2.8125 0-1.561326-2.40746-2.65625-3.96875-2.65625zm-31.75 22.28125c-1.56129 0-2.28125 1.469924-2.28125 3.03125 0 1.56122 1.28246 2.8125 2.84375 2.8125s3-.12617 3-1.6875c0-1.56122-2.00121-4.15625-3.5625-4.15625zm-53.65625 3.3125c-1.56128 0-2.84375 1.25117-2.84375 2.8125 0 1.56122.90167 3.21875 3.59375 3.21875 1.56129 0 2.0625-2.96992 2.0625-4.53125 0-1.56101-1.25121-1.5-2.8125-1.5z" fill="#bababa" transform="matrix(.9379845 0 0 .9379845 -175.8857 845.03917)"/></g></g></svg>