<svg height="128" width="128" xmlns="http://www.w3.org/2000/svg"><g fill="#bababa" transform="matrix(1.0661115 0 0 1.0661115 642.5368 -1145.1438)"><path d="m-561.32124 1085.3654c-1.0259-.01-2.10431.047-3.21875.1875-17.79816 2.25-17.25 17.25-17.25 17.25-7.28984 1.2171-13.25 7.4675-13.25 14 0 6.5324 7.61805 12.3188 14 14 3.79621 1 8.78125 0 8.78125 0 2.25347 3.9031 9.66184 6.5 14.84375 6.5 8.44939 0 17.125-2.75 19.125-6.5 0 0 34.98746 2.75 42.25 0 10.57262-4.0034 7.28463-16.521.25-20.75s-16.25-1.25-16.25-1.25-.0204-8.6045-9.96875-12.7188c-9.94833-4.1142-18.375 4.9688-18.375 4.9688s-5.54894-15.5944-20.9375-15.6875z"/><g transform="matrix(.93798819 0 0 .93798819 -193.41558 945.80052)"><path d="m-415.53125 207.65625c-3.73345 3.638-9.98803 14.79036-3.90625 16.4375s5.70483-11.62976 3.90625-16.4375zm43.5 19.5625c-3.73345 3.638-9.98803 14.75911-3.90625 16.40625s5.70483-11.59851 3.90625-16.40625zm37.71875 3.46875c-3.73345 3.638-9.95678 14.75911-3.875 16.40625s5.67358-11.59851 3.875-16.40625z" fill="#69f"/><g fill="#bababa"><path d="m-351.6875 211.96875a.85055629.85055629 0 0 0 -.0937.0312.85055629.85055629 0 0 0 -.0937 0 .85055629.85055629 0 0 0 -.65625.84375v1.5625l-1.40625-.90625a.86877458.86877458 0 1 0 -.9375 1.4375l2.34375 1.46875v3.0625l-2.6875-1.53125-.0937-2.71875a.85055629.85055629 0 0 0 -.9064-.8437.85055629.85055629 0 0 0 -.78125.90625l.0625 1.65625-1.375-.78125a.85754593.85754593 0 1 0 -.8125 1.5l1.3125.75-1.5.8125a.852959.852959 0 0 0 .8125 1.5l2.46875-1.28125 2.65625 1.53125-2.65625 1.53125-2.46875-1.28125a.86672989.86672989 0 1 0 -.8125 1.53125l1.53125.75-1.34375.78125a.85754593.85754593 0 1 0 .8125 1.5l1.375-.8125-.0625 1.71875a.85055629.85055629 0 1 0 1.6875.0625l.0937-2.78125 2.6875-1.53125v3.0625l-2.34375 1.5a.85055629.85055629 0 1 0 .9375 1.40625l1.40625-.90625v1.5625a.85055629.85055629 0 1 0 1.6875 0v-1.53125l1.4375.90625a.85272913.85272913 0 1 0 .9063-1.4375l-2.34375-1.5v-3.0625l2.65625 1.53125.15625 2.78125a.85120918.85120918 0 0 0 1.6875-.0625l-.0625-1.71875 1.34375.8125a.86575802.86575802 0 1 0 .84375-1.5l-1.34375-.78125 1.5-.75a.86672989.86672989 0 0 0 -.8125-1.53125l-2.46875 1.28125-2.625-1.5625 2.625-1.5 2.46875 1.28125a.852959.852959 0 1 0 .8125-1.5l-1.5-.8125 1.34375-.75a.86575802.86575802 0 1 0 -.84375-1.5l-1.34375.78125.0625-1.65625a.85055629.85055629 0 0 0 -.90625-.90625.85055629.85055629 0 0 0 -.78125.84375l-.15625 2.71875-2.65625 1.53125v-3.0625l2.34375-1.46875a.85994616.85994616 0 1 0 -.90625-1.4375l-1.4375.90625v-1.5625a.85055629.85055629 0 0 0 -.84375-.875zm-44.09375 20.71875a1.1001454 1.1001454 0 0 0 -.125.0312 1.1001454 1.1001454 0 0 0 -.96875 1.125v2l-1.84375-1.15625a1.108977 1.108977 0 0 0 -1.1875 1.84375l3.03125 1.9375v3.96875l-3.46875-2-.125-3.5625a1.1001454 1.1001454 0 0 0 -1.1875-1.0625 1.1001454 1.1001454 0 0 0 -1.03125 1.15625l.0937 2.15625-1.75-1.03125a1.1124517 1.1124517 0 1 0 -1.09375 1.9375l1.71875 1-1.90625 1.03125a1.1020628 1.1020628 0 1 0 1.03125 1.9375l3.15625-1.625 3.46875 1.96875-3.46875 2-3.15625-1.6875a1.111244 1.111244 0 1 0 -1.03125 1.96875l1.9375 1-1.75 1a1.1001454 1.1001454 0 1 0 1.09375 1.90625l1.75-1-.0937 2.15625a1.1111342 1.1111342 0 1 0 2.21875.125l.125-3.59375 3.46875-1.9375v3.90625l-3.03125 1.9375a1.1001454 1.1001454 0 1 0 1.1875 1.84375l1.84375-1.15625v2.0625a1.1001454 1.1001454 0 1 0 2.1875 0v-2.03125l1.84375 1.15625a1.1029574 1.1029574 0 1 0 1.15625-1.875l-3-1.90625v-3.96875l3.4375 1.96875.15625 3.59375a1.1111342 1.1111342 0 1 0 2.21875-.125l-.125-2.15625 1.75 1a1.1001454 1.1001454 0 1 0 1.09375-1.90625l-1.75-1 1.9375-1a1.111244 1.111244 0 1 0 -1.03125-1.9687l-3.15625 1.6875-3.4375-2 3.4375-1.96875 3.15625 1.625a1.1001454 1.1001454 0 1 0 1.03125-1.9375l-1.90625-1.03125 1.71875-1a1.1124517 1.1124517 0 1 0 -1.09375-1.9375l-1.75 1.03125.125-2.15625a1.1001454 1.1001454 0 0 0 -1.1875-1.15625 1.1001454 1.1001454 0 0 0 -1.03125 1.0625l-.15625 3.5625-3.4375 2v-3.96875l3-1.9375a1.1029574 1.1029574 0 1 0 -1.15625-1.84375l-1.84375 1.15625v-2a1.1001454 1.1001454 0 0 0 -1.09375-1.15625z"/><path d="m-403.53125 212.1875c-1.56128 0-3.0625 2.18868-3.0625 3.75s1.50122 1.875 3.0625 1.875c1.56129 0 2.78125-2.18868 2.78125-3.75 0-1.56121-1.21996-1.875-2.78125-1.875zm74.65625 1.5625c-1.56128 0-1.71875 2.59493-1.71875 4.15625s1.28247 1.3125 2.84375 1.3125c1.56129 0 2.84375-1.28254 2.84375-2.84375 0-1.56132-2.40746-2.625-3.96875-2.625zm-51.875 2.5625c-1.56128 0-4.34375 1.46993-4.34375 3.03125s.50122 3 2.0625 3c1.56129 0 3.59375-1.43868 3.59375-3s.24879-3.03125-1.3125-3.03125zm20.125 19.71875c-1.56128 0-2.28125 1.46993-2.28125 3.03125 0 1.56121 1.28247 2.8125 2.84375 2.8125 1.56129 0 3-.0949 3-1.65625 0-1.56121-2.00121-4.1875-3.5625-4.1875zm-57.3125 3.75c-1.56128 0-2.84375 1.25118-2.84375 2.8125 0 1.56121.90168 3.21875 3.59375 3.21875 1.56129 0 2.09375-2.96993 2.09375-4.53125 0-1.561-1.28246-1.5-2.84375-1.5z"/></g></g></g></svg>