<svg height="128" width="128" xmlns="http://www.w3.org/2000/svg"><g transform="matrix(1.066117 0 0 1.066117 641.3092 -1275.7395)"><path d="m-560.68198 1206.1166c-1.0259-.01-2.10988.065-3.22431.2052-17.79816 2.25-17.23545 17.2355-17.23545 17.2355-7.28984 1.2171-13.24901 7.4786-13.24901 14.0111 0 6.5324 7.59986 12.3006 13.98181 13.9818 3.79621 1 8.7936 0 8.7936 0 2.25346 3.9031 9.64995 6.5073 14.83186 6.5073 8.44939 0 17.14072-2.7573 19.14072-6.5073 0 0 34.97602 2.75 42.23856 0 10.57262-4.0034 7.29844-16.4946.26381-20.7236s-16.26815-1.2604-16.26815-1.2604-.0177-8.6072-9.96607-12.7214c-9.94833-4.1143-18.37861 4.9537-18.37861 4.9537s-5.54019-15.5887-20.92876-15.6819zm2.16909 12.1352a1.50015 1.50015 0 0 1 1.64147 1.5242v2.7553l2.49152-1.5828a1.5040788 1.5040788 0 0 1 1.64147 2.5208l-4.13299 2.6381v5.3934l4.68992-2.726.20518-4.8365a1.50015 1.50015 0 0 1 1.40698-1.4656 1.50015 1.50015 0 0 1 1.61216 1.5829l-.11725 2.9312 2.37427-1.3484a1.5116733 1.5116733 0 0 1 1.49491 2.6088l-2.37427 1.3776 2.60877 1.3777a1.5010827 1.5010827 0 1 1 -1.37767 2.6674l-4.33817-2.257-4.68992 2.6674 4.68992 2.726 4.33817-2.2571a1.5010827 1.5010827 0 1 1 1.37767 2.6674l-2.63808 1.3777 2.40358 1.3777a1.50015 1.50015 0 1 1 -1.49491 2.5794l-2.37427-1.3776.11725 2.9898a1.510707 1.510707 0 0 1 -3.01914.1172l-.20518-4.8658-4.68992-2.726v5.4227l4.13299 2.6381a1.5040788 1.5040788 0 0 1 -1.64147 2.5208l-2.49152-1.5828v2.7553a1.50015 1.50015 0 1 1 -2.98982 0v-2.7846l-2.52083 1.5828a1.50015 1.50015 0 1 1 -1.61216-2.4915l4.13299-2.6674v-5.3641l-4.68992 2.6967-.23449 4.8658a1.50015 1.50015 0 1 1 -2.96051-.1172l.11725-2.9898-2.40359 1.3776a1.50015 1.50015 0 1 1 -1.49491-2.5794l2.40358-1.3777-2.63807-1.3777a1.5078617 1.5078617 0 0 1 1.40697-2.6674l4.30886 2.2571 4.68992-2.6674-4.68992-2.726-4.30886 2.257a1.5078617 1.5078617 0 0 1 -1.40697-2.6674l2.60876-1.3777-2.37427-1.3776a1.5116733 1.5116733 0 0 1 1.49491-2.6088l2.40359 1.3484-.11725-2.9312a1.50015 1.50015 0 0 1 1.40697-1.5829 1.50015 1.50015 0 0 1 1.55354 1.4656l.23449 4.8365 4.68992 2.726v-5.3934l-4.13299-2.6381a1.5040034 1.5040034 0 0 1 1.61216-2.5208l2.52083 1.5828v-2.7553a1.50015 1.50015 0 0 1 1.34835-1.5242z" fill="#bababa" stroke-width=".937983"/><g transform="matrix(.93798335 0 0 .93798335 -193.41738 932.87243)"><path d="m-413.25 346.59375c-3.73347 3.63802-9.95681 14.79035-3.875 16.4375s5.67359-11.62974 3.875-16.4375zm55.4375 1.0625c-3.73347 3.63802-9.95681 14.79035-3.875 16.4375s5.67359-11.62974 3.875-16.4375zm18.40625.28125c-3.73347 3.63802-9.98806 14.7591-3.90625 16.40625s5.70484-11.59849 3.90625-16.40625zm-38.375 2.40625c-3.73347 3.63802-9.98806 14.7591-3.90625 16.40625s5.70484-11.59849 3.90625-16.40625zm-20.53125 6.90625c-3.73347 3.63802-9.98806 14.79035-3.90625 16.4375s5.70484-11.62974 3.90625-16.4375zm66.625 7.46875c-3.73347 3.63802-9.98806 14.79035-3.90625 16.4375s5.70484-11.62974 3.90625-16.4375zm-20 .25c-3.73347 3.63802-9.95681 14.72785-3.875 16.375s5.67359-11.56724 3.875-16.375zm-17.5625.28125c-3.73347 3.63802-9.98806 14.79035-3.90625 16.4375s5.70484-11.62974 3.90625-16.4375zm-18.125 6.9375c-3.73347 3.63802-9.98806 14.7591-3.90625 16.40625s5.70484-11.59849 3.90625-16.40625zm-25.59375.53125c-3.73347 3.63802-9.98806 14.79035-3.90625 16.4375s5.70484-11.62974 3.90625-16.4375z" fill="#69f"/><path d="m-382.53125 386.34375c-2.55124 0-2.54602 3.1875 0 3.1875h44.84375c2.92272 0 2.92728-3.1875 0-3.1875zm-42.90625 6.40625c-2.55124 0-2.54602 3.1875 0 3.1875h44.84375c2.92272 0 2.92728-3.1875 0-3.1875zm59.15625 1.0625c-2.55124 0-2.54602 3.1875 0 3.1875h44.84375c2.92273 0 2.92728-3.1875 0-3.1875zm-37.3125 6.375c-2.55124 0-2.54602 3.21875 0 3.21875h44.84375c2.92272 0 2.92728-3.21875 0-3.21875z" fill="#bababa"/></g></g></svg>