<svg height="128" width="128" xmlns="http://www.w3.org/2000/svg"><g fill="none" transform="matrix(1.066117 0 0 1.066117 .968317 -996.25297)"><path d="m20.23463 996.22742c3.79621 1 8.76977 0 8.76977 0 2.25347 3.90308 9.68191 6.49998 14.86382 6.49998 8.44939 0 17.11382-2.74998 19.11382-6.49998 0 0 34.99005 2.75 42.25259 0 10.57262-4.0034 7.28463-16.52103.25-20.75002s-16.25-1.25-16.25-1.25-.0274-8.62013-9.97575-12.73438c-9.94833-4.11424-18.35543 4.98438-18.35543 4.98438s-6.33785-17.75415-24.16882-15.5c-17.79816 2.25-17.25 17.25-17.25 17.25-7.28984 1.2171-13.25 7.46754-13.25 14.00002 0 6.5324 7.61805 12.3188 14 14z" fill="#bababa"/><path d="m-557.21875-215.15625c-3.73347 3.63802-9.95681 14.79035-3.875 16.4375s5.67359-11.62974 3.875-16.4375zm81.8125 5.59375c-3.73347 3.63802-9.95681 14.79035-3.875 16.4375s5.67359-11.62974 3.875-16.4375zm-35.71875 1.34375c-3.73347 3.63802-9.95681 14.7591-3.875 16.40625s5.67359-11.59849 3.875-16.40625zm-26.90625 13.3125c-3.73347 3.63802-9.95681 14.79035-3.875 16.4375s5.67359-11.62974 3.875-16.4375zm42.375 3.75c-3.73347 3.63802-9.95681 14.7591-3.875 16.40625s5.67359-11.59849 3.875-16.40625z" fill="#69f" transform="matrix(.93798335 0 0 .93798335 542.39707 1204.0352)"/></g></svg>