<svg height="50" viewBox="0 0 90 50" width="90" xmlns="http://www.w3.org/2000/svg"><g transform="matrix(-.22337018 0 0 .22978073 -.012258 -.001589)"><path d="m-402.98752-30.802156h277.46869v248.635206h-277.46869z" stroke-width=".847721"/><ellipse cx="125.53734" cy="93.504112" rx="123.11401" ry="124.31761" stroke-width="1.019194" transform="scale(-1 1)"/><g fill="#c00" transform="matrix(1 0 0 .97653843 0 -.73784)"><path d="m-402.98752 1.1630703h253.77748v187.0515297h-253.77748z" stroke-width=".703188"/><ellipse cx="147.75475" cy="94.566002" rx="112.60211" ry="93.525757" transform="scale(-1 1)"/></g></g><g fill="#fff" stroke-width="4" transform="matrix(.20953745 0 0 .18519557 10.764539 .802589)"><path d="m46.683401 170.96719v-106.020826h21.583333v88.010416h53.666666v18.01041z"/><path d="m136.73548 170.96719v-106.895826h21.58333v106.895826z"/><path d="m206.07923 170.96719-38.20833-106.895826h23.40625l27.05208 79.114576 26.17708-79.114576h22.89583l-38.28125 106.895826z"/><path d="m278.5584 170.96719v-106.895826h79.26041v18.083333h-57.67708v23.697913h53.66666v18.01042h-53.66666v29.09375h59.71875v18.01041z"/></g></svg>