<svg height="50" viewBox="0 0 90 50" width="90" xmlns="http://www.w3.org/2000/svg"><g transform="matrix(-.22337018 0 0 .22978073 -.012258 -.001589)"><path d="m-402.98752-30.802156h277.46869v248.635206h-277.46869z" stroke-width=".847721"/><ellipse cx="125.53734" cy="93.504112" rx="123.11401" ry="124.31761" stroke-width="1.019194" transform="scale(-1 1)"/><g fill="#00a8e1" transform="matrix(1 0 0 .97653843 0 -.73784)"><path d="m-402.98752 1.1630703h253.77748v187.0515297h-253.77748z" stroke-width=".703188"/><ellipse cx="147.75475" cy="94.566002" rx="112.60211" ry="93.525757" transform="scale(-1 1)"/></g></g><g stroke-width=".126366" transform="matrix(6.9495876 0 0 6.6386256 -242.36138 -125.06644)"><path d="m37.967306 23.913271a.10049077.11507786 0 0 1 -.06967-.02705.09354734.10712653 0 0 1 -.02126-.08114v-2.758623a.09354734.10712653 0 0 1 .02126-.08114.10037269.11494263 0 0 1 .06849-.02299h.26215c.0496-.0057.09423.03421.101554.0906l.02598.108181a.80309957.91967627 0 0 1 .26215-.193374.83974151.9616371 0 0 1 .314107-.07032c.214679-.0081.419912.101285.55264.294794a1.0851586 1.2426786 0 0 1 .205469.796485c.004.206627-.03058.411766-.101554.601759a.82663402.94662694 0 0 1 -.275139.396214.680515.77929752 0 0 1 -.399129.135227.84783036.97090012 0 0 1 -.283405-.05409.68082202.7796491 0 0 1 -.227905-.14875v.908723a.09927449.11368502 0 0 1 -.02007.08114.09927449.11368502 0 0 1 -.07085.02299zm.794716-1.265721a.34032245.38972313 0 0 0 .298756-.158215c.07357-.151184.106867-.323733.09565-.496282a.79240103.90742474 0 0 0 -.09447-.501691.33896446.38816803 0 0 0 -.301118-.158215.6905995.79084587 0 0 0 -.354257.112238v1.088575c.106277.07573.229086.115483.354257.114942z"/><path d="m40.138899 23.058639a.07793644.08924957 0 0 1 -.09093-.104125v-1.908047a.09354734.10712653 0 0 1 .02126-.08114.10037269.11494263 0 0 1 .06849-.02299h.260969c.0496-.0057.09423.03421.101553.0906l.04723.221772a1.0353147 1.1855994 0 0 1 .273959-.259635c.08455-.05071.178545-.07708.273958-.07708h.05078c.02562-.0026.05125.0055.07203.02299.01653.02258.02421.05193.02125.08114v.348885a.09918002.11357684 0 0 1 -.02007.07843.09354734.10712653 0 0 1 -.07085.02434h-.1665a1.0787112 1.2352952 0 0 0 -.203107.02704c-.06967.01474-.137688.03786-.203107.06897v1.386073a.10037269.11494263 0 0 1 -.02007.07843.09354734.10712653 0 0 1 -.07085.02434z"/><path d="m41.762574 20.612403a.31511119.36085225 0 0 1 -.220819-.08654.26586953.30446275 0 0 1 -.08384-.236647c-.004-.08965.02657-.176741.08384-.237999.129421-.118593.313398-.118593.44282 0 .05692.06099.0875.147533.08384.236647.0037.08911-.02692.175659-.08384.236646-.06141.06099-.140876.09249-.222001.0879zm-.173585 2.447602a.07793644.08924957 0 0 1 -.09093-.104125v-1.9094a.09354734.10712653 0 0 1 .02125-.08114.10037269.11494263 0 0 1 .06849-.02299h.348352c.02527-.003.05066.0051.07085.02299.01559.02312.02267.0522.02007.08114v1.9094a.09918002.11357684 0 0 1 -.02007.07843.09354734.10712653 0 0 1 -.07085.02434z"/><path d="m42.566737 23.058639a.07793644.08924957 0 0 1 -.09093-.104125v-1.908047a.09354734.10712653 0 0 1 .02125-.08114.10037269.11494263 0 0 1 .06849-.02299h.260969c.0496-.0057.09423.03421.101553.0906l.02952.112238c.107458-.08479.223654-.153753.345991-.205544a.97744102 1.1193249 0 0 1 .314107-.06221c.186103-.01825.364884.08682.460534.270454.107812-.08492.224953-.153077.348352-.20284a1.0621201 1.2162959 0 0 1 .337725-.06221.5290231.60581528 0 0 1 .393224.162272.53741898.61542989 0 0 1 .139341.451657v1.459096a.10037269.11494263 0 0 1 -.02007.07843.09354734.10712653 0 0 1 -.07085.02434h-.343629a.07793644.08924957 0 0 1 -.09093-.104109v-1.33063c0-.18837-.07357-.282623-.22082-.282623a.91986253 1.0533884 0 0 0 -.395586.108181v1.506425a.09918002.11357684 0 0 1 -.02007.07843.09354734.10712653 0 0 1 -.07085.02434h-.347168a.07793644.08924957 0 0 1 -.09093-.104125v-1.33063c0-.18837-.07357-.282623-.22082-.282623a.88428336 1.0126446 0 0 0 -.399125.112244v1.501015a.10037269.11494263 0 0 1 -.02007.07843.09354734.10712653 0 0 1 -.07085.02434z"/><path d="m46.560389 23.120843a.92322796 1.0572423 0 0 1 -.6908-.282624.96709673 1.107479 0 0 1 -.236171-.811359 1.0494614 1.2017996 0 0 1 .240894-.845167.8857122 1.0142808 0 0 1 .686077-.306964.78643771.9005958 0 0 1 .527842.186613.54319336.62204247 0 0 1 .190117.500338.46545767.53302279 0 0 1 -.205468.470589 1.0756173 1.2317523 0 0 1 -.603417.159567c-.119266.0016-.238297-.01379-.354257-.04598a.49094052.56220469 0 0 0 .146426.397566.57909135.66315137 0 0 0 .379055.120352c.06589 0 .131783-.005.197203-.01487.08998-.01596.179017-.03773.266873-.06491h.03897c.04098 0 .0614.03205.0614.09601v.19067c.0022.03232-.0034.06464-.01653.09331-.01677.02258-.03897.03895-.06377.04733-.18067.07613-.371969.113319-.564448.109533zm-.118086-1.302232a.4939517.56565297 0 0 0 .268054-.06491c.05644-.04422.08833-.11927.08384-.197431 0-.174037-.09057-.260987-.271596-.260987-.232274 0-.36642.163218-.402672.48952.105451.02312.212672.03448.320012.03381z"/></g></svg>