<svg height="60" viewBox="0 0 60 60" width="60" xmlns="http://www.w3.org/2000/svg"><path d="m29.805085 3.6115806c14.727166 0 26.583333 11.8561664 26.583333 26.5833334s-11.856167 26.583333-26.583333 26.583333c-14.727167 0-26.5833339-11.856166-26.5833339-26.583333s11.8561669-26.5833334 26.5833339-26.5833334z" fill="none" stroke="#c00" stroke-linejoin="round" stroke-width="4.833"/><path d="m25.219597 58.371196c-6.087845-1.099381-11.308441-3.896019-15.6890732-8.404536-12.1874204-12.543211-10.38185732-32.944804 3.8423572-43.4159353 8.463505-6.23039426 20.345261-7.18745179 29.833661-2.4030564 3.059832 1.5428779 4.895316 2.8783515 7.443272 5.4156292 5.290449 5.2682745 8.101075 11.6524395 8.41488 19.1138855.365492 8.690382-2.631074 16.121044-8.945992 22.18362-5.480746 5.261733-12.286714 7.953022-19.96616 7.895232-1.60805-.0121-3.827876-.185278-4.932945-.384839zm9.398964-2.656986c10.41268-1.85565 18.3084-9.162295 21.001406-19.434549.756163-2.88433.916777-7.903454.34938-10.918094-1.258233-6.685134-4.643463-12.241973-9.84604-16.1622338-5.057975-3.8112968-10.825681-5.5858568-17.094928-5.2596259-13.997096.7283624-24.80804 12.0517797-24.80804 25.9840217 0 13.036101 9.335419 23.839126 22.372881 25.890089 1.388672.218456 6.603786.153727 8.025341-.09961z" fill="none" stroke-width=".254237"/><path d="m137.45398 39.297949c1.02081.927187 2.42973 1.153124 3.67356 1.349062.19552.03187.38908.06281.5787.09563.1405.03563.31931.07406.50107.115308 1.65846.3675 2.83058.726563 2.83451 2.022187.004.853125-.2918 1.642499-.60228 2.480623-.35664.959063-.72606 1.952813-.66809 3.10875.11292 2.060624 1.02868 3.853124 2.45428 4.798123.56789.433126 1.31458.69 2.0269.69 1.05814 0 1.84807-.549374 2.16934-1.505625.22599-.645.18766-1.272187.14739-1.935936-.008-.163126-.0206-.330937-.0246-.505313-.0403-.914062.0746-1.669687.35467-2.383125.53056-1.425936 1.5946-2.754373 2.46313-3.755622l.47454-.569063c.66418-.799687 1.34995-1.626562 2.13006-2.290312.38317-.28875.79189-.39375 1.31753-.501562.14836-.0094 9.18144-.09469 9.18144-.09469v-12.66749s-7.08479.0084-7.4827.03094c-.34977.01969-.68677.03844-.99528.03844h-.14343c-.29181-.05906-.58656-.08906-.89407-.121877-.27315-.02719-.55611-.05719-.85282-.110628-.33306-.06094-.67792-.371248-1.01197-.673125-.19257-.174374-.38219-.341249-.56985-.468749-.19159-.128437-.37629-.256875-.56592-.388125-.57868-.40125-1.179-.819375-1.85888-1.11-.83905-.344061-1.76555-.457499-2.66356-.567187-.43622-.05531-.8695-.105-1.28412-.184687-.27117-.02906-.505-.05531-.7408-.08063-.70151-.075-1.42856-.155626-2.15757-.155626-.49125 0-.92453.0375-1.32539.113436-1.43542.389063-2.34915 1.499999-2.35014 2.774999-.72901.277499-1.38139.858749-1.79403 1.603125-.36844.665624-.49224 1.378123-.35862 2.009062-1.38532.864374-2.10156 2.486249-1.71544 3.878435-.61209.402189-1.03457 1.074375-1.17998 1.893751-.20338 1.133436.16309 2.338123.93239 3.067498zm.93534-2.537812c.0472-.389999.23383-.871875.85576-.979686.33504-.09187.55904-.278438.66711-.539063.13068-.315937.0826-.711562-.13263-1.05-.22499-.254062-.26037-.7875-.12675-1.251562.18275-.55125.60424-.942188 1.25662-1.152186.27805-.03281.5276-.217502.66418-.497813.15523-.320626.12084-.666562-.0924-.906562-.18471-.253126-.14934-.822189.10416-1.290939.20239-.370311.49027-.592498.77028-.592498.0392 0 .0786.0047.11892.01406l.0442.0084h.0462c.3429 0 .78993-.1425 1.01001-.469688.14541-.214687.16603-.474374.056-.71625-.13656-.349687-.12182-.749063.0481-1.016249.12282-.195937.31834-.309374.58361-.342187.46963-.119064.93632-.119064 1.38925-.119064 1.347.115308 2.77654.24 4.15695.477186l.65827.141564c.34191.07313.67989.143436.98054.215624.4942.2325 1.04734.630938 1.58083 1.017188.17784.1275.35076.254063.52172.37125.12477.09469.26036.216563.3979.340313.35174.315.74572.67031 1.23696.799686.46179.271874.95402.271874 1.35291.271874 1.28707.113436 1.89426.557813 2.20767 1.633126.30851 1.083749.31931 2.322187.30162 3.394685l-.004.240001c-.01 1.010624-.0265 2.275311-.56984 3.193123-.27019.437813-.8086.530625-1.43249.645-.86263.134062-1.54154.404999-2.17623.869999-.0894.03094-.18274.09469-.25152.214688-.2584.168751-.46964.415312-.6622.6375-1.0218 1.0575-1.96106 2.161874-2.6999 3.176249-.17194.24375-.34486.478124-.51484.710624-.78502 1.070625-1.59852 2.177812-1.94436 3.541874-.24562 1.004062-.22204 1.873124-.16702 2.903435l.008.153752c.0422.627186.0521 1.302186-.31832 1.351873-.0256.0037-.057.0074-.0864.0074-.6013 0-1.36076-.72375-1.81172-1.394062-.47062-.85125-.71625-1.742812-.6907-2.549999.0246-.838126.31046-1.63125.61405-2.472188.35757-.992811.72797-2.021249.64249-3.139685-.12282-1.523437-1.39022-2.840625-3.15382-3.277499-.51482-.1275-1.06208-.212813-1.58968-.294375-.98446-.152812-2.00134-.31125-2.83253-.755625-.54137-.259688-1.11908-.806249-1.0169-1.523437z" fill="#bababa" stroke-width=".959735" transform="translate(-121.31356 -8.347457)"/></svg>