<svg height="80" viewBox="0 0 39.687499 21.166667" width="150" xmlns="http://www.w3.org/2000/svg" xmlns:xlink="http://www.w3.org/1999/xlink"><filter id="a" color-interpolation-filters="sRGB" height="1.061364" width="1.039416" x="-.019708" y="-.030682"><feGaussianBlur stdDeviation="4.9037171"/></filter><g filter="url(#a)" opacity=".108" transform="matrix(.06269244 0 0 .05487749 .93286 -.752807)"/><g transform="matrix(.06145365 0 0 .05101762 .550325 .530474)"><path d="m93.255 135.077-.079 130.046c.624 53.443 65.907 43.387 67.414-5.085v-160.033l66.445-36.855c38.41-25.394 9.498-80.672-36.019-57.672l-168.374 90.83c-44.756 27.1-15.969 79.319 24.229 64.021z" fill="#184690"/><path d="m255.742 162.869c.624.217-17.5-49.649-17.5-49.649-17.216-42.603-72.056-30.136-61.25 25.833l42.109 113.442c7.049 20.625 25.325 31.381 45.796 27.224 25.962-5.274 16.322-25.98 47.446-80.384 33.314-59.819 40.578-68.898 88.104-126.292 29.665-36.39-15.453-77.888-48.889-40.279-48.957 55.068-95.816 130.105-95.816 130.105z" fill="#184690"/><g fill="#c00076"><path d="m602.82 132.106-15.229 102.123-15.975 5.471-13.139-92.408-3.482 98.101-21.948 7.515 9.284-143.956 26.93-9.222 11.91 63.011 10.717-70.759 28.422-9.733 9.284 137.597-23.292 7.976z"/><path d="m473.088 132.374 25.382-8.692v113.831l28.369-9.715v26.945l-53.751 18.407z"/><path d="m439.407 143.704 25.382-8.692v140.776l-25.382 8.692z"/><path d="m403.856 296.013-25.381 8.692v-140.776l55.69-19.072v28.046l-30.309 10.379v30.612l26.875-9.205v25.847l-26.875 9.203z"/><path d="m320.118 183.804 25.382-8.691v113.83l28.368-9.714v26.946l-53.75 18.406z"/><path d="m253.878 206.529 57.185-19.582v26.578l-31.803 10.891v29.329l28.368-9.715v25.846l-28.368 9.715v32.078l34.788-11.914v26.946l-60.17 20.605z"/><path d="m218.673 218.907 25.383-8.691v140.776l-25.383 8.693z"/><path clip-rule="evenodd" d="m178.174 235.118c20.156-6.902 33.445-1.005 33.445 35.473 0 34.645-10.899 47.358-30.011 53.903l-9.705 3.323v50.226l-24.785 8.487v-140.777zm-1.194 66.032c6.719-2.302 9.556-9.321 9.556-23.436 0-16.498-2.688-20.16-9.705-17.757l-4.927 1.687v41.244z" fill-rule="evenodd"/><path d="m122.771 312.551c12.243 3.14 18.813 12.622 18.813 31.136 0 26.212-6.58 48.652-33.754 57.958-24.486 8.385-36.869-2.979-36.869-24.609 0-5.682.598-12.303 1.941-17.345l21.948-8.433c-1.045 3.657-1.493 9.493-1.493 13.893 0 8.798 4.031 13.101 10.899 10.748 6.569-2.25 11.198-7.684 11.198-18.132 0-9.716-4.778-13.028-13.139-16.215l-13.587-5.245c-9.556-3.51-16.723-13.704-16.723-29.468 0-22.913 12.094-43.735 35.685-51.813 20.455-7.005 28.518 3.982 28.518 24.146 0 4.949-.598 9.553-1.344 12.925l-21.649 8.146c.747-2.271 1.643-5.878 1.643-10.094 0-9.349-3.136-11.574-8.511-9.733-4.778 1.636-8.361 6.529-8.361 15.328 0 9.531 7.764 12.555 15.08 14.266z"/></g></g></svg>