<svg height="80" viewBox="0 0 52.916665 21.166667" width="200" xmlns="http://www.w3.org/2000/svg" xmlns:xlink="http://www.w3.org/1999/xlink"><filter id="a" color-interpolation-filters="sRGB" height="1.065388" width="1.032255" x="-.016127" y="-.032694"><feGaussianBlur stdDeviation=".25231486"/></filter><g transform="translate(0 -275.83332)"><path d="m4.5180004 288.40126c.00226-6.27245.064123-7.73799.3395029-8.10439 1.2321044-1.64156 4.5153816-2.92786 8.6819027-3.40234.988252-.11235 4.555058-.13671 19.972704-.13671h18.768595v19.27617h-47.7615565zm0 0" fill="#fff" stroke-width=".187959"/><rect fill="none" height="19.84375" rx="1.311837" ry="1.295217" stroke="#13243c" stroke-width="1.322917" width="51.59375" x=".661458" y="276.49478"/><path d="m13.515748 276.49478 6.455553 10.00339-6.455553 9.87364z" fill="#13243c"/><path d="m.66145831 276.49478h13.383457v19.84375h-13.383457z" fill="#13243c"/><path d="m14.045047 277.15558v.15917l5.926254 9.18342-5.926254 9.06404v.11524h36.89749c.37625 0 .650608-.27711.650608-.6351v-17.25166c0-.35798-.274358-.63511-.650608-.63511z" fill="#fff" filter="url(#a)" opacity=".428" stroke="#69f" stroke-width="1.068123"/><g stroke-width=".264583" transform="translate(.417763 -.139254)"><path d="m21.71498 291.01205v-8.08081h1.069357v4.00733l4.012848-4.00733h1.449696l-3.389974 3.27422 3.538802 4.80659h-1.411111l-2.877344-4.09001-1.322917 1.28984v2.80017z"/><path d="m28.974485 287.07638q0-2.01194 1.080382-3.14744 1.080382-1.14102 2.789149-1.14102 1.118967 0 2.017448.53468.898481.53468 1.367014 1.49379.474045.95361.474045 2.16628 0 1.22921-.496093 2.19935-.496094.97014-1.405599 1.47174-.909506.4961-1.962327.4961-1.141015 0-2.039496-.55122-.898481-.55121-1.361502-1.50481-.463021-.95361-.463021-2.01745zm1.102431.0165q0 1.46072.782725 2.30408.788238.83785 1.973351.83785 1.207162 0 1.984375-.84887.782726-.84887.782726-2.40881 0-.98668-.336242-1.71979-.330729-.73863-.975651-1.14102-.639409-.4079-1.438671-.4079-1.135504 0-1.956815.78273-.815798.77721-.815798 2.60173z"/><path d="m38.07505 291.01205v-8.08081h2.783637q.942579 0 1.438672.11575.694532.15986 1.185113.57878.63941.54019.953603 1.38355.319705.83785.319705 1.91823 0 .92053-.214974 1.6316-.214974.71106-.551216 1.1796-.336241.46302-.738628.73311-.396875.26459-.964627.40239-.56224.1378-1.295356.1378zm1.069358-.9536h1.725304q.799262 0 1.251258-.14883.457509-.14882.727605-.41892.380338-.38034.5898-1.01975.214974-.64492.214974-1.55994 0-1.26779-.418924-1.94579-.413411-.6835-1.008724-.91501-.429948-.16537-1.38355-.16537h-1.697743z"/><path d="m46.414937 291.01205v-8.08081h1.069358v8.08081z"/></g></g><g clip-rule="evenodd" fill="#69f" fill-rule="evenodd" transform="matrix(.05929886 0 0 .05952828 -9.662499 -6.782473)"><path d="m431.521 293.719c-.791 2.568-2.526 4.448-4.384 6.299-12.448 12.406-24.857 24.852-37.278 37.284-4.476 4.478-9.259 4.465-13.752-.032-12.82-12.83-25.641-25.659-38.456-38.491-4.366-4.372-4.364-9.144.013-13.526 12.888-12.906 25.778-25.809 38.671-38.708 4.195-4.198 9.124-4.2 13.318-.004 12.499 12.501 24.979 25.02 37.499 37.496 1.859 1.852 3.586 3.741 4.369 6.31z"/><path d="m307.953 413.914c-2.556-.812-4.408-2.582-6.251-4.436-12.395-12.458-24.828-24.877-37.247-37.312-4.444-4.45-4.449-9.198-.015-13.638 12.855-12.865 25.709-25.729 38.567-38.592 4.274-4.274 9.171-4.29 13.422-.037 12.856 12.864 25.711 25.729 38.563 38.597 4.415 4.421 4.428 9.264.031 13.664-12.527 12.541-25.075 25.066-37.573 37.633-1.789 1.798-3.629 3.415-6.123 4.12h-3.374z" fill="#69f"/><path d="m262.841 261.207c0-14.303.129-28.608-.081-42.909-.061-4.14.928-7.374 4.089-10.104 2.543-2.198 4.797-4.733 7.179-7.118 9.423-9.433 18.845-18.867 28.271-28.296 4.433-4.432 9.213-4.429 13.643.002 12.821 12.825 25.641 25.653 38.459 38.482 4.403 4.407 4.4 9.254-.003 13.663-15.16 15.179-30.326 30.356-45.49 45.533-13.391 13.405-26.78 26.809-40.173 40.212-2.481 2.482-4.679 1.905-5.581-1.536-.278-1.066-.3-2.219-.301-3.332-.018-14.866-.012-29.732-.012-44.597"/><path d="m232.182 292.201c0 13.127.019 26.256-.026 39.383-.005 1.247-.203 2.567-.65 3.724-.876 2.279-2.52 2.561-4.241.844-6.037-6.027-12.057-12.071-18.083-18.107-6.965-6.977-13.932-13.953-20.894-20.934-2.882-2.889-2.895-6.898-.024-9.801 12.82-12.967 25.643-25.933 38.472-38.895.848-.857 1.648-2.02 3.089-1.475 1.378.52 1.922 1.763 2.118 3.141.122.854.218 1.722.22 2.583.013 13.179.009 26.359.009 39.537z"/></g></svg>