<svg height="35" width="80" xmlns="http://www.w3.org/2000/svg"><text x="6.606521" y="10.002353"><tspan x="6.606521" y="76.29718"/></text><g fill="#fff" transform="matrix(1.4722367 0 0 1.7312777 -407.35879 -832.43344)"><path d="m280.32447 496.93103c0-.26846-.0774-.36941-.31588-.36941h-1.07339v2.689h1.06836c.21428 0 .32091-.0676.32091-.35165zm-.2183 2.97409h-1.98481v-3.99467h2.01902c.72934 0 .9919.35165.9919 1.00504v1.88142c0 .87747-.32594 1.10821-1.02611 1.10821" stroke-width="1.056393"/><path d="m281.9753 499.90513h.8068v-3.99467h-.8068z" stroke-width=".845114"/><path d="m286.08375 499.90512-.0835-.26845c-.11971.17527-.3521.345-.9064.345h-.39837c-.69312 0-1.07037-.24516-1.07037-1.09823v-2.00566c0-1.0472.70822-1.05386 1.20115-1.05386h.94865c.36115 0 .67803.0766.83497.1786v.51362h-1.82989c-.21428 0-.34807.0532-.34807.37717v2.08996c0 .2607.14888.32282.34002.32282h.56235c.15291 0 .44062-.0698.5724-.14532v-.93073h-.75851v-.58572h1.54519v2.2608z" stroke-width="1.056393"/><path d="m287.56155 499.90513h.80881v-3.99467h-.80881z" stroke-width=".845114"/><g stroke-width="1.056393"><path d="m290.71833 496.56275v3.34239h-.80982v-3.34239h-1.08949v-.65228h2.97974v.65228"/><path d="m293.49484 496.64816-.0463-.23962h-.0151l-.0523.23962-.4527 1.5586h1.02812zm.96676 3.25697-.30482-1.03056h-1.41542l-.30381 1.03056h-.71928l1.2947-4.03461h.95871l1.31382 4.03461"/><path d="m295.80661 499.90512v-3.99467h.8068v3.31909h1.66793v.67558"/><path d="m302.29121 496.90774c0-.24516-.12575-.345-.34606-.345h-.99291v1.38887h1.00397c.21931 0 .335-.0976.335-.35165zm-.13078 1.70614h-1.20819v1.29125h-.8058v-3.99467h1.93955c.69815 0 1.00799.28398 1.00799 1.0117v.70109c0 .69888-.25451.99063-.93355.99063"/><path d="m303.75188 499.90512v-3.99467h.80982v3.31909h1.66592v.67558"/><path d="m308.77478 499.98833h-.95971c-.69312 0-1.02409-.22963-1.02409-1.09046v-2.98741h.80881v3.04176c0 .25515.11066.345.3028.345h.86616c.19415 0 .30481-.0899.30481-.345v-3.04176h.71727v2.98741c0 .86083-.32393 1.09046-1.01605 1.09046"/><path d="m312.40741 499.98167h-1.05427c-.24345 0-.57241-.0543-.72431-.24516v-.43042h1.72023c.15794 0 .22434-.0987.22434-.26069v-.39381c0-.19303-.0514-.25958-.26156-.29841l-.86414-.13201c-.60259-.0899-.83095-.28288-.83095-.86084v-.61345c0-.57574.27967-.92296 1.00297-.92296h.84403c.24043 0 .58749.0621.72028.23961v.46037h-1.61662c-.169 0-.22534.0688-.22534.26957v.36164c0 .19857.10563.26069.27262.28288l1.00096.14643c.53015.0766.70922.25403.70922.85196v.64562c0 .60015-.23641.89967-.91746.89967"/></g><path d="m0 0v4.986h-40.972c-.085 0-.152.07-.152.151 0 .092.067.161.152.161h41.125l.111-.047.043-.114.001-5.137c0-.084-.071-.153-.155-.153-.082 0-.153.069-.153.153" transform="matrix(1.25 0 0 -1.25 329.45098 500.27189)"/><path d="m0 0-1.498-2.722-1.451 2.722h-1.357c.251-.463 2.03-3.81 2.03-3.81v-2.202h1.458v2.196s1.846 3.353 2.108 3.816z" transform="matrix(1.25 0 0 -1.25 328.21472 483.3819)"/><path d="m0 0h-1.27c-1.315 0-2.412 1.281-2.412 2.868 0 1.537 1.097 2.839 2.412 2.839h1.27zm-7.222 0h-1.266v5.707h1.266c1.314 0 2.413-1.302 2.413-2.839 0-1.587-1.099-2.868-2.413-2.868m-2.576-.998h11.105v7.702h-11.105z" transform="matrix(1.25 0 0 -1.25 290.36599 490.7144)"/><path d="m0 0c-.415.292-1.113.443-2.018.443-.885 0-1.527-.124-2.021-.443-.515-.332-.756-.886-.756-1.759v-1.891c0-.873.251-1.462.751-1.759.404-.278 1.064-.415 2.026-.415.949 0 1.626.137 2.015.407.5.313.763.922.763 1.767v1.891c0 .831-.257 1.42-.76 1.759m-.601-3.567c0-1.066-.372-1.309-1.417-1.309-1.046 0-1.418.243-1.418 1.309v1.8c0 1.04.372 1.262 1.418 1.262 1.045 0 1.417-.222 1.417-1.262z" transform="matrix(1.25 0 0 -1.25 308.58473 483.80565)"/><path d="m0 0h-3.009v-6.012h3.218c1.588 0 2.177.651 2.177 2.39v1.323c0 1.649-.67 2.299-2.386 2.299m1.042-3.768c0-1.053-.562-1.316-1.033-1.316h-1.665v4.198h1.665c.471 0 1.033-.263 1.033-1.24z" transform="matrix(1.25 0 0 -1.25 298.52599 483.3819)"/><path d="m0 0h-1.357v-6.012h3.86v1.005h-2.503" transform="matrix(1.25 0 0 -1.25 312.47347 483.3819)"/><path d="m0 0h-1.224v4.266h1.334c.451 0 .735-.359.735-.844 0-.755-.367-.775-1.406-.811v-.698c.929.006 1.673.062 1.673-.902 0-.484-.308-1.011-1.112-1.011m.718 2.3c1.067.097 1.298.625 1.298 1.371 0 .659-.28.998-.587 1.192-.256.159-.561.269-1.201.269h-2.808v-6.012h2.846c.875 0 1.239.174 1.41.292.286.194.662.623.662 1.301 0 .811-.279 1.621-1.62 1.587" transform="matrix(1.25 0 0 -1.25 319.75724 489.7969)"/></g><g fill="#039" transform="translate(40.822173 -12.124967)"><text fill="#039" x="6.606521" y="10.002353"><tspan fill="#039" x="6.606521" y="76.29718"/></text><text fill="#039" x="21.02857" y="18.314285"><tspan fill="#039" x="21.02857" y="85.66069"/></text><g fill="#fff"><path d="m18.213806 43.782551h3.84961v1.658203h-6.357422v-1.658203l3.193359-2.81836q.427734-.386718.632813-.755859.205078-.369141.205078-.767578 0-.615234-.416016-.990234-.410156-.375-1.095703-.375-.527344 0-1.154297.228515-.626953.222656-1.341797.667969v-1.921875q.761719-.251953 1.50586-.380859.74414-.134766 1.458984-.134766 1.570312 0 2.4375.691406.873047.691406.873047 1.927735 0 .714843-.369141 1.335937-.36914.615234-1.552734 1.652344z"/><path d="m24.325134 43.173176h2.109375v2.267578h-2.109375z"/><path d="m33.190369 41.057941q0-1.640625-.310547-2.308593-.304688-.673828-1.03125-.673828-.726563 0-1.03711.673828-.310546.667968-.310546 2.308593 0 1.658204.310546 2.337891.310547.679688 1.03711.679688.720703 0 1.03125-.679688.310547-.679687.310547-2.337891zm2.255859.01758q0 2.173828-.9375 3.357421-.9375 1.177735-2.660156 1.177735-1.728516 0-2.666016-1.177735-.9375-1.183593-.9375-3.357421 0-2.179688.9375-3.357422.9375-1.183594 2.666016-1.183594 1.722656 0 2.660156 1.183594.9375 1.177734.9375 3.357422z"/></g></g></svg>