<svg height="35" width="80" xmlns="http://www.w3.org/2000/svg"><text x="6.606521" y="10.002353"><tspan x="6.606521" y="76.29718"/></text><g fill="#fff" transform="matrix(1.4722367 0 0 1.7312777 -407.35879 -832.43344)"><path d="m0 0c0 .242-.077.333-.314.333h-1.067v-2.424h1.062c.213 0 .319.061.319.317zm-.217-2.681h-1.973v3.601h2.007c.725 0 .986-.317.986-.906v-1.696c0-.791-.324-.999-1.02-.999" transform="matrix(1.25 0 0 -1.25 284.42972 496.93939)"/><path d="m286.48098 500.29065h1.0025v-4.50125h-1.0025z"/><path d="m0 0-.083.242c-.119-.158-.35-.311-.901-.311h-.396c-.689 0-1.064.221-1.064.99v1.808c0 .944.704.95 1.194.95h.943c.359 0 .674-.069.83-.161v-.463h-1.819c-.213 0-.346-.048-.346-.34v-1.884c0-.235.148-.291.338-.291h.559c.152 0 .438.063.569.131v.839h-.754v.528h1.536v-2.038z" transform="matrix(1.25 0 0 -1.25 291.58597 500.29064)"/><path d="m293.42223 500.29065h1.005v-4.50125h-1.005z"/><path d="m0 0v-3.013h-.805v3.013h-1.083v.588h2.962v-.588" transform="matrix(1.25 0 0 -1.25 297.34472 496.52441)"/><path d="m0 0-.046.216h-.015l-.052-.216-.45-1.405h1.022zm.961-2.936-.303.929h-1.407l-.302-.929h-.715l1.287 3.637h.953l1.306-3.637" transform="matrix(1.25 0 0 -1.25 300.79471 496.62065)"/><path d="m0 0v3.601h.802v-2.992h1.658v-.609" transform="matrix(1.25 0 0 -1.25 303.66722 500.29064)"/><path d="m0 0c0 .221-.125.311-.344.311h-.987v-1.252h.998c.218 0 .333.088.333.317zm-.13-1.538h-1.201v-1.164h-.801v3.601h1.928c.694 0 1.002-.256 1.002-.912v-.632c0-.63-.253-.893-.928-.893" transform="matrix(1.25 0 0 -1.25 311.72473 496.91315)"/><path d="m0 0v3.601h.805v-2.992h1.656v-.609" transform="matrix(1.25 0 0 -1.25 313.53971 500.29064)"/><path d="m0 0h-.954c-.689 0-1.018.207-1.018.983v2.693h.804v-2.742c0-.23.11-.311.301-.311h.861c.193 0 .303.081.303.311v2.742h.713v-2.693c0-.776-.322-.983-1.01-.983" transform="matrix(1.25 0 0 -1.25 319.78097 500.3844)"/><path d="m0 0h-1.048c-.242 0-.569.049-.72.221v.388h1.71c.157 0 .223.089.223.235v.355c0 .174-.051.234-.26.269l-.859.119c-.599.081-.826.255-.826.776v.553c0 .519.278.832.997.832h.839c.239 0 .584-.056.716-.216v-.415h-1.607c-.168 0-.224-.062-.224-.243v-.326c0-.179.105-.235.271-.255l.995-.132c.527-.069.705-.229.705-.768v-.582c0-.541-.235-.811-.912-.811" transform="matrix(1.25 0 0 -1.25 324.29473 500.37689)"/><path d="m0 0v4.986h-40.972c-.085 0-.152.07-.152.151 0 .092.067.161.152.161h41.125l.111-.047.043-.114.001-5.137c0-.084-.071-.153-.155-.153-.082 0-.153.069-.153.153" transform="matrix(1.25 0 0 -1.25 329.45098 500.27189)"/><path d="m0 0-1.498-2.722-1.451 2.722h-1.357c.251-.463 2.03-3.81 2.03-3.81v-2.202h1.458v2.196s1.846 3.353 2.108 3.816z" transform="matrix(1.25 0 0 -1.25 328.21472 483.3819)"/><path d="m0 0h-1.27c-1.315 0-2.412 1.281-2.412 2.868 0 1.537 1.097 2.839 2.412 2.839h1.27zm-7.222 0h-1.266v5.707h1.266c1.314 0 2.413-1.302 2.413-2.839 0-1.587-1.099-2.868-2.413-2.868m-2.576-.998h11.105v7.702h-11.105z" transform="matrix(1.25 0 0 -1.25 290.36599 490.7144)"/><path d="m0 0c-.415.292-1.113.443-2.018.443-.885 0-1.527-.124-2.021-.443-.515-.332-.756-.886-.756-1.759v-1.891c0-.873.251-1.462.751-1.759.404-.278 1.064-.415 2.026-.415.949 0 1.626.137 2.015.407.5.313.763.922.763 1.767v1.891c0 .831-.257 1.42-.76 1.759m-.601-3.567c0-1.066-.372-1.309-1.417-1.309-1.046 0-1.418.243-1.418 1.309v1.8c0 1.04.372 1.262 1.418 1.262 1.045 0 1.417-.222 1.417-1.262z" transform="matrix(1.25 0 0 -1.25 308.58473 483.80565)"/><path d="m0 0h-3.009v-6.012h3.218c1.588 0 2.177.651 2.177 2.39v1.323c0 1.649-.67 2.299-2.386 2.299m1.042-3.768c0-1.053-.562-1.316-1.033-1.316h-1.665v4.198h1.665c.471 0 1.033-.263 1.033-1.24z" transform="matrix(1.25 0 0 -1.25 298.52599 483.3819)"/><path d="m0 0h-1.357v-6.012h3.86v1.005h-2.503" transform="matrix(1.25 0 0 -1.25 312.47347 483.3819)"/><path d="m0 0h-1.224v4.266h1.334c.451 0 .735-.359.735-.844 0-.755-.367-.775-1.406-.811v-.698c.929.006 1.673.062 1.673-.902 0-.484-.308-1.011-1.112-1.011m.718 2.3c1.067.097 1.298.625 1.298 1.371 0 .659-.28.998-.587 1.192-.256.159-.561.269-1.201.269h-2.808v-6.012h2.846c.875 0 1.239.174 1.41.292.286.194.662.623.662 1.301 0 .811-.279 1.621-1.62 1.587" transform="matrix(1.25 0 0 -1.25 319.75724 489.7969)"/></g></svg>