<svg height="35" width="80" xmlns="http://www.w3.org/2000/svg"><text x="6.606521" y="10.002353"><tspan x="6.606521" y="76.29718"/></text><text x="21.02857" y="18.314285"><tspan x="21.02857" y="85.66069"/></text><g fill="#fff" transform="matrix(.29051096 0 0 .35215601 .29846 .378934)"><g stroke-width="1.181576"><path d="m21.511012 75.769546c0-1.887547-.608643-2.593745-2.435629-2.593745h-8.333441v19.06734h8.28523c1.672003 0 2.48384-.524068 2.48384-2.517166zm-1.699519 21.125263h-15.362463v-28.399764h15.640326c5.646406 0 7.685759 2.545066 7.685759 7.188661v13.31755c0 6.215799-2.520528 7.893553-7.963622 7.893553"/><path d="m34.300034 68.485786h6.259517v28.409026h-6.259517z"/><path d="m66.166279 96.894809-.651093-1.915449c-.934717 1.219699-2.719254 2.411734-7.034666 2.411734h-3.087896c-5.362663 0-8.289816-1.688202-8.289816-7.750959v-14.242803c0-7.398454 5.495892-7.484295 9.30955-7.484295h7.345926c2.814619 0 5.25013.543777 6.468591 1.239408v3.641881h-14.181983c-1.672003 0-2.691738.419706-2.691738 2.727078v14.814362c0 1.849316 1.152963 2.307371 2.653756 2.307371h4.352218c1.171308 0 3.399038-.505546 4.418773-1.038875v-6.606653h-5.890992v-4.176398h11.99094v16.073598z"/><path d="m77.609367 68.485786h6.260693v28.409026h-6.260693z"/></g><path d="m188.7188 75.2725v-3.918h19.624v3.918h-7.1143v20.0097h-5.3154v-20.0097z" transform="matrix(1.1758937 0 0 1.1872861 -134.54984 -16.232421)"/><path d="m123.61045 73.757809-.36747-1.688202h-.13205l-.39734 1.688202-3.49322 11.086759h7.96938zm7.4688 23.137-2.35978-7.293024h-10.97238l-2.34144 7.293024h-5.57056l10.0272-28.657168h7.43999l10.15925 28.657168z" stroke-width="1.181576"/><path d="m235.9004 95.2822v-23.9199h5.3154v19.8496h11.001v4.0703z" transform="matrix(1.1758937 0 0 1.1872861 -134.54984 -16.232421)"/><path d="m272.18778 94.739377v-33.0742h-271.6802033c-.5781 0-1.02-.457-1.02-1.0117 0-.5781.4419-1.0273 1.02-1.0273h272.6997033c.2568 0 .5303.0967.7148.3213.2002.168.2969.417.2969.7061l.008 34.0859c0 .5703-.457 1.0273-1.0195 1.0273s-1.0195-.4571-1.0195-1.0274"/><path d="m265.62718 5.1612766-9.9482 18.0068004-9.6113-18.0068004h-9.0098c1.6865 3.0518 13.4736 25.2090004 13.4736 25.2090004v14.6182h9.668c.008-1.9717 0-14.5537 0-14.5537s12.2451-22.2061004 13.9717-25.2735004z"/><path d="m64.843977 44.048977h-8.4111c-8.7236 0-15.9941-8.4834-15.9941-19.0107 0-10.1934 7.2705-18.8369004 15.9941-18.8369004h8.4111zm-47.8798 0h-8.3950003v-37.8477004h8.3950003c8.708 0 16.0029 8.6436004 16.0029 18.8369004 0 10.5274-7.2949 19.0108-16.0029 19.0108m-17.0791003 6.6279h73.6309003v-51.0996004h-73.6309003z"/><path d="m161.48368 7.3780766c-2.7461-1.9111-7.3711-2.9033-13.377-2.9033-5.8613 0-10.1172.8027-13.3896 2.9189-3.4199 2.2002-5.0342 5.8936004-5.0342 11.6748004v12.5381c0 5.79 1.6787 9.7041 4.9941 11.6436 2.6777 1.8662 7.0547 2.7539 13.4297 2.7539 6.2949 0 10.792-.9033 13.3613-2.7061 3.3242-2.0713 5.0586-6.082 5.0586-11.6914v-12.5381c.0001-5.5-1.6865-9.4228004-5.0429-11.6904004m-3.9746 23.6709004c0 7.0615-2.4648 8.6875-9.4023 8.6875-6.9219 0-9.3945-1.626-9.3945-8.6875v-11.9317c0-6.8896 2.4727-8.3789 9.3945-8.3789 6.9375 0 9.4023 1.4893 9.4023 8.3789z"/><path d="m108.11548 5.1612766h-19.945303v39.8467004h21.354503c10.5146 0 14.4287-4.2998 14.4287-15.8545v-8.7559c0-10.9687004-4.4394-15.2363004-15.8379-15.2363004m6.9258 24.9482004c0 6.9814-3.7256 8.7402-6.8496 8.7402h-11.024403v-27.8427h11.024403c3.124 0 6.8496 1.7627 6.8496 8.2549z"/><path d="m199.2373 45.4268v-6.6319h-16.6045v-33.2109h-8.9932v39.8428z" transform="translate(-.512423 -.422723)"/><path d="m220.75808 39.203277h-8.1094v-28.3086-.0244h8.8398c2.9951 0 4.8584 2.3809 4.8584 5.6289 0 5.0029-2.4092 5.123-9.3066 5.3799v4.6133c6.1514-.0166 11.0889-.3975 11.0889 5.9854 0 3.1962-2.0391 6.7255-7.3711 6.7255m4.7695-15.2852c7.0664-.6416 8.5996-4.1104 8.5996-9.085 0-4.3926-1.8545-6.6201004-3.8945-7.8770004-1.7021-1.0723-3.7168-1.7949-7.9492-1.7949h-18.6367v39.8467004h18.8779c5.7979 0 8.2139-1.1523 9.3301-1.9229 1.9277-1.2764 4.417-4.1191 4.417-8.668 0-5.3436-1.8633-10.7069-10.7442-10.4989"/><g stroke-width="3.126448" transform="scale(1.1009974 .90826736)"><path d="m180.25611 82.026527v-5.312518h19.56066v4.152313q-2.42218 2.381474-4.92579 6.839105-2.5036 4.45763-3.82664 9.485186-1.30268 5.007197-1.28233 8.955967h-5.51606q.14248-6.187758 2.54431-12.619773 2.42218-6.432015 6.45237-11.50028z"/><path d="m204.68149 106.14658v-5.7196h5.71961v5.7196z"/><path d="m229.65643 106.14658h-5.7196v-21.555388q-3.13459 2.931044-7.38868 4.335503v-5.190391q2.23899-.732762 4.86472-2.768209 2.62573-2.055803 3.60274-4.783303h4.64082z"/></g></g></svg>