<svg height="35" width="80" xmlns="http://www.w3.org/2000/svg"><text x="6.606521" y="10.002353"><tspan x="6.606521" y="76.29718"/></text><g fill="#9c3" transform="matrix(1.4722367 0 0 1.7312777 -407.35879 -832.43344)"><g fill="#fff" stroke-width="1.313926"><path d="m328.80693 482.4225-1.93206 3.64353-1.87142-3.64353h-1.7502c.32372.61974 2.6182 5.09988 2.6182 5.09988v2.94749h1.88046v-2.93946s2.38088-4.48817 2.7188-5.10791z"/><path d="m289.7545 490.27444h-1.63798c-1.69603 0-3.11089-1.71469-3.11089-3.83896 0-2.05736 1.41486-3.80015 3.11089-3.80015h1.63798zm-9.31459 0h-1.63283v-7.63911h1.63283c1.69473 0 3.11217 1.74279 3.11217 3.80015 0 2.12427-1.41744 3.83896-3.11217 3.83896m-3.32241 1.33587h14.32271v-10.30952h-14.32271z"/><path d="m308.55265 482.87626c-.53524-.39086-1.43549-.59297-2.60272-.59297-1.14143 0-1.96945.16598-2.60659.59297-.66422.4444-.97505 1.18596-.97505 2.35451v2.53121c0 1.16856.32372 1.95696.9686 2.35451.52105.37212 1.3723.5555 2.61304.5555 1.22398 0 2.09714-.18338 2.59885-.54479.64488-.41897.98408-1.23415.98408-2.36522v-2.53121c0-1.11233-.33146-1.90074-.98021-2.35451m-.77514 4.77462c0 1.4269-.47979 1.75216-1.82758 1.75216-1.34909 0-1.82888-.32526-1.82888-1.75216v-2.40939c0-1.3921.47979-1.68926 1.82888-1.68926 1.34779 0 1.82758.29716 1.82758 1.68926z"/><path d="m298.17401 482.4225h-3.88086v8.04737h4.15043c2.04812 0 2.80779-.8714 2.80779-3.19914v-1.7709c0-2.20728-.86414-3.07733-3.07736-3.07733m1.34393 5.04366c0 1.4095-.72485 1.76153-1.33232 1.76153h-2.14743v-5.61924h2.14743c.60747 0 1.33232.35204 1.33232 1.65981z"/><path d="m312.56506 482.4225h-1.7502v8.04737h4.97846v-1.34524h-3.22826"/><path d="m320.08047 489.29195h-1.57865v-5.71027h1.72052c.58168 0 .94798.48054.94798 1.12974 0 1.01061-.47335 1.03738-1.81339 1.08557v.9343c1.19817-.008 2.15775-.083 2.15775 1.20738 0 .64785-.39725 1.35328-1.43421 1.35328m.92605-3.07867c1.37616-.12984 1.6741-.8366 1.6741-1.83516 0-.88211-.36113-1.33588-.75709-1.59555-.33017-.21284-.72354-.36007-1.54899-.36007h-3.62163v8.04737h3.67064c1.12853 0 1.59801-.23291 1.81855-.39086.36887-.25968.85382-.83391.85382-1.74146 0-1.08556-.35984-2.16978-2.0894-2.12427"/></g><g fill="#9c3" stroke-width=".626365" transform="matrix(1.0451095 0 0 1.1301281 -13.142638 -64.843705)"><g fill="#fff" transform="matrix(1.1188997 0 0 .98748539 -11.790782 -35.271837)"><path d="m267.52131 542.29474v-4.96688h-1.77389v-1.01132h4.75075v1.01132h-1.7698v4.96688z"/><path d="m271.28521 542.29474v-5.9782h2.54053q.95831 0 1.39057.16311.43633.15904.69732.57091.26098.41187.26098.94199 0 .67286-.39555 1.11327-.39556.43634-1.1826.55052.39148.22836.64431.50158.25691.27322.68917.97054l.72994 1.16628h-1.44357l-.87268-1.30085q-.46488-.69732-.63615-.87675-.17127-.18351-.36293-.24875-.19166-.0693-.60761-.0693h-.24467v2.49568zm1.20706-3.4499h.89306q.86859 0 1.08472-.0734.21613-.0734.33847-.25283.12233-.17942.12233-.44857 0-.30176-.16311-.48527-.15904-.18758-.45265-.23651-.14681-.0204-.88083-.0204h-.94199z"/><path d="m277.30827 536.31654h1.20706v3.23785q0 .77072.0448.99909.0775.36701.36701.59129.29361.22021.79927.22021.51382 0 .7748-.20798.26099-.21205.314-.51789.053-.30584.053-1.0154v-3.30717h1.20706v3.13998q0 1.07657-.0979 1.52106-.0979.44449-.36293.75033-.26099.30584-.7014.48935-.44041.17943-1.14997.17943-.85636 0-1.30085-.19574-.44041-.19982-.69732-.51382-.25691-.31807-.33846-.6647-.11826-.51381-.11826-1.51697z"/><path d="m283.35172 542.29474v-5.9782h4.43267v1.01132h-3.22562v1.32531h3.00134v1.00725h-3.00134v1.62708h3.3398v1.00724z"/></g><g fill="#9c3" transform="scale(1.0844126 .92215825)"><text x="209.39784" y="501.52872"><tspan fill="#9c3" stroke-width=".626365" x="209.39784" y="516.58081"/></text><text x="227.85915" y="521.17682"><tspan fill="#9c3" stroke-width=".626365" x="227.85915" y="536.22894"/></text><text x="219.94716" y="539.76996"><tspan fill="#9c3" stroke-width=".626365" x="219.94716" y="554.82208"/></text><text x="196.2112" y="551.24237"><tspan fill="#9c3" stroke-width=".626365" x="196.2112" y="565.43347"/></text><text x="233.92499" y="561.13232"><tspan fill="#9c3" stroke-width=".626365" x="233.92499" y="575.32343"/></text><text x="201.74959" y="482.67181"><tspan fill="#9c3" stroke-width=".626365" x="201.74959" y="496.86292"/></text><text x="215.72743" y="556.51703"><tspan fill="#9c3" stroke-width=".626365" x="215.72743" y="571.74384"/></text></g><g fill="#fff" transform="matrix(1.1188997 0 0 .98748539 -9.820833 -35.214225)"><path d="m294.64241 542.20148h-1.50328v-2.38019h-2.08789v2.38019h-1.50327v-5.84608h1.50327v2.29667h2.08789v-2.29667h1.50328z"/><path d="m298.90561 536.3554q.94372 0 1.42811.49274.49274.48439.49274 1.42811v2.00437q0 .94373-.49274 1.43647-.48439.48439-1.42811.48439h-3.2571v-5.84608zm.41757 1.92085q0-.75164-.75164-.75164h-1.41976v3.50765h1.41976q.75164 0 .75164-.75164z"/></g></g></g></svg>