<svg height="35" width="80" xmlns="http://www.w3.org/2000/svg"><text x="6.606521" y="10.002353"><tspan x="6.606521" y="76.29718"/></text><g fill="#fff" transform="matrix(.25100339 0 0 .29449677 .935296 5.813245)"><path d="m107.81396 36.388672c.23438 5.592773 2.80957 8.393555 2.80957 8.393555 1.64063 2.179688 4.68457 2.484375 4.68457 2.484375 1.87207.316406 4.44727-.304688 4.44727-.304688v-22.078125s-2.57519-.310547-4.44727 0c0 0-3.04394.313477-4.91894 2.800781 0 0-2.34082 3.108398-2.5752 8.083008zm32.54883 15.541992c-10.06933 0-18.03222.316406-18.03222.316406-9.83203.304688-14.51661 0-14.51661 0-10.303707 0-18.966793-6.84375-19.201168-16.168945-.234375-9.017578 7.025391-16.166016 17.797848-16.790039 0 0 4.91602-.621094 13.34473.624023v-.93457-17.72168l20.60742-.310547v19.277344h10.06934v-6.219726l20.13867-9.014648v15.234375h7.25391v5.285156c-3.97852 0-7.25391 0-7.25391 0v9.635742c0 .624023 0 5.285156.23438 6.533203 0 0 .23437 2.484375 2.33789 4.347656 0 0 1.40625 1.242188 4.21289 1.558594h2.57812 4.92188c3.73828 0 4.67578-.621094 4.67578-.621094 1.64062-.621094 2.57812-2.179688 2.57812-3.732422 0-1.248047-.70312-2.490234-1.40625-3.111328v-.310547l-5.38476-4.974609c-1.63477-1.552734-2.33789-2.797852-2.80664-3.108398v-.310547c-.70313-.931641-.9375-2.176758-.9375-3.418945 0-2.797852 1.40625-4.974609 3.50976-6.219727h.23438c1.875-1.242188 11.71289-4.974609 29.9707-.621094l-.23437 4.353516h-.46875s-4.67578-.310547-6.78516 0c-1.40625.310547-2.57812 1.242188-2.57812 2.797852 0 .931641.23437 1.552734.70312 2.176758h.23438l7.2539 7.148438c1.40625 1.555664 2.34375 3.424805 2.34375 5.90918 0 3.421875-2.57227 6.837891-5.84765 7.769531 0 0-2.10938.9375-5.39063 1.242188 0 0-1.64062 0-6.08789 0h-.23438c-16.38867.316406-33.48632 0-33.48632 0h-.46875c-10.76661-.304688-13.11036-8.701172-13.11036-8.701172-.46582-1.552734-.70019-5.285156-.70019-5.285156v-13.057619h-10.06934z"/><path d="m295.84424 35.767578c0-2.487305-.23438-4.042969-.23438-4.042969-.23437-3.108398-.9375-4.664063-.9375-4.664063-.46875-1.242188-1.17187-1.552734-1.17187-1.552734-.70313-.624023-1.64063-.93457-1.64063-.93457-.70312 0-1.875 0-1.875 0h-1.17187v22.388672h1.17187s1.17188 0 1.875-.316406c0 0 .9375 0 1.64063-.621094 0 0 .70312-.310547 1.17187-1.552734 0 0 .70313-1.552734.9375-4.664063 0 0 .23438-1.552734.23438-4.040039zm14.51367 0c0 3.108398-.69727 5.592773-.69727 5.592773-.70312 3.421875-3.04687 5.90625-3.04687 5.90625-2.10938 2.800781-6.08789 4.042969-6.08789 4.042969-2.34375.621094-5.15039.9375-5.15039.9375-2.10938 0-4.92188 0-4.92188 0h-15.68555v-32.958984h15.68555 4.92188s2.80664.310547 5.15039.93457c0 0 3.97851 1.242188 6.08789 4.040039 0 0 2.34375 2.487305 3.04687 5.90625 0 0 .69727 2.490234.69727 5.285156z"/><path d="m254.86377 52.24707h14.050781v-32.958984h-14.050781v13.371094h-6.087891v-13.371094h-14.044922v13.371094h-16.628906v5.285156h16.628906v14.302734h14.044922v-14.302734h6.087891z"/><path d="m2.210449 17.735352c4.916016-5.285156 20.135742-8.707031 37.699219-7.461914 20.135742.931641 36.292969 7.461914 37.699219 14.923828v-.313477c.234375-2.797852 0-4.661133 0-4.661133-.46875-7.772461-17.797852-13.681641-38.871094-13.368164-17.560547.310547-32.311523 4.661133-36.996094 10.570313 0 0 .234375.310547.46875.310547z"/><path d="m6.89209 21.464844c7.025391-3.418945 19.201172-5.285156 33.017578-4.350586 20.135742.931641 36.292969 7.458984 37.699219 14.610352.234375-2.797852 0-4.664063 0-4.664063-.234375-7.772461-17.563477-13.678711-38.871094-13.368164-14.047852.310547-26.223633 3.108398-33.014648 7.151367 0 0 .46875.310547 1.168945.621094z"/><path d="m15.789551 25.507813c6.791016-1.555664 15.222656-2.176758 24.120117-1.555664 20.135742.931641 36.292969 7.461914 37.699219 14.613281.234375-2.797852 0-4.664063 0-4.664063-.46875-7.772461-17.797852-13.678711-38.871094-13.368164-9.834961 0-18.732422 1.552734-25.523438 3.729492 0 0 1.40625.621094 2.575195.93457v.310548"/><path d="m .335449 13.381836c1.640625-7.151367 18.032227-13.057617 38.402344-13.368164 19.435547-.310547 35.124023 4.664062 38.167969 11.191406 0 0 .46875.93457.46875 1.555664 0 0 .234375 1.242188.234375 5.285156v.310547c-1.40625-7.461914-17.563477-13.989257-37.699219-14.923828-20.373047-1.242187-37.230469 3.421875-39.574219 9.949219z"/><path d="m75.968262 35.454102c-4.681641 5.90625-19.432617 10.570313-36.761719 10.570313-21.307617.316405-38.636719-5.595704-39.102539-13.054688 0 0-.234375-1.866211 0-4.974609 1.637695 7.148438 17.794922 13.681641 37.699219 14.923828 17.560547.931641 32.780273-2.179688 37.930664-7.775391z"/><path d="m71.989746 32.035156c-6.791016 4.353516-18.966797 7.151367-33.017578 7.151367-21.073242.310547-38.402344-5.595703-38.868164-13.057617 0 0-.234375-1.866211 0-4.974609 1.637695 7.151367 17.794922 13.678711 37.699219 14.923828 13.813477.621094 25.989258-1.245117 33.014648-4.664063 0 .000001.703125.310547 1.171875.621094z"/><path d="m64.72998 28.616211c-6.791016 2.176758-15.922852 3.729492-25.523438 3.729492-21.307616.313477-38.636718-5.595703-39.102538-13.057617 0 0 0-1.863281 0-4.974609 1.637695 7.151367 17.794922 13.681641 37.699219 14.923828 9.131836.621094 17.326172 0 24.117188-1.552734 0 0 1.168945.310547 2.575195.931641h.234374"/><path d="m77.374512 39.49707c-1.640625 7.464844-18.029297 13.054688-38.402344 13.371094-19.201172.304688-35.124023-4.353516-38.167969-11.191406 0 0-.234375-.621094-.46875-1.558594 0 0-.231445-.931641-.231445-4.974609v-.310547c1.637695 7.148438 17.794922 13.681641 37.699219 14.923828 20.370117 1.242187 37.464843-3.732422 39.571289-10.259766z"/><path d="m108.282715 92.348633v-23.003906l-6.322266 23.003906h-3.512695l-6.556641-23.003906v23.003906h-2.575195v-25.488281h4.918945l6.087891 22.382812 6.087891-22.382812h4.916015v25.488281z"/><path d="m124.20557 83.336914h-.70313c-2.80957 0-5.61914.621094-5.61914 3.726563 0 1.863281.70313 3.421875 2.5752 3.421875 2.80956 0 3.74706-2.800781 3.74706-4.974609v-2.173829m.00001 9.011719v-2.173828c-1.17188 1.552734-2.34082 2.484375-4.68457 2.484375-3.04395 0-4.44727-2.173828-4.44727-5.285156 0-5.595703 4.44727-5.90625 9.13184-5.90625v-.621094c0-2.173828 0-4.664063-2.80957-4.664063-1.64063 0-3.04395.931641-3.04395 2.794922h-2.57519c0-3.416016 2.57519-4.664063 5.61914-4.664063 4.21582 0 5.38476 1.869141 5.38476 5.912109v6.527344c0 1.869141 0 3.732422.23438 5.595703z"/><path d="m135.44385 92.65918c-3.27832 0-5.15039-1.552734-5.38477-4.353516 0-.304688 0-.931641 0-1.242188h2.80957v.9375c0 1.546875.70313 2.794922 2.5752 2.794922 1.64062 0 2.57812-1.248047 2.57812-2.794922 0-2.179688-1.17187-2.800781-3.04687-4.042969-2.5752-1.242188-4.44727-2.179688-4.44727-4.980469 0-3.105469 2.10645-4.664063 5.15039-4.664063 3.04395 0 4.68457 1.248047 4.91895 3.738281.23437.621094.23437.925781.23437 1.546875h-2.80957c0-.621094 0-.925781 0-1.242188-.23437-1.242188-.70312-2.173828-2.57812-2.173828-1.40332 0-2.34082.931641-2.34082 2.490234 0 1.863281 1.64062 2.484375 3.51269 3.416016 2.34082 1.248047 4.21582 2.490234 4.21582 5.285156 0 3.732424-2.10937 5.285159-5.38769 5.285159"/><path d="m149.02588 92.65918c-3.27832 0-3.98145-1.552734-3.98145-4.658203v-11.197266h-2.57519v-2.173828h2.57519v-3.111328l2.80957-1.242188v4.353516h3.04395v2.173828h-3.04395v10.880859c0 2.179688.46875 2.490234 1.875 2.490234h1.40332v2.173828c-.70019.000001-1.40332.310548-2.10644.310548"/><path d="m162.13916 79.915039c-.23438-1.863281-.9375-3.732422-3.04102-3.732422-2.10937 0-3.04687 1.552734-3.28125 3.416016v2.490234h6.32227c0-.93164 0-1.552734 0-2.173828m-6.32227 4.042969v1.242188c0 2.800781.23438 5.595703 3.28125 5.595703 2.57227 0 3.04102-1.869141 3.04102-4.042969h2.80664c-.23437 3.732422-1.64062 5.90625-5.84765 5.90625-5.62207 0-6.09082-3.732422-6.09082-8.396484s.23437-9.949219 6.09082-9.949219c5.84765 0 5.84765 4.359375 5.84765 8.707031v.9375z"/><path d="m175.25244 76.803711c-2.80664 0-3.97852 1.869141-3.97852 4.664063v10.880859h-2.8125v-14.296875c0-.9375 0-2.490234 0-3.421875h2.57813v2.484375c1.17187-1.863281 2.57227-2.800781 4.68164-2.800781h.22852v2.800781c-.22852-.310547-.46289-.310547-.69727-.310547"/><path d="m193.04736 69.655273-3.51562 13.986328h7.26562zm6.32227 22.69336-1.86914-6.527344h-8.67188l-1.86914 6.527344h-3.04101l7.48828-25.488281h3.75l7.2539 25.488281z"/><path d="m213.64893 92.348633v-2.173828c-1.16602 1.552734-2.57227 2.484375-4.44141 2.484375-3.51563 0-4.92188-2.173828-4.92188-5.595703v-12.433594h2.8125v11.191406c0 2.179688 0 4.664063 2.8125 4.664063 3.04102 0 3.50391-2.800781 3.50391-4.974609v-10.88086h2.8125v13.675781c0 1.558594 0 2.800781.23438 4.042969z"/><path d="m226.05908 76.182617c-3.27539 0-3.27539 4.042969-3.27539 7.154297 0 4.037109.23438 7.148438 3.04688 7.148438 3.27539 0 3.50976-3.421875 3.50976-6.84375 0-3.726563-.23437-7.458985-3.28125-7.458985m3.51563 16.166016v-2.173828c-1.17188 1.863281-2.34375 2.484375-4.21289 2.484375-5.1504 0-5.61915-4.974609-5.61915-9.322266 0-4.359375.70313-9.023438 5.61915-9.023438 1.86914 0 3.04101.626953 3.97851 2.179688v-9.632813h2.8125v22.066406 3.421875z"/><path d="m236.36572 74.629883h2.80664v17.71875h-2.80664zm0-7.148438h3.04102v2.794922h-3.04102z"/><path d="m252.28564 82.71582c0-2.800781 0-6.533203-3.27539-6.533203-3.50976 0-3.27539 4.042969-3.27539 6.533203v2.484375c0 2.484375 0 5.595703 3.27539 5.595703 3.04102 0 3.27539-3.111328 3.27539-5.595703zm-3.27539 9.94336c-5.61914 0-6.08789-3.732422-6.08789-9.017578 0-4.96875.46875-9.328125 6.08789-9.328125 5.61915 0 6.0879 3.738281 6.0879 9.023438-.00001 5.906249-.93751 9.322265-6.0879 9.322265"/></g></svg>