<svg height="35" width="80" xmlns="http://www.w3.org/2000/svg"><text x="6.606521" y="10.002353"><tspan x="6.606521" y="76.29718"/></text><path d="m470.67216 467.06906c-1.31884-.60431-1.75444-1.25594-2.08491-3.11889l-.14538-.81968h1.01909c.96541 0 1.02555.0394 1.14125.74874.18712 1.14721.82058 1.77335 1.79407 1.77335 1.69032 0 2.24911-.97908 2.24911-3.94069v-1.94808l-.4628.53159c-1.37211 1.57601-3.70249 1.38375-4.93128-.40683-.77182-1.12468-1.05058-3.11147-.92402-6.58551.12359-3.39182.35597-4.50016 1.18678-5.66039 1.15602-1.61437 3.47058-1.71441 4.77137-.20626l.56566.65585v-.6777c0-.63508.0583-.67772.92562-.67772h.92563l-.005 8.13376c-.003 4.47359-.0891 8.57897-.19204 9.1231-.22971 1.21444-.77554 2.14447-1.61046 2.74401-.86061.61798-3.19712.80133-4.22279.33135zm3.01278-7.98542c.29419-.28373.63014-.93633.74652-1.45021.27849-1.2294.27458-6.63218-.006-7.53838-.39032-1.26307-1.00089-1.84578-1.92484-1.83693-1.71279.0163-2.18633 1.23296-2.20457 5.66377-.0139 3.37183.21483 4.69852.91349 5.29856.63232.54303 1.83916.47631 2.47485-.13681zm17.93029 2.60097c-1.29423-.39732-2.15979-2.13808-2.15979-4.34364 0-1.5201.27017-2.44437.98182-3.35902.611-.78528 2.16663-1.44253 3.42653-1.44772 1.58449-.006 1.7625-.16078 1.7625-1.52737 0-1.71344-.32896-2.45402-1.23846-2.78812-1.05566-.3878-2.18851.25892-2.4249 1.38432-.15397.73296-.23887.79657-1.16005.86915l-.99392.0783.12641-.95514c.27821-2.10201 1.58622-3.16211 3.92446-3.18058 1.13369-.008 1.68465.11032 2.2046.47733 1.25095.88296 1.36079 1.51691 1.46974 8.48289l.0976 6.24219h-.89991-.89991v-.93221-.93222l-.6685.78314c-.91062 1.06673-2.32436 1.52442-3.54825 1.14868zm2.73784-2.09154c.8838-.66068 1.27322-1.8519 1.27322-3.89467v-1.64747h-.92147c-1.27482 0-2.52501.66232-2.89179 1.53199-.16535.39206-.30064 1.23793-.30064 1.87971 0 .95342.10998 1.30172.60126 1.9041.70634.86609 1.30296.9264 2.23942.22634zm17.1907 1.80874c-1.41299-.81161-2.31965-2.80765-2.33657-5.14406-.005-.66348.0388-.69357 1.00708-.69357 1.1106 0 .98001-.2143 1.36404 2.23821.19171 1.22446.95924 1.87675 2.35375 2.00043 1.1797.10463 1.25567.0744 1.9513-.77861.65761-.80631.7238-1.01819.7238-2.31644 0-2.28757-.5222-3.14206-2.98257-4.88036-.90506-.63944-2.12165-1.74318-2.70353-2.45275-.89809-1.09512-1.09565-1.51251-1.30711-2.76148-.43126-2.54704.11786-4.52344 1.61104-5.79856.79947-.6827 1.08055-.77042 2.72141-.84931 1.53218-.0737 1.97274-.003 2.70813.43764 1.20427.72069 1.81383 1.90541 1.95373 3.79733l.11299 1.52772h-1.05704c-1.03985 0-1.05705-.0124-1.05705-.76472 0-1.05008-.49665-2.41723-.99753-2.74592-.58912-.38657-2.21129-.33763-2.88084.0868-.69208.43883-1.0583 1.36022-1.0583 2.66257 0 1.97355.52716 2.77054 3.12717 4.72769 2.64967 1.99453 3.39436 2.88777 3.78652 4.54188.63825 2.69186-.027 5.5317-1.59329 6.80267-.73288.59469-1.08644.69423-2.7214.76627-1.52449.0672-2.03884-.008-2.72573-.40352zm11.09727-.0528c-1.49735-.9088-1.60146-1.43647-1.67609-8.496l-.0646-6.1161h.93887.93886l.0122 4.85504c.0141 5.58192.16184 7.07217.77569 7.82482.50694.62159 1.59397.71197 2.37768.1977.98023-.64323 1.15397-1.7854 1.15397-7.58626v-5.2913h1.02848 1.02848v7.44018 7.4402h-.92562c-.89135 0-.92565-.0281-.92565-.75663 0-.91518-.15917-.94103-.78807-.12795-.90335 1.16788-2.53716 1.42779-3.87418.6163zm23.72686.17051c-1.8732-.85598-2.30046-2.19622-2.30046-7.21632 0-3.95366.18149-5.02503 1.07066-6.3207.78557-1.14472 1.62757-1.56971 3.14265-1.58617 1.87858-.0204 2.82881.58555 3.50027 2.23215.4867 1.19355.51405 1.48383.51093 5.42251-.003 3.84725-.0394 4.25155-.48363 5.35466-.64887 1.61188-1.53947 2.25615-3.28657 2.37751-.86131.0599-1.65995-.038-2.15385-.26364zm2.82233-1.70264c.94361-.52716 1.15092-1.5597 1.15092-5.7324 0-4.42701-.22473-5.3842-1.37321-5.84896-1.09761-.44415-2.0738.0789-2.55067 1.36648-.52211 1.40989-.57585 7.81657-.0764 9.10718.49436 1.27736 1.70394 1.74759 2.84933 1.1077zm7.58639 1.87584c-.71117-.16884-1.64091-1.39277-1.88845-2.48598-.13251-.58522-.2256-3.35492-.22629-6.73207l-.00082-5.73776h.91173.91171l.0682 5.73776c.0749 6.29859.17749 6.90493 1.24656 7.36191 1.21232.51817 2.45731-.35569 2.82616-1.98371.11233-.4958.20475-3.19973.20538-6.00871l.00083-5.10725.97705.00079.97704.0008v7.43943 7.43943l-.8742-.00001c-.87785-.00001-.96245-.10905-.92946-1.19801.0132-.43974-.25327-.39305-.58806.10303-.66312.98252-2.2483 1.49542-3.61736 1.17039zm21.61135-.0988c-.83969-.29826-1.83588-1.70308-2.17203-3.06293-.34671-1.40264-.34232-7.51405.007-8.96006.36776-1.52481 1.29048-2.71793 2.35021-3.03893 1.12837-.34177 2.49701-.028 3.14792.72183l.50335.5798v-3.82711-3.82711h1.02846 1.02849v10.71892 10.71891h-.92564c-.90342 0-.92562-.0192-.92562-.8038v-.80383l-.58115.68268c-.90776 1.06636-2.11277 1.38033-3.46043.90163zm2.35177-1.761c.8817-.37689 1.24282-1.17806 1.49343-3.31337.38807-3.30684-.14815-7.43342-1.04217-8.0201-.20898-.13712-.74806-.24933-1.19797-.24933-.65668 0-.9206.14947-1.33809.75784-.66029.96219-.81408 2.24201-.71817 5.97723.0815 3.17531.37852 4.28896 1.2881 4.83013.56605.33678.76276.33906 1.51487.0177zm-129.33787-8.92777v-10.77962l3.13685.12107c1.72526.0667 3.48997.25634 3.92156.42164 1.1876.4549 2.32164 1.99545 2.74258 3.72577.45612 1.87489.50619 9.68375.0779 12.15143-.35235 2.03027-1.21363 3.47914-2.55264 4.29414-.89248.54324-1.3451.62229-4.16381.72734l-3.16245.11786zm6.06032 8.17169c1.43043-.84502 1.96178-3.10448 1.96178-8.342 0-3.31985-.25588-5.67197-.74257-6.82596-.47738-1.13188-1.39115-1.55818-3.37132-1.57278l-1.74841-.0128-.0543 8.32102c-.0299 4.57654-.005 8.4782.0549 8.67032.14295.45672 3.0213.28127 3.89979-.2377zm6.69277-4.89978v-7.44018h.92562.92564v7.44018 7.44019h-.92564-.92562zm15.22143 0v-7.44018h.92562.92563v7.44018 7.44019h-.92563-.92562zm6.21313 7.17599c-.9129-.44923-1.07077-1.54114-1.07077-7.40559v-5.41611l-.87421-.0775c-.82054-.0728-.87815-.12785-.93864-.89724-.0642-.81656-.0609-.81966.87421-.81966h.93864v-1.39949-1.39948l.87421-.48127.87421-.48126.10283 1.8177.10286 1.81768 1.0921.0768 1.0921.0767-.0635.80598c-.062.78486-.0924.808-1.16134.88298l-1.09772.0771.0692 5.30306c.0647 4.95679.0961 5.32752.48065 5.67728.23384.21273.69986.33454 1.07989.28227.65007-.0894.66851-.0656.66851.86622v.9582l-1.2856-.0159c-.70706-.008-1.49798-.12049-1.75755-.24822zm14.66067-.0366c-.0568-.18156-.0792-4.98328-.0496-10.67048l.0537-10.34036.9793-.0771.97929-.0771-.0536 10.6698-.0536 10.66979-.8761.0778c-.5807.0514-.91091-.0337-.97938-.25245zm31.53298-7.13945-.0575-7.44033h.97706c.95853 0 .97703.0151.97703.79361v.79347l.50636-.66994c.57483-.76049 1.32065-1.16921 2.13359-1.16921.51181 0 .55624.0806.55624 1.00886 0 .79242-.0771 1.00883-.35976 1.00883-.77065 0-1.94471.79701-2.3328 1.58368-.35738.72437-.40792 1.39259-.46682 6.17177l-.0661 5.35945h-.90502-.905zm6.42196 0v-7.44018h.92563c.90343 0 .92564.0192.92564.8038v.80383l.56566-.64689c.7682-.87852 1.34578-1.21296 2.09485-1.21296.59557 0 .6306.0545.6306.98077 0 .9328-.0376.98942-.76756 1.15734-1.06707.24545-1.45487.54328-1.9167 1.47199-.36253.72897-.3997 1.30109-.40038 6.16304l-.00079 5.35945h-1.02848-1.02847zm27.35518.94579c-.00081-3.57192-.0597-6.92001-.12976-7.44019l-.12749-.94578h.95253c.92126 0 .95254.0249.95254.75664 0 .93594.15134.93916.88739.0188 1.10439-1.38088 3.50435-1.49079 4.61526-.21139.75094.86483.87153 2.0154.87275 8.32628l.00082 5.98998h-.92563-.92562v-5.63709c0-7.1536-.14589-7.73002-1.95641-7.73002-.93466 0-1.81537.99566-2.13697 2.41587-.12644.55846-.22442 3.15728-.22507 5.9701l-.00082 4.98114h-.92563-.92563l-.002-6.49439zm-101.61104-13.44334v-1.27422l1.07988.0762 1.07991.0763.0626 1.19798.0626 1.19799h-1.14257-1.14261zm15.26158.0763.0625-1.19799h1.02847 1.02848l.0627 1.19799.0625 1.198h-1.15386-1.15386zm-76.35298-9.40193c-12.50643-1.00309-22.14785-5.49524-23.75086-11.0661-.16307-.56671-.35306-2.19424-.42222-3.61677l-.12574-2.58643.40432 1.0434c1.55341 4.00862 7.13271 7.96512 14.69948 10.42398 14.10777 4.58435 32.32768 3.74418 41.28342-1.90373 2.00568-1.26488 3.08744-2.28747 3.93193-3.71689.7627-1.29098.77091-.86627.0116.60175-2.61964 5.06485-11.83879 9.31977-22.86748 10.55403-3.48092.38956-9.98912.52143-13.16447.26676zm108.40124-.25712c-6.24314-.18393-6.76062-.28907-9.21949-1.87338-2.31936-1.49438-3.97659-3.99577-4.68287-7.06808-.29673-1.29084-.34295-2.6717-.31446-9.39481l.0334-7.88156h-4.01582-4.01583v12.83326 12.83326l-7.76498.18877c-14.34176.34868-19.91513.29501-21.54655-.20749-5.60586-1.72669-9.26663-5.58881-10.92321-11.52405-.58506-2.09616-.54606-6.62671.076-8.82733.95649-3.38395 2.58872-5.99138 4.96108-7.92517 2.67344-2.17921 5.24471-3.10359 9.30066-3.34367 1.9887-.1177 8.03456.21807 9.27774.51529.16027.0383.33495-6.59908.35585-13.52164l.0134-4.47673h8.12495 8.12497v9.20565 9.20566h3.90186 3.90187l.0579-3.04297.0578-3.04295 7.91926-4.26979c4.35558-2.34839 7.94239-4.27039 7.97068-4.27113.0283-.0008.0514 3.29.0514 7.31275v7.31409h2.77689 2.77688l.00009 2.58514.00008 2.58516-2.77701-.0878-2.77699-.0877v7.92442c0 8.94637.0632 9.44162 1.45195 11.37609 1.31343 1.82954 1.92092 2.02351 6.68493 2.13431 5.75913.13396 6.93757-.18981 8.06161-2.21482.49004-.88286.61686-2.50403.28007-3.58014-.10043-.32114-1.71576-2.45776-3.58945-4.748-3.61491-4.41866-4.1555-5.37655-4.38707-7.77399-.24586-2.54536.94865-5.3265 2.88547-6.71822 1.0666-.76643 4.182-1.79224 6.50257-2.14114 4.27295-.64243 11.18182-.0928 16.10104 1.28089l.97704.27282v1.84579c0 1.01519-.0496 2.00411-.11012 2.19757-.0881.28165-.57774.32984-2.45506.24174-1.28976-.0607-2.67222-.0348-3.07214.0571-1.48117.3407-2.47137 2.11943-2.07048 3.71926.0812.32415 1.70675 2.46205 3.61225 4.75082 4.21834 5.06691 4.61142 5.87403 4.46495 9.16838-.0574 1.28873-.22945 2.38412-.4617 2.9377-1.05627 2.5178-2.85572 4.19782-5.2697 4.92001-2.6297.78674-16.31317 1.05674-31.25171.61664zm-38.89066-5.26825c.24717-.19178.29656-1.91646.30855-10.7781l.0144-10.54979-2.1598.009c-1.92329.007-2.27242.0815-3.18827.67007-1.31906.84765-2.00971 1.75429-2.65271 3.48225-.7923 2.12923-1.15295 4.18319-1.1496 6.54741.008 5.27958 1.80337 9.4424 4.51595 10.46769 1.05465.39864 3.86573.49731 4.31159.15133zm-68.48211-1.03903c-12.17825-.71931-22.02213-4.83332-24.6387-10.2971-.50522-1.05498-.56329-1.43705-.61768-4.06484l-.0601-2.90041.53712 1.26106c1.77078 4.15741 7.44148 7.98279 15.48886 10.44857 11.66505 3.57426 26.73497 3.56117 36.03079-.0313 2.52162-.9745 5.41088-2.70765 6.57372-3.94327l.9171-.97454-.79233-.85816c-.43579-.47199-1.08255-1.11376-1.43723-1.42618l-.64489-.56802-1.33553.86953c-3.72897 2.42785-9.20004 4.23022-16.651 5.48542-3.12061.52569-15.65632.44181-18.92394-.12663-8.56283-1.4896-14.44067-4.0064-17.58449-7.52942-1.74851-1.95941-2.02848-2.79277-2.10445-6.26411l-.0634-2.90041.44016 1.08c2.39126 5.86715 12.16904 10.8108 25.03357 12.65698 5.31313.76246 13.50707.76376 18.24214.003 3.838-.61677 8.62918-2.06196 10.86298-3.27665 1.27366-.69258 1.13832-.89542-1.5293-2.29206l-2.06273-1.07996-1.26999.43589c-4.33266 1.48706-9.01281 2.47572-14.0229 2.96233-3.88532.37733-12.23655.16654-15.73584-.39722-10.78015-1.73675-18.23918-5.78105-19.65893-10.65912-.16212-.55701-.27728-2.03567-.27993-3.59449l-.005-2.6482.41454 1.12042c.69788 1.88626.75221 1.91024 1.75685.77478 3.32917-3.76269 9.57895-6.54614 18.08054-8.05251 17.8606-3.16467 37.36621 1.62179 40.44159 9.92396.29307.79117.379 1.63013.37627 3.67354-.004 2.56606-.013 2.62136-.30973 1.78288-1.73036-4.88978-9.73042-9.57531-20.24719-11.85851-14.65968-3.1826-31.24871-1.0664-37.57904 4.79384-.60039.55581-1.09161 1.16793-1.09161 1.36027 0 .38246 2.22198 2.65556 2.59879 2.6586.12833.00079.96138-.44177 1.85125-.98397 6.0683-3.69749 14.75842-5.64128 25.27288-5.65298 11.03503-.0122 19.73181 2.10947 25.22685 6.15457 2.08704 1.53634 3.10739 2.71668 3.78082 4.3737.44555 1.09628.50954 1.58817.50939 3.91553l-.00017 2.66173-.44111-1.09274c-3.63672-9.00851-25.60022-15.28048-43.39636-12.3924-4.56659.7411-9.31436 2.22745-11.32091 3.54416-.41454.27203-.41471.27877-.0167.62049.22124.19001 1.27162.81464 2.33416 1.38809l1.93187 1.04262 2.26264-.76591c15.7396-5.32768 37.5375-3.18853 45.84137 4.4987 2.26032 2.09248 2.80932 3.49077 2.79592 7.12118l-.0102 2.59326-.50861-1.19801c-.27974-.65889-.56142-1.19798-.62597-1.19798-.0645 0-.61436.54314-1.2218 1.20695-3.2784 3.58275-10.51931 6.64482-18.91389 7.99841-2.02415.32638-10.36043.95489-11.10753.83744-.11314-.0177-1.64042-.11708-3.39397-.22065zm18.61538-16.72914c1.24446-.21895 2.77175-.52928 3.39398-.68964l1.13131-.29155-1.09731-.46149c-1.76251-.74123-6.4701-1.92783-9.80453-2.47134-8.24307-1.34363-15.60552-1.22804-23.70634.37219-.48079.095-.87419.25551-.87419.35675 0 .2608 3.51772 1.3731 6.78137 2.14422 2.35342.55607 4.99616.9942 8.95429 1.48455 2.076.25717 13.05724-.063 15.22142-.44369zm16.6737-11.57387c-.5506-1.47028-2.38557-3.64025-4.23918-5.01315-10.34942-7.66545-31.41599-10.37407-45.57964-5.86036-4.44829 1.41758-7.26314 3.07844-9.168 5.40943-1.11998 1.37053-1.15637 1.39405-.78871.51042.46891-1.12694 1.85454-2.72682 3.43596-3.9672 9.79799-7.68506 33.07416-9.526 47.30953-3.7418 3.45445 1.40364 5.95184 3.10221 7.63174 5.19065 1.36087 1.69181 1.72177 2.84562 1.84943 5.91297.0605 1.45057.0733 2.6345.0288 2.63092-.0444-.004-.26051-.48594-.47995-1.07188z" fill="#fff" transform="matrix(.38273864 0 0 .37347365 -144.275295 -140.351271)"/></svg>