<svg height="35" width="80" xmlns="http://www.w3.org/2000/svg" xmlns:xlink="http://www.w3.org/1999/xlink"><clipPath id="a"><path d="m2 1h13v32h13v-16h13v48h13v64h-52z"/></clipPath><text x="6.606521" y="10.002353"><tspan x="6.606521" y="76.29718"/></text><g fill="#fff"><g transform="matrix(.19730277173 0 0 .19655184023 14.0613583897 9.18322885592)"><path d="m39.718509 125.17462v-9.359h-1.614v-1.421h1.614v-1.147c0-.724.064-1.262.193-1.614.176-.473.485-.857.928-1.152.444-.294 1.064-.441 1.863-.441.514 0 1.083.061 1.705.183l-.274 1.593c-.379-.067-.737-.101-1.076-.101-.555 0-.947.118-1.177.355s-.345.68-.345 1.33v.994h2.101v1.421h-2.101v9.359z" fill="#fff"/><path d="m46.33753 125.17462v-10.78h1.645v1.635c.419-.765.807-1.269 1.162-1.513.355-.243.746-.365 1.172-.365.616 0 1.242.196 1.878.588l-.629 1.696c-.447-.264-.893-.396-1.34-.396-.399 0-.758.12-1.076.36s-.545.573-.68 1c-.203.649-.304 1.36-.304 2.131v5.644z" fill="#fff"/><path id="b" d="m62.268403 121.70262 1.888.234c-.297 1.103-.849 1.959-1.654 2.568s-1.834.913-3.086.913c-1.576 0-2.827-.485-3.75-1.456-.924-.971-1.386-2.333-1.386-4.086 0-1.813.467-3.221 1.401-4.222.934-1.002 2.145-1.502 3.634-1.502 1.441 0 2.618.49 3.532 1.472.913.981 1.37 2.361 1.37 4.141 0 .108-.003.27-.01.487h-8.039c.068 1.184.403 2.091 1.005 2.72.602.63 1.353.944 2.253.944.67 0 1.242-.176 1.716-.528.473-.351.849-.913 1.126-1.685zm-5.998-2.953h6.019c-.082-.907-.312-1.587-.691-2.04-.581-.704-1.336-1.056-2.263-1.056-.839 0-1.545.281-2.116.842-.572.562-.888 1.313-.949 2.254z" fill="#fff"/><use fill="#fff" height="130" transform="translate(12.711438)" width="265" xlink:href="#b"/><path d="m88.229515 110.29462h1.827v14.88h-1.827z" fill="#fff"/><path id="c" d="m93.724991 119.7721c0-1.996.554-3.475 1.664-4.436.927-.798 2.057-1.197 3.39-1.197 1.481999 0 2.693999.485 3.633999 1.456.941.971 1.411 2.313 1.411 4.025 0 1.387-.208 2.478-.624 3.273s-1.022 1.413-1.817 1.853-1.662999.659-2.603999.659c-1.509 0-2.728-.483-3.659-1.451-.93-.968-1.395-2.362-1.395-4.182zm1.877 0c0 1.38.301 2.414.904 3.101.602.687 1.36 1.03 2.273 1.03.907 0 1.661999-.345 2.263999-1.035s.903-1.743.903-3.157c0-1.333-.303-2.343-.908-3.03-.606-.686-1.358999-1.03-2.258999-1.03-.913 0-1.671.342-2.273 1.025-.603.684-.904 1.716-.904 3.096z" fill="#fff"/><path id="d" d="m106.41705 121.93201 1.807-.284c.101.724.384 1.279.847 1.665.464.385 1.112.578 1.944.578.839 0 1.462-.171 1.868-.512.406-.342.609-.743.609-1.203 0-.413-.18-.738-.538-.975-.251-.162-.873-.368-1.868-.619-1.34-.338-2.269-.631-2.786-.878-.518-.247-.91-.588-1.178-1.025-.267-.436-.401-.919-.401-1.446 0-.481.11-.926.33-1.335s.52-.749.899-1.02c.284-.21.671-.388 1.162-.533.49-.146 1.016-.218 1.578-.218.846 0 1.589.122 2.228.365.64.244 1.112.574 1.416.99.305.416.514.972.629 1.669l-1.786.244c-.081-.555-.316-.988-.706-1.299-.389-.311-.938-.467-1.649-.467-.839 0-1.438.139-1.797.416-.358.278-.537.602-.537.975 0 .236.074.45.223.639.149.196.382.359.7.487.183.068.721.224 1.614.467 1.293.345 2.194.628 2.705.848s.912.539 1.203.959c.291.419.436.94.436 1.563 0 .609-.177 1.182-.533 1.72-.355.538-.867.955-1.537 1.249s-1.428.441-2.274.441c-1.401 0-2.468-.291-3.202-.872-.734-.582-1.203-1.445-1.406-2.589z" fill="#fff"/><use fill="#fff" height="130" transform="translate(11.902911)" width="265" xlink:href="#d"/><path d="m130.46033 110.29462h1.827v14.88h-1.827z" fill="#fff"/><use fill="#fff" height="130" transform="translate(81.88538)" width="265" xlink:href="#b"/><use fill="#fff" height="130" transform="translate(42.254931)" width="265" xlink:href="#d"/><use fill="#fff" height="130" transform="translate(54.133708)" width="265" xlink:href="#d"/><path d="m187.58341 123.85256c-.676.575-1.328.981-1.954 1.218-.625.237-1.297.355-2.014.355-1.185 0-2.095-.289-2.731-.867-.636-.579-.954-1.318-.954-2.218 0-.528.12-1.01.36-1.447.241-.436.555-.786.944-1.05.39-.264.828-.464 1.315-.599.359-.095.9-.186 1.624-.274 1.475-.176 2.561-.386 3.258-.629.007-.251.01-.41.01-.477 0-.745-.172-1.269-.517-1.574-.467-.413-1.161-.619-2.081-.619-.86 0-1.494.151-1.903.452-.41.301-.713.834-.909 1.598l-1.786-.243c.162-.765.43-1.382.802-1.853.372-.47.91-.832 1.614-1.086.703-.253 1.519-.38 2.446-.38.92 0 1.668.108 2.243.325.575.216.998.488 1.269.817.27.328.46.742.568 1.243.061.311.091.873.091 1.685v2.436c0 1.698.039 2.773.117 3.223s.232.881.462 1.294h-1.908c-.19-.379-.311-.822-.366-1.33zm-.152-4.08c-.663.27-1.658.501-2.984.69-.751.108-1.282.23-1.594.365-.311.136-.551.334-.72.594-.169.261-.254.55-.254.868 0 .487.184.893.553 1.218s.909.487 1.619.487c.704 0 1.33-.154 1.878-.462.548-.307.951-.729 1.208-1.263.196-.413.294-1.022.294-1.827z" fill="#fff"/><path d="m200.4943 125.16335v-1.584c-.839 1.218-1.979 1.827-3.421 1.827-.636 0-1.23-.121-1.781-.365-.552-.244-.961-.55-1.228-.919-.268-.368-.455-.82-.564-1.355-.074-.358-.111-.927-.111-1.705v-6.679h1.827v5.979c0 .954.037 1.597.111 1.928.115.481.359.858.731 1.132s.833.411 1.381.411 1.062-.14 1.543-.421c.48-.281.82-.663 1.02-1.147.199-.484.299-1.186.299-2.106v-5.776h1.827v10.78z" fill="#fff"/><path d="m213.28866 125.18536v-1.36c-.684 1.069-1.688 1.603-3.015 1.603-.859 0-1.649-.236-2.37-.71-.72-.474-1.279-1.135-1.675-1.984-.395-.85-.593-1.826-.593-2.929 0-1.076.179-2.052.538-2.928.358-.876.896-1.548 1.614-2.015.717-.467 1.519-.7 2.405-.7.65 0 1.228.137 1.736.411.507.274.92.631 1.238 1.071v-5.339h1.817v14.88zm-5.776-5.38c0 1.381.291 2.413.873 3.096s1.269 1.025 2.061 1.025c.798 0 1.477-.326 2.035-.979s.837-1.65.837-2.99c0-1.475-.284-2.557-.852-3.248-.569-.69-1.269-1.035-2.101-1.035-.812 0-1.491.332-2.035.995-.545.663-.818 1.708-.818 3.136z" fill="#fff"/><path d="m219.35332 112.38435v-2.101h1.827v2.101zm0 12.779v-10.78h1.827v10.78z" fill="#fff"/><use fill="#fff" height="130" transform="translate(131.18516)" width="265" xlink:href="#c"/><path id="e" d="m252.63886 121.21247 1.797.234c-.196 1.238-.699 2.208-1.507 2.908-.809.7-1.802 1.05-2.979 1.05-1.476 0-2.661-.482-3.558-1.446s-1.345-2.346-1.345-4.146c0-1.164.193-2.183.579-3.056.385-.872.972-1.527 1.761-1.964.788-.436 1.646-.654 2.573-.654 1.17 0 2.128.296 2.872.888.745.592 1.222 1.433 1.431 2.522l-1.776.274c-.169-.724-.468-1.269-.898-1.634s-.949-.548-1.558-.548c-.92 0-1.668.33-2.243.99-.576.659-.863 1.703-.863 3.131 0 1.448.277 2.5.832 3.157.555.656 1.279.984 2.172.984.718 0 1.316-.22 1.797-.66.48-.439.785-1.116.913-2.03z" fill="#fff"/><g fill="#fff"><use height="130" transform="translate(163.08566)" width="265" xlink:href="#c"/><path d="m277.03214 125.15536v-1.36c-.684 1.069-1.689 1.603-3.015 1.603-.859 0-1.649-.236-2.37-.71s-1.279-1.135-1.675-1.984c-.396-.85-.594-1.826-.594-2.929 0-1.076.18-2.052.538-2.928.359-.876.897-1.548 1.614-2.015.718-.467 1.519-.7 2.406-.7.649 0 1.228.137 1.736.411.507.274.92.631 1.238 1.071v-5.339h1.817v14.88zm-5.776-5.38c0 1.381.291 2.413.873 3.096s1.269 1.025 2.061 1.025c.798 0 1.476-.326 2.035-.979.558-.653.837-1.65.837-2.99 0-1.475-.284-2.557-.853-3.248-.568-.69-1.268-1.035-2.101-1.035-.812 0-1.49.332-2.035.995-.544.663-.817 1.708-.817 3.136z"/><use height="130" transform="translate(227.89408)" width="265" xlink:href="#b"/><use height="130" transform="translate(50.014443)" width="265" xlink:href="#e"/></g></g><g transform="matrix(.27853610917 0 0 .27747601555 3.05860148067 -.36876736631)"><path d="m66.301508 50.396255-10.383223-.020505 3.73125-17.37575 6.651973.01256v-1.613661c0-4.810264.77954-8.914045 2.289846-12.331951 1.542851-3.491553 3.685838-6.335819 6.465449-8.527413 2.877659-2.2689015 6.282744-3.9467059 10.236959-4.9852576 4.037822-1.06051 8.431508-1.5734761 13.312967-1.5735718l5.022131 19.4442634-6.089555-.132583c-3.86672-.08419-6.764519.816904-8.634534 2.522345-1.817914 1.657925-2.698292 4.28957-2.698292 7.395561l11.46125-.21025v17.37575h-11.46125v49.576832l-19.904971 2.249186v-51.805513"/><path d="m129.11253 6.5346891.0625 93.4741309-20.17013 2.53203v-93.7484253z"/><path d="m157.8125 55.625c-13.90219-.08596-23.28125 9.722558-23.28125 23.90625 0 14.183691 10.10448 23.99225 23.28125 23.90625s21.34375-10.113575 21.34375-25.0625c0-14.948924-7.44156-22.66404-21.34375-22.75zm5.53125 13.625c5.45822 0 9.75 3.598105 9.75 8.90625s-4.01013 8.90625-9.75 8.90625c-5.73985 0-9.75-3.627784-9.75-8.90625 0-5.278467 4.29179-8.90625 9.75-8.90625z"/><path d="m173.74995 57.732108c0-3.130117-1.05228-5.624463-3.15673-7.483047-2.00432-1.858482-5.19181-2.78775-9.77085-2.787803-3.45978 0-6.97586.561877-9.73656 1.316906-2.76073.660746-5.01021 1.415826-6.74843 2.265243l3.01488-18.182287c1.27692-.523298 3.51153-1.112099 6.7039-1.766287 3.19229-.654172 7.20519-.98127 12.17647-.98127 7.32337 0 14.41861 2.158503 19.13195 6.401568 5.56899 5.013328 6.81601 8.554778 6.85453 18.412212.0589 15.07701-1.29993 45.782807-1.29993 45.782807l-17.48172 1.6768"/><path d="m234 30c-19.99431 0-35.75 14.918178-35.75 36.6875s14.72405 36.71875 35.75 36.71875c9.7245 0 18.086-3.17475 24.28125-8.75l-10.75-15.25c-2.94202 3.159896-7.11604 5-12.0625 5-9.80821 0-17.25-8.148911-17.25-17.71875 0-10.497916 7.92303-17.6875 17.25-17.6875 4.59876 0 8.69913 1.727004 11.6875 4.75l10.5625-15.125c-6.27766-5.489744-14.5414-8.625-23.71875-8.625z"/></g><g clip-path="url(#a)" transform="matrix(.27853610917 0 0 .27747601555 3.05860148067 -.36876736631)"><g id="f" fill="#fff"><path d="m2.75 34.64375v11.65625h8.24375v-11.65625zm0 16v11.65625h8.24375v-11.65625zm0 16v11.65625h8.24375v-11.65625z" fill="#fff"/><path d="m2.75 82.64375v11.65625h8.24375v-11.65625zm0 16v11.65625h8.24375v-11.65625zm0 16v11.65625h8.24375v-11.65625z" fill="#fff"/><path d="m2.75 2.8625v11.65625h8.24375v-11.65625zm0 15.78125v11.65625h8.24375v-11.65625z" fill="#fff"/></g><g fill="#fff"><use height="130" transform="translate(13)" width="265" xlink:href="#f"/><use height="130" transform="translate(26)" width="265" xlink:href="#f"/><use height="130" transform="translate(39)" width="265" xlink:href="#f"/></g></g></g></svg>