<svg height="35" viewBox="0 0 392 171.5" width="80" xmlns="http://www.w3.org/2000/svg"><g fill="#fff"><text stroke-width=".910772" transform="scale(1.0279658 .972795)" x="142.93924" y="-3.24978"><tspan stroke-width=".910772" x="142.93924" y="307.27316"/></text><g fill-rule="evenodd" transform="matrix(1.1934548 0 0 1.2400443 -41.397693 -16.728564)"><path d="m116.47593 114.68365a29.399984 29.399969 0 0 1 -29.262334 29.39964 29.399984 29.399969 0 0 1 -29.536341-29.12435 29.399984 29.399969 0 0 1 28.98577-29.672362 29.399984 29.399969 0 0 1 29.807755 28.846512"/><path d="m189.54729 52.431404a29.399984 29.399969 0 0 1 -29.26234 29.399647 29.399984 29.399969 0 0 1 -29.53634-29.124358 29.399984 29.399969 0 0 1 28.98577-29.672358 29.399984 29.399969 0 0 1 29.80776 28.846516"/><path d="m269.32326 53.026745a29.399984 29.399969 0 0 1 -29.26234 29.399647 29.399984 29.399969 0 0 1 -29.53634-29.124359 29.399984 29.399969 0 0 1 28.98577-29.672357 29.399984 29.399969 0 0 1 29.80776 28.846516"/><path d="m341.35979 114.94242a29.399984 29.399969 0 0 1 -29.26234 29.39965 29.399984 29.399969 0 0 1 -29.53634-29.12436 29.399984 29.399969 0 0 1 28.98577-29.672358 29.399984 29.399969 0 0 1 29.80776 28.846518"/></g></g></svg>