<svg height="35" width="80" xmlns="http://www.w3.org/2000/svg"><text x="6.606521" y="10.002353"><tspan x="6.606521" y="76.29718"/></text><path d="m12.852702 33.252661c-5.5770338-4.476391-9.263941-9.21438-10.8622649-13.95894-1.07310651-3.185475-1.25933132-6.143019-.5616992-8.920739.4854342-1.932827 1.098215-3.0472951 2.475509-4.5022394 2.4842827-2.6243263 5.9816266-4.0221331 11.0633251-4.4217272 5.805719-.45653249 14.878245 1.2855409 23.05206 4.4263646l1.842957.7081679v1.0621162c0 .5938031-.05078 1.0621079-.115167 1.0621079-.06333 0-.756714-.2345703-1.540833-.5212691-4.513236-1.6502044-9.265627-2.8982136-13.208506-3.4686586-1.842231-.2665246-5.634084-.3596854-7.22029-.1773877-1.776522.2041653-3.791929.7208631-5.018574 1.2866189-2.8670619 1.3223539-4.489874 3.0917444-5.2504074 5.7246225-.4169681 1.443498-.5133558 3.926595-.2158371 5.560308.9357364 5.138255 4.9925455 10.760424 11.3664195 15.75228.594951.465954 1.161362.921704 1.258691 1.012791.151439.141731-.275538.164595-2.960816.158592l-3.137773-.0067-.966798-.775998zm10.405265-.221031c-7.835081-5.941971-11.356878-12.443412-9.860295-18.202685.351549-1.352861.95454-2.330035 2.162491-3.504416 2.032254-1.9757776 4.540774-2.9454265 8.297902-3.2074824 4.15837-.2900446 10.214248.748356 15.370063 2.6355154l.634461.232228v1.016335c0 .992357-.0064 1.014934-.271913.956695-.149551-.0328-.978882-.254589-1.842955-.492851-3.191506-.880031-5.833929-1.259383-8.77237-1.259383-5.046017 0-8.081955 1.441503-9.769679 4.63878-1.332432 2.524207-1.249933 5.193161.251435 8.134289 1.520799 2.979191 4.441871 6.046955 8.607093 9.039328l1.426326 1.024702-2.457706-.0059-2.457705-.0059zm9.53492.282755c-1.724626-1.150138-3.17419-2.361813-4.787015-4.001419-2.757747-2.803546-4.329426-5.593435-4.535475-8.050956-.154981-1.848447.428397-3.284899 1.939922-4.776672 1.73877-1.716056 3.653894-2.400246 7.020019-2.507947 2.176502-.06964 3.820503.104408 6.012267.636504l1.299134.315383v9.556704 9.556703l-2.930602-.0014-2.930604-.0014z" fill="#fff"/><path d="m71.39107 33.975115c-1.910913-.693758-3.13808-2.181699-3.685861-4.469105-.290402-1.212636-.248344-3.866703.07939-5.008428.532844-1.856384 1.87594-3.434145 3.446023-4.048088 1.53205-.599076 3.852224-.509824 5.240418.201599 1.124588.576322 2.170376 2.013574 2.485011 3.415212l.09137.407047h-.928264c-.904421 0-.930388-.01079-1.011019-.421885-.119696-.610216-.954134-1.651875-1.592428-1.987899-.768803-.404723-2.18219-.495861-3.166303-.204168-2.060319.610676-3.209456 2.915548-2.994372 6.005934.141072 2.02704.879502 3.530421 2.089081 4.25316.968815.578887 2.585913.664784 3.658495.194334.945139-.41455 1.673556-1.329694 2.022702-2.541212l.247051-.857273.917135-.000151c.804811-.000144.908104.03155.8434.25883-.04053.14247-.14976.558403-.24269.924287-.400683 1.577578-1.426804 2.862816-2.859959 3.582175-.864583.433972-1.114323.488245-2.424056.526795-1.133689.03336-1.628965-.01829-2.215106-.231107zm-29.880843-.287564c.05499-.142469 1.079585-2.923379 2.276832-6.179801 1.197245-3.256425 2.300155-6.206954 2.450913-6.556734l.274108-.635968.96484.04392.964843.04386 2.287579 6.438838c1.25817 3.541363 2.334286 6.591877 2.391365 6.778922.101978.334228.087.339323-.870766.296036l-.974541-.04404-.668585-1.961259-.668581-1.961251h-2.62349-2.623485l-.701414 1.998256-.701413 1.998262h-.939113c-.835709 0-.928097-.02853-.839092-.259036zm6.913929-8.166182c-.526943-1.540259-.990905-2.833747-1.031032-2.874409-.04015-.04065-.536442 1.219549-1.102929 2.800482l-1.029965 2.874418h2.061004 2.061002zm8.614609 1.65982 2.507328-6.778363.969331-.04386.969327-.04386.199825.487932c.1099.268368 1.147106 3.152278 2.304903 6.408703 1.157798 3.256422 2.174793 6.103945 2.259989 6.327825l.154902.407054h-1.000973-1.00097l-.24927-.777104c-.137088-.427403-.44303-1.328093-.679854-2.001538l-.430584-1.224436-2.624317.04028-2.624312.04028-.684384 1.924246-.684377 1.924254-.946943.04348-.946943.04349zm5.428838 1.009492c-.02662-.07213-.471104-1.369646-.987757-2.883339-.51665-1.513686-.981705-2.70357-1.033453-2.644183-.05174.05937-.503656 1.273626-1.004243 2.698311-.500585 1.424684-.940797 2.673596-.978247 2.775361-.0525.142588.404391.185029 1.991997.185029 1.136652 0 2.038405-.05882 2.011703-.131175z" fill="#fff"/></svg>