<svg height="100" viewBox="0 0 200 100" width="200" xmlns="http://www.w3.org/2000/svg"><text fill="#fff" stroke-width=".910772" transform="scale(1.0279658 .972795)" x="142.93924" y="63.567997"><tspan stroke-width=".910772" x="142.93924" y="374.09094"/></text><ellipse cx="100.13158" cy="50.263157" fill="#404040" rx="90.394737" ry="49.999996"/><g fill="#fff"><path d="m75.497116 68.237663h-4.359375v-15.984375h-15.609375v15.984375h-4.359375v-34.265625h4.359375v14.4375h15.609375v-14.4375h4.359375z"/><path d="m102.6143 68.237663h-17.789059v-34.265625h17.789059v3.84375h-13.429684v10.59375h12.539064v3.796875h-12.539064v12.1875h13.429684z"/><path d="m110.13774 68.237663v-34.265625h4.35938v30.375h13.42968v3.890625z"/><path d="m154.29399 44.003288q0 2.132813-.65625 4.101563-.63281 1.96875-2.10937 3.492187-1.47657 1.5-3.91407 2.414063-2.41406.890625-5.97656.890625h-3.51562v13.335937h-4.35938v-34.265625h8.48438q3.14062 0 5.41406.679688 2.27344.65625 3.75 1.945312 1.47656 1.265625 2.17969 3.140625.70312 1.875.70312 4.265625zm-16.17187 7.195313h3.02343q2.17969 0 3.79688-.375 1.64062-.375 2.69531-1.195313 1.07813-.84375 1.61719-2.15625.53906-1.335937.53906-3.234375 0-3.328125-1.92187-4.921875-1.92188-1.617187-6-1.617187h-3.75z"/></g></svg>