<svg height="100" viewBox="0 0 200 100" width="200" xmlns="http://www.w3.org/2000/svg"><text fill="#fff" stroke-width=".910772" transform="scale(1.0279658 .972795)" x="142.93924" y="63.567997"><tspan stroke-width=".910772" x="142.93924" y="374.09094"/></text><ellipse cx="100.13158" cy="50.263157" fill="#404040" rx="90.394737" ry="49.999996"/><g fill="#fff"><path d="m60.848679 68.237663h-12.421875v-2.390625l4.03125-.960937v-27.5625l-4.03125-.960938v-2.390625h12.421875v2.390625l-4.03125.960938v27.5625l4.03125.960937z"/><path d="m93.145554 68.237663h-5.039063l-16.851562-28.359375h-.1875q.140625 1.804688.234375 3.585938.09375 1.523437.140625 3.1875.07031 1.664062.07031 3v18.585937h-4.03125v-34.265625h4.992188l16.78125 28.21875h.164062q-.07031-1.78125-.164062-3.515625-.02344-.75-.07031-1.523437-.02344-.796875-.07031-1.570313-.02344-.796875-.04687-1.523437 0-.726563 0-1.335938v-18.75h4.078125z"/><path d="m106.80962 68.237663h-4.35938v-34.265625h17.78906v3.84375h-13.42968v12.09375h12.53906v3.84375h-12.53906z"/><path d="m154.05962 51.057976q0 3.960937-.96094 7.21875-.9375 3.257812-2.8125 5.578125-1.875 2.320312-4.66406 3.585937-2.76563 1.265625-6.39844 1.265625-3.82031 0-6.63281-1.265625-2.78907-1.265625-4.64063-3.585937-1.82812-2.320313-2.71875-5.578125-.89062-3.28125-.89062-7.265625 0-3.984375.89062-7.21875.89063-3.257813 2.74219-5.554688 1.85156-2.296875 4.66406-3.539062 2.8125-1.265625 6.63281-1.265625 3.63282 0 6.375 1.265625 2.76563 1.242187 4.64063 3.5625 1.875 2.296875 2.8125 5.554687.96094 3.234375.96094 7.242188zm-25.10157 0q0 3.210937.60938 5.789062.60937 2.554688 1.85156 4.359375 1.26563 1.78125 3.1875 2.742188 1.94531.9375 4.61719.9375 2.67187 0 4.59375-.9375 1.94531-.960938 3.1875-2.742188 1.26562-1.804687 1.85156-4.359375.58594-2.578125.58594-5.789062 0-3.234375-.58594-5.789063-.58594-2.554687-1.82812-4.3125-1.24219-1.78125-3.16407-2.71875-1.92187-.960937-4.59375-.960937-2.67187 0-4.61718.960937-1.94532.9375-3.21094 2.71875-1.26563 1.757813-1.875 4.3125-.60938 2.554688-.60938 5.789063z"/></g></svg>