<svg height="256" viewBox="0 0 256 256" width="256" xmlns="http://www.w3.org/2000/svg"><rect fill="none" height="177.44261" ry="8.301388" stroke="#bababa" stroke-linejoin="round" stroke-width="5.973191" transform="matrix(.70264508 -.7115405 .71122425 .70296519 0 0)" width="177.44368" x="-90.356415" y="92.338318"/><path d="m133.45658 159.12237h-18.38456q-.0722-4.31028-.0722-5.2507 0-9.71773 2.95595-15.98722 2.95595-6.2695 11.82379-14.10637 8.86786-7.83687 10.59817-10.26631 2.66756-3.84006 2.66756-8.46382 0-6.426233-4.75836-10.97162-4.68626-4.623755-12.68895-4.623755-7.71431 0-12.90525 4.780493-5.19093 4.780492-7.13753 14.576582l-18.600747-2.5078q.79306-14.028 10.958643-23.824092 10.237674-9.796092 26.819834-9.796092 17.4473 0 27.75708 9.952829 10.30978 9.87446 10.30978 23.040405 0 7.28829-3.82111 13.7929-3.74901 6.5046-16.14958 17.71133-6.41657 5.79929-8.00268 9.32588-1.51403 3.5266-1.36984 12.61736zm-18.38456 29.62339v-22.02161h20.25906v22.02161z" fill="#bababa" stroke-width=".820024"/></svg>