<svg height="35" width="80" xmlns="http://www.w3.org/2000/svg"><text x="6.606521" y="10.002353"><tspan x="6.606521" y="76.29718"/></text><g fill="#fff"><g stroke-width="1.061374" transform="matrix(.71654804 0 0 .61053016 11.198751 10.891001)"><path d="m11.456043 21.847696v-20.2600719h6.564484q3.731392 0 4.864629.3040393 1.741316.4560589 2.916013 1.9900753 1.174697 1.5201964 1.174697 3.9386907 0 1.8656956-.677178 3.1371326-.677179 1.271437-1.727496 2.003895-1.036498.718639-2.114455.953578-1.464917.290219-4.24273.290219h-2.667254v7.642442zm4.09071-16.83272v5.749106h2.238835q2.418494 0 3.233872-.317859.815378-.317859 1.271437-.9950375.469879-.6771784.469879-1.5754762 0-1.1055974-.649538-1.8242357-.649539-.7186383-1.644576-.8982979-.732459-.1381997-2.943653-.1381997z"/><path d="m43.324888 14.398734 3.966331 1.257617q-.912118 3.316792-3.040393 4.933728-2.114455 1.603116-5.375967 1.603116-4.035431 0-6.633585-2.750173-2.598153-2.763994-2.598153-7.545702 0-5.0581083 2.611973-7.8497417 2.611974-2.8054534 6.868524-2.8054534 3.717571 0 6.039326 2.1973748 1.381997 1.299077 2.072995 3.7313912l-4.04925.9673977q-.35932-1.5754762-1.506377-2.4875941-1.133237-.9121178-2.763993-.9121178-2.252655 0-3.662292 1.6169362-1.395816 1.6169361-1.395816 5.2377671 0 3.841951 1.381996 5.472708 1.381997 1.630756 3.593192 1.630756 1.630756 0 2.805453-1.036498 1.174697-1.036497 1.686036-3.261512z"/><path d="m50.760031 21.847696v-20.2600719h6.122246l3.676111 13.8199669 3.634652-13.8199669h6.136065v20.2600719h-3.800491v-15.9482421l-4.02161 15.9482421h-3.938691l-4.007791-15.9482421v15.9482421z"/></g><g stroke-width="1.041047" transform="matrix(1.2545489 0 0 1.2654099 -16.815111 -.28925)"><path d="m29.113787 7.4318471v-6.57556686h1.33863v5.45853456h3.328485v1.1170323z"/><path d="m34.698949 7.4318471v-6.62983564h1.33863v6.62983564z"/><path d="m37.321939 7.4318471v-6.62983564h1.302451l2.713439 4.42742774v-4.42742774h1.243659v6.62983564h-1.343152l-2.672737-4.3234126v4.3234126z"/><path d="m44.001522 7.4318471v-6.62983564h4.915846v1.12155474h-3.577216v1.4697794h3.328485v1.1170323h-3.328485v1.8044369h3.703844v1.1170323z"/><path d="m56.166772 7.4318471h-1.456212l-.578867-1.5059586h-2.650126l-.54721 1.5059586h-1.420033l2.58229-6.62983564h1.41551zm-2.464707-2.6229909-.913525-2.4601846-.895434 2.4601846z"/><path d="m56.885833 7.4318471v-6.62983564h2.817454q1.062764 0 1.542138.18089592.483897.17637352.77333.63313572.289434.4567622.289434 1.044674 0 .7461957-.438673 1.2346147-.438672.4838966-1.311495.6105237.43415.2532543.714539.556255.284911.3030007.764285 1.0763307l.809509 1.2934059h-1.600929l-.967793-1.442645q-.515553-.7733301-.705494-.9723156-.189941-.2035079-.402493-.2758663-.212553-.0768808-.673838-.0768808h-.271344v2.7677077zm1.33863-3.8259488h.990406q.96327 0 1.202957-.081403.239687-.081403.375359-.2803887.135672-.1989855.135672-.4974638 0-.3346574-.180896-.5381653-.176373-.2080305-.501986-.2622993-.162806-.022612-.976838-.022612h-1.044674z"/></g><g stroke-width=".894966"><path d="m23.802418 26.628993h2.090659v3.708925h-2.090659z"/><path d="m43.837803 26.675356h2.090659v7.881464h-2.090659z"/><path d="m40.004947 26.721714h2.090657v5.934278h-2.090657z"/><path d="m35.649425 26.72172h2.090659v5.007048h-2.090659z"/><path d="m51.851958 26.675356h2.090658v6.861509h-2.090658z"/><path d="m55.859041 26.675356h2.090657v6.305172h-2.090657z"/><path d="m59.779008 26.721718h2.090659v5.192494h-2.090659z"/><path d="m19.882441 26.628994h2.090658v4.172541h-2.090658z"/><path d="m27.809491 26.675356h2.090658v3.708925h-2.090658z"/><path d="m31.555239 26.675358h2.090657v3.708925h-2.090657z"/><path d="m47.844883 26.675356h2.090658v7.881464h-2.090658z"/></g></g></svg>