<svg height="100" viewBox="0 0 200 100" width="200" xmlns="http://www.w3.org/2000/svg"><text fill="#fff" stroke-width=".910772" transform="scale(1.0279658 .972795)" x="142.93924" y="63.567997"><tspan stroke-width=".910772" x="142.93924" y="374.09094"/></text><ellipse cx="100.13158" cy="50.263157" fill="#404040" rx="90.394737" ry="49.999996"/><g fill="#fff"><path d="m51.114719 67.711349-10.382812-30h-.1875q.140625 1.734375.234375 3.445313.09375 1.476562.140625 3.117187.07031 1.617188.07031 2.953125v20.484375h-4.03125v-34.265625h6.46875l9.65625 27.9375h.140625l9.703125-27.9375h6.46875v34.265625h-4.359373v-20.789062q0-1.21875.04687-2.789063.04687-1.570312.117188-3 .09375-1.664062.164062-3.375h-.1875l-10.476557 29.953125z"/><path d="m96.560032 67.711349h-17.789063v-34.265625h17.789063v3.84375h-13.429688v10.59375h12.539063v3.796875h-12.539063v12.1875h13.429688z"/><path d="m129.74753 67.711349h-5.03906l-16.85156-28.359375h-.1875q.14062 1.804688.23437 3.585938.0937 1.523437.14063 3.1875.0703 1.664062.0703 3v18.585937h-4.03125v-34.265625h4.99219l16.78125 28.21875h.16406q-.0703-1.78125-.16406-3.515625-.0234-.75-.0703-1.523437-.0234-.796875-.0703-1.570313-.0234-.796875-.0469-1.523437 0-.726563 0-1.335938v-18.75h4.07812z"/><path d="m163.56784 33.398849v22.21875q0 2.671875-.77343 4.96875-.77344 2.296875-2.34375 3.984375-1.54688 1.6875-3.91407 2.648438-2.34375.960937-5.53125.960937-3 0-5.29687-.890625-2.29688-.914062-3.86719-2.578125-1.54687-1.664062-2.34375-3.984375-.79687-2.34375-.79687-5.203125v-22.078125h4.38281v22.3125q0 4.101563 2.01562 6.351563 2.03907 2.25 6.14063 2.25 2.08594 0 3.58594-.632813 1.5-.632812 2.46093-1.78125.96094-1.148437 1.42969-2.742187.46875-1.59375.49219-3.492188v-22.3125z"/></g></svg>