<svg height="35" width="80" xmlns="http://www.w3.org/2000/svg"><text x="6.606521" y="10.002353"><tspan x="6.606521" y="76.29718"/></text><path d="m18.325532 34.663285c-.789795-.02959-1.749856-.09254-2.133471-.139868-2.825027-.348498-5.748071-1.493662-7.9659917-3.120846-.3420634-.250956-1.0448769-.855289-1.5618078-1.34296-2.3128819-2.181971-3.7943251-5.022026-4.1768528-8.007389-.1276885-.996537-.0646664-3.418804.1152176-4.428064.5759129-3.231288 2.0843368-6.344038 4.2899628-8.8526789 3.9396339-4.4808699 10.4858099-7.5960645 17.2471369-8.20756953 5.993609-.54206848 11.493704 1.57590723 14.394434 5.54301473.776716 1.0622524 1.672961 2.8384541 1.574547 3.1204777-.100025.2866491-.345624.1622141-.49477-.2506772-.506702-1.4027416-1.570511-2.9436826-2.794921-4.0484833-1.548039-1.3968141-3.993248-2.5222145-6.403451-2.9471733-2.989098-.5270237-6.029261-.3211783-9.54628.6463702-3.996635 1.0994885-7.27174 2.8308545-9.928841 5.2488158-2.8310541 2.5762608-4.5604412 5.5924118-5.3061731 9.2542828-.2093817 1.028158-.2108164 3.813501-.00232 4.692622.5201431 2.194186 1.5763362 3.939899 3.2914085 5.440165 1.8086086 1.582085 4.1508146 2.66548 6.8274506 3.158059 1.101063.202627 3.84565.282939 5.09665.149142 3.496168-.37393 6.358965-1.586367 8.37565-3.547213 1.088886-1.058738 1.619099-1.89996 2.707211-4.295192.363631-.800455 1.018875-2.194253 1.456099-3.09733 1.771406-3.658809 1.758053-3.622261 1.431875-3.918937-.156887-.142696-.242311-.160934-.582303-.124306-.670665.07225-1.238631.534915-1.710901 1.393721-.124157.225771-.994441 1.980611-1.93397 3.899648l-1.708235 3.489162h-3.063105c-2.862383 0-3.063129-.0085-3.063501-.130611-.000247-.07183.849063-1.863064 1.887299-3.980503 1.59249-3.247828 1.8877-3.90465 1.8877-4.200036 0-.313031-.0239-.358526-.225656-.429273-.575956-.20198-1.309015.129768-1.832205.829172-.168886.22577-1.121565 2.070229-2.117068 4.098798-.9955 2.028571-1.838865 3.712997-1.87414 3.743172-.03528.03016-1.407876.0665-3.050219.08073-2.587016.02243-2.996084.01089-3.060977-.08608-.06859-.102524 1.153785-2.662818 4.695106-9.834006l.599371-1.213728 2.959964.01957c2.886836.01911 2.960699.02328 2.989548.168846.05102.257455.136153.26974.594054.08572.929594-.373584 1.830007-.529322 3.071115-.531196.95881-.0016 1.243965.02546 1.724304.162681.66285.189371 1.24274.516512 1.468773.828604l.156991.216753.663576-.282529c2.238215-.952968 4.782718-1.213148 6.418898-.656347.589791.20071 1.286667.785621 1.480573 1.242688.217345.512317.18615 1.323636-.07809 2.030953-.505723 1.353722-3.801706 7.869381-4.804662 9.498088-2.413029 3.91853-5.108781 6.234574-8.789591 7.551539-1.545802.553075-3.792178.971382-5.645949 1.051354-1.82457.07871-2.148633.08134-3.549368.02883zm18.750225-4.545901c-.02772-.0408.638047-1.47658 1.479491-3.190624 2.922884-5.954001 3.406542-6.941205 5.037114-10.281348l1.639556-3.358549h3.224795 3.224796l.02596.205246c.03172.250718.04886.251246.607414.01866.88257-.367506 1.652784-.504579 2.854023-.50792 2.510911-.007 3.980717.672534 4.441912 2.053581.736782 2.206291-1.493209 6.255201-4.420673 8.026438-1.68875 1.021765-3.251559 1.478099-5.354914 1.563617-1.155896.047-1.708435-.04358-2.576011-.422322-.274004-.119612-.504685-.211283-.512623-.203711-.0079.0076-.63137 1.273223-1.385402 2.812558-.75403 1.539337-1.441295 2.924737-1.52725 3.078671l-.156286.279882h-3.275752c-2.081954 0-3.29412-.02704-3.326155-.07418zm12.634077-7.719427c.894094-.339788 2.016051-1.868183 3.036694-4.13677.503174-1.118409.721715-1.942424.683053-2.575501-.02414-.395386-.0668-.535551-.187356-.615734-.575342-.382647-1.777851.34889-2.712449 1.650094-.799048 1.112487-1.773602 3.071189-2.050376 4.120948-.170554.646875-.135143 1.293744.08281 1.512797.181364.182277.728766.203345 1.147624.04417zm12.503937 2.157051c-1.097031-.136138-1.707858-.297091-2.608868-.68744-.614497-.266222-.900568-.44795-1.384055-.87923-.335198-.29901-.595899-.579139-.579331-.622511.05151-.134868 3.105675-2.175349 3.254073-2.174038.07719.000631.380379.0815.67373.179602.463521.155007.53085.201269.514133.353273-.113527 1.032342-.118029 1.344327-.02245 1.55425.246042.540272 1.123011.768116 2.19286.569717.989726-.183539 1.595367-.494447 2.405269-1.234751 1.039809-.950451 1.606396-2.032071 1.542508-2.944666-.03941-.562928-.246866-.862602-.750751-1.084466-.316436-.139327-.501895-.155673-1.766218-.155673-1.198988 0-1.420024-.01747-1.461361-.115443-.04346-.103022.542031-1.421882.735666-1.657126.05377-.06531.363928-.09329 1.034184-.09329 1.098513 0 1.649825-.106054 2.542819-.489155 1.255782-.538737 2.427687-1.907874 2.651848-3.09815.07905-.419751.07174-.517774-.05696-.764482-.202506-.388148-.622493-.574085-1.296718-.574085-.892856 0-1.771422.303793-2.398154.829243-.425717.356915-.634396.724075-.69381 1.220721l-.04434.370687-.738512.208334c-.406179.114585-.780272.193858-.831315.176163-.115071-.03989-1.507294-2.054638-1.507294-2.181274 0-.117262 1.169954-.822617 1.959405-1.181307 2.019873-.9177386 4.927818-1.4007457 7.406011-1.2301285 2.712886.1867742 4.188891 1.0372939 4.316879 2.4875265.163452 1.852105-1.60631 3.667122-4.450936 4.564752-.361051.113929-.687552.23181-.725563.26196-.03801.03016.16208.166892.44464.303872 1.641143.795602 2.123458 2.154737 1.34073 3.778104-.585217 1.213738-1.932592 2.400612-3.594345 3.16619-.754326.347519-2.287216.824737-3.168393.986379-1.559561.286086-3.416403.344943-4.93539.156445z" fill="#fff" stroke-width=".078258"/></svg>