<svg height="35" width="80" xmlns="http://www.w3.org/2000/svg"><g fill="#fff"><path d="m69.025542 26.515568a29.540722 7.4413525 0 0 1 -29.402418 7.441272 29.540722 7.4413525 0 0 1 -29.6777304-7.371594 29.540722 7.4413525 0 0 1 29.1245244-7.510296 29.540722 7.4413525 0 0 1 29.950444 7.301269" stroke="#fff" stroke-linecap="round" stroke-linejoin="round" stroke-width="1.2"/><g fill="#000" stroke-width="0" transform="matrix(.88050371 0 0 .88982228 5.350984 3.096016)"><path d="m27.921193 30.797766h-2.096355l-.833333-2.167969h-3.815104l-.78776 2.167969h-2.044271l3.717448-9.544271h2.03776zm-3.548177-3.776042-1.315105-3.541666-1.289062 3.541666z"/><path d="m28.962859 21.253495h1.927083v5.169271q0 1.230469.07161 1.595052.123698.585937.585937.94401.46875.351563 1.276042.351563.820313 0 1.236979-.332031.416667-.338542.501302-.826823.08464-.488282.08464-1.621094v-5.279948h1.927083v5.013021q0 1.71875-.15625 2.428385-.15625.709636-.579427 1.197917-.416667.488281-1.119792.78125-.703125.286458-1.835937.286458-1.367188 0-2.076823-.3125-.703125-.31901-1.113281-.820312-.410156-.507813-.540365-1.061198-.188802-.820313-.188802-2.421875z"/><path d="m38.604787 21.253495h3.522135q1.191406 0 1.816406.182292.839844.247396 1.438802.878906.598958.63151.911458 1.549479.3125.911458.3125 2.252604 0 1.178386-.292968 2.03125-.358073 1.041667-1.022136 1.686198-.501302.488281-1.354166.761719-.638021.201823-1.705729.201823h-3.626302zm1.927083 1.614583v6.321615h1.438802q.807292 0 1.165364-.09115.46875-.117187.77474-.397135.3125-.279948.507812-.917969.195313-.644531.195313-1.751302 0-1.106771-.195313-1.699219-.195312-.592448-.546875-.924479-.351562-.332031-.891927-.449219-.403645-.09115-1.582031-.09115z"/><path d="m48.188117 30.797766v-9.544271h1.927084v9.544271z"/><path d="m51.554004 26.084224q0-1.458333.436198-2.447916.325521-.729167.885417-1.308594.566406-.579427 1.236979-.859375.891927-.377604 2.057291-.377604 2.109375 0 3.372396 1.308593 1.269531 1.308594 1.269531 3.639323 0 2.311198-1.25651 3.619792-1.25651 1.302083-3.359375 1.302083-2.128906 0-3.385417-1.295573-1.25651-1.302083-1.25651-3.580729zm1.985677-.0651q0 1.621094.748698 2.460937.748698.833334 1.901042.833334 1.152343 0 1.88802-.826823.742188-.833333.742188-2.49349 0-1.640625-.722656-2.447916-.716146-.807292-1.907552-.807292-1.191407 0-1.920573.820313-.729167.813802-.729167 2.460937z"/></g><path d="m1.4749461 15.084783c0-.04539 1.824919-7.9951488 2.3298129-10.1492247l.2523253-1.0764998 7.5545867.03707c7.370586.036173 7.57619.042402 8.44162.2552136 1.83574.4514281 3.032276 1.2710352 3.55531 2.4353432.467161 1.0399277.402469 1.7848956-.473719 5.4550977l-.72568 3.039788-2.190541.02681-2.190535.02686.05187-.22616c.0285-.12439.346808-1.481943.707311-3.016786.771696-3.285555.841553-4.0763429.426659-4.8299007-.286018-.5194855-.721935-.8440221-1.412051-1.0512631-.446708-.1341463-1.543128-.2099666-1.543128-.1067123 0 .02302-.465688 2.0822719-1.034868 4.5761021-.569175 2.493825-.984429 4.759671-1.014666 4.759203-.757975-.01175-.331006.04669-2.245606-.02499l-2.2254025-.08332.068568-.323908c.03773-.178155.5069265-2.224172 1.0426985-4.546716.535767-2.3225381.974128-4.2622676.974128-4.3105141 0-.048231-.855373-.087714-1.900824-.087714h-1.9008237l-1.0722588 4.6344241-1.072253 4.634424h-2.2012626c-1.2106923 0-2.201257-.02098-2.201257-.04664zm23.7563459-.07795c.0021-.06851.571206-2.591292 1.264867-5.6061584l1.261207-5.481578h5.658893c6.302086 0 6.452129.013154 7.837205.6862579 1.619513.787056 2.221989 2.3123831 1.509679 3.8221595-.314938.6675333-1.378068 1.695563-2.209615 2.136672-1.826353.968821-3.062216 1.177179-6.997678 1.17974-1.626219.000996-3.012745.03787-3.081173.08179-.06841.04395-.290176.805352-.492789 1.692067l-.368393 1.612202-2.192933.000497c-1.690962.0005-2.192094-.02781-2.18927-.123867zm11.035376-5.4369899c1.220585-.4034409 1.872172-1.1495696 1.872172-2.1438167 0-.3943725-.05408-.527089-.349438-.8576893-.574282-.6428019-.900039-.7057718-3.651078-.7057718h-2.388457l-.412357 1.7690557c-.226799.9729765-.436256 1.874647-.465461 2.0037063l-.0531.2346553 2.403317-.044096c2.109624-.038715 2.481666-.070016 3.044403-.2560206zm12.300449 5.3648559c-1.141319-.243386-1.482788-.36014-2.285489-.781427-1.684484-.884086-2.428586-2.33321-2.146526-4.1803341.440175-2.8825863 3.306467-5.354452 6.957683-6.0002363.348282-.0616 2.455403-.1034383 5.209666-.1034383h4.624848l-.05071.2242468c-.02786.1233341-.129492.5718275-.225819.9966536l-.175136.7724016h-3.906443c-3.305387 0-3.988813.024715-4.441767.1606139-.732046.2196328-1.337318.5424054-1.902002 1.0142672-.51808.4329228-1.172784 1.2928891-1.088853 1.4302194.02887.047234 2.444834.085854 5.368832.085854 3.602316 0 5.316362.033284 5.316362.1032739 0 .056796-.09405.4824797-.209003.9459558l-.209005.8426855-5.284317.02577c-5.061217.02472-5.285799.03358-5.319579.211038-.106373.558729.724645 1.766849 1.506544 2.190186.38732.209703.512978.216674 4.414941.244964 2.801692.02034 4.016272.06179 4.016272.137161 0 .05942-.0924.506022-.205332.992447l-.205324.884408-4.451579-.007c-3.921756-.0062-4.553538-.02876-5.308282-.189708zm17.84911.04186c-2.146599-.393047-3.693488-1.361498-4.334786-2.713855-.304792-.64274-.370411-1.924106-.143609-2.8042162.685831-2.6613889 3.30077-4.7902229 6.680361-5.4385184.636013-.1220038 1.733113-.1506937 5.762595-.1506937h4.977023l-.05072.2242467c-.02787.1233343-.129496.5718277-.225825.9966538l-.175129.772402h-4.302908c-3.307852 0-4.403395.030793-4.737446.1331698-.840387.2575504-1.615989.7171549-2.214002 1.3119723-.795431.7911716-1.163544 1.5525173-1.211331 2.505344-.07087 1.4129207.452437 2.4258187 1.550141 3.0004417l.62012.32462h2.100217 2.100208l.246353-1.071397c.135512-.589273.370105-1.620805.521329-2.2922997l.274942-1.2208955h2.199255c1.20959 0 2.19925.018835 2.19925.041853 0 .067688-1.379735 6.1703542-1.438276 6.3616112-.04992.163145-.363456.173837-4.851494.165471-3.609054-.0068-4.983513-.04289-5.546292-.145935z"/></g></svg>