<svg height="35" width="80" xmlns="http://www.w3.org/2000/svg"><text x="6.606521" y="10.002353"><tspan x="6.606521" y="76.29718"/></text><g fill="#fff" transform="translate(-212.26315 -134.3097)"><path d="m229.70661 168.93747c-.18683-.0234-.65341-.12722-1.03686-.23073-2.58042-.69657-4.5097-2.41442-5.39559-4.8043l-.24784-.66858v-11.29801-11.298l.24784-.66858c.8914-2.40476 2.74099-4.04527 5.4522-4.83593l.75379-.21982h22.36196 22.36196l.75379.21982c1.05769.30845 1.96351.73422 2.76061 1.29759 1.23217.87086 2.15012 2.07758 2.6916 3.53834l.24783.66858v11.298 11.29801l-.24783.66858c-.88201 2.37937-2.66796 3.97982-5.39292 4.83276l-.69986.21907-22.13551.0128c-12.17453.008-22.28835-.007-22.47517-.0297zm44.92256-3.21196c1.00646-.4215 1.90887-1.2219 2.38408-2.11459l.36112-.67834v-10.99673-10.99673l-.36112-.67833c-.47521-.89269-1.37762-1.69309-2.38408-2.1146l-.76477-.3203h-22.02229-22.02229l-.76478.3203c-1.00646.42151-1.90885 1.22191-2.38408 2.1146l-.36112.67833v10.99673 10.99673l.36112.67834c.62556 1.17509 1.98778 2.15747 3.3187 2.3933.21796.0386 10.17894.0637 22.1355.0559l21.73924-.0144zm-42.37352-2.41237c-1.05036-.1838-1.60121-1.35485-1.02577-2.18069.44543-.63926.59282-.66037 4.60798-.65995 3.37465.0004 3.62932.0129 3.96792.19606 1.05229.5691 1.07937 1.87082.0507 2.43818-.40352.22257-.48811.22786-3.86591.24161-1.89935.008-3.58008-.009-3.73494-.0351zm14.71778-1.37189v-1.45605l3.48167-.0316c3.14415-.0286 3.5111-.0493 3.78517-.21438.63382-.38158.71153-.60292.74683-2.12708.032-1.38118.029-1.40105-.1692-1.12664-.11099.15362-.41986.37298-.6864.48745-.45186.19405-.63559.20528-2.7174.16613-2.14469-.0404-2.2637-.0533-3.01618-.32918-1.04905-.38458-2.08069-1.26948-2.54112-2.17967-1.32034-2.61016.49962-5.54548 3.7208-6.00109.8153-.11533 3.43124-.13982 4.1221-.0386.30181.0443.58051.1874.8775.45082l.43521.38601v-.45192-.45192h1.64592 1.64591l-.0325 6.10093-.0324 6.10092-.30125.50214c-.38383.63976-.90733 1.08334-1.62357 1.37572-.55509.2266-.65168.23172-4.95361.2626l-4.38746.0315zm7.2785-7.4208c.46822-.27247.69084-.64815.69055-1.16536-.00034-.54585-.26144-.95301-.76777-1.19706-.44953-.21667-3.49551-.30372-4.25771-.12169-1.18612.28329-1.61081 1.58054-.75175 2.29636.42827.35687.80143.4073 2.85207.38546 1.62746-.0173 1.97794-.0484 2.23461-.19771zm8.79946 7.4206v-1.45807l3.42506-.0306c3.11939-.0278 3.45654-.0474 3.77769-.21989.66376-.35643.7754-.65953.81792-2.22089l.0383-1.40597-.267.35149c-.50864.66959-.75888.71971-3.37618.67618-2.21829-.037-2.35009-.0503-2.97508-.30279-1.33362-.53877-2.19392-1.30289-2.70847-2.40566-.1947-.41729-.24812-.7401-.2537-1.53288-.01-1.37474.27674-2.03014 1.29736-2.96875 1.26198-1.16058 2.43612-1.45444 5.52519-1.38283 1.83162.0425 2.06356.10913 2.50463.71981l.22946.31769.002-.53.002-.52999 1.61346.0278 1.61346.0278v6.02561 6.0256l-.32387.55235c-.43443.74093-.68547.96717-1.48773 1.34072l-.67935.31633-4.38748.0324-4.38747.0324v-1.45805zm7.22453-7.39411c.95788-.55245.94595-1.85186-.0217-2.37152-.31086-.16692-.59402-.18935-2.39068-.18935-1.95266 0-2.05354.01-2.40774.23387-.52114.32968-.74349.75694-.67488 1.29681.065.51208.49843.9821 1.04031 1.12831.18917.051 1.2101.0838 2.26876.0727 1.48978-.0156 1.98387-.0542 2.18601-.17078zm-37.00273 3.01774c-1.91934-.3117-3.52-1.81927-3.8438-3.6203-.15605-.86793-.15467-8.8847.002-9.73944.35018-1.91443 1.97291-3.319 4.18895-3.62582.52266-.0724 1.57209-.0974 2.76686-.0661 1.75826.0462 1.9983.0751 2.77401.33381.72125.24061.9686.39105 1.64176.99851.60878.54935.85822.86489 1.07564 1.36067l.28307.64544v5.2724 5.27241l-.27778.55235c-.57968 1.15269-1.36086 1.84409-2.69146 2.38218-.63153.25538-.73554.26535-3.0317.29053-1.30775.0143-2.607-.0112-2.88724-.0566zm4.53544-2.91723c.22149-.0546.55269-.23802.73597-.40767l.33324-.30843.0316-4.71299c.0348-5.20394.0512-5.07162-.68087-5.53469-.35421-.22408-.45508-.23388-2.40774-.23388-2.26527 0-2.52653.0611-2.95682.6915-.19904.29162-.21578.6096-.2473 4.70268-.0235 3.0494.005 4.51923.0947 4.81346.13908.4581.645.95092 1.04711 1.01997.51641.0886 3.66307.0655 4.05011-.03z"/><g stroke="#fff" stroke-width=".086323"><path d="m234.60032 154.6512c-.98619-.039-1.03667-.05-1.31431-.28454-.62371-.52684-.59345-.25817-.59061-5.24371.003-6.01356-.24458-5.55262 3.01035-5.59502 2.16047-.0281 2.33412-.004 2.756.3868.18285.16929.26659.35879.32972.74611.0465.28553.0854 2.47838.0865 4.87297l.002 4.35381-.29788.25074c-.16385.13791-.42163.30528-.57286.37192-.3192.14067-1.83452.20332-3.4087.14092z"/><path d="m249.51331 154.46625c-1.03911-.48739-.95018-1.81702.15407-2.30352.29969-.13203.56215-.15371 1.86126-.15371 1.98717 0 2.48791.0657 2.891.37968.56429.43945.63578 1.27897.15232 1.78859-.41181.43409-.64297.47391-2.75099.47391-1.81377 0-1.93388-.01-2.30766-.18495z"/><path d="m265.56019 154.4735c-.47869-.28888-.67497-.57812-.71848-1.05872-.0451-.4996.17276-.86304.71038-1.18438.31117-.18599.34892-.18858 2.39739-.16453 2.37864.0279 2.41739.0381 2.81476.74099.3045.53861.22036 1.00856-.2629 1.46828l-.35257.33541-2.1384.0256c-2.10734.0252-2.14295.0229-2.45018-.1626z"/></g></g></svg>