<svg height="100" viewBox="0 0 200 100" width="200" xmlns="http://www.w3.org/2000/svg"><text fill="#fff" stroke-width=".910772" transform="scale(1.0279658 .972795)" x="142.93924" y="63.567997"><tspan stroke-width=".910772" x="142.93924" y="374.09094"/></text><ellipse cx="100.13158" cy="50.263157" fill="#404040" rx="90.394737" ry="49.999996"/><g fill="#fff"><path d="m97.837578 51.84745q0 3.960938-.960938 7.21875-.9375 3.257813-2.8125 5.578125-1.875 2.320313-4.664062 3.585938-2.765625 1.265625-6.398438 1.265625-3.820312 0-6.632812-1.265625-2.789063-1.265625-4.640625-3.585938-1.828125-2.320312-2.71875-5.578125-.890625-3.28125-.890625-7.265625 0-3.984375.890625-7.21875.890625-3.257812 2.742187-5.554687 1.851563-2.296875 4.664063-3.539063 2.8125-1.265625 6.632812-1.265625 3.632813 0 6.375 1.265625 2.765625 1.242188 4.640625 3.5625 1.875 2.296875 2.8125 5.554688.960938 3.234375.960938 7.242187zm-25.101563 0q0 3.210938.609375 5.789063.609375 2.554687 1.851563 4.359375 1.265625 1.78125 3.1875 2.742187 1.945312.9375 4.617187.9375 2.671875 0 4.59375-.9375 1.945313-.960937 3.1875-2.742187 1.265625-1.804688 1.851563-4.359375.585937-2.578125.585937-5.789063 0-3.234375-.585937-5.789062-.585938-2.554688-1.828125-4.3125-1.242188-1.78125-3.164063-2.71875-1.921875-.960938-4.59375-.960938-2.671875 0-4.617187.960938-1.945313.9375-3.210938 2.71875-1.265625 1.757812-1.875 4.3125-.609375 2.554687-.609375 5.789062z"/><path d="m128.61102 69.027138h-4.94532l-10.57031-16.359375-3.25781 2.671875v13.6875h-4.35938v-34.265625h4.35938v17.132812l2.83594-3.9375 10.59375-13.195312h4.89843l-12.1875 14.929687z"/></g></svg>