<svg height="80" width="80" xmlns="http://www.w3.org/2000/svg" xmlns:xlink="http://www.w3.org/1999/xlink"><filter id="a" color-interpolation-filters="sRGB"><feGaussianBlur stdDeviation=".005852505"/></filter><linearGradient id="b" gradientUnits="userSpaceOnUse" x1="81.15131" x2="81.21399" y1="1047.63362" y2="1036.17088"><stop offset="0" stop-color="#fff"/><stop offset="1" stop-color="#fff" stop-opacity="0"/></linearGradient><g fill="#fff" transform="translate(2.328125 -997.764544)"><text x="-9.136969" y="1039.6969"><tspan fill="#fff" x="-9.136969" y="1075.0875"/></text><path d="m81.045102 1036.0974c-3.28487 0-5.94611 2.5654-5.94611 5.7479s2.66124 5.7699 5.94611 5.7699c3.28488 0 5.94611-2.5874 5.94611-5.7699s-2.66123-5.7479-5.94611-5.7479zm0 .3744c3.07159 0 5.5497 2.3976 5.5497 5.3735s-2.47811 5.3955-5.5497 5.3955c-3.07158 0-5.57172-2.4196-5.57172-5.3955s2.50014-5.3735 5.57172-5.3735zm0 .2422c-.452 0-.88037.051-1.29933.1542l-.79282.8589 1.14519.9249-.35237.3744-.70474-.1101.0881-.4184h-.22022l-.13214.2862.0881.2423-.52854-.044-.26426.3744.17618.1321.37439.1101.35236.3744.13213-.3744-.0881-.066v-.3964l.81483.1322.68271.7707-.94697.5066v.2863l-.15417-.022-.15415.1321.022.2202-.35236.3084.0881.3303h-.17617l-.15417-.2202h-.5946l-.19821.3743.19821.1983h.1101l.22024-.1322.13213.088-.0661.2863.22022.022.044.3083h.37438l.37439-.1541.26426.1101h.48451l.044.3083h.3964l.044.3744h.2863l.6827.4625-.19821.2202-.066.4625-1.60766 1.6737c.058.095.0893.2068.0661.3303l-.22023.1982.11012.1322c.40194.094.82343.1541 1.25528.1541 1.49793 0 2.8445-.597 3.80992-1.5636l-.41843-1.1231.13213-.1982v-.2863l-.37438-.4405.15416-.1101-.37439-.2202-.72675-.022-.41842-.3524-.022-.8148.94697-.7928.52855-.044.13213.1541-.022.1322.41843.1321.1982-.1762.17618.1322.57259.022.11011-.1102v-.3083l-.24225.3083-.30832-.4184.044.4184-.30832-.2202-.044-.2863-.35235-.3964-.044.066.26428.3744-.17618.2422-.0661-.2863-.33034-.2422-.17617.1542-.11013-.044-.61662.5505-.19821-.5946.41842.044.0661-.1762-.15416-.1541.26427-.2202.15417-.022.30832-.2643-.0881-.1982.15417-.066.11011.1542.52855-.022.022-.1542.57259-.1982-.0881-.1321-.37439.1321-.1101-.2423.26427-.1982-.15417-.1541-.33033.4404.11012.088-.022.2643-.35236.088-.0661-.1982-.35236.044.022-.2863.59461-.7928.22022-.066c-.54118-.5615-1.20767-.9945-1.96001-1.2773l-.26428.2202-.0661.6387-.46247.7047-.77079.2202-.17617.4405-.35238-.022-.37437-.5946-.17619-.7929-.30832-.2202-.35235.1101-.17619-.2422.57259-.6827.99101-.1322zm-1.34338.1762c-.096.024-.17047.036-.26427.066.0929-.029.16923-.042.26427-.066zm-2.2463 1.1892c-.14269.1272-.26879.255-.39642.3964.12837-.1423.25284-.2688.39642-.3964zm5.41756.5946.24225.2203-.4845.3303-.2863-.4184zm.63865.7488.11011.2423.22024.1761-.022.2203h-.37438l.13214-.2203-.24226-.2422.17618-.1762zm-.30831.2863.17619.2202-.15417.1762-.17618-.1541zm-7.15735.4405c-.19335.5335-.30831 1.0982-.30831 1.6957 0 2.2645 1.51434 4.2014 3.61171 4.889l-.0661-.066v-.7488l.26429-1.4534-.35237-.1542-.35236-.9029.15415-.2203v-.2642h-.37437l-.15417-.3083-.22022.022-.72675-.3965-.24225-.2862h-.28629l-.79282-1.0351.022-.4845-.17617-.2863zm9.62389.2422-.24226.2863.044.1762.22022-.1542h.15416l.37439.022c-.0181-.078-.0225-.1441-.044-.2202l-.022-.022-.022-.044-.17617-.022v.1321l-.15417.022-.13214-.1762zm-1.12316.5065.0661.1982-.17618-.044.11011-.1541zm1.78384.3744c.0101.08.0163.1612.022.2422-.006-.081-.0128-.1627-.022-.2422zm-.46248.2422-.022.1983.37439.7707.0881.066c.019-.137.0365-.2783.044-.4184l-.33034-.6166zm-6.69488.1322.22023.2863-.22023-.1101zm-.35235.2643.41842.1101-.0661.1762-.39641-.088.044-.1982zm.59459.1982.74877.3083-.13213.044-.66067-.2203.044-.1321z" filter="url(#a)" stroke="url(#b)" stroke-width=".099991" transform="matrix(5.2453493 0 0 5.4373722 -386.94211 -4627.041)"/></g></svg>