<svg height="35" width="80" xmlns="http://www.w3.org/2000/svg"><text x="6.606521" y="10.002353"><tspan x="6.606521" y="76.29718"/></text><g fill="#fff" transform="translate(-.210526 -1.263158)"><g stroke-width="1.061374" transform="matrix(.97793468 0 0 1.0225632 .074432 .96762)"><path d="m11.456043 21.847696v-20.2600719h6.564484q3.731392 0 4.864629.3040393 1.741316.4560589 2.916013 1.9900753 1.174697 1.5201964 1.174697 3.9386907 0 1.8656956-.677178 3.1371326-.677179 1.271437-1.727496 2.003895-1.036498.718639-2.114455.953578-1.464917.290219-4.24273.290219h-2.667254v7.642442zm4.09071-16.83272v5.749106h2.238835q2.418494 0 3.233872-.317859.815378-.317859 1.271437-.9950375.469879-.6771784.469879-1.5754762 0-1.1055974-.649538-1.8242357-.649539-.7186383-1.644576-.8982979-.732459-.1381997-2.943653-.1381997z"/><path d="m43.324888 14.398734 3.966331 1.257617q-.912118 3.316792-3.040393 4.933728-2.114455 1.603116-5.375967 1.603116-4.035431 0-6.633585-2.750173-2.598153-2.763994-2.598153-7.545702 0-5.0581083 2.611973-7.8497417 2.611974-2.8054534 6.868524-2.8054534 3.717571 0 6.039326 2.1973748 1.381997 1.299077 2.072995 3.7313912l-4.04925.9673977q-.35932-1.5754762-1.506377-2.4875941-1.133237-.9121178-2.763993-.9121178-2.252655 0-3.662292 1.6169362-1.395816 1.6169361-1.395816 5.2377671 0 3.841951 1.381996 5.472708 1.381997 1.630756 3.593192 1.630756 1.630756 0 2.805453-1.036498 1.174697-1.036497 1.686036-3.261512z"/><path d="m50.760031 21.847696v-20.2600719h6.122246l3.676111 13.8199669 3.634652-13.8199669h6.136065v20.2600719h-3.800491v-15.9482421l-4.02161 15.9482421h-3.938691l-4.007791-15.9482421v15.9482421z"/></g><g stroke-width=".640212" transform="matrix(.85388478 0 0 1.1040506 0 2.606717)"><path d="m.80851433 29.346445v-6.070978h1.96706327q1.1181202 0 1.4576975.09111.5217894.136659.8737902.59633.3520008.455531.3520008 1.180238 0 .55906-.2029181.94005-.2029181.380989-.5176483.600472-.3105889.215341-.6336014.285741-.4389657.08696-1.2713441.08696h-.7992488v2.290076zm1.22579107-5.043964v1.722733h.6708721q.7247075 0 .9690375-.09525.2443299-.09525.3809891-.298166.1408003-.202918.1408003-.472095 0-.331295-.1946357-.546636-.1946358-.215342-.4928012-.269177-.2194828-.04141-.8820726-.04141z"/><path d="m9.3600634 29.346445v-.658448q-.2401887.352-.6336014.554918-.3892715.202919-.824096.202919-.4431069 0-.7951077-.194636-.3520008-.194636-.5093659-.546637-.157365-.352001-.157365-.973178v-2.782877h1.1636732v2.020898q0 .927626.062118 1.138827.066259.207059.2360476.331294.1697886.120095.4306833.120095.2981654 0 .534213-.161506.2360476-.165648.3230125-.405837.086965-.24433.086965-1.18852v-1.855251h1.163673v4.397939z"/><path d="m11.650139 29.346445v-6.070978h1.163673v6.070978z"/><path d="m13.592355 28.091666 1.167815-.178071q.07454.339577.302306.517648.227766.17393.637743.17393.451389 0 .679154-.165648.153224-.115953.153224-.310589 0-.132518-.08282-.219482-.08697-.08282-.389272-.153224-1.408003-.310589-1.784851-.567343-.521789-.356142-.521789-.989743 0-.571484.451389-.960755.451389-.389272 1.399721-.389272.902778 0 1.341744.294024.438966.294025.604613.869649l-1.097414.202919q-.0704-.256754-.269177-.393413-.194636-.136659-.55906-.136659-.459672 0-.658449.128377-.132518.09111-.132518.236047 0 .124236.115953.211201.157365.115953 1.084991.327153.931767.211201 1.300332.517649.364425.310588.364425.865507 0 .604614-.505225 1.039438-.505225.434825-1.494968.434825-.898637 0-1.424568-.364425-.521789-.364424-.683296-.989743z"/><path d="m21.270115 27.946724 1.159532.194636q-.223624.637743-.708143.973179-.480377.331295-1.205085.331295-1.147108 0-1.697886-.749555-.434825-.600472-.434825-1.515674 0-1.093273.571484-1.71031.571484-.621178 1.445274-.621178.981461 0 1.548804.650166.567342.646025.542495 1.983628h-2.915395q.01242.517649.281601.807532.269177.285742.670872.285742.273318 0 .459671-.149083.186354-.149083.281601-.480378zm.06626-1.176097q-.01242-.505224-.260895-.766119-.248471-.265036-.604613-.265036-.380989 0-.62946.27746-.248471.277459-.24433.753695z"/><path d="m29.689145 27.114346 1.188521.376848q-.273319.993884-.911061 1.478403-.633602.480378-1.610922.480378-1.209226 0-1.987769-.824096-.778543-.828237-.778543-2.261088 0-1.515674.782684-2.352193.782685-.840661 2.05817-.840661 1.113979 0 1.809698.658448.414119.389272.621178 1.118121l-1.213368.289883q-.10767-.472096-.451389-.745414-.339577-.273318-.828237-.273318-.675013 0-1.097414.484519-.41826.484518-.41826 1.569509 0 1.15125.414119 1.63991.414118.48866 1.076708.48866.48866 0 .840661-.310589.352-.310589.505224-.97732z"/><path d="m31.656209 27.085358q0-.579766.285742-1.122262.285742-.542495.807531-.828237.525931-.285742 1.171956-.285742.998026 0 1.635768.650166.637743.646025.637743 1.635769 0 .998026-.646025 1.656474-.641884.654308-1.619204.654308-.604613 0-1.15539-.273319-.546637-.273318-.832379-.799249-.285742-.530071-.285742-1.287908zm1.192662.06212q0 .654308.310589 1.002167.310589.34786.766119.34786.455531 0 .761978-.34786.310589-.347859.310589-1.010449 0-.646025-.310589-.993885-.306447-.347859-.761978-.347859-.45553 0-.766119.347859-.310589.34786-.310589 1.002167z"/><path d="m41.143664 29.346445h-1.080849v-.646025q-.269177.376848-.637743.563201-.364424.182213-.737131.182213-.757837 0-1.300332-.608755-.538354-.612895-.538354-1.706168 0-1.118121.52593-1.697887.525931-.583907 1.329321-.583907.737131 0 1.275485.612896v-2.186546h1.163673zm-3.105889-2.294217q0 .704002.194636 1.018732.2816.45553.786825.45553.401695 0 .683296-.339577.2816-.343718.2816-1.022873 0-.757837-.273318-1.089132-.273318-.335436-.69986-.335436-.414119 0-.69572.331295-.277459.327154-.277459.981461z"/><path d="m44.841744 27.946724 1.159532.194636q-.223624.637743-.708143.973179-.480378.331295-1.205085.331295-1.147109 0-1.697886-.749555-.434825-.600472-.434825-1.515674 0-1.093273.571484-1.71031.571483-.621178 1.445274-.621178.981461 0 1.548803.650166.567343.646025.542495 1.983628h-2.915394q.01242.517649.2816.807532.269177.285742.670872.285742.273319 0 .459672-.149083.186353-.149083.281601-.480378zm.06626-1.176097q-.01242-.505224-.260895-.766119-.248471-.265036-.604613-.265036-.380989 0-.629461.27746-.248471.277459-.24433.753695z"/><path d="m49.359779 29.346445v-6.070978h1.834545l1.101556 4.141185 1.089131-4.141185h1.838687v6.070978h-1.138826v-4.778928l-1.205085 4.778928h-1.180238l-1.200944-4.778928v4.778928z"/><path d="m56.172031 27.085358q0-.579766.285742-1.122262.285741-.542495.807531-.828237.525931-.285742 1.171956-.285742.998025 0 1.635768.650166.637743.646025.637743 1.635769 0 .998026-.646025 1.656474-.641884.654308-1.619204.654308-.604613 0-1.155391-.273319-.546637-.273318-.832378-.799249-.285742-.530071-.285742-1.287908zm1.192661.06212q0 .654308.310589 1.002167.310589.34786.76612.34786.45553 0 .761978-.34786.310589-.347859.310589-1.010449 0-.646025-.310589-.993885-.306448-.347859-.761978-.347859-.455531 0-.76612.347859-.310589.34786-.310589 1.002167z"/><path d="m65.659488 29.346445h-1.08085v-.646025q-.269177.376848-.637742.563201-.364425.182213-.737131.182213-.757837 0-1.300333-.608755-.538354-.612895-.538354-1.706168 0-1.118121.525931-1.697887.52593-.583907 1.32932-.583907.737131 0 1.275486.612896v-2.186546h1.163673zm-3.10589-2.294217q0 .704002.194636 1.018732.281601.45553.786825.45553.401695 0 .683296-.339577.281601-.343718.281601-1.022873 0-.757837-.273318-1.089132-.273319-.335436-.699861-.335436-.414118 0-.695719.331295-.27746.327154-.27746.981461z"/><path d="m69.705427 29.346445v-.658448q-.240189.352-.633602.554918-.389271.202919-.824096.202919-.443107 0-.795108-.194636-.352-.194636-.509365-.546637-.157365-.352001-.157365-.973178v-2.782877h1.163673v2.020898q0 .927626.06212 1.138827.06626.207059.236047.331294.169789.120095.430683.120095.298166 0 .534213-.161506.236048-.165648.323013-.405837.08696-.24433.08696-1.18852v-1.855251h1.163673v4.397939z"/><path d="m71.995499 29.346445v-6.070978h1.163673v6.070978z"/><path d="m75.217343 26.29025-1.056002-.190495q.178071-.637742.612896-.94419.434824-.306448 1.29205-.306448.778543 0 1.159532.186354.380989.182212.534213.467954.157365.2816.157365 1.039437l-.01242 1.358309q0 .579766.05384.857226.05798.273318.2112.588048h-1.15125q-.04555-.115953-.111812-.343718-.02899-.10353-.04141-.136659-.298165.289883-.637742.434824-.339577.144942-.724708.144942-.679154 0-1.072567-.368566-.389271-.368566-.389271-.931767 0-.372707.178071-.66259.178071-.294024.496942-.447248.323012-.157365.927626-.273318.815813-.153224 1.130543-.285742v-.115953q0-.335436-.165647-.476236-.165648-.144942-.625319-.144942-.310589 0-.484519.124236-.17393.120094-.281601.426542zm1.557086.94419q-.223624.07454-.708142.178071-.484519.10353-.633602.202918-.227765.161507-.227765.409978 0 .24433.182212.422401.182212.178071.463813.178071.31473 0 .600472-.20706.2112-.157365.277459-.38513.04555-.149083.04555-.567342z"/><path d="m81.085407 24.948506v.927625h-.795108v1.772428q0 .538354.02071.62946.02485.08696.10353.144942.08282.05798.198777.05798.161506 0 .467954-.111812l.09939.902779q-.405836.17393-.919343.17393-.31473 0-.567343-.10353-.252612-.107671-.372706-.273318-.115954-.169789-.161507-.455531-.03727-.202918-.03727-.819955v-1.917369h-.534213v-.927625h.534213v-.873791l1.167814-.679154v1.552945z"/><path d="m81.901215 24.352175v-1.076708h1.163673v1.076708zm0 4.99427v-4.397939h1.163673v4.397939z"/><path d="m83.984233 27.085358q0-.579766.285742-1.122262.285742-.542495.807531-.828237.525931-.285742 1.171956-.285742.998026 0 1.635768.650166.637743.646025.637743 1.635769 0 .998026-.646025 1.656474-.641884.654308-1.619204.654308-.604613 0-1.155391-.273319-.546636-.273318-.832378-.799249-.285742-.530071-.285742-1.287908zm1.192662.06212q0 .654308.310589 1.002167.310589.34786.766119.34786.455531 0 .761978-.34786.310589-.347859.310589-1.010449 0-.646025-.310589-.993885-.306447-.347859-.761978-.347859-.45553 0-.766119.347859-.310589.34786-.310589 1.002167z"/><path d="m93.438565 29.346445h-1.163674v-2.244523q0-.712284-.07454-.919343-.07454-.2112-.24433-.327154-.165647-.115953-.401695-.115953-.302307 0-.542495.165648-.240189.165647-.331295.438965-.08697.273319-.08697 1.01045v1.99191h-1.163673v-4.397939h1.080849v.646025q.575625-.745414 1.449415-.745414.385131 0 .704002.140801.318871.136659.480377.352.165648.215342.227766.48866.06626.273319.06626.782684z"/></g></g></svg>