<svg height="100" viewBox="0 0 200 100" width="200" xmlns="http://www.w3.org/2000/svg"><text fill="#fff" stroke-width=".910772" transform="scale(1.0279658 .972795)" x="142.93924" y="63.567997"><tspan stroke-width=".910772" x="142.93924" y="374.09094"/></text><ellipse cx="100.13158" cy="50.263157" fill="#404040" rx="90.394737" ry="49.999996"/><g fill="#fff"><path d="m81.152689 43.599231q0 2.369792-.729167 4.557292-.703125 2.1875-2.34375 3.880208-1.640625 1.666667-4.348958 2.682291-2.682291.989584-6.640625.989584h-3.90625v14.817708h-4.84375v-38.072916h9.427084q3.489583 0 6.015624.755208 2.526042.729167 4.166667 2.161459 1.640625 1.40625 2.421875 3.489583.78125 2.083333.78125 4.739583zm-17.96875 7.994792h3.359375q2.421875 0 4.21875-.416667 1.822917-.416667 2.994792-1.328125 1.197916-.9375 1.796875-2.395833.598958-1.484375.598958-3.59375 0-3.697917-2.135417-5.46875-2.135416-1.796875-6.666666-1.796875h-4.166667z"/><path d="m109.01727 32.453398h5.15625l-12.73437 38.072916h-4.869795l-12.682291-38.072916h5.130208l7.682292 24.140624q.755208 2.369792 1.302083 4.583334.546875 2.1875.989583 4.114583.390625-1.927083.989584-4.114583.598956-2.213542 1.406246-4.739584z"/><path d="m124.2256 54.797147v15.729167h-4.84375v-38.072916h9.27084q6.92708 0 10.23437 2.682292 3.30729 2.682291 3.30729 8.124999 0 2.265625-.65104 3.958334-.625 1.692708-1.69271 2.916666-1.04166 1.197917-2.39583 2.005209-1.35417.807291-2.78646 1.328125l10.36458 17.057291h-5.70312l-9.14062-15.729167zm0-4.114583h4.27084q2.34375 0 3.98437-.442708 1.64063-.46875 2.68229-1.354167 1.06771-.911458 1.53646-2.239583.49479-1.354167.49479-3.151042 0-1.875-.54687-3.177083-.52084-1.302083-1.61459-2.135416-1.0677-.833334-2.73437-1.197917-1.64062-.390625-3.90625-.390625h-4.16667z"/></g></svg>