<svg enable-background="new 16 -12 48 48" height="50" viewBox="16 -12 170 50" width="170" xmlns="http://www.w3.org/2000/svg"><path d="m64 38h-48v-48h48z" fill="none"/><circle cx="160.13559" cy="12.64407" fill="#f00" r="20" stroke-width="1.25"/><text x="2.779661" y="-26.474575"><tspan x="2.779661" y="-9.660493"/></text><g fill="#bababa"><path d="m21.329981 32.101696v-38.1770824h16.223958q6.119791 0 8.880208 1.0416666 2.786458 1.015625 4.453125 3.6458333 1.666666 2.6302083 1.666666 6.0156248 0 4.2968749-2.526041 7.1093747-2.526042 2.786458-7.552083 3.515625 2.5 1.458333 4.114583 3.203125 1.640625 1.744792 4.401041 6.197917l4.661459 7.447916h-9.21875l-5.572917-8.307291q-2.96875-4.453125-4.0625-5.598959-1.09375-1.171875-2.317708-1.588541-1.223958-.442709-3.880208-.442709h-1.5625v15.9375zm7.708333-22.031249h5.703125q5.546875 0 6.927083-.4687504 1.380208-.46875 2.161458-1.6145833.78125-1.1458334.78125-2.8645833 0-1.9270833-1.041666-3.0989583-1.015625-1.19791661-2.890625-1.5104166-.9375-.13020833-5.625-.13020833h-6.015625z"/><path d="m59.845603 32.101696v-38.1770824h28.307291v6.45833317h-20.598958v8.46354143h19.166667v6.4322918h-19.166667v10.390625h21.328125v6.432291z"/><path d="m119.89769 18.065238 7.47395 2.369792q-1.71875 6.249999-5.72916 9.296874-3.98438 3.020834-10.13021 3.020834-7.60417 0-12.5-5.182292-4.895833-5.208333-4.895833-14.21875 0-9.5312493 4.921874-14.7916659 4.921879-5.2864582 12.942709-5.2864582 7.00521 0 11.38021 4.1406249 2.60416 2.44791665 3.90625 7.0312499l-7.63021 1.8229166q-.67708-2.9687499-2.83854-4.6874999-2.13542-1.71874995-5.20834-1.71874995-4.24479 0-6.90104 3.04687495-2.63021 3.0468749-2.63021 9.8697916 0 7.239583 2.60417 10.3125 2.60417 3.072916 6.77083 3.072916 3.07292 0 5.28646-1.953125 2.21354-1.953125 3.17709-6.145833z"/></g></svg>