<svg height="256" width="256" xmlns="http://www.w3.org/2000/svg"><g stroke="#bababa" transform="matrix(2.707506 0 0 2.707506 3.48708 -2592.538654)"><path d="m32.909011 1045.7284 12.127868-38.5239 14.030283 38.5239" fill="none" stroke-miterlimit="10" stroke-width="2.639343"/><circle cx="45.988086" cy="1005.969306" fill="#bababa" fill-rule="evenodd" r="6.063935" stroke-width="1.819087"/><g fill="none" stroke-miterlimit="10"><path d="m41.925489 1018.3221 7.673796 2.2569-11.284992 7.6738 15.347586 4.0625-18.958784 7.6738 22.569981 2.257" stroke-linejoin="bevel" stroke-width="2.639343"/><path d="m30.910667 18.604561a3.3335035 3.3335035 0 0 1 -1.678327 2.893551 3.3335035 3.3335035 0 0 1 -3.344999-.0201 3.3335035 3.3335035 0 0 1 -1.64344-2.913507" stroke-linecap="round" stroke-width=".758943" transform="matrix(5.9810811 0 0 -5.9810811 -118.95317 1115.9727)"/><path d="m30.910667 18.604561a3.3335035 3.3335035 0 0 1 -3.328961 3.3335 3.3335035 3.3335035 0 0 1 -3.338033-3.324415" stroke-linecap="round" stroke-width=".388189" transform="matrix(11.69353 0 0 -11.69353 -276.48637 1222.2501)"/></g></g></svg>