<svg height="60" viewBox="0 0 600 60" width="600" xmlns="http://www.w3.org/2000/svg" xmlns:xlink="http://www.w3.org/1999/xlink"><linearGradient id="a" gradientUnits="userSpaceOnUse" x1="166.09082" x2="169.26317" xlink:href="#c" y1="-84.510033" y2="228.58702"/><linearGradient id="b" gradientUnits="userSpaceOnUse" x1="-165.01357" x2="694.07837" xlink:href="#c" y1="37.568878" y2="42.305717"/><linearGradient id="c"><stop offset="0" stop-color="#69f"/><stop offset="1" stop-color="#69f" stop-opacity="0"/></linearGradient><g fill="url(#a)" transform="matrix(.66161152 0 0 .57380518 364.60654 .701898)"><g transform="matrix(.88486234 0 0 .87450662 25.009172 -3.92493)"><path d="m74.829712 23.354477q1.664062-.02344 1.664062 1.429687 0 1.453125-1.875 1.453125h-26.320312q-3.445313 0-4.992188-1.335937-2.085937-1.78125-2.085937-5.367188 0-2.953125 1.734375-4.921875 1.640625-1.851562 5.34375-1.851562h17.414062q1.382813.04687 1.382813 1.453125 0 1.429687-1.453125 1.429687h-16.921875q-2.0625 0-3.023438.679688-1.359375.960937-1.359375 3.164062 0 3.867188 3.914063 3.867188z"/><path d="m112.14221 15.643539h-28.617186q-1.242187 0-1.757812.539063-.328125.328125-.398438.679687-.07031.351563-.07031 1.359375v8.015625h-3.046875v-8.578125q0-2.34375 1.21875-3.65625 1.148437-1.242187 4.453125-1.242187h28.195306q1.45313 0 1.45313 1.429687 0 1.429688-1.42969 1.453125z"/><path d="m148.98596 23.354477q1.66406-.02344 1.66406 1.429687 0 1.453125-1.875 1.453125h-26.32031q-3.44531 0-4.99219-1.335937-2.08593-1.78125-2.08593-5.367188 0-2.953125 1.73437-4.921875 1.64063-1.851562 5.34375-1.851562h23.17969q2.0625 0 3.46875 1.007812 1.59375 1.125 1.52344 3.117188-.0703 1.546875-1.3125 2.8125-1.24219 1.242187-3.60938 1.242187l-19.45312.02344q-1.38282-.07031-1.38282-1.453125 0-1.429688 1.45313-1.429688h.21094l19.85156.02344q1.26562-.140625 1.19531-1.289063-.0703-1.171875-1.21875-1.171875h-23.48437q-2.0625 0-3.02344.679688-1.35938.960937-1.35938 3.164062 0 3.867188 3.91407 3.867188z"/><path d="m159.43909 15.643539q-2.08594 0-3 .890625-.91407.890625-.91407 2.976563 0 2.179687 1.35938 3.140625.98437.703125 3.02344.703125h16.92187q1.45313 0 1.45313 1.429687 0 1.382813-1.38282 1.453125h-17.41406q-3.67969 0-5.34375-1.875-1.73437-1.96875-1.73437-4.898437 0-5.34375 4.07812-6.398438 1.17188-.304687 3-.304687h22.61719q3.28125 0 4.42969 1.242187 1.21875 1.3125 1.21875 3.65625v8.578125h-3.04688v-8.015625q0-.960937-.0937-1.335937-.32812-1.242188-2.10937-1.242188z"/><path d="m223.40002 23.354477q1.45313 0 1.45313 1.453125 0 1.429687-1.45313 1.429687h-28.19531q-3.32812 0-4.45312-1.242187-1.21875-1.335938-1.21875-3.65625v-8.578125h3.04687v3.609375l21.04688-.02344q1.45312 0 1.45312 1.453125 0 1.40625-1.38281 1.429688v.02344h-.0703l-21.04688-.04687v1.546875q0 1.03125.0937 1.359375.16406 1.242188 2.13281 1.242188z"/><path d="m260.26721 23.354477q1.66406-.02344 1.66406 1.429687 0 1.453125-1.875 1.453125h-26.32031q-3.44531 0-4.99219-1.335937-2.08593-1.78125-2.08593-5.367188 0-2.953125 1.73437-4.921875 1.64063-1.851562 5.34375-1.851562h23.17969q2.0625 0 3.46875 1.007812 1.59375 1.125 1.52344 3.117188-.0703 1.546875-1.3125 2.8125-1.24219 1.242187-3.60938 1.242187l-19.45312.02344q-1.38282-.07031-1.38282-1.453125 0-1.429688 1.45313-1.429688h.21094l19.85156.02344q1.26562-.140625 1.19531-1.289063-.0703-1.171875-1.21875-1.171875h-23.48437q-2.0625 0-3.02344.679688-1.35938.960937-1.35938 3.164062 0 3.867188 3.91407 3.867188z"/><path d="m293.85315 23.354477q1.78125 0 2.13281-1.242188.0937-.515625.0937-1.359375v-7.992187h3.04688v8.578125q0 2.34375-1.21875 3.65625-.63282.703125-1.64063.984375-1.00781.257812-2.8125.257812h-24.375q-2.29687 0-3.75-1.265625-1.54687-1.359375-1.52344-3.632812 0-2.109375 1.40625-3.515625 1.42969-1.429688 3.5625-1.429688l19.47657-.04687q1.38281.09375 1.38281 1.453125 0 1.453125-1.45313 1.453125-.0469 0-.11718 0-.0469-.02344-.0937-.02344l-18.75-.02344q-2.60157 0-2.53125 2.0625.0469 2.085938 2.78906 2.085938z"/><g transform="translate(-93.026317 -3.684211)"><path d="m257.44505 53.727356q2.71875 0 2.78907-2.085938.0469-2.0625-2.53125-2.0625l-18.75.02344q-.0469 0-.11719.02344-.0469 0-.0937 0-1.45313 0-1.45313-1.453125 0-1.359375 1.38282-1.453125h.0703l19.38281.04687q2.13281 0 3.53906 1.429688 1.42969 1.40625 1.45313 3.515625.0234 2.273437-1.52344 3.609375-1.45312 1.289062-3.75 1.289062h-24.375q-3.32812 0-4.45312-1.242187-1.21875-1.335938-1.21875-3.65625v-8.578125h3.04687v7.992187q0 1.03125.0937 1.359375.16406 1.242188 2.13281 1.242188z"/><path d="m300.24193 50.375793v1.335938q0 3.867187-2.83594 4.617187-1.05469.28125-2.83594.28125h-28.17187q-1.42969 0-1.42969-1.429687 0-1.40625 1.40625-1.453125h28.59375q1.19531 0 1.75781-.5625.46875-.5625.46875-1.476563v-.867187h-26.60156q-3.30469 0-4.45312-1.242188-1.21875-1.335937-1.21875-3.65625v-1.242187-.02344q0-1.523437 1.52343-1.523437 1.52344 0 1.52344 1.523437v.02344.679687q0 1.007813.0937 1.335938.16406 1.242187 2.13281 1.242187h27v-4.804687h3.07032v7.242187z"/></g></g><g transform="matrix(.88486234 0 0 .87450662 24.194167 .907871)"><path d="m81.584717 59.812912h12.070312q3.304688 0 4.453125 1.242187 1.21875 1.3125 1.21875 3.65625v3.09375q0 1.03125.07031 1.382813.09375.351562.398437.65625.585939.5625 1.757819.5625h12.30468-.0234.0234.0469.0703q1.42969 0 1.42969 1.429687 0 1.453125-1.40625 1.453125h-.0234-12.02349q-3.328121 0-4.453121-1.242187-1.21875-1.335938-1.21875-3.632813v-3.140625q0-.9375-.09375-1.335937-.09375-.421875-.375-.703125-.515625-.539063-1.734375-.539063h-12.375.02344-.02344q-1.570312 0-1.570312-1.453125 0-1.335937 1.359375-1.429687h.07031z"/><path d="m124.19409 62.695724q-2.08594 0-3 .890625-.91406.890625-.91406 2.976563 0 2.179687 1.35937 3.140625.98438.703125 3.02344.703125h20.32031q2.03907 0 3.02344-.703125 1.33594-.960938 1.33594-3.140625 0-2.085938-.91406-2.976563-.91407-.890625-3-.890625zm.0469 10.59375q-3.67969 0-5.34375-1.875-1.73438-1.96875-1.73438-4.898437 0-5.34375 4.07813-6.398438 1.17187-.304687 3-.304687h21.14062q3.46875 0 5.01563 1.3125 2.08593 1.78125 2.08593 5.390625 0 2.976562-1.71093 4.875-1.71094 1.898437-5.39063 1.898437z"/><path d="m173.50659 62.695724v9.023438.02344.02344q0 1.523437-1.52344 1.523437-1.52343 0-1.52343-1.523437v-9.070313h-10.89844q-1.24219 0-1.75781.539063-.32813.328125-.39844.679687-.0703.351563-.0703 1.359375v6.46875q0 1.546875-1.52344 1.546875-1.52344 0-1.52344-1.523437v-.02344-7.03125q0-2.34375 1.21875-3.65625 1.14844-1.242187 4.45313-1.242187h23.97656q3.28125 0 4.42969 1.242187 1.24218 1.359375 1.24218 3.65625v7.03125.02344q0 1.523437-1.54687 1.523437-1.52344 0-1.52344-1.523437v-.02344-6.46875q0-.984375-.0703-1.335937-.375-1.242188-2.13281-1.242188z"/><path d="m221.06128 70.406662q2.71875 0 2.78906-2.085938.0469-2.0625-2.53125-2.0625l-18.75.02344q-.0469 0-.11719.02344-.0469 0-.0937 0-1.45312 0-1.45312-1.453125 0-1.359375 1.38281-1.453125h.0703l19.38282.04687q2.13281 0 3.53906 1.429688 1.42969 1.40625 1.45312 3.515625.0234 2.273437-1.52343 3.609375-1.45313 1.289062-3.75 1.289062h-24.375q-3.32813 0-4.45313-1.242187-1.21875-1.335938-1.21875-3.65625v-8.578125h3.04688v7.992187q0 1.03125.0937 1.359375.16406 1.242188 2.13281 1.242188z"/><path d="m229.92065 70.406662q0 0 6.70313 0h8.0625v-7.6875h-14.69531-.0234-.0469q-1.38281-.07031-1.38281-1.453125 0-1.382813 1.38281-1.429688h32.22657q1.64062-.02344 1.64062 1.429688 0 1.453125-1.85156 1.453125h-14.20313v7.6875h14.41407q1.64062-.02344 1.64062 1.429687 0 1.453125-1.85156 1.453125h-31.94531-.0234-.0469q-1.38281-.07031-1.38281-1.429687 0-1.40625 1.38281-1.453125z"/></g><g transform="matrix(1.0222069 0 0 1.1080777 -3.898464 -9.587872)"><path d="m6.4623594 90.497038 2.5703126-.391928q.164062.747396.665364 1.139323.501302.382813 1.403646.382813.99349 0 1.494792-.364583.337239-.255209.337239-.683594 0-.291667-.182291-.483073-.191407-.182292-.856771-.33724-3.098958-.683593-3.928385-1.248698-1.148438-.783854-1.148438-2.178385 0-1.257812.99349-2.114583.993489-.856771 3.080729-.856771 1.986979 0 2.953125.647135.966145.647136 1.330729 1.914063l-2.415365.446614q-.154948-.565104-.592448-.865885-.428385-.300781-1.230468-.300781-1.011719 0-1.449219.282552-.291667.200521-.291667.519531 0 .273438.255209.464844.346354.255208 2.38802.720052 2.050782.464844 2.861979 1.139323.802084.683594.802084 1.904948 0 1.330729-1.111979 2.28776-1.11198.957031-3.290365.957031-1.977864 0-3.135416-.802083-1.148438-.802083-1.5039066-2.178385z"/><path d="m24.126422 93.258756v-1.449219q-.528646.77474-1.394532 1.221355-.85677.446614-1.813802.446614-.97526 0-1.75-.428385-.774739-.428386-1.121093-1.203125-.346354-.77474-.346354-2.141927v-6.125h2.561197v4.447917q0 2.041666.136719 2.50651.145833.455729.519531.729167.373698.264322.947917.264322.65625 0 1.175781-.355468.519531-.364584.710938-.893229.191406-.537761.191406-2.615886v-4.083333h2.561198v9.679687z"/><path d="m29.093868 83.579069h2.388021v1.421875q.464844-.729167 1.257813-1.184896.792968-.455729 1.759114-.455729 1.686198 0 2.861979 1.321615 1.175781 1.321614 1.175781 3.682291 0 2.424479-1.184895 3.773437-1.184896 1.339844-2.871094 1.339844-.802083 0-1.458333-.31901-.647136-.319011-1.367188-1.09375v4.876302h-2.561198zm2.533855 4.675781q0 1.63151.647135 2.415365.647135.774739 1.576823.774739.893229 0 1.485677-.710937.592448-.720052.592448-2.351563 0-1.522135-.610677-2.260416-.610677-.738282-1.513021-.738282-.938802 0-1.558594.729167-.619791.720052-.619791 2.141927z"/><path d="m40.505326 83.579069h2.38802v1.421875q.464844-.729167 1.257813-1.184896.792968-.455729 1.759114-.455729 1.686198 0 2.861979 1.321615 1.175782 1.321614 1.175782 3.682291 0 2.424479-1.184896 3.773437-1.184896 1.339844-2.871094 1.339844-.802083 0-1.458333-.31901-.647136-.319011-1.367188-1.09375v4.876302h-2.561197zm2.533854 4.675781q0 1.63151.647135 2.415365.647135.774739 1.576823.774739.893229 0 1.485677-.710937.592448-.720052.592448-2.351563 0-1.522135-.610677-2.260416-.610677-.738282-1.513021-.738282-.938802 0-1.558594.729167-.619791.720052-.619791 2.141927z"/><path d="m51.397255 88.282194q0-1.276042.628906-2.470052.628907-1.194011 1.777344-1.822917 1.157552-.628906 2.579427-.628906 2.196615 0 3.60026 1.43099 1.403646 1.421875 1.403646 3.60026 0 2.196614-1.421875 3.645833-1.41276 1.440104-3.563802 1.440104-1.330729 0-2.542968-.601562-1.203125-.601563-1.832032-1.759115-.628906-1.166666-.628906-2.834635zm2.625.136719q0 1.440104.683594 2.205729.683594.765625 1.686198.765625 1.002604 0 1.677083-.765625.683594-.765625.683594-2.223959 0-1.421875-.683594-2.187499-.674479-.765625-1.677083-.765625-1.002604 0-1.686198.765625-.683594.765624-.683594 2.205729z"/><path d="m65.852983 93.258756h-2.561198v-9.679687h2.378906v1.376302q.610677-.97526 1.09375-1.285156.492188-.309896 1.111979-.309896.875 0 1.686198.483073l-.792968 2.233073q-.647136-.419271-1.203125-.419271-.537761 0-.911459.300781-.373698.291667-.592448 1.066406-.209635.77474-.209635 3.244792z"/><path d="m75.095169 83.579069v2.041667h-1.75v3.901041q0 1.184896.04557 1.385417.05469.191406.227865.31901.182291.127604.4375.127604.355468 0 1.029948-.246093l.21875 1.986979q-.89323.382812-2.023438.382812-.692708 0-1.248698-.227864-.555989-.23698-.820312-.601563-.255209-.373698-.355469-1.002604-.08203-.446615-.08203-1.804687v-4.220052h-1.175781v-2.041667h1.175781v-1.923177l2.570312-1.494792v3.417969z"/><path d="m77.38293 86.140267v-2.561198h2.561198v2.561198zm0 7.118489v-2.561198h2.561198v2.561198z"/><path d="m89.908183 93.223101-3.0625-9.679687h2.488281l1.813802 6.34375 1.667969-6.34375h2.470048l1.61329 6.34375 1.85026-6.34375h2.524737l-3.108077 9.679687h-2.46094l-1.667964-6.22526-1.640625 6.22526z"/><path d="m104.4186 93.223101-3.06251-9.679687h2.48829l1.8138 6.34375 1.66797-6.34375h2.47005l1.61328 6.34375 1.85026-6.34375h2.52474l-3.10807 9.679687h-2.46094l-1.66797-6.22526-1.64062 6.22526z"/><path d="m118.92902 93.223101-3.0625-9.679687h2.48828l1.8138 6.34375 1.66797-6.34375h2.47005l1.61328 6.34375 1.85027-6.34375h2.52473l-3.10807 9.679687h-2.46094l-1.66796-6.22526-1.64063 6.22526z"/><path d="m130.94204 93.223101v-2.561198h2.56119v2.561198z"/><path d="m136.11912 82.230914v-2.369792h2.5612v2.369792zm0 10.992187v-9.679687h2.5612v9.679687z"/><path d="m141.00454 89.659299v-2.561198h5.03125v2.561198z"/><path d="m150.08267 79.861122v4.912761q1.23958-1.449219 2.96223-1.449219.88412 0 1.59506.328125.71093.328125 1.0664.838542.36459.510416.49219 1.130208.13672.619792.13672 1.923177v5.678385h-2.5612v-5.113281q0-1.522135-.14583-1.932291-.14584-.410157-.51953-.647136-.36459-.246094-.92058-.246094-.63802 0-1.13932.309896-.5013.309896-.73828.938802-.22786.619792-.22786 1.841146v4.848958h-2.5612v-13.361979z"/><path d="m160.8561 86.496539-2.32422-.419271q.39193-1.403646 1.34896-2.078125.95703-.674479 2.84375-.674479 1.71354 0 2.55208.410156.83854.401042 1.17578 1.029948.34636.619792.34636 2.28776l-.0274 2.989584q0 1.276041.11849 1.886718.12761.601563.46485 1.294271h-2.53386q-.10026-.255208-.24609-.75651-.0638-.227865-.0911-.300781-.65625.63802-1.40364.957031-.7474.31901-1.59506.31901-1.49479 0-2.36067-.811198-.85677-.811198-.85677-2.050781 0-.820312.39192-1.458333.39193-.647136 1.09375-.984375.71094-.346354 2.04167-.601563 1.79557-.337239 2.48828-.628906v-.255208q0-.738281-.36458-1.048177-.36459-.319011-1.3763-.319011-.6836 0-1.06641.273438-.38281.264323-.61979.938802zm3.42708 2.078125q-.49219.164062-1.55859.391927-1.06641.227864-1.39453.446614-.50131.355469-.50131.902344 0 .537761.40105.929688.40104.391927 1.02083.391927.69271 0 1.32161-.455729.46485-.346355.61068-.847657.10026-.328125.10026-1.248697z"/><path d="m171.99412 93.223101-3.90104-9.679687h2.6888l1.82292 4.940104.52864 1.64974q.20964-.628907.26432-.829428.12761-.410156.27344-.820312l1.84115-4.940104h2.63411l-3.84635 9.679687z"/><path d="m185.32875 90.142372 2.55209.428386q-.49219 1.403645-1.5586 2.141927-1.05729.729166-2.65234.729166-2.52474 0-3.73698-1.649739-.95703-1.321615-.95703-3.335938 0-2.40625 1.25781-3.764323 1.25781-1.367187 3.18099-1.367187 2.16016 0 3.40886 1.43099 1.24869 1.421875 1.19401 4.365885h-6.41667q.0273 1.139323.61979 1.777344.59245.628906 1.47656.628906.60157 0 1.01172-.328125.41016-.328125.61979-1.057292zm.14584-2.588541q-.0274-1.11198-.57422-1.686198-.54688-.583334-1.33073-.583334-.83854 0-1.38542.610677-.54687.610678-.53776 1.658855z"/><path d="m189.82224 89.659299v-2.561198h5.03125v2.561198z"/><path d="m198.26235 86.496539-2.32422-.419271q.39193-1.403646 1.34896-2.078125.95703-.674479 2.84375-.674479 1.71354 0 2.55208.410156.83854.401042 1.17578 1.029948.34636.619792.34636 2.28776l-.0274 2.989584q0 1.276041.11849 1.886718.12761.601563.46485 1.294271h-2.53386q-.10026-.255208-.24609-.75651-.0638-.227865-.0911-.300781-.65625.63802-1.40364.957031-.7474.31901-1.59506.31901-1.49479 0-2.36067-.811198-.85677-.811198-.85677-2.050781 0-.820312.39192-1.458333.39193-.647136 1.09375-.984375.71094-.346354 2.04167-.601563 1.79557-.337239 2.48828-.628906v-.255208q0-.738281-.36458-1.048177-.36459-.319011-1.3763-.319011-.6836 0-1.06641.273438-.38281.264323-.61979.938802zm3.42708 2.078125q-.49219.164062-1.55859.391927-1.06641.227864-1.39453.446614-.50131.355469-.50131.902344 0 .537761.40105.929688.40104.391927 1.02083.391927.69271 0 1.32161-.455729.46485-.346355.61068-.847657.10026-.328125.10026-1.248697z"/><path d="m206.44724 89.659299v-2.561198h5.03125v2.561198z"/><path d="m221.85089 93.223101h-2.37891v-1.421875q-.59244.829427-1.40364 1.239584-.80209.401041-1.6224.401041-1.66797 0-2.86198-1.339844-1.18489-1.348958-1.18489-3.755208 0-2.460937 1.15755-3.736979 1.15755-1.285156 2.92578-1.285156 1.6224 0 2.80729 1.348958v-4.8125h2.5612zm-6.83594-5.049479q0 1.549479.42839 2.242188.61979 1.002604 1.73177 1.002604.88411 0 1.5039-.747396.6198-.75651.6198-2.251302 0-1.667969-.60157-2.397135-.60156-.738282-1.54036-.738282-.91146 0-1.53125.729167-.61068.720052-.61068 2.160156z"/><path d="m226.83656 93.223101h-2.5612v-9.679687h2.37891v1.376302q.61068-.97526 1.09375-1.285156.49219-.309896 1.11198-.309896.875 0 1.6862.483073l-.79297 2.233073q-.64714-.419271-1.20313-.419271-.53776 0-.91146.300781-.37369.291667-.59244 1.066406-.20964.77474-.20964 3.244792z"/><path d="m237.24543 90.142372 2.55208.428386q-.49219 1.403645-1.55859 2.141927-1.0573.729166-2.65235.729166-2.52474 0-3.73698-1.649739-.95703-1.321615-.95703-3.335938 0-2.40625 1.25781-3.764323 1.25782-1.367187 3.18099-1.367187 2.16016 0 3.40886 1.43099 1.2487 1.421875 1.19401 4.365885h-6.41667q.0273 1.139323.61979 1.777344.59245.628906 1.47657.628906.60156 0 1.01171-.328125.41016-.328125.6198-1.057292zm.14583-2.588541q-.0273-1.11198-.57422-1.686198-.54687-.583334-1.33073-.583334-.83854 0-1.38542.610677-.54687.610678-.53776 1.658855z"/><path d="m243.94464 86.496539-2.32421-.419271q.39192-1.403646 1.34895-2.078125.95704-.674479 2.84375-.674479 1.71355 0 2.55209.410156.83854.401042 1.17578 1.029948.34635.619792.34635 2.28776l-.0273 2.989584q0 1.276041.11849 1.886718.1276.601563.46484 1.294271h-2.53385q-.10026-.255208-.2461-.75651-.0638-.227865-.0911-.300781-.65625.63802-1.40365.957031-.74739.31901-1.59505.31901-1.49479 0-2.36068-.811198-.85677-.811198-.85677-2.050781 0-.820312.39193-1.458333.39193-.647136 1.09375-.984375.71094-.346354 2.04167-.601563 1.79557-.337239 2.48828-.628906v-.255208q0-.738281-.36459-1.048177-.36458-.319011-1.3763-.319011-.68359 0-1.0664.273438-.38282.264323-.6198.938802zm3.42709 2.078125q-.49219.164062-1.5586.391927-1.0664.227864-1.39453.446614-.5013.355469-.5013.902344 0 .537761.40104.929688.40104.391927 1.02084.391927.6927 0 1.32161-.455729.46484-.346355.61068-.847657.10026-.328125.10026-1.248697z"/><path d="m252.2298 83.543414h2.36068v1.321615q1.26692-1.540365 3.01692-1.540365.92969 0 1.61329.382813.68359.382812 1.12109 1.157552.63802-.77474 1.3763-1.157552.73828-.382813 1.57682-.382813 1.06641 0 1.80469.4375.73828.428385 1.10287 1.266927.26432.619792.26432 2.005208v6.188802h-2.5612v-5.532552q0-1.440104-.26432-1.859375-.35547-.546875-1.09375-.546875-.53776 0-1.01172.328125-.47396.328125-.68359.966146-.20964.628906-.20964 1.996094v4.648437h-2.5612v-5.304687q0-1.41276-.13672-1.822917-.13671-.410156-.42838-.610677-.28255-.200521-.77474-.200521-.59245 0-1.06641.319011-.47396.31901-.68359.920573-.20052.601562-.20052 1.996093v4.703125h-2.5612z"/><path d="m268.90036 93.223101v-13.361979h2.5612v4.8125q1.1849-1.348958 2.80729-1.348958 1.76823 0 2.92578 1.285156 1.15756 1.276042 1.15756 3.673177 0 2.479167-1.1849 3.81901-1.17578 1.339844-2.86198 1.339844-.82943 0-1.64062-.410156-.80209-.419271-1.38542-1.230469v1.421875zm2.54297-5.049479q0 1.503906.47396 2.223958.66537 1.020834 1.76823 1.020834.84766 0 1.4401-.720052.60157-.729167.60157-2.287761 0-1.658854-.60157-2.38802-.60156-.738282-1.54036-.738282-.92057 0-1.53125.720052-.61068.710938-.61068 2.169271z"/><path d="m279.82876 88.246539q0-1.276042.62891-2.470052.6289-1.194011 1.77734-1.822917 1.15755-.628906 2.57943-.628906 2.19661 0 3.60026 1.43099 1.40364 1.421875 1.40364 3.60026 0 2.196614-1.42187 3.645833-1.41276 1.440104-3.5638 1.440104-1.33073 0-2.54297-.601562-1.20313-.601563-1.83203-1.759115-.62891-1.166666-.62891-2.834635zm2.625.136719q0 1.440104.68359 2.205729.6836.765625 1.6862.765625 1.0026 0 1.67708-.765625.6836-.765625.6836-2.223959 0-1.421875-.6836-2.187499-.67448-.765625-1.67708-.765625-1.0026 0-1.6862.765625-.68359.765624-.68359 2.205729z"/><path d="m290.60218 93.223101 3.49088-4.985677-3.34505-4.69401h3.1263l1.71354 2.661458 1.80469-2.661458h3.00781l-3.28125 4.584635 3.58203 5.095052h-3.14453l-1.96875-2.998698-1.98698 2.998698z"/><path d="m302.22327 93.223101v-2.561198h2.5612v2.561198z"/><path d="m315.84047 86.405393-2.52474.455729q-.12761-.75651-.58334-1.139323-.44661-.382812-1.16666-.382812-.95703 0-1.53125.665364-.56511.65625-.56511 2.20573 0 1.722656.57422 2.433593.58334.710938 1.5586.710938.72916 0 1.19401-.410157.46484-.41927.65625-1.430989l2.51562.428385q-.39193 1.731771-1.5039 2.615886-1.11198.884114-2.98047.884114-2.1237 0-3.39063-1.339844-1.25781-1.339843-1.25781-3.709635 0-2.397135 1.26693-3.727864 1.26692-1.339844 3.42708-1.339844 1.76823 0 2.80729.765625 1.04818.75651 1.50391 2.315104z"/><path d="m317.19854 88.246539q0-1.276042.62891-2.470052.6289-1.194011 1.77734-1.822917 1.15755-.628906 2.57943-.628906 2.19661 0 3.60026 1.43099 1.40364 1.421875 1.40364 3.60026 0 2.196614-1.42187 3.645833-1.41276 1.440104-3.5638 1.440104-1.33073 0-2.54297-.601562-1.20313-.601563-1.83203-1.759115-.62891-1.166666-.62891-2.834635zm2.625.136719q0 1.440104.68359 2.205729.6836.765625 1.6862.765625 1.00261 0 1.67709-.765625.68359-.765625.68359-2.223959 0-1.421875-.68359-2.187499-.67448-.765625-1.67709-.765625-1.0026 0-1.6862.765625-.68359.765624-.68359 2.205729z"/><path d="m329.01105 83.543414h2.36068v1.321615q1.26692-1.540365 3.01692-1.540365.92969 0 1.61329.382813.68359.382812 1.12109 1.157552.63802-.77474 1.3763-1.157552.73828-.382813 1.57682-.382813 1.06641 0 1.80469.4375.73828.428385 1.10287 1.266927.26432.619792.26432 2.005208v6.188802h-2.5612v-5.532552q0-1.440104-.26432-1.859375-.35547-.546875-1.09375-.546875-.53776 0-1.01172.328125-.47396.328125-.68359.966146-.20964.628906-.20964 1.996094v4.648437h-2.5612v-5.304687q0-1.41276-.13672-1.822917-.13671-.410156-.42838-.610677-.28255-.200521-.77474-.200521-.59245 0-1.06641.319011-.47396.31901-.68359.920573-.20052.601562-.20052 1.996093v4.703125h-2.5612z"/></g></g><text x="18.421053" y="-116.8421"><tspan x="18.421053" y="-87.235077"/></text><g fill="url(#b)" transform="matrix(.76229709 0 0 .82205596 3.408952 -3.078909)"><path d="m9.0653782 58.157898v-34.359375h23.5546878v5.8125h-16.617188v8.132812h14.34375v5.8125h-14.34375v14.601563z"/><path d="m38.385691 58.157898v-34.359375h6.9375v13.523437h13.59375v-13.523437h6.9375v34.359375h-6.9375v-15.023438h-13.59375v15.023438z"/><path d="m73.026316 23.798523h12.679687q4.289063 0 6.539063.65625 3.023437.890625 5.179687 3.164062 2.15625 2.273438 3.281247 5.578125 1.125 3.28125 1.125 8.109375 0 4.242188-1.05468 7.3125-1.289067 3.75-3.679692 6.070313-1.804687 1.757812-4.875 2.742187-2.296875.726563-6.140625.726563h-13.054687zm6.9375 5.8125v22.757812h5.179687q2.90625 0 4.195313-.328125 1.6875-.421875 2.789062-1.429687 1.125-1.007813 1.828125-3.304688.703125-2.320312.703125-6.304687 0-3.984375-.703125-6.117188-.703125-2.132812-1.96875-3.328125-1.265625-1.195312-3.210937-1.617187-1.453125-.328125-5.695313-.328125z"/><path d="m119.29194 46.97821 6.75-.65625q.60938 3.398438 2.46094 4.992188 1.875 1.59375 5.03906 1.59375 3.35156 0 5.03906-1.40625 1.71094-1.429688 1.71094-3.328125 0-1.21875-.72656-2.0625-.70313-.867188-2.48438-1.5-1.21875-.421875-5.55468-1.5-5.57813-1.382813-7.82813-3.398438-3.16406-2.835937-3.16406-6.914062 0-2.625 1.47656-4.898438 1.5-2.296875 4.28906-3.492187 2.8125-1.195313 6.77344-1.195313 6.46875 0 9.72656 2.835938 3.28125 2.835937 3.44532 7.570312l-6.9375.304688q-.44532-2.648438-1.92188-3.796875-1.45312-1.171875-4.38281-1.171875-3.02344 0-4.73438 1.242187-1.10156.796875-1.10156 2.132813 0 1.21875 1.03125 2.085937 1.3125 1.101563 6.375 2.296875 5.0625 1.195313 7.47656 2.484375 2.4375 1.265625 3.79688 3.492188 1.38281 2.203125 1.38281 5.460937 0 2.953125-1.64062 5.53125-1.64063 2.578125-4.64063 3.84375-3 1.242188-7.47656 1.242188-6.51563 0-10.00781-3-3.49219-3.023438-4.17188-8.789063z"/><path d="m152.831 58.157898v-34.359375h6.58594v18.234375l7.71094-8.765625h8.10937l-8.50781 9.09375 9.11719 15.796875h-7.10156l-6.25782-11.179688-3.07031 3.210938v7.96875z"/><path d="m179.78413 29.892273v-6.09375h6.58594v6.09375zm0 28.265625v-24.890625h6.58594v24.890625z"/><path d="m215.73725 58.157898h-6.58593v-12.703125q0-4.03125-.42188-5.203125-.42187-1.195313-1.38281-1.851563-.9375-.65625-2.27344-.65625-1.71094 0-3.07031.9375-1.35938.9375-1.875 2.484375-.49219 1.546875-.49219 5.71875v11.273438h-6.58594v-24.890625h6.11719v3.65625q3.25781-4.21875 8.20313-4.21875 2.17968 0 3.98437.796875 1.80469.773437 2.71875 1.992187.9375 1.21875 1.28906 2.765625.375 1.546875.375 4.429688z"/><path d="m248.2034 58.157898h-3.75v-23.895834q-1.35417 1.291667-3.5625 2.583333-2.1875 1.291667-3.9375 1.9375v-3.625q3.14583-1.479166 5.5-3.583333 2.35417-2.104167 3.33333-4.083334h2.41667z"/><path d="m258.3909 51.095398 3.60417-.333334q.45833 2.541667 1.75 3.687501 1.29166 1.145833 3.3125 1.145833 1.72916 0 3.02083-.791667 1.3125-.791667 2.14583-2.104167.83334-1.333333 1.39584-3.583333.5625-2.25.5625-4.583333 0-.25-.0208-.75-1.125 1.791666-3.08333 2.916666-1.9375 1.104167-4.20833 1.104167-3.79167 0-6.41667-2.75-2.625-2.75-2.625-7.25 0-4.645834 2.72917-7.479167 2.75-2.833334 6.875-2.833334 2.97916 0 5.4375 1.604167 2.47916 1.604167 3.75 4.583334 1.29166 2.958333 1.29166 8.583333 0 5.854167-1.27083 9.333334-1.27083 3.458333-3.79167 5.270833-2.5 1.8125-5.875 1.8125-3.58333 0-5.85416-1.979166-2.27084-2-2.72917-5.604167zm15.35417-13.479167q0-3.229167-1.72917-5.125-1.70833-1.895834-4.125-1.895834-2.5 0-4.35417 2.041667-1.85416 2.041667-1.85416 5.291667 0 2.916666 1.75 4.75 1.77083 1.8125 4.35416 1.8125 2.60417 0 4.27084-1.8125 1.6875-1.833334 1.6875-5.0625z"/><path d="m301.28673 54.553731v3.604167h-20.1875q-.0417-1.354167.4375-2.604167.77084-2.0625 2.45834-4.0625 1.70833-2 4.91666-4.625 4.97917-4.083334 6.72917-6.458334 1.75-2.395833 1.75-4.520833 0-2.229167-1.60417-3.75-1.58333-1.541667-4.14583-1.541667-2.70833 0-4.33333 1.625-1.625 1.625-1.64584 4.5l-3.85416-.395833q.39583-4.3125 2.97916-6.5625 2.58334-2.270834 6.9375-2.270834 4.39584 0 6.95834 2.4375 2.5625 2.437501 2.5625 6.041667 0 1.833334-.75 3.604167-.75 1.770833-2.5 3.729167-1.72917 1.958333-5.77084 5.375-3.375 2.833333-4.33333 3.854167-.95833 1-1.58333 2.020833z"/><path d="m305.3284 43.095398q0-5.416667 1.10417-8.708334 1.125-3.3125 3.3125-5.104167 2.20833-1.791667 5.54166-1.791667 2.45834 0 4.3125 1 1.85417.979167 3.0625 2.854167 1.20834 1.854167 1.89584 4.541667.6875 2.666667.6875 7.208334 0 5.375-1.10417 8.6875-1.10417 3.291667-3.3125 5.104167-2.1875 1.791666-5.54167 1.791666-4.41666 0-6.9375-3.166666-3.02083-3.812501-3.02083-12.416667zm3.85417 0q0 7.520833 1.75 10.020833 1.77083 2.479167 4.35416 2.479167 2.58334 0 4.33334-2.5 1.77083-2.5 1.77083-10 0-7.541667-1.77083-10.020834-1.75-2.479167-4.375-2.479167-2.58334 0-4.125 2.1875-1.9375 2.791667-1.9375 10.312501z"/><path d="m327.62007 58.157898 8.08333-11.5-7.47917-10.625001h4.6875l3.39584 5.1875q.95833 1.479167 1.54166 2.479167.91667-1.375 1.6875-2.4375l3.72917-5.229167h4.47917l-7.64584 10.416667 8.22917 11.708334h-4.60417l-4.54166-6.875-1.20834-1.854167-5.8125 8.729167z"/><path d="m364.53674 58.157898h-3.75v-23.895834q-1.35416 1.291667-3.5625 2.583333-2.1875 1.291667-3.9375 1.9375v-3.625q3.14584-1.479166 5.5-3.583333 2.35417-2.104167 3.33334-4.083334h2.41666z"/><path d="m374.16174 43.095398q0-5.416667 1.10417-8.708334 1.125-3.3125 3.3125-5.104167 2.20833-1.791667 5.54167-1.791667 2.45833 0 4.3125 1 1.85416.979167 3.0625 2.854167 1.20833 1.854167 1.89583 4.541667.6875 2.666667.6875 7.208334 0 5.375-1.10417 8.6875-1.10416 3.291667-3.3125 5.104167-2.1875 1.791666-5.54166 1.791666-4.41667 0-6.9375-3.166666-3.02084-3.812501-3.02084-12.416667zm3.85417 0q0 7.520833 1.75 10.020833 1.77083 2.479167 4.35417 2.479167 2.58333 0 4.33333-2.5 1.77083-2.5 1.77083-10 0-7.541667-1.77083-10.020834-1.75-2.479167-4.375-2.479167-2.58333 0-4.125 2.1875-1.9375 2.791667-1.9375 10.312501z"/><path d="m403.68258 41.595397q-2.33334-.854166-3.45834-2.4375-1.125-1.583333-1.125-3.791666 0-3.333334 2.39584-5.604167 2.39583-2.270834 6.375-2.270834 4 0 6.4375 2.333334 2.4375 2.3125 2.4375 5.645833 0 2.125-1.125 3.708334-1.10417 1.5625-3.375 2.416666 2.8125.916667 4.27083 2.958334 1.47917 2.041667 1.47917 4.875 0 3.916667-2.77084 6.583334-2.77083 2.666666-7.29166 2.666666-4.52084 0-7.29167-2.666666-2.77083-2.687501-2.77083-6.687501 0-2.979166 1.5-4.979166 1.52083-2.020834 4.3125-2.750001zm-.75-6.354166q0 2.166666 1.39583 3.541666 1.39583 1.375 3.625 1.375 2.16667 0 3.54167-1.354166 1.39583-1.375 1.39583-3.354167 0-2.0625-1.4375-3.458333-1.41667-1.416667-3.54167-1.416667-2.14583 0-3.5625 1.375-1.41666 1.375-1.41666 3.291667zm-1.20834 14.104167q0 1.604166.75 3.104166.77084 1.5 2.27084 2.333334 1.5.8125 3.22916.8125 2.6875 0 4.4375-1.729167 1.75-1.729167 1.75-4.395833 0-2.708334-1.8125-4.479167-1.79166-1.770833-4.5-1.770833-2.64583 0-4.39583 1.75-1.72917 1.75-1.72917 4.375z"/><path d="m421.66174 43.095398q0-5.416667 1.10417-8.708334 1.125-3.3125 3.3125-5.104167 2.20833-1.791667 5.54167-1.791667 2.45833 0 4.3125 1 1.85416.979167 3.0625 2.854167 1.20833 1.854167 1.89583 4.541667.6875 2.666667.6875 7.208334 0 5.375-1.10417 8.6875-1.10416 3.291667-3.3125 5.104167-2.1875 1.791666-5.54166 1.791666-4.41667 0-6.9375-3.166666-3.02084-3.812501-3.02084-12.416667zm3.85417 0q0 7.520833 1.75 10.020833 1.77083 2.479167 4.35417 2.479167 2.58333 0 4.33333-2.5 1.77083-2.5 1.77083-10 0-7.541667-1.77083-10.020834-1.75-2.479167-4.375-2.479167-2.58333 0-4.125 2.1875-1.9375 2.791667-1.9375 10.312501z"/></g></svg>