<svg height="70" width="70" xmlns="http://www.w3.org/2000/svg"><path d="m70.094056 35.108177a35 34.999999 0 0 1 -35 34.999998 35 34.999999 0 0 1 -35.0000004-34.999998 35 34.999999 0 0 1 35.0000004-35.00000074 35 34.999999 0 0 1 35 35.00000074z" fill="#006b13"/><g fill="#fff" transform="translate(-5.16949 -5.254237)"><g transform="matrix(.83355753 0 0 .77123933 6.343082 8.311192)"><path d="m27.599248 20.342827v3.703125q-1.441406-.644531-2.8125-.972656-1.371094-.328125-2.589844-.328125-1.617187 0-2.390625.445312-.773437.445313-.773437 1.382813 0 .703125.515625 1.101562.527343.386719 1.898437.667969l1.921875.386719q2.917969.585937 4.148438 1.78125 1.230468 1.195312 1.230468 3.398437 0 2.894531-1.722656 4.3125-1.710937 1.40625-5.238281 1.40625-1.664063 0-3.339844-.316406-1.675781-.316406-3.351562-.9375v-3.808594q1.675781.890625 3.234375 1.347656 1.570312.445313 3.023437.445313 1.476563 0 2.261719-.492188.785156-.492187.785156-1.40625 0-.820312-.539062-1.265625-.527344-.445312-2.121094-.796875l-1.746094-.386718q-2.625-.5625-3.84375-1.792969-1.207031-1.230469-1.207031-3.316406 0-2.613282 1.6875-4.019532 1.6875-1.40625 4.851562-1.40625 1.441407 0 2.964844.222657 1.523438.210937 3.152344.644531z"/><path d="m32.720342 19.792046h4.511718v10.488281q0 2.167969.703125 3.105469.714844.925781 2.320313.925781 1.617187 0 2.320312-.925781.714844-.9375.714844-3.105469v-10.488281h4.511719v10.488281q0 3.714844-1.863281 5.53125-1.863282 1.816406-5.683594 1.816406-3.808594 0-5.671875-1.816406-1.863281-1.816406-1.863281-5.53125z"/><path d="m59.228154 26.565483q1.066406 0 1.617188-.46875.550781-.46875.550781-1.382812 0-.902344-.550781-1.371094-.550782-.480469-1.617188-.480469h-2.496094v3.703125zm.152344 7.652344q1.359375 0 2.039062-.574219.691407-.574219.691407-1.734375 0-1.136719-.679688-1.699219-.679687-.574218-2.050781-.574218h-2.648438v4.582031zm4.195312-6.292969q1.453125.421875 2.25 1.558594.796875 1.136719.796875 2.789062 0 2.53125-1.710937 3.773438-1.710938 1.242187-5.203125 1.242187h-7.488281v-17.496093h6.773437q3.644531 0 5.273438 1.101562 1.640625 1.101563 1.640625 3.527344 0 1.277344-.597657 2.179687-.597656.890625-1.734375 1.324219z"/></g><g transform="matrix(.83708749 0 0 .85627974 6.85582 8.35374)"><path d="m20.790628 51.028642v1.386719q-.664063-.61849-1.419271-.924479-.748698-.30599-1.595052-.30599-1.666667 0-2.552084 1.022136-.885416 1.015625-.885416 2.942708 0 1.920573.885416 2.942708.885417 1.015625 2.552084 1.015625.846354 0 1.595052-.305989.755208-.30599 1.419271-.92448v1.373698q-.690105.46875-1.464844.703125-.768229.234375-1.627604.234375-2.207031 0-3.476563-1.347656-1.269531-1.354167-1.269531-3.691406 0-2.34375 1.269531-3.691406 1.269532-1.354167 3.476563-1.354167.872396 0 1.640625.234375.774739.227865 1.451823.690104z"/><path d="m28.844012 55.598955v4.401041h-1.197916v-4.361979q0-1.035156-.403646-1.549479-.403646-.514323-1.210938-.514323-.970052 0-1.529947.61849-.559896.618489-.559896 1.686198v4.121093h-1.204427v-10.130208h1.204427v3.971354q.429687-.657552 1.009114-.983073.585938-.325521 1.347657-.325521 1.25651 0 1.901041.78125.644531.77474.644531 2.285157z"/><path d="m34.560158 56.334632q-1.451823 0-2.011719.332031-.559896.332031-.559896 1.132812 0 .638021.416667 1.015625.423177.371094 1.145833.371094.996094 0 1.595052-.703125.605469-.709635.605469-1.88151v-.266927zm2.389323-.494792v4.160156h-1.197917v-1.106771q-.410156.664063-1.022136.983073-.611979.3125-1.497395.3125-1.119792 0-1.783854-.625-.657552-.63151-.657552-1.686198 0-1.230468.820312-1.855468.826823-.625 2.460937-.625h1.679688v-.117188q0-.826823-.546875-1.276041-.540365-.45573-1.523438-.45573-.625 0-1.217447.14974-.592448.14974-1.139323.449219v-1.106771q.657552-.253906 1.276041-.377604.61849-.130209 1.204427-.130209 1.582032 0 2.363282.820313.78125.820312.78125 2.486979z"/><path d="m45.484635 55.598955v4.401041h-1.197916v-4.361979q0-1.035156-.403646-1.549479-.403646-.514323-1.210937-.514323-.970052 0-1.529948.61849-.559896.618489-.559896 1.686198v4.121093h-1.204427v-7.291666h1.204427v1.132812q.429687-.657552 1.009114-.983073.585938-.325521 1.347657-.325521 1.25651 0 1.901041.78125.644531.77474.644531 2.285157z"/><path d="m53.948178 55.598955v4.401041h-1.197916v-4.361979q0-1.035156-.403646-1.549479-.403646-.514323-1.210937-.514323-.970053 0-1.529948.61849-.559896.618489-.559896 1.686198v4.121093h-1.204427v-7.291666h1.204427v1.132812q.429687-.657552 1.009114-.983073.585938-.325521 1.347657-.325521 1.25651 0 1.901041.78125.644531.77474.644531 2.285157z"/><path d="m62.587499 56.054684v.585937h-5.507813q.07813 1.236979.742188 1.888021.670573.644531 1.861979.644531.690104 0 1.334635-.169271.651042-.16927 1.289063-.507812v1.132812q-.644531.273438-1.321615.416667-.677083.143229-1.373698.143229-1.744791 0-2.766927-1.015625-1.015625-1.015625-1.015625-2.747395 0-1.790365.963542-2.838542.970052-1.054688 2.610677-1.054688 1.471354 0 2.324219.950521.859375.944011.859375 2.571615zm-1.197917-.351563q-.01302-.983073-.553385-1.56901-.533854-.585938-1.419271-.585938-1.002604 0-1.608073.566407-.598958.566406-.690104 1.595052z"/><path d="m64.553645 49.869788h1.197916v10.130208h-1.197916z"/></g><g transform="translate(-.29661 .59322)"><path d="m23.240067 42.39341h4.90625v2.273437h-4.90625z"/><path d="m29.896317 42.39341h4.90625v2.273437h-4.90625z"/><path d="m36.552567 42.39341h4.90625v2.273437h-4.90625z"/><path d="m43.208817 42.39341h4.90625v2.273437h-4.90625z"/><path d="m49.865067 42.39341h4.90625v2.273437h-4.90625z"/></g></g></svg>