<svg height="100" viewBox="0 0 200 100" width="200" xmlns="http://www.w3.org/2000/svg"><text fill="#fff" stroke-width=".910772" transform="scale(1.0279658 .972795)" x="142.93924" y="63.567997"><tspan stroke-width=".910772" x="142.93924" y="374.09094"/></text><ellipse cx="100.13158" cy="50.263157" fill="#404040" rx="90.394737" ry="49.999996"/><g fill="#fff"><path d="m61.153366 68.237663h-4.382812v-30.421875h-9.796875v-3.84375h23.953125v3.84375h-9.773438z"/><path d="m93.895554 68.237663h-17.789063v-34.265625h17.789063v3.84375h-13.429688v10.59375h12.539063v3.796875h-12.539063v12.1875h13.429688z"/><path d="m123.00493 68.237663h-4.94531l-8.29688-14.882812-8.60156 14.882812h-4.406251l10.617191-17.90625-9.890629-16.359375h4.640629l7.78125 13.101563 7.82812-13.101563h4.45313l-9.86719 16.21875z"/><path d="m137.65337 68.237663h-4.38282v-30.421875h-9.79687v-3.84375h23.95312v3.84375h-9.77343z"/></g></svg>