<svg height="60" viewBox="0 0 60 60" width="60" xmlns="http://www.w3.org/2000/svg"><circle cx="30" cy="30" fill="#666" r="29.5"/><g fill="#adadad"><path d="m27.909071 52.797913h4.1818581v5.3434854h-4.1818581z"/><path d="m27.909071-7.2020888h4.1818581v6.2727871h-4.1818581z" transform="rotate(90)"/><path d="m27.909071-57.676746h4.1818581v4.8788342h-4.1818581z" transform="rotate(90)"/><path d="m27.909071.77162552h4.1818581v6.2283745h-4.1818581z"/><path d="m240 96h24l8 160 80 96-16 16-112-96z" transform="matrix(.13392857 0 0 .13392857 -3.75 -4.285714)"/><path d="m30 .00000034c-16.566964 0-29.99999966 13.43303566-29.99999966 29.99999966s13.43303566 30 29.99999966 30 30-13.433036 30-30-13.433036-29.99999966-30-29.99999966zm18.1875 48.18749966c-4.861607 4.848214-11.316964 7.526785-18.1875 7.526785s-13.325893-2.678571-18.1875-7.526785c-4.848214-4.861607-7.5267854-11.316964-7.5267854-18.1875s2.6785714-13.325893 7.5267854-18.1875c4.861607-4.848214 11.316964-7.5267854 18.1875-7.5267854s13.325893 2.6785714 18.1875 7.5267854c4.848214 4.861607 7.526785 11.316964 7.526785 18.1875s-2.678571 13.325893-7.526785 18.1875z"/></g></svg>