<svg height="50" viewBox="0 0 50 50" width="50" xmlns="http://www.w3.org/2000/svg"><g fill-rule="evenodd" transform="matrix(2.6666667 0 0 2.6519337 .8855923 1.180509)"><path d="m-.902897.927147h1.825381v23.728491h-1.825381z" fill="#c00" transform="matrix(.70102342 -.71313825 .70465352 .70955156 0 0)"/><path d="m5.7541735 61.860885c-.91457-.73582-5.66035997-6.5732-10.5462-12.97198-7.1385595-9.349049-8.6642895-11.976725-7.7680395-13.378375 1.36861-2.140359 5.7681795-2.055969 11.5463995.221477 4.91719 1.938085 13.3114705 2.261419 18.6837705.719669 3.378809-.969654 3.993349-.771739 7.169879 2.309056l3.47431 3.369615-7.07346 9.196348c-7.832089 10.18268-9.552969 11.87202-12.0935095 11.87202-.95166 0-2.47858-.60202-3.39315-1.33783zm-1.41996-29.607491c-11.19607-2.807747-17.9888095-11.42583-17.9990495-22.8357548-.003-3.384731.33432-6.494109.74967-6.909732.41535-.415621 7.3330995 5.826488 15.3727695 13.8713518 8.0396505 8.044866 14.3980605 14.831791 14.1297705 15.082058-1.08944 1.01627-9.2544905 1.544081-12.2531605.792077zm-35.2960895-9.324238c-6.47094-5.0213-12.16977-9.849434-12.66406-10.729185-1.82625-3.2504868.54152-6.4448568 10.34518-13.9567398l10.04397-7.696029 3.34741 3.455879c3.05815 3.157256 3.25582 3.775419 2.28752 7.153827-1.52819 5.331967-1.22281 13.7461508.67854 18.6958658.90447 2.354594 1.90261 5.367497 2.21807 6.695339.60274 2.537044-1.23516 5.648495-3.28525 5.561724-.66331-.02807-6.50043-4.15938-12.97138-9.180681zm68.569349 2.931588c-2.73574-2.857343-2.87169-3.399838-1.81045-7.224326 1.62201-5.845314 1.35431-14.1038898-.61974-19.11877981-2.26642-5.75767699-2.3594-10.18490119-.24239-11.54056319 1.37479-.880361 4.24005.819604 14.20814 8.4297212 12.18414 9.301938 14.69178 12.399138 12.77754 15.7816158-.81823 1.445814-19.94577 16.761659-20.93318 16.761659-.23214 0-1.7531-1.390197-3.37992-3.089327zm-22.461509-22.4809038c-10.3992305-10.425918-14.38261047-15.0804892-13.4169405-15.6776932.75539-.467157 4.05713-.846889 7.33721-.843849 13.2739695.0123 22.8705795 9.7096402 22.8898695 23.1301512.005 3.4043518-.44755 6.6464738-1.00543 7.2047178-.63939.639804-6.48151-4.466205-15.804709-13.8133268zm6.413659-18.9793752c-4.230669-2.326931-14.4270595-3.097244-20.5560095-1.552957-4.92824 1.241748-5.14412 1.192007-8.23065-1.89653l-3.1696795-3.171724 7.7277495-10.001079c4.25025-5.500592 8.44187-10.40575 9.31471-10.900349 3.3802805-1.915481 6.4754905.593778 15.7713995 12.785795 7.54747 9.898833 9.30248 12.852111 8.44876 14.217335-1.46785 2.347299-5.56707 2.576133-9.30628.519509z" fill="#b9b9b9" stroke-width="1.069924" transform="matrix(.1687138 0 0 .16932072 7.482634 7.301391)"/></g></svg>