<svg height="256" viewBox="0 0 256 256" width="256" xmlns="http://www.w3.org/2000/svg"><path d="m31.007812 60.800781c-8.288 0-15.007812 6.718534-15.007812 14.894531v104.609378c0 8.176 6.719814 14.89453 15.007812 14.89453h171.695308c8.28801 0 14.89649-6.71853 14.89649-14.89453v-18.70508h22.40039v-67.199219h-22.40039v-18.705079a14.896 14.896 0 0 0 -14.89649-14.894531zm88.992188 12.199219a33.846154 33.846154 0 0 1 33.84766 33.84766c0 7.44615-3.04801 14.21602-7.8711 19.03906l-7.61523 7.78125c-4.56923 4.56924-7.78481 8.5459-9.13867 15.48437h-17.26172c.93077-7.61539 4.31698-14.55136 9.47851-19.71289l10.49219-10.66211c3.13078-3.04616 4.99022-7.27583 4.99024-11.92968 0-9.392308-7.61419-16.925785-16.92188-16.925785a16.923078 16.923078 0 0 0 -16.92188 16.925785h-16.925776a33.846154 33.846154 0 0 1 33.847656-33.84766zm-8.46094 93.07812h16.92188v16.92188h-16.92188z" fill="#bababa"/></svg>