<svg height="256" width="256" xmlns="http://www.w3.org/2000/svg"><path d="m128.16602 16.148438c-5.18201 0-10.34568 1.688143-14.31641 5.658203l-91.892579 91.894529c-7.941477 7.94151-7.941477 20.35996 0 28.30078l91.892579 91.89453c7.94147 7.9415 20.69134 7.9415 28.63281 0l91.56055-91.89453c7.94152-7.94082 7.94152-20.35927 0-28.30078l-91.56055-91.894529c-3.97075-3.97006-9.13438-5.658203-14.3164-5.658203zm9.52148 74.996093c4.78259 0 9.14877.862018 12.65039 2.330078 3.50153 1.4436 6.38071 3.630532 8.6582 6.326172 2.30588 2.669779 3.88383 5.869489 4.99414 9.654299 1.13866 3.75964 1.66401 7.99509 1.66407 12.65234-.00007 4.60343-.52546 8.53411-1.66407 12.32031-1.11031 3.78481-2.68826 7.29195-4.99414 9.98829-2.30596 2.69634-5.46024 4.52202-8.99023 5.99218-3.50161 1.47086-7.53577 2.33203-12.31836 2.33203-4.78267 0-8.79031-.86467-12.32031-2.33203-3.50159-1.47016-6.68238-3.29584-8.98828-5.99218-2.27746-2.69634-3.85739-6.20348-4.9961-9.98829-1.11025-3.81417-1.66406-8.02235-1.66406-12.65234 0-4.63069.55376-8.56067 1.66406-12.32031 1.13871-3.78481 2.69017-6.98452 4.9961-9.654299 2.3059-2.66838 5.48669-4.882572 8.98828-6.326172 3.53-1.47086 7.50916-2.330078 12.32031-2.330078zm-52.607422.326172v.001953c3.10299 0 6.219196.23661 9.322266 1 3.13144.73543 6.143376 1.690767 8.990236 2.998047l-4.328127 10.320317c-2.33443-1.06539-4.629377-1.87481-6.992187-2.66407-2.36288-.78786-4.714788-1.33007-6.992188-1.33007-2.5337 0-4.693943.71332-6.658203 1.66406-1.93587.92628-3.656181 2.22532-4.994141 3.99609-1.30957 1.7421-2.314836 3.79216-2.998046 6.32422-.68328 2.50619-.998047 5.19236-.998047 8.32422-.00002 3.1878.400137 6.17927.998047 8.6582.626229 2.47823 1.411442 4.60993 2.664062 6.32617 1.28105 1.68827 3.029811 2.7624 4.994141 3.66211 1.99274.87315 4.259217 1.33008 6.992187 1.33008 2.53361 0 5.124503-.11878 7.658203-.66406 2.56208-.54528 5.335019-1.32201 8.324219-2.33008v10.6543c-1.3665.54528-2.658144.94824-3.996094 1.33203-1.33805.38449-2.933235.75532-4.328125 1-1.39499.24468-2.847825.22521-4.328125.33008-1.45191.13981-2.982529.32812-4.662109.32812-4.81115 0-8.788349-.86202-12.318359-2.33008-3.53006-1.47016-6.684315-3.32437-8.990235-5.99414-2.30592-2.66838-3.8839-5.89605-4.994141-9.65429-1.11026-3.75824-1.664062-8.04893-1.664062-12.65235 0-4.52093.716957-8.56012 1.998047-12.31836 1.28106-3.78621 3.183416-6.93264 5.660156-9.65625 2.47672-2.724297 5.344361-4.827349 8.988281-6.326169 3.64389-1.52469 7.926604-2.330078 12.652344-2.330078zm52.607422 10.322267c-2.47677 0-4.50424.40576-6.32617 1.33203-1.82198.92628-3.46646 2.25134-4.66211 3.99414-1.16721 1.74351-2.09471 3.82264-2.66406 6.32813-.56941 2.47893-.66602 5.52438-.66602 8.65625-.00002 3.13256.09715 5.81872.66602 8.32421.5694 2.47893 1.49685 4.58198 2.66406 6.32618 1.19565 1.71484 2.86859 3.06856 4.66211 3.99414 1.79347.92698 3.8494 1.33203 6.32617 1.33203 2.53362 0 4.53069-.40575 6.32422-1.33203 1.82191-.92698 3.52334-2.2793 4.66211-3.99414 1.16716-1.7442 2.12312-3.84725 2.66406-6.32618.56931-2.50549.66602-5.19165.66602-8.32421-.00004-3.13187-.09715-6.17732-.66602-8.65625-.54095-2.50549-1.4969-4.58463-2.66406-6.32813-1.13877-1.74279-2.53468-3.06856-4.32813-3.99414-1.79352-.92697-4.15306-1.33203-6.6582-1.33203zm48.7207 23.79297c1.93729 0 3.64826.14008 5.17969.64844 1.54982.51107 3.01102 1.20446 4.09961 2.1582 1.08857.93515 1.80104 2.11109 2.37305 3.45312.59035 1.34157.86325 2.8544.86328 4.53125-.00003 1.51828-.30977 2.92183-.86328 4.31641-.55358 1.37692-1.19686 2.75804-2.15625 4.09961-.95946 1.3239-2.18006 2.77617-3.45313 4.09961-1.25465 1.30623-2.44563 2.52507-3.88476 3.88476l-4.96289 4.74805v.42578h16.61523v6.9043h-27.18945v-5.82617l9.49609-9.71094c1.19927-1.2351 2.25844-2.41105 3.23633-3.45313.97786-1.04117 1.8887-2.03137 2.58984-3.01953.7011-.98863 1.12229-1.99751 1.50977-3.02148.38747-1.02396.64837-2.27059.64844-3.45313-.00002-1.30623-.46464-2.297-1.29493-3.02148-.81184-.72356-1.85451-1.07813-3.23828-1.07813-1.45761 0-2.96758.39399-4.31445 1.07813-1.3469.69051-2.62358 1.75014-4.09961 3.02148l-4.74805-5.39453c.83027-.72357 1.68576-1.28805 2.58985-1.9414.90406-.66966 1.93095-1.43139 3.01953-1.94336 1.08857-.51108 2.35992-.77819 3.66992-1.07813 1.30997-.31716 2.69078-.42578 4.31445-.42578z" fill="#bababa"/></svg>