<svg height="512" viewBox="0 0 512.00001 512.00001" width="512" xmlns="http://www.w3.org/2000/svg"><path d="m238.58291 509.06168a256 256 0 0 0 -255.999998 256 256 256 0 0 0 255.999998 256.00002 256 256 0 0 0 256-256.00002 256 256 0 0 0 -256-256zm0 33.56446a222.43509 222.43509 0 0 1 222.43555 222.43554 222.43509 222.43509 0 0 1 -222.43555 222.43554 222.43509 222.43509 0 0 1 -222.435548-222.43554 222.43509 222.43509 0 0 1 222.435548-222.43554z" fill="#bababa" transform="matrix(.83146957 -.5555702 .5555702 .83146957 -367.41991 -247.575955)"/></svg>