<svg height="512" viewBox="0 0 512.00001 512.00001" width="512" xmlns="http://www.w3.org/2000/svg"><g fill="#292929" transform="matrix(.30081924 -.7262419 .7262419 .30081924 -399.332755 202.175277)"><g fill="#292929" transform="matrix(-.70710678 -.70710678 .70710678 -.70710678 -126.52062 1540.4275)"><path d="m737.60699 665.25732h12.806987v42.70314h-12.806987z" transform="matrix(.70710678 .70710678 -.70710678 .70710678 0 0)"/><path d="m737.60699 56.626102h12.806987v42.70314h-12.806987z" transform="matrix(.70710678 .70710678 -.70710678 .70710678 0 0)"/><path d="m375.8898-1069.6776h12.806987v42.70314h-12.806987z" transform="matrix(-.70710678 .70710678 -.70710678 -.70710678 0 0)"/><path d="m375.8898-461.04642h12.806987v42.70314h-12.806987z" transform="matrix(-.70710678 .70710678 -.70710678 -.70710678 0 0)"/></g><g fill="#292929" transform="matrix(-1 0 0 -1 511.54534 1592.8341)"><path d="m737.60699 665.25732h12.806987v42.70314h-12.806987z" transform="matrix(.70710678 .70710678 -.70710678 .70710678 0 0)"/><path d="m737.60699 56.626102h12.806987v42.70314h-12.806987z" transform="matrix(.70710678 .70710678 -.70710678 .70710678 0 0)"/><path d="m375.8898-1069.6776h12.806987v42.70314h-12.806987z" transform="matrix(-.70710678 .70710678 -.70710678 -.70710678 0 0)"/><path d="m375.8898-461.04642h12.806987v42.70314h-12.806987z" transform="matrix(-.70710678 .70710678 -.70710678 -.70710678 0 0)"/></g></g></svg>