<svg height="256" viewBox="0 0 256 256" width="256" xmlns="http://www.w3.org/2000/svg"><g fill="#bababa"><path d="m116.42042 188.85778h16.92188v16.92188h-16.92188zm8.46094-93.078117a33.846154 33.846154 0 0 1 33.84766 33.847657c0 7.44615-3.04801 14.21602-7.8711 19.03906l-7.61523 7.78125c-4.56923 4.56924-7.78481 8.5459-9.13867 15.48437h-17.26172c.93077-7.61539 4.31698-14.55136 9.47851-19.71289l10.49219-10.66211c3.13078-3.04616 4.99022-7.27583 4.99024-11.92968 0-9.39231-7.61419-16.92579-16.92188-16.92579a16.923078 16.923078 0 0 0 -16.92188 16.92579h-16.92578a33.846154 33.846154 0 0 1 33.84766-33.847657z" fill="#bababa" transform="matrix(.9355888 0 0 .9355888 91.494907 25.474855)"/><path d="m240 38-224 180h172.87924v-17.9995c-56.63535 0-62.14995.00004-118.785306.00006l147.506776-118.532213v25.333403h22.39929z" fill="#bababa"/></g></svg>