<svg height="256" viewBox="0 0 256 256" width="256" xmlns="http://www.w3.org/2000/svg"><g fill="#bababa" transform="matrix(1.25 0 0 1.25 -32 -32)"><path d="m80.512 175.488-15.792 15.792c-17.584-17.36-26.32-40.32-26.32-63.28s8.736-45.92 26.208-63.392l15.792 15.792c-12.992 13.216-19.6 30.352-19.6 47.6s6.608 34.384 19.712 47.488"/><path d="m128 83.199219a44.8 44.8 0 0 0 -44.800781 44.800781 44.8 44.8 0 0 0 44.800781 44.80078 44.8 44.8 0 0 0 44.80078-44.80078 44.8 44.8 0 0 0 -44.80078-44.800781zm0 22.400391a22.4 22.4 0 0 1 22.40039 22.40039 22.4 22.4 0 0 1 -22.40039 22.40039 22.4 22.4 0 0 1 -22.40039-22.40039 22.4 22.4 0 0 1 22.40039-22.40039z"/><path d="m191.392 191.392-15.792-15.792c12.992-13.216 19.6-30.352 19.6-47.6s-6.608-34.384-19.712-47.488l15.792-15.792c17.584 17.36 26.32 40.32 26.32 63.28s-8.736 45.92-26.208 63.392"/></g></svg>