<svg height="256" viewBox="0 0 256 256" width="256" xmlns="http://www.w3.org/2000/svg"><g fill="#bababa" transform="matrix(.58171592 0 0 .58171592 241.01909 -136.80834)"><path d="m0 0c-1.458 0-2.645-1.187-2.645-2.645v-38.318l-.886-.594c-1.769-1.185-2.824-3.161-2.824-5.284 0-3.505 2.851-6.356 6.356-6.356s6.355 2.851 6.355 6.356c0 2.124-1.055 4.099-2.824 5.284l-.886.594v38.318c0 1.458-1.187 2.645-2.646 2.645m.001-57.197c-5.711 0-10.356 4.645-10.356 10.356 0 3.088 1.369 5.984 3.71 7.942v36.254c0 3.664 2.981 6.645 6.645 6.645s6.646-2.981 6.646-6.645v-36.253c2.341-1.958 3.71-4.854 3.71-7.943 0-5.711-4.645-10.356-10.355-10.356" fill="#bababa" transform="matrix(6.292264 0 0 -6.292264 -194.28886 287.85456)"/><path d="m0 0v-29.298l-1.329-.891c-1.492-1-2.382-2.665-2.382-4.455 0-2.953 2.403-5.356 5.357-5.356 2.953 0 5.355 2.403 5.355 5.356 0 1.79-.89 3.455-2.381 4.454l-1.33.89v29.3z" fill="#bababa" transform="matrix(6.292264 0 0 -6.292264 -204.63646 364.60257)"/></g></svg>