<svg height="256" viewBox="0 0 256 256" width="256" xmlns="http://www.w3.org/2000/svg"><path d="m116.42042 188.85778h16.92188v16.92188h-16.92188zm8.46094-93.078117a33.846154 33.846154 0 0 1 33.84766 33.847657c0 7.44615-3.04801 14.21602-7.8711 19.03906l-7.61523 7.78125c-4.56923 4.56924-7.78481 8.5459-9.13867 15.48437h-17.26172c.93077-7.61539 4.31698-14.55136 9.47851-19.71289l10.49219-10.66211c3.13078-3.04616 4.99022-7.27583 4.99024-11.92968 0-9.39231-7.61419-16.92579-16.92188-16.92579a16.923078 16.923078 0 0 0 -16.92188 16.92579h-16.92578a33.846154 33.846154 0 0 1 33.84766-33.847657z" fill="#bababa" transform="matrix(.9355888 0 0 .9355888 11.162398 -27.195145)"/><path d="m128 38.997069c-64.659789 0-107.670099 35.216799-111.999999 38.488279l111.904299 139.421882.0957.0957.0957-.0957 111.9043-139.421882c-4.3299-3.27148-47.43643-38.488279-112-38.488279zm0 14.429689c49.90896 0 83.23103 27.22303 86.57813 29.75195l-86.50391 107.777342-.07422.0742-.07421-.0742-86.503908-107.777342c3.3471-2.52892 36.594779-29.75195 86.578118-29.75195z" fill="#bababa"/></svg>