<svg height="256" viewBox="0 0 256 256" width="256" xmlns="http://www.w3.org/2000/svg"><path d="m32.8 105.6a11.2 11.2 0 0 1 -11.2-11.2 11.2 11.2 0 0 1 11.2-11.2h89.6a22.4 22.4 0 0 0 22.4-22.4 22.4 22.4 0 0 0 -22.4-22.4c-6.16 0-11.76 2.464-15.792 6.608-4.368 4.592-11.536 4.592-15.904 0-4.368-4.368-4.368-11.536 0-15.904 8.176-8.064 19.376-13.104 31.696-13.104a44.8 44.8 0 0 1 44.8 44.8 44.8 44.8 0 0 1 -44.8 44.8zm168 22.4a11.2 11.2 0 0 0 11.2-11.2 11.2 11.2 0 0 0 -11.2-11.2c-3.136 0-5.936 1.232-7.952 3.248-4.368 4.368-11.424 4.368-15.792 0-4.256-4.368-4.256-11.424 0-15.792 6.048-6.048 14.448-9.856 23.744-9.856a33.6 33.6 0 0 1 33.6 33.6 33.6 33.6 0 0 1 -33.6 33.6h-156.8a11.2 11.2 0 0 1 -11.2-11.2 11.2 11.2 0 0 1 11.2-11.2zm-11.2 67.2h-156.8a11.2 11.2 0 0 1 -11.2-11.2 11.2 11.2 0 0 1 11.2-11.2h156.8a33.6 33.6 0 0 1 33.6 33.6 33.6 33.6 0 0 1 -33.6 33.6c-9.296 0-17.696-3.808-23.744-9.856-4.256-4.368-4.256-11.424 0-15.792 4.368-4.368 11.424-4.368 15.792 0 2.016 2.016 4.816 3.248 7.952 3.248a11.2 11.2 0 0 0 11.2-11.2 11.2 11.2 0 0 0 -11.2-11.2z" fill="#bababa"/></svg>